G04 #@! TF.FileFunction,Copper,L1,Top,Signal*
%FSLAX46Y46*%
G04 Gerber Fmt 4.6, Leading zero omitted, Abs format (unit mm)*
G04 Created by KiCad (PCBNEW 4.0.6+dfsg1-1) date Wed Nov 29 19:22:06 2017*
%MOMM*%
%LPD*%
G01*
G04 APERTURE LIST*
%ADD10C,0.100000*%
%ADD11C,0.150000*%
%ADD12C,0.300000*%
%ADD13C,0.400000*%
%ADD14R,1.700000X1.700000*%
%ADD15O,1.700000X1.700000*%
%ADD16O,1.998980X1.998980*%
%ADD17R,1.998980X1.998980*%
%ADD18C,1.727200*%
%ADD19R,2.032000X1.727200*%
%ADD20C,1.500000*%
%ADD21R,0.760000X1.600000*%
%ADD22R,4.500000X2.000000*%
%ADD23R,1.500000X0.550000*%
%ADD24R,0.550000X1.500000*%
%ADD25R,1.500000X1.500000*%
%ADD26R,0.900000X1.700000*%
%ADD27R,1.700000X0.900000*%
%ADD28C,2.000000*%
%ADD29R,0.600000X1.550000*%
%ADD30R,1.000000X1.600000*%
%ADD31R,1.600000X1.000000*%
%ADD32R,1.600000X3.500000*%
%ADD33R,3.500000X1.600000*%
%ADD34R,1.600000X1.600000*%
%ADD35C,1.600000*%
%ADD36R,2.200000X1.200000*%
%ADD37R,6.400000X5.800000*%
%ADD38R,3.050000X2.750000*%
%ADD39R,1.597660X1.800860*%
%ADD40C,6.000000*%
%ADD41C,0.600000*%
%ADD42C,0.500000*%
%ADD43C,1.000000*%
G04 APERTURE END LIST*
D10*
D11*
X177002200Y-166007200D02*
X177002200Y-198007200D01*
X285002200Y-198007200D01*
X285002200Y-166007200D01*
X177002200Y-166007200D01*
D10*
D11*
X10000000Y-10000000D02*
X10000000Y-200007200D01*
X287002200Y-200007200D01*
X287002200Y-10000000D01*
X10000000Y-10000000D01*
D10*
D11*
X12000000Y-12000000D02*
X12000000Y-198007200D01*
X285002200Y-198007200D01*
X285002200Y-12000000D01*
X12000000Y-12000000D01*
D10*
D11*
X60000000Y-12000000D02*
X60000000Y-10000000D01*
D10*
D11*
X110000000Y-12000000D02*
X110000000Y-10000000D01*
D10*
D11*
X160000000Y-12000000D02*
X160000000Y-10000000D01*
D10*
D11*
X210000000Y-12000000D02*
X210000000Y-10000000D01*
D10*
D11*
X260000000Y-12000000D02*
X260000000Y-10000000D01*
D10*
D11*
X35990476Y-11588095D02*
X35247619Y-11588095D01*
X35619048Y-11588095D02*
X35619048Y-10288095D01*
X35495238Y-10473810D01*
X35371429Y-10597619D01*
X35247619Y-10659524D01*
D10*
D11*
X85247619Y-10411905D02*
X85309524Y-10350000D01*
X85433333Y-10288095D01*
X85742857Y-10288095D01*
X85866667Y-10350000D01*
X85928571Y-10411905D01*
X85990476Y-10535714D01*
X85990476Y-10659524D01*
X85928571Y-10845238D01*
X85185714Y-11588095D01*
X85990476Y-11588095D01*
D10*
D11*
X135185714Y-10288095D02*
X135990476Y-10288095D01*
X135557143Y-10783333D01*
X135742857Y-10783333D01*
X135866667Y-10845238D01*
X135928571Y-10907143D01*
X135990476Y-11030952D01*
X135990476Y-11340476D01*
X135928571Y-11464286D01*
X135866667Y-11526190D01*
X135742857Y-11588095D01*
X135371429Y-11588095D01*
X135247619Y-11526190D01*
X135185714Y-11464286D01*
D10*
D11*
X185866667Y-10721429D02*
X185866667Y-11588095D01*
X185557143Y-10226190D02*
X185247619Y-11154762D01*
X186052381Y-11154762D01*
D10*
D11*
X235928571Y-10288095D02*
X235309524Y-10288095D01*
X235247619Y-10907143D01*
X235309524Y-10845238D01*
X235433333Y-10783333D01*
X235742857Y-10783333D01*
X235866667Y-10845238D01*
X235928571Y-10907143D01*
X235990476Y-11030952D01*
X235990476Y-11340476D01*
X235928571Y-11464286D01*
X235866667Y-11526190D01*
X235742857Y-11588095D01*
X235433333Y-11588095D01*
X235309524Y-11526190D01*
X235247619Y-11464286D01*
D10*
D11*
X285866667Y-10288095D02*
X285619048Y-10288095D01*
X285495238Y-10350000D01*
X285433333Y-10411905D01*
X285309524Y-10597619D01*
X285247619Y-10845238D01*
X285247619Y-11340476D01*
X285309524Y-11464286D01*
X285371429Y-11526190D01*
X285495238Y-11588095D01*
X285742857Y-11588095D01*
X285866667Y-11526190D01*
X285928571Y-11464286D01*
X285990476Y-11340476D01*
X285990476Y-11030952D01*
X285928571Y-10907143D01*
X285866667Y-10845238D01*
X285742857Y-10783333D01*
X285495238Y-10783333D01*
X285371429Y-10845238D01*
X285309524Y-10907143D01*
X285247619Y-11030952D01*
D10*
D11*
X60000000Y-198007200D02*
X60000000Y-200007200D01*
D10*
D11*
X110000000Y-198007200D02*
X110000000Y-200007200D01*
D10*
D11*
X160000000Y-198007200D02*
X160000000Y-200007200D01*
D10*
D11*
X210000000Y-198007200D02*
X210000000Y-200007200D01*
D10*
D11*
X260000000Y-198007200D02*
X260000000Y-200007200D01*
D10*
D11*
X35990476Y-199595295D02*
X35247619Y-199595295D01*
X35619048Y-199595295D02*
X35619048Y-198295295D01*
X35495238Y-198481010D01*
X35371429Y-198604819D01*
X35247619Y-198666724D01*
D10*
D11*
X85247619Y-198419105D02*
X85309524Y-198357200D01*
X85433333Y-198295295D01*
X85742857Y-198295295D01*
X85866667Y-198357200D01*
X85928571Y-198419105D01*
X85990476Y-198542914D01*
X85990476Y-198666724D01*
X85928571Y-198852438D01*
X85185714Y-199595295D01*
X85990476Y-199595295D01*
D10*
D11*
X135185714Y-198295295D02*
X135990476Y-198295295D01*
X135557143Y-198790533D01*
X135742857Y-198790533D01*
X135866667Y-198852438D01*
X135928571Y-198914343D01*
X135990476Y-199038152D01*
X135990476Y-199347676D01*
X135928571Y-199471486D01*
X135866667Y-199533390D01*
X135742857Y-199595295D01*
X135371429Y-199595295D01*
X135247619Y-199533390D01*
X135185714Y-199471486D01*
D10*
D11*
X185866667Y-198728629D02*
X185866667Y-199595295D01*
X185557143Y-198233390D02*
X185247619Y-199161962D01*
X186052381Y-199161962D01*
D10*
D11*
X235928571Y-198295295D02*
X235309524Y-198295295D01*
X235247619Y-198914343D01*
X235309524Y-198852438D01*
X235433333Y-198790533D01*
X235742857Y-198790533D01*
X235866667Y-198852438D01*
X235928571Y-198914343D01*
X235990476Y-199038152D01*
X235990476Y-199347676D01*
X235928571Y-199471486D01*
X235866667Y-199533390D01*
X235742857Y-199595295D01*
X235433333Y-199595295D01*
X235309524Y-199533390D01*
X235247619Y-199471486D01*
D10*
D11*
X285866667Y-198295295D02*
X285619048Y-198295295D01*
X285495238Y-198357200D01*
X285433333Y-198419105D01*
X285309524Y-198604819D01*
X285247619Y-198852438D01*
X285247619Y-199347676D01*
X285309524Y-199471486D01*
X285371429Y-199533390D01*
X285495238Y-199595295D01*
X285742857Y-199595295D01*
X285866667Y-199533390D01*
X285928571Y-199471486D01*
X285990476Y-199347676D01*
X285990476Y-199038152D01*
X285928571Y-198914343D01*
X285866667Y-198852438D01*
X285742857Y-198790533D01*
X285495238Y-198790533D01*
X285371429Y-198852438D01*
X285309524Y-198914343D01*
X285247619Y-199038152D01*
D10*
D11*
X10000000Y-60000000D02*
X12000000Y-60000000D01*
D10*
D11*
X10000000Y-110000000D02*
X12000000Y-110000000D01*
D10*
D11*
X10000000Y-160000000D02*
X12000000Y-160000000D01*
D10*
D11*
X10690476Y-35216667D02*
X11309524Y-35216667D01*
X10566667Y-35588095D02*
X11000000Y-34288095D01*
X11433333Y-35588095D01*
D10*
D11*
X11092857Y-84907143D02*
X11278571Y-84969048D01*
X11340476Y-85030952D01*
X11402381Y-85154762D01*
X11402381Y-85340476D01*
X11340476Y-85464286D01*
X11278571Y-85526190D01*
X11154762Y-85588095D01*
X10659524Y-85588095D01*
X10659524Y-84288095D01*
X11092857Y-84288095D01*
X11216667Y-84350000D01*
X11278571Y-84411905D01*
X11340476Y-84535714D01*
X11340476Y-84659524D01*
X11278571Y-84783333D01*
X11216667Y-84845238D01*
X11092857Y-84907143D01*
X10659524Y-84907143D01*
D10*
D11*
X11402381Y-135464286D02*
X11340476Y-135526190D01*
X11154762Y-135588095D01*
X11030952Y-135588095D01*
X10845238Y-135526190D01*
X10721429Y-135402381D01*
X10659524Y-135278571D01*
X10597619Y-135030952D01*
X10597619Y-134845238D01*
X10659524Y-134597619D01*
X10721429Y-134473810D01*
X10845238Y-134350000D01*
X11030952Y-134288095D01*
X11154762Y-134288095D01*
X11340476Y-134350000D01*
X11402381Y-134411905D01*
D10*
D11*
X10659524Y-185588095D02*
X10659524Y-184288095D01*
X10969048Y-184288095D01*
X11154762Y-184350000D01*
X11278571Y-184473810D01*
X11340476Y-184597619D01*
X11402381Y-184845238D01*
X11402381Y-185030952D01*
X11340476Y-185278571D01*
X11278571Y-185402381D01*
X11154762Y-185526190D01*
X10969048Y-185588095D01*
X10659524Y-185588095D01*
D10*
D11*
X287002200Y-60000000D02*
X285002200Y-60000000D01*
D10*
D11*
X287002200Y-110000000D02*
X285002200Y-110000000D01*
D10*
D11*
X287002200Y-160000000D02*
X285002200Y-160000000D01*
D10*
D11*
X285692676Y-35216667D02*
X286311724Y-35216667D01*
X285568867Y-35588095D02*
X286002200Y-34288095D01*
X286435533Y-35588095D01*
D10*
D11*
X286095057Y-84907143D02*
X286280771Y-84969048D01*
X286342676Y-85030952D01*
X286404581Y-85154762D01*
X286404581Y-85340476D01*
X286342676Y-85464286D01*
X286280771Y-85526190D01*
X286156962Y-85588095D01*
X285661724Y-85588095D01*
X285661724Y-84288095D01*
X286095057Y-84288095D01*
X286218867Y-84350000D01*
X286280771Y-84411905D01*
X286342676Y-84535714D01*
X286342676Y-84659524D01*
X286280771Y-84783333D01*
X286218867Y-84845238D01*
X286095057Y-84907143D01*
X285661724Y-84907143D01*
D10*
D11*
X286404581Y-135464286D02*
X286342676Y-135526190D01*
X286156962Y-135588095D01*
X286033152Y-135588095D01*
X285847438Y-135526190D01*
X285723629Y-135402381D01*
X285661724Y-135278571D01*
X285599819Y-135030952D01*
X285599819Y-134845238D01*
X285661724Y-134597619D01*
X285723629Y-134473810D01*
X285847438Y-134350000D01*
X286033152Y-134288095D01*
X286156962Y-134288095D01*
X286342676Y-134350000D01*
X286404581Y-134411905D01*
D10*
D11*
X285661724Y-185588095D02*
X285661724Y-184288095D01*
X285971248Y-184288095D01*
X286156962Y-184350000D01*
X286280771Y-184473810D01*
X286342676Y-184597619D01*
X286404581Y-184845238D01*
X286404581Y-185030952D01*
X286342676Y-185278571D01*
X286280771Y-185402381D01*
X286156962Y-185526190D01*
X285971248Y-185588095D01*
X285661724Y-185588095D01*
D10*
D11*
X200359343Y-193785771D02*
X200359343Y-192285771D01*
X200716486Y-192285771D01*
X200930771Y-192357200D01*
X201073629Y-192500057D01*
X201145057Y-192642914D01*
X201216486Y-192928629D01*
X201216486Y-193142914D01*
X201145057Y-193428629D01*
X201073629Y-193571486D01*
X200930771Y-193714343D01*
X200716486Y-193785771D01*
X200359343Y-193785771D01*
X202502200Y-193785771D02*
X202502200Y-193000057D01*
X202430771Y-192857200D01*
X202287914Y-192785771D01*
X202002200Y-192785771D01*
X201859343Y-192857200D01*
X202502200Y-193714343D02*
X202359343Y-193785771D01*
X202002200Y-193785771D01*
X201859343Y-193714343D01*
X201787914Y-193571486D01*
X201787914Y-193428629D01*
X201859343Y-193285771D01*
X202002200Y-193214343D01*
X202359343Y-193214343D01*
X202502200Y-193142914D01*
X203002200Y-192785771D02*
X203573629Y-192785771D01*
X203216486Y-192285771D02*
X203216486Y-193571486D01*
X203287914Y-193714343D01*
X203430772Y-193785771D01*
X203573629Y-193785771D01*
X204645057Y-193714343D02*
X204502200Y-193785771D01*
X204216486Y-193785771D01*
X204073629Y-193714343D01*
X204002200Y-193571486D01*
X204002200Y-193000057D01*
X204073629Y-192857200D01*
X204216486Y-192785771D01*
X204502200Y-192785771D01*
X204645057Y-192857200D01*
X204716486Y-193000057D01*
X204716486Y-193142914D01*
X204002200Y-193285771D01*
X205359343Y-193642914D02*
X205430771Y-193714343D01*
X205359343Y-193785771D01*
X205287914Y-193714343D01*
X205359343Y-193642914D01*
X205359343Y-193785771D01*
X205359343Y-192857200D02*
X205430771Y-192928629D01*
X205359343Y-193000057D01*
X205287914Y-192928629D01*
X205359343Y-192857200D01*
X205359343Y-193000057D01*
X207145057Y-192428629D02*
X207216486Y-192357200D01*
X207359343Y-192285771D01*
X207716486Y-192285771D01*
X207859343Y-192357200D01*
X207930772Y-192428629D01*
X208002200Y-192571486D01*
X208002200Y-192714343D01*
X207930772Y-192928629D01*
X207073629Y-193785771D01*
X208002200Y-193785771D01*
X208930771Y-192285771D02*
X209073628Y-192285771D01*
X209216485Y-192357200D01*
X209287914Y-192428629D01*
X209359343Y-192571486D01*
X209430771Y-192857200D01*
X209430771Y-193214343D01*
X209359343Y-193500057D01*
X209287914Y-193642914D01*
X209216485Y-193714343D01*
X209073628Y-193785771D01*
X208930771Y-193785771D01*
X208787914Y-193714343D01*
X208716485Y-193642914D01*
X208645057Y-193500057D01*
X208573628Y-193214343D01*
X208573628Y-192857200D01*
X208645057Y-192571486D01*
X208716485Y-192428629D01*
X208787914Y-192357200D01*
X208930771Y-192285771D01*
X210859342Y-193785771D02*
X210002199Y-193785771D01*
X210430771Y-193785771D02*
X210430771Y-192285771D01*
X210287914Y-192500057D01*
X210145056Y-192642914D01*
X210002199Y-192714343D01*
X211359342Y-192285771D02*
X212359342Y-192285771D01*
X211716485Y-193785771D01*
X212930770Y-193214343D02*
X214073627Y-193214343D01*
X215073627Y-192285771D02*
X215216484Y-192285771D01*
X215359341Y-192357200D01*
X215430770Y-192428629D01*
X215502199Y-192571486D01*
X215573627Y-192857200D01*
X215573627Y-193214343D01*
X215502199Y-193500057D01*
X215430770Y-193642914D01*
X215359341Y-193714343D01*
X215216484Y-193785771D01*
X215073627Y-193785771D01*
X214930770Y-193714343D01*
X214859341Y-193642914D01*
X214787913Y-193500057D01*
X214716484Y-193214343D01*
X214716484Y-192857200D01*
X214787913Y-192571486D01*
X214859341Y-192428629D01*
X214930770Y-192357200D01*
X215073627Y-192285771D01*
X216073627Y-192285771D02*
X217073627Y-192285771D01*
X216430770Y-193785771D01*
X217645055Y-193214343D02*
X218787912Y-193214343D01*
X219787912Y-192285771D02*
X219930769Y-192285771D01*
X220073626Y-192357200D01*
X220145055Y-192428629D01*
X220216484Y-192571486D01*
X220287912Y-192857200D01*
X220287912Y-193214343D01*
X220216484Y-193500057D01*
X220145055Y-193642914D01*
X220073626Y-193714343D01*
X219930769Y-193785771D01*
X219787912Y-193785771D01*
X219645055Y-193714343D01*
X219573626Y-193642914D01*
X219502198Y-193500057D01*
X219430769Y-193214343D01*
X219430769Y-192857200D01*
X219502198Y-192571486D01*
X219573626Y-192428629D01*
X219645055Y-192357200D01*
X219787912Y-192285771D01*
X221716483Y-193785771D02*
X220859340Y-193785771D01*
X221287912Y-193785771D02*
X221287912Y-192285771D01*
X221145055Y-192500057D01*
X221002197Y-192642914D01*
X220859340Y-192714343D01*
D10*
D11*
X177002200Y-194507200D02*
X285002200Y-194507200D01*
D10*
D11*
X178359343Y-196585771D02*
X178359343Y-195085771D01*
X179216486Y-196585771D02*
X178573629Y-195728629D01*
X179216486Y-195085771D02*
X178359343Y-195942914D01*
X179859343Y-196585771D02*
X179859343Y-195585771D01*
X179859343Y-195085771D02*
X179787914Y-195157200D01*
X179859343Y-195228629D01*
X179930771Y-195157200D01*
X179859343Y-195085771D01*
X179859343Y-195228629D01*
X181430772Y-196442914D02*
X181359343Y-196514343D01*
X181145057Y-196585771D01*
X181002200Y-196585771D01*
X180787915Y-196514343D01*
X180645057Y-196371486D01*
X180573629Y-196228629D01*
X180502200Y-195942914D01*
X180502200Y-195728629D01*
X180573629Y-195442914D01*
X180645057Y-195300057D01*
X180787915Y-195157200D01*
X181002200Y-195085771D01*
X181145057Y-195085771D01*
X181359343Y-195157200D01*
X181430772Y-195228629D01*
X182716486Y-196585771D02*
X182716486Y-195800057D01*
X182645057Y-195657200D01*
X182502200Y-195585771D01*
X182216486Y-195585771D01*
X182073629Y-195657200D01*
X182716486Y-196514343D02*
X182573629Y-196585771D01*
X182216486Y-196585771D01*
X182073629Y-196514343D01*
X182002200Y-196371486D01*
X182002200Y-196228629D01*
X182073629Y-196085771D01*
X182216486Y-196014343D01*
X182573629Y-196014343D01*
X182716486Y-195942914D01*
X184073629Y-196585771D02*
X184073629Y-195085771D01*
X184073629Y-196514343D02*
X183930772Y-196585771D01*
X183645058Y-196585771D01*
X183502200Y-196514343D01*
X183430772Y-196442914D01*
X183359343Y-196300057D01*
X183359343Y-195871486D01*
X183430772Y-195728629D01*
X183502200Y-195657200D01*
X183645058Y-195585771D01*
X183930772Y-195585771D01*
X184073629Y-195657200D01*
X185930772Y-195800057D02*
X186430772Y-195800057D01*
X186645058Y-196585771D02*
X185930772Y-196585771D01*
X185930772Y-195085771D01*
X186645058Y-195085771D01*
X187287915Y-196442914D02*
X187359343Y-196514343D01*
X187287915Y-196585771D01*
X187216486Y-196514343D01*
X187287915Y-196442914D01*
X187287915Y-196585771D01*
X188002201Y-196585771D02*
X188002201Y-195085771D01*
X188359344Y-195085771D01*
X188573629Y-195157200D01*
X188716487Y-195300057D01*
X188787915Y-195442914D01*
X188859344Y-195728629D01*
X188859344Y-195942914D01*
X188787915Y-196228629D01*
X188716487Y-196371486D01*
X188573629Y-196514343D01*
X188359344Y-196585771D01*
X188002201Y-196585771D01*
X189502201Y-196442914D02*
X189573629Y-196514343D01*
X189502201Y-196585771D01*
X189430772Y-196514343D01*
X189502201Y-196442914D01*
X189502201Y-196585771D01*
X190145058Y-196157200D02*
X190859344Y-196157200D01*
X190002201Y-196585771D02*
X190502201Y-195085771D01*
X191002201Y-196585771D01*
X191502201Y-196442914D02*
X191573629Y-196514343D01*
X191502201Y-196585771D01*
X191430772Y-196514343D01*
X191502201Y-196442914D01*
X191502201Y-196585771D01*
X194502201Y-196585771D02*
X194502201Y-195085771D01*
X194645058Y-196014343D02*
X195073629Y-196585771D01*
X195073629Y-195585771D02*
X194502201Y-196157200D01*
X195716487Y-196585771D02*
X195716487Y-195585771D01*
X195716487Y-195085771D02*
X195645058Y-195157200D01*
X195716487Y-195228629D01*
X195787915Y-195157200D01*
X195716487Y-195085771D01*
X195716487Y-195228629D01*
X197073630Y-196514343D02*
X196930773Y-196585771D01*
X196645059Y-196585771D01*
X196502201Y-196514343D01*
X196430773Y-196442914D01*
X196359344Y-196300057D01*
X196359344Y-195871486D01*
X196430773Y-195728629D01*
X196502201Y-195657200D01*
X196645059Y-195585771D01*
X196930773Y-195585771D01*
X197073630Y-195657200D01*
X198359344Y-196585771D02*
X198359344Y-195800057D01*
X198287915Y-195657200D01*
X198145058Y-195585771D01*
X197859344Y-195585771D01*
X197716487Y-195657200D01*
X198359344Y-196514343D02*
X198216487Y-196585771D01*
X197859344Y-196585771D01*
X197716487Y-196514343D01*
X197645058Y-196371486D01*
X197645058Y-196228629D01*
X197716487Y-196085771D01*
X197859344Y-196014343D01*
X198216487Y-196014343D01*
X198359344Y-195942914D01*
X199716487Y-196585771D02*
X199716487Y-195085771D01*
X199716487Y-196514343D02*
X199573630Y-196585771D01*
X199287916Y-196585771D01*
X199145058Y-196514343D01*
X199073630Y-196442914D01*
X199002201Y-196300057D01*
X199002201Y-195871486D01*
X199073630Y-195728629D01*
X199145058Y-195657200D01*
X199287916Y-195585771D01*
X199573630Y-195585771D01*
X199716487Y-195657200D01*
X202216487Y-195585771D02*
X202216487Y-196585771D01*
X201859344Y-195014343D02*
X201502201Y-196085771D01*
X202430773Y-196085771D01*
X203002201Y-196442914D02*
X203073629Y-196514343D01*
X203002201Y-196585771D01*
X202930772Y-196514343D01*
X203002201Y-196442914D01*
X203002201Y-196585771D01*
X204002201Y-195085771D02*
X204145058Y-195085771D01*
X204287915Y-195157200D01*
X204359344Y-195228629D01*
X204430773Y-195371486D01*
X204502201Y-195657200D01*
X204502201Y-196014343D01*
X204430773Y-196300057D01*
X204359344Y-196442914D01*
X204287915Y-196514343D01*
X204145058Y-196585771D01*
X204002201Y-196585771D01*
X203859344Y-196514343D01*
X203787915Y-196442914D01*
X203716487Y-196300057D01*
X203645058Y-196014343D01*
X203645058Y-195657200D01*
X203716487Y-195371486D01*
X203787915Y-195228629D01*
X203859344Y-195157200D01*
X204002201Y-195085771D01*
X205145058Y-196442914D02*
X205216486Y-196514343D01*
X205145058Y-196585771D01*
X205073629Y-196514343D01*
X205145058Y-196442914D01*
X205145058Y-196585771D01*
X206502201Y-195085771D02*
X206216487Y-195085771D01*
X206073630Y-195157200D01*
X206002201Y-195228629D01*
X205859344Y-195442914D01*
X205787915Y-195728629D01*
X205787915Y-196300057D01*
X205859344Y-196442914D01*
X205930772Y-196514343D01*
X206073630Y-196585771D01*
X206359344Y-196585771D01*
X206502201Y-196514343D01*
X206573630Y-196442914D01*
X206645058Y-196300057D01*
X206645058Y-195942914D01*
X206573630Y-195800057D01*
X206502201Y-195728629D01*
X206359344Y-195657200D01*
X206073630Y-195657200D01*
X205930772Y-195728629D01*
X205859344Y-195800057D01*
X205787915Y-195942914D01*
X207287915Y-196014343D02*
X208430772Y-196014343D01*
X207859343Y-196585771D02*
X207859343Y-195442914D01*
X209787915Y-196585771D02*
X209787915Y-195085771D01*
X209787915Y-196514343D02*
X209645058Y-196585771D01*
X209359344Y-196585771D01*
X209216486Y-196514343D01*
X209145058Y-196442914D01*
X209073629Y-196300057D01*
X209073629Y-195871486D01*
X209145058Y-195728629D01*
X209216486Y-195657200D01*
X209359344Y-195585771D01*
X209645058Y-195585771D01*
X209787915Y-195657200D01*
X210287915Y-195585771D02*
X210859344Y-195585771D01*
X210502201Y-196585771D02*
X210502201Y-195300057D01*
X210573629Y-195157200D01*
X210716487Y-195085771D01*
X210859344Y-195085771D01*
X211287915Y-196514343D02*
X211430772Y-196585771D01*
X211716487Y-196585771D01*
X211859344Y-196514343D01*
X211930772Y-196371486D01*
X211930772Y-196300057D01*
X211859344Y-196157200D01*
X211716487Y-196085771D01*
X211502201Y-196085771D01*
X211359344Y-196014343D01*
X211287915Y-195871486D01*
X211287915Y-195800057D01*
X211359344Y-195657200D01*
X211502201Y-195585771D01*
X211716487Y-195585771D01*
X211859344Y-195657200D01*
X213216487Y-195585771D02*
X213216487Y-196800057D01*
X213145058Y-196942914D01*
X213073630Y-197014343D01*
X212930773Y-197085771D01*
X212716487Y-197085771D01*
X212573630Y-197014343D01*
X213216487Y-196514343D02*
X213073630Y-196585771D01*
X212787916Y-196585771D01*
X212645058Y-196514343D01*
X212573630Y-196442914D01*
X212502201Y-196300057D01*
X212502201Y-195871486D01*
X212573630Y-195728629D01*
X212645058Y-195657200D01*
X212787916Y-195585771D01*
X213073630Y-195585771D01*
X213216487Y-195657200D01*
X214716487Y-196585771D02*
X213859344Y-196585771D01*
X214287916Y-196585771D02*
X214287916Y-195085771D01*
X214145059Y-195300057D01*
X214002201Y-195442914D01*
X213859344Y-195514343D01*
X215359344Y-196014343D02*
X216502201Y-196014343D01*
X218002201Y-196585771D02*
X217145058Y-196585771D01*
X217573630Y-196585771D02*
X217573630Y-195085771D01*
X217430773Y-195300057D01*
X217287915Y-195442914D01*
X217145058Y-195514343D01*
D10*
D11*
X177002200Y-191507200D02*
X285002200Y-191507200D01*
D10*
D12*
X264216486Y-193785771D02*
X263716486Y-193071486D01*
X263359343Y-193785771D02*
X263359343Y-192285771D01*
X263930771Y-192285771D01*
X264073629Y-192357200D01*
X264145057Y-192428629D01*
X264216486Y-192571486D01*
X264216486Y-192785771D01*
X264145057Y-192928629D01*
X264073629Y-193000057D01*
X263930771Y-193071486D01*
X263359343Y-193071486D01*
X265430771Y-193714343D02*
X265287914Y-193785771D01*
X265002200Y-193785771D01*
X264859343Y-193714343D01*
X264787914Y-193571486D01*
X264787914Y-193000057D01*
X264859343Y-192857200D01*
X265002200Y-192785771D01*
X265287914Y-192785771D01*
X265430771Y-192857200D01*
X265502200Y-193000057D01*
X265502200Y-193142914D01*
X264787914Y-193285771D01*
X266002200Y-192785771D02*
X266359343Y-193785771D01*
X266716485Y-192785771D01*
X267287914Y-193642914D02*
X267359342Y-193714343D01*
X267287914Y-193785771D01*
X267216485Y-193714343D01*
X267287914Y-193642914D01*
X267287914Y-193785771D01*
X267287914Y-192857200D02*
X267359342Y-192928629D01*
X267287914Y-193000057D01*
X267216485Y-192928629D01*
X267287914Y-192857200D01*
X267287914Y-193000057D01*
X269430771Y-192285771D02*
X269573628Y-192285771D01*
X269716485Y-192357200D01*
X269787914Y-192428629D01*
X269859343Y-192571486D01*
X269930771Y-192857200D01*
X269930771Y-193214343D01*
X269859343Y-193500057D01*
X269787914Y-193642914D01*
X269716485Y-193714343D01*
X269573628Y-193785771D01*
X269430771Y-193785771D01*
X269287914Y-193714343D01*
X269216485Y-193642914D01*
X269145057Y-193500057D01*
X269073628Y-193214343D01*
X269073628Y-192857200D01*
X269145057Y-192571486D01*
X269216485Y-192428629D01*
X269287914Y-192357200D01*
X269430771Y-192285771D01*
X270573628Y-193642914D02*
X270645056Y-193714343D01*
X270573628Y-193785771D01*
X270502199Y-193714343D01*
X270573628Y-193642914D01*
X270573628Y-193785771D01*
X272073628Y-193785771D02*
X271216485Y-193785771D01*
X271645057Y-193785771D02*
X271645057Y-192285771D01*
X271502200Y-192500057D01*
X271359342Y-192642914D01*
X271216485Y-192714343D01*
D10*
D11*
X178287914Y-193714343D02*
X178502200Y-193785771D01*
X178859343Y-193785771D01*
X179002200Y-193714343D01*
X179073629Y-193642914D01*
X179145057Y-193500057D01*
X179145057Y-193357200D01*
X179073629Y-193214343D01*
X179002200Y-193142914D01*
X178859343Y-193071486D01*
X178573629Y-193000057D01*
X178430771Y-192928629D01*
X178359343Y-192857200D01*
X178287914Y-192714343D01*
X178287914Y-192571486D01*
X178359343Y-192428629D01*
X178430771Y-192357200D01*
X178573629Y-192285771D01*
X178930771Y-192285771D01*
X179145057Y-192357200D01*
X179787914Y-193785771D02*
X179787914Y-192785771D01*
X179787914Y-192285771D02*
X179716485Y-192357200D01*
X179787914Y-192428629D01*
X179859342Y-192357200D01*
X179787914Y-192285771D01*
X179787914Y-192428629D01*
X180359343Y-192785771D02*
X181145057Y-192785771D01*
X180359343Y-193785771D01*
X181145057Y-193785771D01*
X182287914Y-193714343D02*
X182145057Y-193785771D01*
X181859343Y-193785771D01*
X181716486Y-193714343D01*
X181645057Y-193571486D01*
X181645057Y-193000057D01*
X181716486Y-192857200D01*
X181859343Y-192785771D01*
X182145057Y-192785771D01*
X182287914Y-192857200D01*
X182359343Y-193000057D01*
X182359343Y-193142914D01*
X181645057Y-193285771D01*
X183002200Y-193642914D02*
X183073628Y-193714343D01*
X183002200Y-193785771D01*
X182930771Y-193714343D01*
X183002200Y-193642914D01*
X183002200Y-193785771D01*
X183002200Y-192857200D02*
X183073628Y-192928629D01*
X183002200Y-193000057D01*
X182930771Y-192928629D01*
X183002200Y-192857200D01*
X183002200Y-193000057D01*
X184787914Y-193357200D02*
X185502200Y-193357200D01*
X184645057Y-193785771D02*
X185145057Y-192285771D01*
X185645057Y-193785771D01*
X186787914Y-192785771D02*
X186787914Y-193785771D01*
X186430771Y-192214343D02*
X186073628Y-193285771D01*
X187002200Y-193285771D01*
D10*
D11*
X263359343Y-196585771D02*
X263359343Y-195085771D01*
X264716486Y-196585771D02*
X264716486Y-195085771D01*
X264716486Y-196514343D02*
X264573629Y-196585771D01*
X264287915Y-196585771D01*
X264145057Y-196514343D01*
X264073629Y-196442914D01*
X264002200Y-196300057D01*
X264002200Y-195871486D01*
X264073629Y-195728629D01*
X264145057Y-195657200D01*
X264287915Y-195585771D01*
X264573629Y-195585771D01*
X264716486Y-195657200D01*
X265430772Y-196442914D02*
X265502200Y-196514343D01*
X265430772Y-196585771D01*
X265359343Y-196514343D01*
X265430772Y-196442914D01*
X265430772Y-196585771D01*
X265430772Y-195657200D02*
X265502200Y-195728629D01*
X265430772Y-195800057D01*
X265359343Y-195728629D01*
X265430772Y-195657200D01*
X265430772Y-195800057D01*
X268073629Y-196585771D02*
X267216486Y-196585771D01*
X267645058Y-196585771D02*
X267645058Y-195085771D01*
X267502201Y-195300057D01*
X267359343Y-195442914D01*
X267216486Y-195514343D01*
X269787914Y-195014343D02*
X268502200Y-196942914D01*
X271073629Y-196585771D02*
X270216486Y-196585771D01*
X270645058Y-196585771D02*
X270645058Y-195085771D01*
X270502201Y-195300057D01*
X270359343Y-195442914D01*
X270216486Y-195514343D01*
D10*
D11*
X177002200Y-187507200D02*
X285002200Y-187507200D01*
D10*
D13*
X178454581Y-188211962D02*
X179597438Y-188211962D01*
X178776010Y-190211962D02*
X179026010Y-188211962D01*
X180014105Y-190211962D02*
X180180771Y-188878629D01*
X180264105Y-188211962D02*
X180156962Y-188307200D01*
X180240295Y-188402438D01*
X180347439Y-188307200D01*
X180264105Y-188211962D01*
X180240295Y-188402438D01*
X180847438Y-188878629D02*
X181609343Y-188878629D01*
X181216486Y-188211962D02*
X181002200Y-189926248D01*
X181073630Y-190116724D01*
X181252201Y-190211962D01*
X181442677Y-190211962D01*
X182395058Y-190211962D02*
X182216487Y-190116724D01*
X182145057Y-189926248D01*
X182359343Y-188211962D01*
X183930772Y-190116724D02*
X183728391Y-190211962D01*
X183347439Y-190211962D01*
X183168867Y-190116724D01*
X183097438Y-189926248D01*
X183192676Y-189164343D01*
X183311724Y-188973867D01*
X183514105Y-188878629D01*
X183895057Y-188878629D01*
X184073629Y-188973867D01*
X184145057Y-189164343D01*
X184121248Y-189354819D01*
X183145057Y-189545295D01*
X184895057Y-190021486D02*
X184978392Y-190116724D01*
X184871248Y-190211962D01*
X184787915Y-190116724D01*
X184895057Y-190021486D01*
X184871248Y-190211962D01*
X185026010Y-188973867D02*
X185109344Y-189069105D01*
X185002200Y-189164343D01*
X184918867Y-189069105D01*
X185026010Y-188973867D01*
X185002200Y-189164343D01*
X187347439Y-190211962D02*
X187597439Y-188211962D01*
X188085534Y-189640533D01*
X188930773Y-188211962D01*
X188680773Y-190211962D01*
X190490296Y-190211962D02*
X190621248Y-189164343D01*
X190549820Y-188973867D01*
X190371248Y-188878629D01*
X189990296Y-188878629D01*
X189787915Y-188973867D01*
X190502201Y-190116724D02*
X190299820Y-190211962D01*
X189823630Y-190211962D01*
X189645058Y-190116724D01*
X189573629Y-189926248D01*
X189597439Y-189735771D01*
X189716486Y-189545295D01*
X189918868Y-189450057D01*
X190395058Y-189450057D01*
X190597439Y-189354819D01*
X191442677Y-190211962D02*
X191609343Y-188878629D01*
X191692677Y-188211962D02*
X191585534Y-188307200D01*
X191668867Y-188402438D01*
X191776011Y-188307200D01*
X191692677Y-188211962D01*
X191668867Y-188402438D01*
X192561724Y-188878629D02*
X192395058Y-190211962D01*
X192537915Y-189069105D02*
X192645059Y-188973867D01*
X192847439Y-188878629D01*
X193133153Y-188878629D01*
X193311725Y-188973867D01*
X193383153Y-189164343D01*
X193252201Y-190211962D01*
X196526011Y-189164343D02*
X196799820Y-189259581D01*
X196883155Y-189354819D01*
X196954583Y-189545295D01*
X196918869Y-189831010D01*
X196799821Y-190021486D01*
X196692678Y-190116724D01*
X196490297Y-190211962D01*
X195728392Y-190211962D01*
X195978392Y-188211962D01*
X196645059Y-188211962D01*
X196823630Y-188307200D01*
X196906963Y-188402438D01*
X196978393Y-188592914D01*
X196954583Y-188783390D01*
X196835535Y-188973867D01*
X196728392Y-189069105D01*
X196526011Y-189164343D01*
X195859344Y-189164343D01*
X198014107Y-190211962D02*
X197835536Y-190116724D01*
X197752201Y-190021486D01*
X197680773Y-189831010D01*
X197752201Y-189259581D01*
X197871249Y-189069105D01*
X197978393Y-188973867D01*
X198180773Y-188878629D01*
X198466487Y-188878629D01*
X198645059Y-188973867D01*
X198728392Y-189069105D01*
X198799820Y-189259581D01*
X198728392Y-189831010D01*
X198609344Y-190021486D01*
X198502202Y-190116724D01*
X198299821Y-190211962D01*
X198014107Y-190211962D01*
X200395059Y-190211962D02*
X200526011Y-189164343D01*
X200454583Y-188973867D01*
X200276011Y-188878629D01*
X199895059Y-188878629D01*
X199692678Y-188973867D01*
X200406964Y-190116724D02*
X200204583Y-190211962D01*
X199728393Y-190211962D01*
X199549821Y-190116724D01*
X199478392Y-189926248D01*
X199502202Y-189735771D01*
X199621249Y-189545295D01*
X199823631Y-189450057D01*
X200299821Y-189450057D01*
X200502202Y-189354819D01*
X201347440Y-190211962D02*
X201514106Y-188878629D01*
X201466487Y-189259581D02*
X201585536Y-189069105D01*
X201692679Y-188973867D01*
X201895059Y-188878629D01*
X202085535Y-188878629D01*
X203442678Y-190211962D02*
X203692678Y-188211962D01*
X203454583Y-190116724D02*
X203252202Y-190211962D01*
X202871250Y-190211962D01*
X202692679Y-190116724D01*
X202609344Y-190021486D01*
X202537916Y-189831010D01*
X202609344Y-189259581D01*
X202728392Y-189069105D01*
X202835536Y-188973867D01*
X203037916Y-188878629D01*
X203418868Y-188878629D01*
X203597440Y-188973867D01*
D10*
D11*
X178859343Y-185600057D02*
X178359343Y-185600057D01*
X178359343Y-186385771D02*
X178359343Y-184885771D01*
X179073629Y-184885771D01*
X179645057Y-186385771D02*
X179645057Y-185385771D01*
X179645057Y-184885771D02*
X179573628Y-184957200D01*
X179645057Y-185028629D01*
X179716485Y-184957200D01*
X179645057Y-184885771D01*
X179645057Y-185028629D01*
X180573629Y-186385771D02*
X180430771Y-186314343D01*
X180359343Y-186171486D01*
X180359343Y-184885771D01*
X181716485Y-186314343D02*
X181573628Y-186385771D01*
X181287914Y-186385771D01*
X181145057Y-186314343D01*
X181073628Y-186171486D01*
X181073628Y-185600057D01*
X181145057Y-185457200D01*
X181287914Y-185385771D01*
X181573628Y-185385771D01*
X181716485Y-185457200D01*
X181787914Y-185600057D01*
X181787914Y-185742914D01*
X181073628Y-185885771D01*
X182430771Y-186242914D02*
X182502199Y-186314343D01*
X182430771Y-186385771D01*
X182359342Y-186314343D01*
X182430771Y-186242914D01*
X182430771Y-186385771D01*
X182430771Y-185457200D02*
X182502199Y-185528629D01*
X182430771Y-185600057D01*
X182359342Y-185528629D01*
X182430771Y-185457200D01*
X182430771Y-185600057D01*
X184287914Y-186385771D02*
X184287914Y-185385771D01*
X184287914Y-185528629D02*
X184359342Y-185457200D01*
X184502200Y-185385771D01*
X184716485Y-185385771D01*
X184859342Y-185457200D01*
X184930771Y-185600057D01*
X184930771Y-186385771D01*
X184930771Y-185600057D02*
X185002200Y-185457200D01*
X185145057Y-185385771D01*
X185359342Y-185385771D01*
X185502200Y-185457200D01*
X185573628Y-185600057D01*
X185573628Y-186385771D01*
X186930771Y-186385771D02*
X186930771Y-185600057D01*
X186859342Y-185457200D01*
X186716485Y-185385771D01*
X186430771Y-185385771D01*
X186287914Y-185457200D01*
X186930771Y-186314343D02*
X186787914Y-186385771D01*
X186430771Y-186385771D01*
X186287914Y-186314343D01*
X186216485Y-186171486D01*
X186216485Y-186028629D01*
X186287914Y-185885771D01*
X186430771Y-185814343D01*
X186787914Y-185814343D01*
X186930771Y-185742914D01*
X187645057Y-186385771D02*
X187645057Y-185385771D01*
X187645057Y-184885771D02*
X187573628Y-184957200D01*
X187645057Y-185028629D01*
X187716485Y-184957200D01*
X187645057Y-184885771D01*
X187645057Y-185028629D01*
X188359343Y-185385771D02*
X188359343Y-186385771D01*
X188359343Y-185528629D02*
X188430771Y-185457200D01*
X188573629Y-185385771D01*
X188787914Y-185385771D01*
X188930771Y-185457200D01*
X189002200Y-185600057D01*
X189002200Y-186385771D01*
X189716486Y-186385771D02*
X189716486Y-184885771D01*
X189716486Y-185457200D02*
X189859343Y-185385771D01*
X190145057Y-185385771D01*
X190287914Y-185457200D01*
X190359343Y-185528629D01*
X190430772Y-185671486D01*
X190430772Y-186100057D01*
X190359343Y-186242914D01*
X190287914Y-186314343D01*
X190145057Y-186385771D01*
X189859343Y-186385771D01*
X189716486Y-186314343D01*
X191287915Y-186385771D02*
X191145057Y-186314343D01*
X191073629Y-186242914D01*
X191002200Y-186100057D01*
X191002200Y-185671486D01*
X191073629Y-185528629D01*
X191145057Y-185457200D01*
X191287915Y-185385771D01*
X191502200Y-185385771D01*
X191645057Y-185457200D01*
X191716486Y-185528629D01*
X191787915Y-185671486D01*
X191787915Y-186100057D01*
X191716486Y-186242914D01*
X191645057Y-186314343D01*
X191502200Y-186385771D01*
X191287915Y-186385771D01*
X193073629Y-186385771D02*
X193073629Y-185600057D01*
X193002200Y-185457200D01*
X192859343Y-185385771D01*
X192573629Y-185385771D01*
X192430772Y-185457200D01*
X193073629Y-186314343D02*
X192930772Y-186385771D01*
X192573629Y-186385771D01*
X192430772Y-186314343D01*
X192359343Y-186171486D01*
X192359343Y-186028629D01*
X192430772Y-185885771D01*
X192573629Y-185814343D01*
X192930772Y-185814343D01*
X193073629Y-185742914D01*
X193787915Y-186385771D02*
X193787915Y-185385771D01*
X193787915Y-185671486D02*
X193859343Y-185528629D01*
X193930772Y-185457200D01*
X194073629Y-185385771D01*
X194216486Y-185385771D01*
X195359343Y-186385771D02*
X195359343Y-184885771D01*
X195359343Y-186314343D02*
X195216486Y-186385771D01*
X194930772Y-186385771D01*
X194787914Y-186314343D01*
X194716486Y-186242914D01*
X194645057Y-186100057D01*
X194645057Y-185671486D01*
X194716486Y-185528629D01*
X194787914Y-185457200D01*
X194930772Y-185385771D01*
X195216486Y-185385771D01*
X195359343Y-185457200D01*
X196073629Y-186242914D02*
X196145057Y-186314343D01*
X196073629Y-186385771D01*
X196002200Y-186314343D01*
X196073629Y-186242914D01*
X196073629Y-186385771D01*
X196787915Y-186385771D02*
X196787915Y-184885771D01*
X196930772Y-185814343D02*
X197359343Y-186385771D01*
X197359343Y-185385771D02*
X196787915Y-185957200D01*
X198002201Y-186385771D02*
X198002201Y-185385771D01*
X198002201Y-184885771D02*
X197930772Y-184957200D01*
X198002201Y-185028629D01*
X198073629Y-184957200D01*
X198002201Y-184885771D01*
X198002201Y-185028629D01*
X199359344Y-186314343D02*
X199216487Y-186385771D01*
X198930773Y-186385771D01*
X198787915Y-186314343D01*
X198716487Y-186242914D01*
X198645058Y-186100057D01*
X198645058Y-185671486D01*
X198716487Y-185528629D01*
X198787915Y-185457200D01*
X198930773Y-185385771D01*
X199216487Y-185385771D01*
X199359344Y-185457200D01*
X200645058Y-186385771D02*
X200645058Y-185600057D01*
X200573629Y-185457200D01*
X200430772Y-185385771D01*
X200145058Y-185385771D01*
X200002201Y-185457200D01*
X200645058Y-186314343D02*
X200502201Y-186385771D01*
X200145058Y-186385771D01*
X200002201Y-186314343D01*
X199930772Y-186171486D01*
X199930772Y-186028629D01*
X200002201Y-185885771D01*
X200145058Y-185814343D01*
X200502201Y-185814343D01*
X200645058Y-185742914D01*
X202002201Y-186385771D02*
X202002201Y-184885771D01*
X202002201Y-186314343D02*
X201859344Y-186385771D01*
X201573630Y-186385771D01*
X201430772Y-186314343D01*
X201359344Y-186242914D01*
X201287915Y-186100057D01*
X201287915Y-185671486D01*
X201359344Y-185528629D01*
X201430772Y-185457200D01*
X201573630Y-185385771D01*
X201859344Y-185385771D01*
X202002201Y-185457200D01*
X202359344Y-186528629D02*
X203502201Y-186528629D01*
X203859344Y-185385771D02*
X203859344Y-186885771D01*
X203859344Y-185457200D02*
X204002201Y-185385771D01*
X204287915Y-185385771D01*
X204430772Y-185457200D01*
X204502201Y-185528629D01*
X204573630Y-185671486D01*
X204573630Y-186100057D01*
X204502201Y-186242914D01*
X204430772Y-186314343D01*
X204287915Y-186385771D01*
X204002201Y-186385771D01*
X203859344Y-186314343D01*
X205859344Y-186314343D02*
X205716487Y-186385771D01*
X205430773Y-186385771D01*
X205287915Y-186314343D01*
X205216487Y-186242914D01*
X205145058Y-186100057D01*
X205145058Y-185671486D01*
X205216487Y-185528629D01*
X205287915Y-185457200D01*
X205430773Y-185385771D01*
X205716487Y-185385771D01*
X205859344Y-185457200D01*
X206502201Y-186385771D02*
X206502201Y-184885771D01*
X206502201Y-185457200D02*
X206645058Y-185385771D01*
X206930772Y-185385771D01*
X207073629Y-185457200D01*
X207145058Y-185528629D01*
X207216487Y-185671486D01*
X207216487Y-186100057D01*
X207145058Y-186242914D01*
X207073629Y-186314343D01*
X206930772Y-186385771D01*
X206645058Y-186385771D01*
X206502201Y-186314343D01*
D10*
D11*
X177002200Y-181507200D02*
X285002200Y-181507200D01*
D10*
D11*
X178287914Y-183614343D02*
X178502200Y-183685771D01*
X178859343Y-183685771D01*
X179002200Y-183614343D01*
X179073629Y-183542914D01*
X179145057Y-183400057D01*
X179145057Y-183257200D01*
X179073629Y-183114343D01*
X179002200Y-183042914D01*
X178859343Y-182971486D01*
X178573629Y-182900057D01*
X178430771Y-182828629D01*
X178359343Y-182757200D01*
X178287914Y-182614343D01*
X178287914Y-182471486D01*
X178359343Y-182328629D01*
X178430771Y-182257200D01*
X178573629Y-182185771D01*
X178930771Y-182185771D01*
X179145057Y-182257200D01*
X179787914Y-183685771D02*
X179787914Y-182185771D01*
X180430771Y-183685771D02*
X180430771Y-182900057D01*
X180359342Y-182757200D01*
X180216485Y-182685771D01*
X180002200Y-182685771D01*
X179859342Y-182757200D01*
X179787914Y-182828629D01*
X181716485Y-183614343D02*
X181573628Y-183685771D01*
X181287914Y-183685771D01*
X181145057Y-183614343D01*
X181073628Y-183471486D01*
X181073628Y-182900057D01*
X181145057Y-182757200D01*
X181287914Y-182685771D01*
X181573628Y-182685771D01*
X181716485Y-182757200D01*
X181787914Y-182900057D01*
X181787914Y-183042914D01*
X181073628Y-183185771D01*
X183002199Y-183614343D02*
X182859342Y-183685771D01*
X182573628Y-183685771D01*
X182430771Y-183614343D01*
X182359342Y-183471486D01*
X182359342Y-182900057D01*
X182430771Y-182757200D01*
X182573628Y-182685771D01*
X182859342Y-182685771D01*
X183002199Y-182757200D01*
X183073628Y-182900057D01*
X183073628Y-183042914D01*
X182359342Y-183185771D01*
X183502199Y-182685771D02*
X184073628Y-182685771D01*
X183716485Y-182185771D02*
X183716485Y-183471486D01*
X183787913Y-183614343D01*
X183930771Y-183685771D01*
X184073628Y-183685771D01*
X184573628Y-183542914D02*
X184645056Y-183614343D01*
X184573628Y-183685771D01*
X184502199Y-183614343D01*
X184573628Y-183542914D01*
X184573628Y-183685771D01*
X184573628Y-182757200D02*
X184645056Y-182828629D01*
X184573628Y-182900057D01*
X184502199Y-182828629D01*
X184573628Y-182757200D01*
X184573628Y-182900057D01*
D10*
D12*
X178359343Y-179900057D02*
X178859343Y-179900057D01*
X179073629Y-180685771D02*
X178359343Y-180685771D01*
X178359343Y-179185771D01*
X179073629Y-179185771D01*
X179930772Y-180685771D02*
X179787914Y-180614343D01*
X179716486Y-180471486D01*
X179716486Y-179185771D01*
X181073628Y-180614343D02*
X180930771Y-180685771D01*
X180645057Y-180685771D01*
X180502200Y-180614343D01*
X180430771Y-180471486D01*
X180430771Y-179900057D01*
X180502200Y-179757200D01*
X180645057Y-179685771D01*
X180930771Y-179685771D01*
X181073628Y-179757200D01*
X181145057Y-179900057D01*
X181145057Y-180042914D01*
X180430771Y-180185771D01*
X182430771Y-180614343D02*
X182287914Y-180685771D01*
X182002200Y-180685771D01*
X181859342Y-180614343D01*
X181787914Y-180542914D01*
X181716485Y-180400057D01*
X181716485Y-179971486D01*
X181787914Y-179828629D01*
X181859342Y-179757200D01*
X182002200Y-179685771D01*
X182287914Y-179685771D01*
X182430771Y-179757200D01*
X182859342Y-179685771D02*
X183430771Y-179685771D01*
X183073628Y-179185771D02*
X183073628Y-180471486D01*
X183145056Y-180614343D01*
X183287914Y-180685771D01*
X183430771Y-180685771D01*
X183930771Y-180685771D02*
X183930771Y-179685771D01*
X183930771Y-179971486D02*
X184002199Y-179828629D01*
X184073628Y-179757200D01*
X184216485Y-179685771D01*
X184359342Y-179685771D01*
X185073628Y-180685771D02*
X184930770Y-180614343D01*
X184859342Y-180542914D01*
X184787913Y-180400057D01*
X184787913Y-179971486D01*
X184859342Y-179828629D01*
X184930770Y-179757200D01*
X185073628Y-179685771D01*
X185287913Y-179685771D01*
X185430770Y-179757200D01*
X185502199Y-179828629D01*
X185573628Y-179971486D01*
X185573628Y-180400057D01*
X185502199Y-180542914D01*
X185430770Y-180614343D01*
X185287913Y-180685771D01*
X185073628Y-180685771D01*
X186216485Y-179685771D02*
X186216485Y-181185771D01*
X186216485Y-179757200D02*
X186359342Y-179685771D01*
X186645056Y-179685771D01*
X186787913Y-179757200D01*
X186859342Y-179828629D01*
X186930771Y-179971486D01*
X186930771Y-180400057D01*
X186859342Y-180542914D01*
X186787913Y-180614343D01*
X186645056Y-180685771D01*
X186359342Y-180685771D01*
X186216485Y-180614343D01*
X187573628Y-180685771D02*
X187573628Y-179685771D01*
X187573628Y-179185771D02*
X187502199Y-179257200D01*
X187573628Y-179328629D01*
X187645056Y-179257200D01*
X187573628Y-179185771D01*
X187573628Y-179328629D01*
X188502200Y-180685771D02*
X188359342Y-180614343D01*
X188287914Y-180542914D01*
X188216485Y-180400057D01*
X188216485Y-179971486D01*
X188287914Y-179828629D01*
X188359342Y-179757200D01*
X188502200Y-179685771D01*
X188716485Y-179685771D01*
X188859342Y-179757200D01*
X188930771Y-179828629D01*
X189002200Y-179971486D01*
X189002200Y-180400057D01*
X188930771Y-180542914D01*
X188859342Y-180614343D01*
X188716485Y-180685771D01*
X188502200Y-180685771D01*
X189645057Y-179685771D02*
X189645057Y-180685771D01*
X189645057Y-179828629D02*
X189716485Y-179757200D01*
X189859343Y-179685771D01*
X190073628Y-179685771D01*
X190216485Y-179757200D01*
X190287914Y-179900057D01*
X190287914Y-180685771D01*
X191573628Y-180614343D02*
X191430771Y-180685771D01*
X191145057Y-180685771D01*
X191002200Y-180614343D01*
X190930771Y-180471486D01*
X190930771Y-179900057D01*
X191002200Y-179757200D01*
X191145057Y-179685771D01*
X191430771Y-179685771D01*
X191573628Y-179757200D01*
X191645057Y-179900057D01*
X191645057Y-180042914D01*
X190930771Y-180185771D01*
X192859342Y-180614343D02*
X192716485Y-180685771D01*
X192430771Y-180685771D01*
X192287914Y-180614343D01*
X192216485Y-180471486D01*
X192216485Y-179900057D01*
X192287914Y-179757200D01*
X192430771Y-179685771D01*
X192716485Y-179685771D01*
X192859342Y-179757200D01*
X192930771Y-179900057D01*
X192930771Y-180042914D01*
X192216485Y-180185771D01*
X193573628Y-180685771D02*
X193573628Y-179685771D01*
X193573628Y-179971486D02*
X193645056Y-179828629D01*
X193716485Y-179757200D01*
X193859342Y-179685771D01*
X194002199Y-179685771D01*
D10*
D11*
X197002200Y-191507200D02*
X197002200Y-194507200D01*
D10*
D11*
X261002200Y-191507200D02*
X261002200Y-198007200D01*
D14*
X69405500Y-87884000D03*
D15*
X69405500Y-90424000D03*
X69405500Y-92964000D03*
X69405500Y-95504000D03*
X69405500Y-98044000D03*
X69405500Y-100584000D03*
X69405500Y-103124000D03*
X69405500Y-105664000D03*
D14*
X74168000Y-67564000D03*
D15*
X76708000Y-67564000D03*
X79248000Y-67564000D03*
X81788000Y-67564000D03*
D14*
X63881000Y-58801000D03*
D15*
X63881000Y-56261000D03*
X63881000Y-53721000D03*
X63881000Y-51181000D03*
D16*
X65532000Y-66929000D03*
D17*
X65532000Y-64389000D03*
D18*
X141325600Y-71221600D03*
X138785600Y-71221600D03*
X133705600Y-71221600D03*
X114655600Y-71221600D03*
X117195600Y-71221600D03*
X136245600Y-86461600D03*
X133705600Y-86461600D03*
D19*
X138785600Y-86461600D03*
D18*
X141325600Y-86461600D03*
X114655600Y-86461600D03*
X117195600Y-86461600D03*
X136245600Y-71221600D03*
D14*
X74168000Y-70358000D03*
D15*
X76708000Y-70358000D03*
X79248000Y-70358000D03*
X81788000Y-70358000D03*
D14*
X75946000Y-99822000D03*
D15*
X75946000Y-97282000D03*
X75946000Y-94742000D03*
X75946000Y-92202000D03*
X75946000Y-89662000D03*
X75946000Y-87122000D03*
D16*
X132461000Y-104902000D03*
D17*
X129921000Y-104902000D03*
D20*
X98933000Y-82931000D03*
X103833000Y-82931000D03*
D21*
X90462100Y-106743500D03*
X90462100Y-99123500D03*
D14*
X87884000Y-38989000D03*
D15*
X90424000Y-38989000D03*
X92964000Y-38989000D03*
X95504000Y-38989000D03*
X98044000Y-38989000D03*
X100584000Y-38989000D03*
X103124000Y-38989000D03*
X105664000Y-38989000D03*
D22*
X97223000Y-82931000D03*
X105723000Y-82931000D03*
D14*
X121666000Y-39497000D03*
D15*
X124206000Y-39497000D03*
X126746000Y-39497000D03*
X129286000Y-39497000D03*
D14*
X141732000Y-50292000D03*
D15*
X141732000Y-52832000D03*
X141732000Y-55372000D03*
X141732000Y-57912000D03*
X141732000Y-60452000D03*
X141732000Y-62992000D03*
X141732000Y-65532000D03*
X141732000Y-68072000D03*
D14*
X84709000Y-48514000D03*
D15*
X82169000Y-48514000D03*
X79629000Y-48514000D03*
X77089000Y-48514000D03*
D14*
X66738500Y-87884000D03*
D15*
X66738500Y-90424000D03*
X66738500Y-92964000D03*
X66738500Y-95504000D03*
X66738500Y-98044000D03*
X66738500Y-100584000D03*
X66738500Y-103124000D03*
X66738500Y-105664000D03*
D23*
X94662000Y-65120000D03*
X94662000Y-65920000D03*
X94662000Y-66720000D03*
X94662000Y-67520000D03*
X94662000Y-68320000D03*
X94662000Y-69120000D03*
X94662000Y-69920000D03*
X94662000Y-70720000D03*
X94662000Y-71520000D03*
X94662000Y-72320000D03*
X94662000Y-73120000D03*
X94662000Y-73920000D03*
X94662000Y-74720000D03*
X94662000Y-75520000D03*
X94662000Y-76320000D03*
X94662000Y-77120000D03*
D24*
X96362000Y-78820000D03*
X97162000Y-78820000D03*
X97962000Y-78820000D03*
X98762000Y-78820000D03*
X99562000Y-78820000D03*
X100362000Y-78820000D03*
X101162000Y-78820000D03*
X101962000Y-78820000D03*
X102762000Y-78820000D03*
X103562000Y-78820000D03*
X104362000Y-78820000D03*
X105162000Y-78820000D03*
X105962000Y-78820000D03*
X106762000Y-78820000D03*
X107562000Y-78820000D03*
X108362000Y-78820000D03*
D23*
X110062000Y-77120000D03*
X110062000Y-76320000D03*
X110062000Y-75520000D03*
X110062000Y-74720000D03*
X110062000Y-73920000D03*
X110062000Y-73120000D03*
X110062000Y-72320000D03*
X110062000Y-71520000D03*
X110062000Y-70720000D03*
X110062000Y-69920000D03*
X110062000Y-69120000D03*
X110062000Y-68320000D03*
X110062000Y-67520000D03*
X110062000Y-66720000D03*
X110062000Y-65920000D03*
X110062000Y-65120000D03*
D24*
X108362000Y-63420000D03*
X107562000Y-63420000D03*
X106762000Y-63420000D03*
X105962000Y-63420000D03*
X105162000Y-63420000D03*
X104362000Y-63420000D03*
X103562000Y-63420000D03*
X102762000Y-63420000D03*
X101962000Y-63420000D03*
X101162000Y-63420000D03*
X100362000Y-63420000D03*
X99562000Y-63420000D03*
X98762000Y-63420000D03*
X97962000Y-63420000D03*
X97162000Y-63420000D03*
X96362000Y-63420000D03*
D25*
X109855000Y-42366200D03*
X109855000Y-39066200D03*
D26*
X126883500Y-57658000D03*
X129783500Y-57658000D03*
X123814500Y-57658000D03*
X120914500Y-57658000D03*
D27*
X121158000Y-49913200D03*
X121158000Y-47013200D03*
D26*
X126926000Y-47498000D03*
X124026000Y-47498000D03*
X118163000Y-49098200D03*
X115263000Y-49098200D03*
D27*
X85699600Y-101648600D03*
X85699600Y-104548600D03*
X109855000Y-46992200D03*
X109855000Y-44092200D03*
D28*
X117657000Y-45796200D03*
X113157000Y-45796200D03*
X117657000Y-39296200D03*
X113157000Y-39296200D03*
X92676100Y-106362500D03*
X88176100Y-106362500D03*
X92676100Y-99862500D03*
X88176100Y-99862500D03*
D29*
X123444000Y-55278000D03*
X124714000Y-55278000D03*
X125984000Y-55278000D03*
X127254000Y-55278000D03*
X127254000Y-49878000D03*
X125984000Y-49878000D03*
X124714000Y-49878000D03*
X123444000Y-49878000D03*
D30*
X95274000Y-61087000D03*
X98274000Y-61087000D03*
D31*
X106680000Y-61545600D03*
X106680000Y-58545600D03*
X108915200Y-61545600D03*
X108915200Y-58545600D03*
D25*
X107061000Y-103760000D03*
X107061000Y-107060000D03*
D27*
X107061000Y-98880000D03*
X107061000Y-101780000D03*
D32*
X112395000Y-101567000D03*
X112395000Y-106967000D03*
X98094800Y-105658900D03*
X98094800Y-100258900D03*
D33*
X94074000Y-55499000D03*
X99474000Y-55499000D03*
D21*
X115443000Y-46685200D03*
X115443000Y-39065200D03*
D34*
X112395000Y-102870000D03*
D35*
X112395000Y-105370000D03*
D34*
X95504000Y-55499000D03*
D35*
X98004000Y-55499000D03*
D34*
X98069400Y-104216200D03*
D35*
X98069400Y-101716200D03*
D30*
X98782000Y-86868000D03*
X95782000Y-86868000D03*
X103783000Y-86868000D03*
X106783000Y-86868000D03*
D14*
X121666000Y-42164000D03*
D15*
X124206000Y-42164000D03*
X126746000Y-42164000D03*
X129286000Y-42164000D03*
D14*
X121666000Y-44831000D03*
D15*
X124206000Y-44831000D03*
X126746000Y-44831000D03*
X129286000Y-44831000D03*
D14*
X111887000Y-91948000D03*
D15*
X114427000Y-91948000D03*
X116967000Y-91948000D03*
X119507000Y-91948000D03*
D14*
X139090400Y-50292000D03*
D15*
X139090400Y-52832000D03*
X139090400Y-55372000D03*
X139090400Y-57912000D03*
X139090400Y-60452000D03*
X139090400Y-62992000D03*
X139090400Y-65532000D03*
X139090400Y-68072000D03*
D14*
X64135000Y-87884000D03*
D15*
X64135000Y-90424000D03*
X64135000Y-92964000D03*
X64135000Y-95504000D03*
X64135000Y-98044000D03*
X64135000Y-100584000D03*
X64135000Y-103124000D03*
X64135000Y-105664000D03*
D14*
X123380500Y-92456000D03*
D15*
X125920500Y-92456000D03*
X128460500Y-92456000D03*
X131000500Y-92456000D03*
X133540500Y-92456000D03*
X136080500Y-92456000D03*
X138620500Y-92456000D03*
X141160500Y-92456000D03*
D14*
X123380500Y-95123000D03*
D15*
X125920500Y-95123000D03*
X128460500Y-95123000D03*
X131000500Y-95123000D03*
X133540500Y-95123000D03*
X136080500Y-95123000D03*
X138620500Y-95123000D03*
X141160500Y-95123000D03*
D14*
X64008000Y-72136000D03*
D15*
X64008000Y-74676000D03*
X64008000Y-77216000D03*
X64008000Y-79756000D03*
X64008000Y-82296000D03*
X64008000Y-84836000D03*
D14*
X84683600Y-38963600D03*
D15*
X82143600Y-38963600D03*
X79603600Y-38963600D03*
X77063600Y-38963600D03*
X74523600Y-38963600D03*
X71983600Y-38963600D03*
D14*
X87884000Y-41656000D03*
D15*
X90424000Y-41656000D03*
X92964000Y-41656000D03*
X95504000Y-41656000D03*
X98044000Y-41656000D03*
X100584000Y-41656000D03*
X103124000Y-41656000D03*
X105664000Y-41656000D03*
D14*
X133654800Y-50241200D03*
D15*
X133654800Y-52781200D03*
X133654800Y-55321200D03*
X133654800Y-57861200D03*
X133654800Y-60401200D03*
X133654800Y-62941200D03*
D14*
X74168000Y-73152000D03*
D15*
X76708000Y-73152000D03*
X79248000Y-73152000D03*
X81788000Y-73152000D03*
D36*
X126374000Y-106928000D03*
X126374000Y-102368000D03*
D37*
X120074000Y-104648000D03*
D38*
X118399000Y-103123000D03*
X121749000Y-106173000D03*
X118399000Y-106173000D03*
X121749000Y-103123000D03*
D14*
X123380500Y-97790000D03*
D15*
X125920500Y-97790000D03*
X128460500Y-97790000D03*
X131000500Y-97790000D03*
X133540500Y-97790000D03*
X136080500Y-97790000D03*
X138620500Y-97790000D03*
X141160500Y-97790000D03*
D39*
X78590140Y-64135000D03*
X81429860Y-64135000D03*
D26*
X73734000Y-64135000D03*
X76634000Y-64135000D03*
D40*
X91480000Y-91712000D03*
X138430000Y-78867000D03*
X139700000Y-40081200D03*
X66040000Y-40081200D03*
X139700000Y-105511600D03*
D41*
X68478400Y-70358000D03*
X100482400Y-80365600D03*
X108051600Y-86868000D03*
X123647200Y-53594000D03*
X121158000Y-48260000D03*
X113131600Y-58534300D03*
X100114100Y-65354200D03*
X99568000Y-80568800D03*
X100482400Y-96926400D03*
X118262400Y-50850800D03*
X125933200Y-53695600D03*
X98380000Y-81112000D03*
X98806000Y-76200000D03*
X88176100Y-99862500D03*
X88176100Y-103187500D03*
X111760000Y-53276500D03*
X103187500Y-65722500D03*
X112204500Y-55181500D03*
X104330500Y-65659000D03*
X108813600Y-80340200D03*
X108864400Y-81153000D03*
X106762000Y-64942000D03*
X107562000Y-65779000D03*
X90710000Y-73120000D03*
X77724000Y-97409000D03*
X96266000Y-76327000D03*
X97282000Y-77089000D03*
X96280000Y-80812000D03*
X93980000Y-78803500D03*
X82042000Y-73152000D03*
X111556800Y-72288400D03*
X127762000Y-82423000D03*
X128651000Y-82423000D03*
X112141000Y-71564500D03*
X129540000Y-82423000D03*
X112141000Y-70739000D03*
X130365500Y-82423000D03*
X111569500Y-69913500D03*
X74168000Y-75755500D03*
X76708000Y-77216000D03*
X79248000Y-79756000D03*
X96367600Y-65836800D03*
X99415600Y-57556400D03*
X100330000Y-57505600D03*
X101193600Y-57454800D03*
X105410000Y-65595500D03*
X109918500Y-53594000D03*
X101917500Y-65849500D03*
X89408000Y-65913000D03*
X115824000Y-74574400D03*
X104343200Y-76708000D03*
X105156000Y-74676000D03*
X90170000Y-65405000D03*
X105156000Y-77012800D03*
X115874800Y-75641200D03*
X97129600Y-80721200D03*
X115874800Y-76708000D03*
D42*
X101162000Y-78820000D02*
X101162000Y-79757602D01*
X101244400Y-81229200D02*
X99542600Y-82931000D01*
X101244400Y-79840002D02*
X101244400Y-81229200D01*
X101162000Y-79757602D02*
X101244400Y-79840002D01*
X99542600Y-82931000D02*
X98933000Y-82931000D01*
X98933000Y-82931000D02*
X98933000Y-86717000D01*
X98933000Y-86717000D02*
X98782000Y-86868000D01*
X98933000Y-82486500D02*
X98933000Y-82931000D01*
X106783000Y-86868000D02*
X106783000Y-88509000D01*
X95782000Y-88714000D02*
X95782000Y-86868000D01*
X96080000Y-89012000D02*
X95782000Y-88714000D01*
X106280000Y-89012000D02*
X96080000Y-89012000D01*
X106783000Y-88509000D02*
X106280000Y-89012000D01*
D43*
X74168000Y-70358000D02*
X68478400Y-70358000D01*
X109855000Y-39066200D02*
X105741200Y-39066200D01*
X105741200Y-39066200D02*
X105664000Y-38989000D01*
D42*
X100362000Y-78820000D02*
X100362000Y-80245200D01*
X100362000Y-80245200D02*
X100482400Y-80365600D01*
X106783000Y-86868000D02*
X108051600Y-86868000D01*
X124714000Y-55278000D02*
X124714000Y-54660800D01*
X124714000Y-54660800D02*
X123647200Y-53594000D01*
X121158000Y-47013200D02*
X121158000Y-48260000D01*
X108915200Y-58545600D02*
X113120300Y-58545600D01*
X113120300Y-58545600D02*
X113131600Y-58534300D01*
D43*
X63881000Y-51181000D02*
X68757800Y-51181000D01*
X68757800Y-51181000D02*
X71983600Y-47955200D01*
X71983600Y-38963600D02*
X71983600Y-47955200D01*
X72542400Y-48514000D02*
X77089000Y-48514000D01*
X71983600Y-47955200D02*
X72542400Y-48514000D01*
D42*
X81429860Y-64135000D02*
X81661000Y-64135000D01*
X81661000Y-64135000D02*
X83693000Y-66167000D01*
X83693000Y-66167000D02*
X83693000Y-68580000D01*
X83693000Y-68580000D02*
X83058000Y-69215000D01*
X83058000Y-69215000D02*
X82931000Y-69215000D01*
X82931000Y-69215000D02*
X81788000Y-70358000D01*
D43*
X74168000Y-70358000D02*
X76708000Y-70358000D01*
X76708000Y-70358000D02*
X79248000Y-70358000D01*
X79248000Y-70358000D02*
X81788000Y-70358000D01*
X65532000Y-66929000D02*
X68453000Y-66929000D01*
X71882000Y-70358000D02*
X74168000Y-70358000D01*
X68453000Y-66929000D02*
X71882000Y-70358000D01*
D42*
X82042000Y-70358000D02*
X82042000Y-69850000D01*
X119481600Y-104055600D02*
X120074000Y-104648000D01*
X120074000Y-104648000D02*
X120074000Y-104122800D01*
X106680000Y-58545600D02*
X108915200Y-58545600D01*
X105162000Y-63420000D02*
X105162000Y-60063600D01*
X105162000Y-60063600D02*
X106680000Y-58545600D01*
D43*
X141732000Y-50292000D02*
X141732000Y-52832000D01*
X141732000Y-52832000D02*
X141732000Y-55372000D01*
X141732000Y-55372000D02*
X141732000Y-57912000D01*
X141732000Y-57912000D02*
X141732000Y-60452000D01*
X141732000Y-60452000D02*
X141732000Y-62992000D01*
X141732000Y-62992000D02*
X141732000Y-65532000D01*
X141732000Y-65532000D02*
X141732000Y-68072000D01*
D42*
X115443000Y-39065200D02*
X117426000Y-39065200D01*
X117426000Y-39065200D02*
X117657000Y-39296200D01*
X98274000Y-61087000D02*
X98274000Y-56699000D01*
X98274000Y-56699000D02*
X99474000Y-55499000D01*
X97162000Y-63420000D02*
X97162000Y-62199000D01*
X97162000Y-62199000D02*
X98274000Y-61087000D01*
D43*
X90462100Y-99123500D02*
X91937100Y-99123500D01*
X91937100Y-99123500D02*
X92676100Y-99862500D01*
X97698400Y-99862500D02*
X98094800Y-100258900D01*
X107061000Y-107060000D02*
X105917000Y-107060000D01*
X100573200Y-101716200D02*
X98069400Y-101716200D01*
X105917000Y-107060000D02*
X100573200Y-101716200D01*
X98069400Y-101716200D02*
X98094800Y-100258900D01*
X107061000Y-107060000D02*
X112302000Y-107060000D01*
X112302000Y-107060000D02*
X112395000Y-106967000D01*
X120074000Y-104648000D02*
X114714000Y-104648000D01*
X114714000Y-104648000D02*
X112395000Y-106967000D01*
D42*
X103833000Y-82931000D02*
X103833000Y-86818000D01*
X103833000Y-86818000D02*
X103783000Y-86868000D01*
X101962000Y-78820000D02*
X101962000Y-80346500D01*
X101962000Y-80346500D02*
X104546500Y-82931000D01*
X104546500Y-82931000D02*
X105723000Y-82931000D01*
D43*
X123380500Y-97790000D02*
X116172000Y-97790000D01*
X116172000Y-97790000D02*
X112395000Y-101567000D01*
D42*
X125984000Y-55278000D02*
X125984000Y-57302400D01*
X125984000Y-57302400D02*
X125628400Y-57658000D01*
X123814500Y-57658000D02*
X125628400Y-57658000D01*
X125628400Y-57658000D02*
X126883500Y-57658000D01*
X108915200Y-61545600D02*
X122452000Y-61545600D01*
X123814500Y-60183100D02*
X123814500Y-57658000D01*
X122452000Y-61545600D02*
X123814500Y-60183100D01*
X99562000Y-78820000D02*
X99562000Y-76524200D01*
X100114100Y-75972100D02*
X100114100Y-65354200D01*
X99562000Y-76524200D02*
X100114100Y-75972100D01*
D43*
X111887000Y-91948000D02*
X111887000Y-101059000D01*
X111887000Y-101059000D02*
X112395000Y-101567000D01*
X64135000Y-105664000D02*
X64135000Y-107569000D01*
X71755000Y-107823000D02*
X77929400Y-101648600D01*
X64389000Y-107823000D02*
X71755000Y-107823000D01*
X64135000Y-107569000D02*
X64389000Y-107823000D01*
X64135000Y-87884000D02*
X64135000Y-90424000D01*
X64135000Y-90424000D02*
X64135000Y-92964000D01*
X64135000Y-92964000D02*
X64135000Y-95504000D01*
X64135000Y-95504000D02*
X64135000Y-98044000D01*
X64135000Y-98044000D02*
X64135000Y-100584000D01*
X64135000Y-100584000D02*
X64135000Y-103124000D01*
X64135000Y-103124000D02*
X64135000Y-105664000D01*
X84709000Y-48514000D02*
X84709000Y-38989000D01*
X84709000Y-38989000D02*
X84683600Y-38963600D01*
X94074000Y-55499000D02*
X87172800Y-55499000D01*
X87172800Y-55499000D02*
X87096600Y-55499000D01*
X87096600Y-55499000D02*
X84709000Y-53111400D01*
X84709000Y-53111400D02*
X84709000Y-48514000D01*
D42*
X99562000Y-80562800D02*
X99562000Y-78820000D01*
X99562000Y-80562800D02*
X99568000Y-80568800D01*
X100482400Y-96926400D02*
X100482400Y-96964500D01*
X100482400Y-96964500D02*
X100482400Y-96926400D01*
X100482400Y-96926400D02*
X100482400Y-96964500D01*
X84709000Y-38989000D02*
X84683600Y-38963600D01*
X84709000Y-53111400D02*
X84709000Y-48514000D01*
X87096600Y-55499000D02*
X84709000Y-53111400D01*
X106680000Y-61545600D02*
X108915200Y-61545600D01*
X105962000Y-63420000D02*
X105962000Y-62263600D01*
X105962000Y-62263600D02*
X106680000Y-61545600D01*
X125984000Y-55278000D02*
X125984000Y-53746400D01*
X118163000Y-50751400D02*
X118163000Y-49098200D01*
X118262400Y-50850800D02*
X118163000Y-50751400D01*
X125984000Y-53746400D02*
X125933200Y-53695600D01*
D43*
X121666000Y-39497000D02*
X121666000Y-42164000D01*
X121666000Y-44831000D02*
X121666000Y-42164000D01*
D42*
X118163000Y-49098200D02*
X118163000Y-48816600D01*
X118163000Y-48816600D02*
X119583200Y-47396400D01*
X119583200Y-47396400D02*
X119583200Y-45542200D01*
X119583200Y-45542200D02*
X120294400Y-44831000D01*
X120294400Y-44831000D02*
X121666000Y-44831000D01*
X95274000Y-61087000D02*
X95274000Y-56699000D01*
X95274000Y-56699000D02*
X94074000Y-55499000D01*
X97962000Y-63420000D02*
X97962000Y-64699600D01*
X96362000Y-64764400D02*
X96362000Y-63420000D01*
X96469200Y-64871600D02*
X96362000Y-64764400D01*
X97790000Y-64871600D02*
X96469200Y-64871600D01*
X97962000Y-64699600D02*
X97790000Y-64871600D01*
X96362000Y-63420000D02*
X96362000Y-62175000D01*
X96362000Y-62175000D02*
X95274000Y-61087000D01*
D43*
X85699600Y-101648600D02*
X84124800Y-101648600D01*
X84124800Y-101648600D02*
X77929400Y-101648600D01*
X77929400Y-101648600D02*
X77772600Y-101648600D01*
X77772600Y-101648600D02*
X75946000Y-99822000D01*
X107061000Y-98880000D02*
X103896500Y-98880000D01*
X85699600Y-97497900D02*
X85699600Y-101648600D01*
X86233000Y-96964500D02*
X85699600Y-97497900D01*
X101981000Y-96964500D02*
X100482400Y-96964500D01*
X100482400Y-96964500D02*
X86233000Y-96964500D01*
X103896500Y-98880000D02*
X101981000Y-96964500D01*
X112395000Y-101567000D02*
X112298500Y-101567000D01*
X112298500Y-101567000D02*
X109611500Y-98880000D01*
X109611500Y-98880000D02*
X107061000Y-98880000D01*
X126374000Y-106928000D02*
X127057500Y-106928000D01*
X127057500Y-106928000D02*
X127635000Y-107505500D01*
X127635000Y-107505500D02*
X132270500Y-107505500D01*
X132270500Y-107505500D02*
X132461000Y-107315000D01*
X132461000Y-107315000D02*
X132461000Y-104902000D01*
X123380500Y-97790000D02*
X125920500Y-97790000D01*
X125920500Y-97790000D02*
X128460500Y-97790000D01*
X128460500Y-97790000D02*
X131000500Y-97790000D01*
X131000500Y-97790000D02*
X133540500Y-97790000D01*
X138620500Y-97790000D02*
X141160500Y-97790000D01*
X136080500Y-97790000D02*
X138620500Y-97790000D01*
X133540500Y-97790000D02*
X136080500Y-97790000D01*
X132461000Y-104902000D02*
X132461000Y-98869500D01*
X132461000Y-98869500D02*
X133540500Y-97790000D01*
D42*
X98762000Y-78820000D02*
X98762000Y-80730000D01*
X98762000Y-80730000D02*
X98380000Y-81112000D01*
D43*
X88176100Y-106362500D02*
X86296500Y-106362500D01*
X85699600Y-105765600D02*
X85699600Y-104548600D01*
X86296500Y-106362500D02*
X85699600Y-105765600D01*
D42*
X98762000Y-76244000D02*
X98762000Y-78820000D01*
X98806000Y-76200000D02*
X98762000Y-76244000D01*
D43*
X88176100Y-106362500D02*
X88176100Y-103187500D01*
X88176100Y-103187500D02*
X88176100Y-99862500D01*
X88176100Y-106362500D02*
X90081100Y-106362500D01*
X90081100Y-106362500D02*
X90462100Y-106743500D01*
D42*
X124026000Y-47498000D02*
X124026000Y-45011000D01*
X124026000Y-45011000D02*
X124206000Y-44831000D01*
D43*
X124206000Y-42164000D02*
X124206000Y-44831000D01*
X124206000Y-42164000D02*
X124206000Y-39497000D01*
D42*
X124714000Y-49878000D02*
X124714000Y-48186000D01*
X124714000Y-48186000D02*
X124026000Y-47498000D01*
X126926000Y-47498000D02*
X126926000Y-45011000D01*
X126926000Y-45011000D02*
X126746000Y-44831000D01*
D43*
X126746000Y-42164000D02*
X126746000Y-39497000D01*
X126746000Y-44831000D02*
X126746000Y-42164000D01*
D42*
X125984000Y-49878000D02*
X125984000Y-48440000D01*
X125984000Y-48440000D02*
X126926000Y-47498000D01*
X127254000Y-55278000D02*
X129700000Y-55278000D01*
X129783500Y-55361500D02*
X129783500Y-57658000D01*
X129700000Y-55278000D02*
X129783500Y-55361500D01*
X106762000Y-78820000D02*
X106762000Y-69297000D01*
X127254000Y-52578000D02*
X127254000Y-55278000D01*
X127063500Y-52387500D02*
X127254000Y-52578000D01*
X112649000Y-52387500D02*
X127063500Y-52387500D01*
X111760000Y-53276500D02*
X112649000Y-52387500D01*
X106762000Y-69297000D02*
X103187500Y-65722500D01*
X123444000Y-55278000D02*
X121506000Y-55278000D01*
X120914500Y-55869500D02*
X120914500Y-57658000D01*
X121506000Y-55278000D02*
X120914500Y-55869500D01*
X107562000Y-78820000D02*
X107562000Y-69017500D01*
X121887000Y-53721000D02*
X123444000Y-55278000D01*
X113665000Y-53721000D02*
X121887000Y-53721000D01*
X112204500Y-55181500D02*
X113665000Y-53721000D01*
X104330500Y-65786000D02*
X104330500Y-65659000D01*
X107562000Y-69017500D02*
X104330500Y-65786000D01*
X103562000Y-78820000D02*
X103562000Y-79787600D01*
X104114600Y-80340200D02*
X108813600Y-80340200D01*
X103562000Y-79787600D02*
X104114600Y-80340200D01*
X102762000Y-78820000D02*
X102762000Y-80054400D01*
X103860600Y-81153000D02*
X108864400Y-81153000D01*
X102762000Y-80054400D02*
X103860600Y-81153000D01*
X106762000Y-63420000D02*
X106762000Y-64942000D01*
X106762000Y-64942000D02*
X106743500Y-64960500D01*
D43*
X139090400Y-50292000D02*
X133705600Y-50292000D01*
X133705600Y-50292000D02*
X133654800Y-50241200D01*
D42*
X107562000Y-63420000D02*
X107562000Y-65779000D01*
D43*
X133654800Y-52781200D02*
X139039600Y-52781200D01*
X139039600Y-52781200D02*
X139090400Y-52832000D01*
D42*
X108362000Y-63420000D02*
X108695500Y-63420000D01*
X132143500Y-56832500D02*
X133654800Y-55321200D01*
X132143500Y-57785000D02*
X132143500Y-56832500D01*
X125603000Y-64325500D02*
X132143500Y-57785000D01*
X109601000Y-64325500D02*
X125603000Y-64325500D01*
X108695500Y-63420000D02*
X109601000Y-64325500D01*
D43*
X133654800Y-55321200D02*
X139039600Y-55321200D01*
X139039600Y-55321200D02*
X139090400Y-55372000D01*
D42*
X110062000Y-65120000D02*
X126396000Y-65120000D01*
X126396000Y-65120000D02*
X133654800Y-57861200D01*
D43*
X133654800Y-57861200D02*
X139039600Y-57861200D01*
X139039600Y-57861200D02*
X139090400Y-57912000D01*
D42*
X110062000Y-65920000D02*
X128136000Y-65920000D01*
X128136000Y-65920000D02*
X133654800Y-60401200D01*
D43*
X133654800Y-60401200D02*
X139039600Y-60401200D01*
X139039600Y-60401200D02*
X139090400Y-60452000D01*
D42*
X110062000Y-66720000D02*
X129876000Y-66720000D01*
X129876000Y-66720000D02*
X133654800Y-62941200D01*
D43*
X133654800Y-62941200D02*
X139039600Y-62941200D01*
X139039600Y-62941200D02*
X139090400Y-62992000D01*
D42*
X110062000Y-67520000D02*
X137102400Y-67520000D01*
X137102400Y-67520000D02*
X139090400Y-65532000D01*
X141325600Y-71221600D02*
X141325600Y-70307200D01*
X141325600Y-70307200D02*
X139090400Y-68072000D01*
X110062000Y-68320000D02*
X138842400Y-68320000D01*
X138842400Y-68320000D02*
X139090400Y-68072000D01*
X69405500Y-87884000D02*
X72136000Y-87884000D01*
X73914000Y-89662000D02*
X75946000Y-89662000D01*
X72136000Y-87884000D02*
X73914000Y-89662000D01*
X75946000Y-89662000D02*
X77165200Y-89662000D01*
X90087600Y-72320000D02*
X94662000Y-72320000D01*
X89763600Y-72644000D02*
X90087600Y-72320000D01*
X89763600Y-77063600D02*
X89763600Y-72644000D01*
X77165200Y-89662000D02*
X89763600Y-77063600D01*
X69405500Y-90424000D02*
X71374000Y-90424000D01*
X73152000Y-92202000D02*
X75946000Y-92202000D01*
X71374000Y-90424000D02*
X73152000Y-92202000D01*
X94662000Y-73120000D02*
X90710000Y-73120000D01*
X77673200Y-92202000D02*
X75946000Y-92202000D01*
X90576400Y-79298800D02*
X77673200Y-92202000D01*
X90576400Y-73253600D02*
X90576400Y-79298800D01*
X90710000Y-73120000D02*
X90576400Y-73253600D01*
X69405500Y-92964000D02*
X70866000Y-92964000D01*
X72644000Y-94742000D02*
X75946000Y-94742000D01*
X70866000Y-92964000D02*
X72644000Y-94742000D01*
X94662000Y-73920000D02*
X91344400Y-73920000D01*
X77368400Y-94742000D02*
X75946000Y-94742000D01*
X91287600Y-80822800D02*
X77368400Y-94742000D01*
X91287600Y-73976800D02*
X91287600Y-80822800D01*
X91344400Y-73920000D02*
X91287600Y-73976800D01*
X69405500Y-95504000D02*
X71882000Y-95504000D01*
X73660000Y-97282000D02*
X75946000Y-97282000D01*
X71882000Y-95504000D02*
X73660000Y-97282000D01*
X94662000Y-74720000D02*
X92056400Y-74720000D01*
X77774800Y-95453200D02*
X75946000Y-97282000D01*
X78130400Y-95453200D02*
X77774800Y-95453200D01*
X92049600Y-81534000D02*
X78130400Y-95453200D01*
X92049600Y-74726800D02*
X92049600Y-81534000D01*
X92056400Y-74720000D02*
X92049600Y-74726800D01*
X93136000Y-75520000D02*
X94662000Y-75520000D01*
X92964000Y-75692000D02*
X93136000Y-75520000D01*
X92964000Y-82169000D02*
X92964000Y-75692000D01*
X77724000Y-97409000D02*
X92964000Y-82169000D01*
X94662000Y-76320000D02*
X96259000Y-76320000D01*
X96259000Y-76320000D02*
X96266000Y-76327000D01*
X94662000Y-77120000D02*
X97251000Y-77120000D01*
X97251000Y-77120000D02*
X97282000Y-77089000D01*
X94662000Y-77120000D02*
X95052400Y-77120000D01*
X96362000Y-80730000D02*
X96362000Y-78820000D01*
X96280000Y-80812000D02*
X96362000Y-80730000D01*
X96362000Y-78820000D02*
X93996500Y-78820000D01*
X93996500Y-78820000D02*
X93980000Y-78803500D01*
X110062000Y-75520000D02*
X112540500Y-75520000D01*
X123380500Y-86106000D02*
X123380500Y-92456000D01*
X119888000Y-82613500D02*
X123380500Y-86106000D01*
X112712500Y-82613500D02*
X119888000Y-82613500D01*
X112585500Y-82486500D02*
X112712500Y-82613500D01*
X112585500Y-75565000D02*
X112585500Y-82486500D01*
X112540500Y-75520000D02*
X112585500Y-75565000D01*
X110081500Y-74739500D02*
X113347500Y-74739500D01*
X125920500Y-87566500D02*
X120205500Y-81851500D01*
X120205500Y-81851500D02*
X113347500Y-81851500D01*
X113347500Y-81851500D02*
X113347500Y-74739500D01*
X125920500Y-87566500D02*
X125920500Y-92456000D01*
X110081500Y-74739500D02*
X110062000Y-74720000D01*
X114109500Y-81151498D02*
X114109500Y-74104500D01*
X128460500Y-89090500D02*
X120521498Y-81151498D01*
X120521498Y-81151498D02*
X114109500Y-81151498D01*
X128460500Y-92456000D02*
X128460500Y-89090500D01*
X113925000Y-73920000D02*
X110062000Y-73920000D01*
X114109500Y-74104500D02*
X113925000Y-73920000D01*
X114935000Y-80391000D02*
X120840500Y-80391000D01*
X114712500Y-73120000D02*
X114871500Y-73279000D01*
X114871500Y-73279000D02*
X114871500Y-80327500D01*
X114871500Y-80327500D02*
X114935000Y-80391000D01*
X110062000Y-73120000D02*
X114712500Y-73120000D01*
X131000500Y-90551000D02*
X131000500Y-92456000D01*
X120840500Y-80391000D02*
X131000500Y-90551000D01*
X111525200Y-72320000D02*
X110062000Y-72320000D01*
X111556800Y-72288400D02*
X111525200Y-72320000D01*
X133540500Y-92456000D02*
X133540500Y-91821000D01*
X133540500Y-91821000D02*
X129286000Y-87566500D01*
X129286000Y-87566500D02*
X129286000Y-84772500D01*
X129286000Y-84772500D02*
X127762000Y-83248500D01*
X127762000Y-83248500D02*
X127762000Y-82423000D01*
X110062000Y-71520000D02*
X112096500Y-71520000D01*
X136080500Y-89916000D02*
X136080500Y-92456000D01*
X132778500Y-89916000D02*
X136080500Y-89916000D01*
X130365500Y-87503000D02*
X132778500Y-89916000D01*
X130365500Y-84645500D02*
X130365500Y-87503000D01*
X128651000Y-82931000D02*
X130365500Y-84645500D01*
X128651000Y-82423000D02*
X128651000Y-82931000D01*
X112096500Y-71520000D02*
X112141000Y-71564500D01*
X110062000Y-70720000D02*
X112122000Y-70720000D01*
X138620500Y-89217500D02*
X138620500Y-92456000D01*
X138557000Y-89154000D02*
X138620500Y-89217500D01*
X133032500Y-89154000D02*
X138557000Y-89154000D01*
X131127500Y-87249000D02*
X133032500Y-89154000D01*
X131127500Y-84328000D02*
X131127500Y-87249000D01*
X129603500Y-82804000D02*
X131127500Y-84328000D01*
X129603500Y-82486500D02*
X129603500Y-82804000D01*
X129540000Y-82423000D02*
X129603500Y-82486500D01*
X112122000Y-70720000D02*
X112141000Y-70739000D01*
X110062000Y-69920000D02*
X111563000Y-69920000D01*
X141160500Y-88519000D02*
X141160500Y-92456000D01*
X140970000Y-88328500D02*
X141160500Y-88519000D01*
X133286500Y-88328500D02*
X140970000Y-88328500D01*
X131889500Y-86931500D02*
X133286500Y-88328500D01*
X131889500Y-83947000D02*
X131889500Y-86931500D01*
X130365500Y-82423000D02*
X131889500Y-83947000D01*
X111563000Y-69920000D02*
X111569500Y-69913500D01*
X64008000Y-72136000D02*
X65595500Y-72136000D01*
X86340500Y-67520000D02*
X84074000Y-69786500D01*
X84074000Y-69786500D02*
X84074000Y-74422000D01*
X84074000Y-74422000D02*
X83629500Y-74866500D01*
X83629500Y-74866500D02*
X71564500Y-74866500D01*
X71564500Y-74866500D02*
X68834000Y-72136000D01*
X68834000Y-72136000D02*
X65595500Y-72136000D01*
X86340500Y-67520000D02*
X94662000Y-67520000D01*
X74168000Y-75755500D02*
X74168000Y-75692000D01*
X74168000Y-75692000D02*
X74168000Y-75755500D01*
X74168000Y-75755500D02*
X74168000Y-75692000D01*
X94662000Y-68320000D02*
X86747000Y-68320000D01*
X69723000Y-74676000D02*
X64008000Y-74676000D01*
X70739000Y-75692000D02*
X69723000Y-74676000D01*
X84074000Y-75692000D02*
X74168000Y-75692000D01*
X74168000Y-75692000D02*
X70739000Y-75692000D01*
X84899500Y-74866500D02*
X84074000Y-75692000D01*
X84899500Y-70167500D02*
X84899500Y-74866500D01*
X86747000Y-68320000D02*
X84899500Y-70167500D01*
X94662000Y-69120000D02*
X87217000Y-69120000D01*
X83947000Y-77216000D02*
X76708000Y-77216000D01*
X76708000Y-77216000D02*
X64008000Y-77216000D01*
X85852000Y-75311000D02*
X83947000Y-77216000D01*
X85852000Y-70485000D02*
X85852000Y-75311000D01*
X87217000Y-69120000D02*
X85852000Y-70485000D01*
X94662000Y-69920000D02*
X87750500Y-69920000D01*
X82613500Y-79756000D02*
X79248000Y-79756000D01*
X79248000Y-79756000D02*
X64008000Y-79756000D01*
X86804500Y-75565000D02*
X82613500Y-79756000D01*
X86804500Y-70866000D02*
X86804500Y-75565000D01*
X87750500Y-69920000D02*
X86804500Y-70866000D01*
X94662000Y-70720000D02*
X88284000Y-70720000D01*
X81153000Y-82296000D02*
X64008000Y-82296000D01*
X87757000Y-75692000D02*
X81153000Y-82296000D01*
X87757000Y-71247000D02*
X87757000Y-75692000D01*
X88284000Y-70720000D02*
X87757000Y-71247000D01*
X94662000Y-71520000D02*
X88944500Y-71520000D01*
X80137000Y-84836000D02*
X64008000Y-84836000D01*
X88709500Y-76263500D02*
X80137000Y-84836000D01*
X88709500Y-71755000D02*
X88709500Y-76263500D01*
X88944500Y-71520000D02*
X88709500Y-71755000D01*
D43*
X82169000Y-48514000D02*
X82169000Y-38989000D01*
X82169000Y-38989000D02*
X82143600Y-38963600D01*
D42*
X94662000Y-65920000D02*
X93479000Y-65920000D01*
X82169000Y-52832000D02*
X82169000Y-48514000D01*
X85979000Y-56642000D02*
X82169000Y-52832000D01*
X89027000Y-56642000D02*
X85979000Y-56642000D01*
X91313000Y-58928000D02*
X89027000Y-56642000D01*
X91313000Y-63754000D02*
X91313000Y-58928000D01*
X93479000Y-65920000D02*
X91313000Y-63754000D01*
X82169000Y-38989000D02*
X82143600Y-38963600D01*
D43*
X79603600Y-38963600D02*
X79603600Y-48488600D01*
X79603600Y-48488600D02*
X79629000Y-48514000D01*
D42*
X94662000Y-66720000D02*
X92882000Y-66720000D01*
X79629000Y-51689000D02*
X79629000Y-48514000D01*
X85471000Y-57531000D02*
X79629000Y-51689000D01*
X88773000Y-57531000D02*
X85471000Y-57531000D01*
X90297000Y-59055000D02*
X88773000Y-57531000D01*
X90297000Y-59690000D02*
X90297000Y-59055000D01*
X90297000Y-64135000D02*
X90297000Y-59690000D01*
X92882000Y-66720000D02*
X90297000Y-64135000D01*
X79629000Y-48514000D02*
X79629000Y-38989000D01*
X79629000Y-38989000D02*
X79603600Y-38963600D01*
X98762000Y-63420000D02*
X98762000Y-65677600D01*
X98602800Y-65836800D02*
X96367600Y-65836800D01*
X98762000Y-65677600D02*
X98602800Y-65836800D01*
X99562000Y-63420000D02*
X99562000Y-57702800D01*
X99562000Y-57702800D02*
X99415600Y-57556400D01*
X100362000Y-63420000D02*
X100362000Y-57537600D01*
X100362000Y-57537600D02*
X100330000Y-57505600D01*
X101162000Y-63420000D02*
X101162000Y-57486400D01*
X101162000Y-57486400D02*
X101193600Y-57454800D01*
X101962000Y-63420000D02*
X101962000Y-45574000D01*
X101962000Y-45574000D02*
X98044000Y-41656000D01*
X102762000Y-63420000D02*
X102762000Y-43834000D01*
X102762000Y-43834000D02*
X100584000Y-41656000D01*
X103562000Y-63420000D02*
X103562000Y-42094000D01*
X103562000Y-42094000D02*
X103124000Y-41656000D01*
X104362000Y-63420000D02*
X104362000Y-45701200D01*
X105664000Y-44399200D02*
X105664000Y-41656000D01*
X104362000Y-45701200D02*
X105664000Y-44399200D01*
X110062000Y-77120000D02*
X110062000Y-84535000D01*
X111988600Y-86461600D02*
X114655600Y-86461600D01*
X110062000Y-84535000D02*
X111988600Y-86461600D01*
X110062000Y-76320000D02*
X111741600Y-76320000D01*
X115138200Y-84404200D02*
X117195600Y-86461600D01*
X113334800Y-84404200D02*
X115138200Y-84404200D01*
X111810800Y-82880200D02*
X113334800Y-84404200D01*
X111810800Y-76389200D02*
X111810800Y-82880200D01*
X111741600Y-76320000D02*
X111810800Y-76389200D01*
X113157000Y-45796200D02*
X113157000Y-39296200D01*
X113157000Y-45796200D02*
X114554000Y-45796200D01*
X114554000Y-45796200D02*
X115443000Y-46685200D01*
X108362000Y-78820000D02*
X108362000Y-68547500D01*
X108362000Y-68547500D02*
X105410000Y-65595500D01*
X115263000Y-49098200D02*
X115263000Y-46865200D01*
X115263000Y-46865200D02*
X115443000Y-46685200D01*
X105962000Y-78820000D02*
X105962000Y-69894000D01*
X109855000Y-53530500D02*
X109855000Y-46992200D01*
X109918500Y-53594000D02*
X109855000Y-53530500D01*
X105962000Y-69894000D02*
X101917500Y-65849500D01*
X80264000Y-56261000D02*
X63881000Y-56261000D01*
X83566000Y-59563000D02*
X80264000Y-56261000D01*
X88011000Y-59563000D02*
X83566000Y-59563000D01*
X88392000Y-59944000D02*
X88011000Y-59563000D01*
X88392000Y-64897000D02*
X88392000Y-59944000D01*
X89408000Y-65913000D02*
X88392000Y-64897000D01*
X104362000Y-78820000D02*
X104362000Y-76726800D01*
X115824000Y-72898000D02*
X115824000Y-74574400D01*
X115824000Y-72898000D02*
X114655600Y-71729600D01*
X104362000Y-76726800D02*
X104343200Y-76708000D01*
X114655600Y-71221600D02*
X114655600Y-71729600D01*
X63881000Y-53721000D02*
X80010000Y-53721000D01*
X105156000Y-74676000D02*
X105156000Y-77012800D01*
X89408000Y-64643000D02*
X90170000Y-65405000D01*
X89408000Y-59436000D02*
X89408000Y-64643000D01*
X88646000Y-58674000D02*
X89408000Y-59436000D01*
X84963000Y-58674000D02*
X88646000Y-58674000D01*
X80010000Y-53721000D02*
X84963000Y-58674000D01*
X117195600Y-74574400D02*
X117195600Y-74676000D01*
X117195600Y-71221600D02*
X117195600Y-74574400D01*
X105162000Y-77018800D02*
X105162000Y-78820000D01*
X105156000Y-77012800D02*
X105162000Y-77018800D01*
X116230400Y-75641200D02*
X115874800Y-75641200D01*
X117195600Y-74676000D02*
X116230400Y-75641200D01*
X121158000Y-49913200D02*
X123408800Y-49913200D01*
X123408800Y-49913200D02*
X123444000Y-49878000D01*
X123358000Y-49964000D02*
X123444000Y-49878000D01*
D43*
X129921000Y-104902000D02*
X128908000Y-104902000D01*
X128908000Y-104902000D02*
X126374000Y-102368000D01*
X76708000Y-67564000D02*
X79248000Y-67564000D01*
X73734000Y-64135000D02*
X73734000Y-67130000D01*
X73734000Y-67130000D02*
X74168000Y-67564000D01*
X74168000Y-67564000D02*
X79248000Y-67564000D01*
X79248000Y-67564000D02*
X81788000Y-67564000D01*
X65532000Y-64389000D02*
X73480000Y-64389000D01*
X73480000Y-64389000D02*
X73734000Y-64135000D01*
D42*
X133705600Y-71221600D02*
X121920000Y-71221600D01*
X97162000Y-80688800D02*
X97162000Y-78820000D01*
X97129600Y-80721200D02*
X97162000Y-80688800D01*
X116433600Y-76708000D02*
X115874800Y-76708000D01*
X121920000Y-71221600D02*
X116433600Y-76708000D01*
X110062000Y-69120000D02*
X134144000Y-69120000D01*
X134144000Y-69120000D02*
X136245600Y-71221600D01*
X76634000Y-64135000D02*
X78590140Y-64135000D01*
D43*
X107061000Y-103760000D02*
X107061000Y-101780000D01*
X109855000Y-44092200D02*
X109855000Y-42366200D01*
M02*
