G04 #@! TF.FileFunction,Copper,L2,Bot,Signal*
%FSLAX46Y46*%
G04 Gerber Fmt 4.6, Leading zero omitted, Abs format (unit mm)*
G04 Created by KiCad (PCBNEW 4.0.6+dfsg1-1) date Wed Nov 29 19:22:06 2017*
%MOMM*%
%LPD*%
G01*
G04 APERTURE LIST*
%ADD10C,0.100000*%
%ADD11C,0.150000*%
%ADD12C,0.300000*%
%ADD13C,0.400000*%
%ADD14R,1.700000X1.700000*%
%ADD15O,1.700000X1.700000*%
%ADD16O,1.998980X1.998980*%
%ADD17R,1.998980X1.998980*%
%ADD18C,1.100000*%
%ADD19C,1.727200*%
%ADD20R,2.032000X1.727200*%
%ADD21C,1.500000*%
%ADD22C,2.000000*%
%ADD23R,1.600000X1.600000*%
%ADD24C,1.600000*%
%ADD25C,6.000000*%
%ADD26C,0.600000*%
%ADD27C,1.000000*%
%ADD28C,0.500000*%
%ADD29C,0.254000*%
G04 APERTURE END LIST*
D10*
D11*
X177002200Y-166007200D02*
X177002200Y-198007200D01*
X285002200Y-198007200D01*
X285002200Y-166007200D01*
X177002200Y-166007200D01*
D10*
D11*
X10000000Y-10000000D02*
X10000000Y-200007200D01*
X287002200Y-200007200D01*
X287002200Y-10000000D01*
X10000000Y-10000000D01*
D10*
D11*
X12000000Y-12000000D02*
X12000000Y-198007200D01*
X285002200Y-198007200D01*
X285002200Y-12000000D01*
X12000000Y-12000000D01*
D10*
D11*
X60000000Y-12000000D02*
X60000000Y-10000000D01*
D10*
D11*
X110000000Y-12000000D02*
X110000000Y-10000000D01*
D10*
D11*
X160000000Y-12000000D02*
X160000000Y-10000000D01*
D10*
D11*
X210000000Y-12000000D02*
X210000000Y-10000000D01*
D10*
D11*
X260000000Y-12000000D02*
X260000000Y-10000000D01*
D10*
D11*
X35990476Y-11588095D02*
X35247619Y-11588095D01*
X35619048Y-11588095D02*
X35619048Y-10288095D01*
X35495238Y-10473810D01*
X35371429Y-10597619D01*
X35247619Y-10659524D01*
D10*
D11*
X85247619Y-10411905D02*
X85309524Y-10350000D01*
X85433333Y-10288095D01*
X85742857Y-10288095D01*
X85866667Y-10350000D01*
X85928571Y-10411905D01*
X85990476Y-10535714D01*
X85990476Y-10659524D01*
X85928571Y-10845238D01*
X85185714Y-11588095D01*
X85990476Y-11588095D01*
D10*
D11*
X135185714Y-10288095D02*
X135990476Y-10288095D01*
X135557143Y-10783333D01*
X135742857Y-10783333D01*
X135866667Y-10845238D01*
X135928571Y-10907143D01*
X135990476Y-11030952D01*
X135990476Y-11340476D01*
X135928571Y-11464286D01*
X135866667Y-11526190D01*
X135742857Y-11588095D01*
X135371429Y-11588095D01*
X135247619Y-11526190D01*
X135185714Y-11464286D01*
D10*
D11*
X185866667Y-10721429D02*
X185866667Y-11588095D01*
X185557143Y-10226190D02*
X185247619Y-11154762D01*
X186052381Y-11154762D01*
D10*
D11*
X235928571Y-10288095D02*
X235309524Y-10288095D01*
X235247619Y-10907143D01*
X235309524Y-10845238D01*
X235433333Y-10783333D01*
X235742857Y-10783333D01*
X235866667Y-10845238D01*
X235928571Y-10907143D01*
X235990476Y-11030952D01*
X235990476Y-11340476D01*
X235928571Y-11464286D01*
X235866667Y-11526190D01*
X235742857Y-11588095D01*
X235433333Y-11588095D01*
X235309524Y-11526190D01*
X235247619Y-11464286D01*
D10*
D11*
X285866667Y-10288095D02*
X285619048Y-10288095D01*
X285495238Y-10350000D01*
X285433333Y-10411905D01*
X285309524Y-10597619D01*
X285247619Y-10845238D01*
X285247619Y-11340476D01*
X285309524Y-11464286D01*
X285371429Y-11526190D01*
X285495238Y-11588095D01*
X285742857Y-11588095D01*
X285866667Y-11526190D01*
X285928571Y-11464286D01*
X285990476Y-11340476D01*
X285990476Y-11030952D01*
X285928571Y-10907143D01*
X285866667Y-10845238D01*
X285742857Y-10783333D01*
X285495238Y-10783333D01*
X285371429Y-10845238D01*
X285309524Y-10907143D01*
X285247619Y-11030952D01*
D10*
D11*
X60000000Y-198007200D02*
X60000000Y-200007200D01*
D10*
D11*
X110000000Y-198007200D02*
X110000000Y-200007200D01*
D10*
D11*
X160000000Y-198007200D02*
X160000000Y-200007200D01*
D10*
D11*
X210000000Y-198007200D02*
X210000000Y-200007200D01*
D10*
D11*
X260000000Y-198007200D02*
X260000000Y-200007200D01*
D10*
D11*
X35990476Y-199595295D02*
X35247619Y-199595295D01*
X35619048Y-199595295D02*
X35619048Y-198295295D01*
X35495238Y-198481010D01*
X35371429Y-198604819D01*
X35247619Y-198666724D01*
D10*
D11*
X85247619Y-198419105D02*
X85309524Y-198357200D01*
X85433333Y-198295295D01*
X85742857Y-198295295D01*
X85866667Y-198357200D01*
X85928571Y-198419105D01*
X85990476Y-198542914D01*
X85990476Y-198666724D01*
X85928571Y-198852438D01*
X85185714Y-199595295D01*
X85990476Y-199595295D01*
D10*
D11*
X135185714Y-198295295D02*
X135990476Y-198295295D01*
X135557143Y-198790533D01*
X135742857Y-198790533D01*
X135866667Y-198852438D01*
X135928571Y-198914343D01*
X135990476Y-199038152D01*
X135990476Y-199347676D01*
X135928571Y-199471486D01*
X135866667Y-199533390D01*
X135742857Y-199595295D01*
X135371429Y-199595295D01*
X135247619Y-199533390D01*
X135185714Y-199471486D01*
D10*
D11*
X185866667Y-198728629D02*
X185866667Y-199595295D01*
X185557143Y-198233390D02*
X185247619Y-199161962D01*
X186052381Y-199161962D01*
D10*
D11*
X235928571Y-198295295D02*
X235309524Y-198295295D01*
X235247619Y-198914343D01*
X235309524Y-198852438D01*
X235433333Y-198790533D01*
X235742857Y-198790533D01*
X235866667Y-198852438D01*
X235928571Y-198914343D01*
X235990476Y-199038152D01*
X235990476Y-199347676D01*
X235928571Y-199471486D01*
X235866667Y-199533390D01*
X235742857Y-199595295D01*
X235433333Y-199595295D01*
X235309524Y-199533390D01*
X235247619Y-199471486D01*
D10*
D11*
X285866667Y-198295295D02*
X285619048Y-198295295D01*
X285495238Y-198357200D01*
X285433333Y-198419105D01*
X285309524Y-198604819D01*
X285247619Y-198852438D01*
X285247619Y-199347676D01*
X285309524Y-199471486D01*
X285371429Y-199533390D01*
X285495238Y-199595295D01*
X285742857Y-199595295D01*
X285866667Y-199533390D01*
X285928571Y-199471486D01*
X285990476Y-199347676D01*
X285990476Y-199038152D01*
X285928571Y-198914343D01*
X285866667Y-198852438D01*
X285742857Y-198790533D01*
X285495238Y-198790533D01*
X285371429Y-198852438D01*
X285309524Y-198914343D01*
X285247619Y-199038152D01*
D10*
D11*
X10000000Y-60000000D02*
X12000000Y-60000000D01*
D10*
D11*
X10000000Y-110000000D02*
X12000000Y-110000000D01*
D10*
D11*
X10000000Y-160000000D02*
X12000000Y-160000000D01*
D10*
D11*
X10690476Y-35216667D02*
X11309524Y-35216667D01*
X10566667Y-35588095D02*
X11000000Y-34288095D01*
X11433333Y-35588095D01*
D10*
D11*
X11092857Y-84907143D02*
X11278571Y-84969048D01*
X11340476Y-85030952D01*
X11402381Y-85154762D01*
X11402381Y-85340476D01*
X11340476Y-85464286D01*
X11278571Y-85526190D01*
X11154762Y-85588095D01*
X10659524Y-85588095D01*
X10659524Y-84288095D01*
X11092857Y-84288095D01*
X11216667Y-84350000D01*
X11278571Y-84411905D01*
X11340476Y-84535714D01*
X11340476Y-84659524D01*
X11278571Y-84783333D01*
X11216667Y-84845238D01*
X11092857Y-84907143D01*
X10659524Y-84907143D01*
D10*
D11*
X11402381Y-135464286D02*
X11340476Y-135526190D01*
X11154762Y-135588095D01*
X11030952Y-135588095D01*
X10845238Y-135526190D01*
X10721429Y-135402381D01*
X10659524Y-135278571D01*
X10597619Y-135030952D01*
X10597619Y-134845238D01*
X10659524Y-134597619D01*
X10721429Y-134473810D01*
X10845238Y-134350000D01*
X11030952Y-134288095D01*
X11154762Y-134288095D01*
X11340476Y-134350000D01*
X11402381Y-134411905D01*
D10*
D11*
X10659524Y-185588095D02*
X10659524Y-184288095D01*
X10969048Y-184288095D01*
X11154762Y-184350000D01*
X11278571Y-184473810D01*
X11340476Y-184597619D01*
X11402381Y-184845238D01*
X11402381Y-185030952D01*
X11340476Y-185278571D01*
X11278571Y-185402381D01*
X11154762Y-185526190D01*
X10969048Y-185588095D01*
X10659524Y-185588095D01*
D10*
D11*
X287002200Y-60000000D02*
X285002200Y-60000000D01*
D10*
D11*
X287002200Y-110000000D02*
X285002200Y-110000000D01*
D10*
D11*
X287002200Y-160000000D02*
X285002200Y-160000000D01*
D10*
D11*
X285692676Y-35216667D02*
X286311724Y-35216667D01*
X285568867Y-35588095D02*
X286002200Y-34288095D01*
X286435533Y-35588095D01*
D10*
D11*
X286095057Y-84907143D02*
X286280771Y-84969048D01*
X286342676Y-85030952D01*
X286404581Y-85154762D01*
X286404581Y-85340476D01*
X286342676Y-85464286D01*
X286280771Y-85526190D01*
X286156962Y-85588095D01*
X285661724Y-85588095D01*
X285661724Y-84288095D01*
X286095057Y-84288095D01*
X286218867Y-84350000D01*
X286280771Y-84411905D01*
X286342676Y-84535714D01*
X286342676Y-84659524D01*
X286280771Y-84783333D01*
X286218867Y-84845238D01*
X286095057Y-84907143D01*
X285661724Y-84907143D01*
D10*
D11*
X286404581Y-135464286D02*
X286342676Y-135526190D01*
X286156962Y-135588095D01*
X286033152Y-135588095D01*
X285847438Y-135526190D01*
X285723629Y-135402381D01*
X285661724Y-135278571D01*
X285599819Y-135030952D01*
X285599819Y-134845238D01*
X285661724Y-134597619D01*
X285723629Y-134473810D01*
X285847438Y-134350000D01*
X286033152Y-134288095D01*
X286156962Y-134288095D01*
X286342676Y-134350000D01*
X286404581Y-134411905D01*
D10*
D11*
X285661724Y-185588095D02*
X285661724Y-184288095D01*
X285971248Y-184288095D01*
X286156962Y-184350000D01*
X286280771Y-184473810D01*
X286342676Y-184597619D01*
X286404581Y-184845238D01*
X286404581Y-185030952D01*
X286342676Y-185278571D01*
X286280771Y-185402381D01*
X286156962Y-185526190D01*
X285971248Y-185588095D01*
X285661724Y-185588095D01*
D10*
D11*
X200359343Y-193785771D02*
X200359343Y-192285771D01*
X200716486Y-192285771D01*
X200930771Y-192357200D01*
X201073629Y-192500057D01*
X201145057Y-192642914D01*
X201216486Y-192928629D01*
X201216486Y-193142914D01*
X201145057Y-193428629D01*
X201073629Y-193571486D01*
X200930771Y-193714343D01*
X200716486Y-193785771D01*
X200359343Y-193785771D01*
X202502200Y-193785771D02*
X202502200Y-193000057D01*
X202430771Y-192857200D01*
X202287914Y-192785771D01*
X202002200Y-192785771D01*
X201859343Y-192857200D01*
X202502200Y-193714343D02*
X202359343Y-193785771D01*
X202002200Y-193785771D01*
X201859343Y-193714343D01*
X201787914Y-193571486D01*
X201787914Y-193428629D01*
X201859343Y-193285771D01*
X202002200Y-193214343D01*
X202359343Y-193214343D01*
X202502200Y-193142914D01*
X203002200Y-192785771D02*
X203573629Y-192785771D01*
X203216486Y-192285771D02*
X203216486Y-193571486D01*
X203287914Y-193714343D01*
X203430772Y-193785771D01*
X203573629Y-193785771D01*
X204645057Y-193714343D02*
X204502200Y-193785771D01*
X204216486Y-193785771D01*
X204073629Y-193714343D01*
X204002200Y-193571486D01*
X204002200Y-193000057D01*
X204073629Y-192857200D01*
X204216486Y-192785771D01*
X204502200Y-192785771D01*
X204645057Y-192857200D01*
X204716486Y-193000057D01*
X204716486Y-193142914D01*
X204002200Y-193285771D01*
X205359343Y-193642914D02*
X205430771Y-193714343D01*
X205359343Y-193785771D01*
X205287914Y-193714343D01*
X205359343Y-193642914D01*
X205359343Y-193785771D01*
X205359343Y-192857200D02*
X205430771Y-192928629D01*
X205359343Y-193000057D01*
X205287914Y-192928629D01*
X205359343Y-192857200D01*
X205359343Y-193000057D01*
X207145057Y-192428629D02*
X207216486Y-192357200D01*
X207359343Y-192285771D01*
X207716486Y-192285771D01*
X207859343Y-192357200D01*
X207930772Y-192428629D01*
X208002200Y-192571486D01*
X208002200Y-192714343D01*
X207930772Y-192928629D01*
X207073629Y-193785771D01*
X208002200Y-193785771D01*
X208930771Y-192285771D02*
X209073628Y-192285771D01*
X209216485Y-192357200D01*
X209287914Y-192428629D01*
X209359343Y-192571486D01*
X209430771Y-192857200D01*
X209430771Y-193214343D01*
X209359343Y-193500057D01*
X209287914Y-193642914D01*
X209216485Y-193714343D01*
X209073628Y-193785771D01*
X208930771Y-193785771D01*
X208787914Y-193714343D01*
X208716485Y-193642914D01*
X208645057Y-193500057D01*
X208573628Y-193214343D01*
X208573628Y-192857200D01*
X208645057Y-192571486D01*
X208716485Y-192428629D01*
X208787914Y-192357200D01*
X208930771Y-192285771D01*
X210859342Y-193785771D02*
X210002199Y-193785771D01*
X210430771Y-193785771D02*
X210430771Y-192285771D01*
X210287914Y-192500057D01*
X210145056Y-192642914D01*
X210002199Y-192714343D01*
X211359342Y-192285771D02*
X212359342Y-192285771D01*
X211716485Y-193785771D01*
X212930770Y-193214343D02*
X214073627Y-193214343D01*
X215073627Y-192285771D02*
X215216484Y-192285771D01*
X215359341Y-192357200D01*
X215430770Y-192428629D01*
X215502199Y-192571486D01*
X215573627Y-192857200D01*
X215573627Y-193214343D01*
X215502199Y-193500057D01*
X215430770Y-193642914D01*
X215359341Y-193714343D01*
X215216484Y-193785771D01*
X215073627Y-193785771D01*
X214930770Y-193714343D01*
X214859341Y-193642914D01*
X214787913Y-193500057D01*
X214716484Y-193214343D01*
X214716484Y-192857200D01*
X214787913Y-192571486D01*
X214859341Y-192428629D01*
X214930770Y-192357200D01*
X215073627Y-192285771D01*
X216073627Y-192285771D02*
X217073627Y-192285771D01*
X216430770Y-193785771D01*
X217645055Y-193214343D02*
X218787912Y-193214343D01*
X219787912Y-192285771D02*
X219930769Y-192285771D01*
X220073626Y-192357200D01*
X220145055Y-192428629D01*
X220216484Y-192571486D01*
X220287912Y-192857200D01*
X220287912Y-193214343D01*
X220216484Y-193500057D01*
X220145055Y-193642914D01*
X220073626Y-193714343D01*
X219930769Y-193785771D01*
X219787912Y-193785771D01*
X219645055Y-193714343D01*
X219573626Y-193642914D01*
X219502198Y-193500057D01*
X219430769Y-193214343D01*
X219430769Y-192857200D01*
X219502198Y-192571486D01*
X219573626Y-192428629D01*
X219645055Y-192357200D01*
X219787912Y-192285771D01*
X221716483Y-193785771D02*
X220859340Y-193785771D01*
X221287912Y-193785771D02*
X221287912Y-192285771D01*
X221145055Y-192500057D01*
X221002197Y-192642914D01*
X220859340Y-192714343D01*
D10*
D11*
X177002200Y-194507200D02*
X285002200Y-194507200D01*
D10*
D11*
X178359343Y-196585771D02*
X178359343Y-195085771D01*
X179216486Y-196585771D02*
X178573629Y-195728629D01*
X179216486Y-195085771D02*
X178359343Y-195942914D01*
X179859343Y-196585771D02*
X179859343Y-195585771D01*
X179859343Y-195085771D02*
X179787914Y-195157200D01*
X179859343Y-195228629D01*
X179930771Y-195157200D01*
X179859343Y-195085771D01*
X179859343Y-195228629D01*
X181430772Y-196442914D02*
X181359343Y-196514343D01*
X181145057Y-196585771D01*
X181002200Y-196585771D01*
X180787915Y-196514343D01*
X180645057Y-196371486D01*
X180573629Y-196228629D01*
X180502200Y-195942914D01*
X180502200Y-195728629D01*
X180573629Y-195442914D01*
X180645057Y-195300057D01*
X180787915Y-195157200D01*
X181002200Y-195085771D01*
X181145057Y-195085771D01*
X181359343Y-195157200D01*
X181430772Y-195228629D01*
X182716486Y-196585771D02*
X182716486Y-195800057D01*
X182645057Y-195657200D01*
X182502200Y-195585771D01*
X182216486Y-195585771D01*
X182073629Y-195657200D01*
X182716486Y-196514343D02*
X182573629Y-196585771D01*
X182216486Y-196585771D01*
X182073629Y-196514343D01*
X182002200Y-196371486D01*
X182002200Y-196228629D01*
X182073629Y-196085771D01*
X182216486Y-196014343D01*
X182573629Y-196014343D01*
X182716486Y-195942914D01*
X184073629Y-196585771D02*
X184073629Y-195085771D01*
X184073629Y-196514343D02*
X183930772Y-196585771D01*
X183645058Y-196585771D01*
X183502200Y-196514343D01*
X183430772Y-196442914D01*
X183359343Y-196300057D01*
X183359343Y-195871486D01*
X183430772Y-195728629D01*
X183502200Y-195657200D01*
X183645058Y-195585771D01*
X183930772Y-195585771D01*
X184073629Y-195657200D01*
X185930772Y-195800057D02*
X186430772Y-195800057D01*
X186645058Y-196585771D02*
X185930772Y-196585771D01*
X185930772Y-195085771D01*
X186645058Y-195085771D01*
X187287915Y-196442914D02*
X187359343Y-196514343D01*
X187287915Y-196585771D01*
X187216486Y-196514343D01*
X187287915Y-196442914D01*
X187287915Y-196585771D01*
X188002201Y-196585771D02*
X188002201Y-195085771D01*
X188359344Y-195085771D01*
X188573629Y-195157200D01*
X188716487Y-195300057D01*
X188787915Y-195442914D01*
X188859344Y-195728629D01*
X188859344Y-195942914D01*
X188787915Y-196228629D01*
X188716487Y-196371486D01*
X188573629Y-196514343D01*
X188359344Y-196585771D01*
X188002201Y-196585771D01*
X189502201Y-196442914D02*
X189573629Y-196514343D01*
X189502201Y-196585771D01*
X189430772Y-196514343D01*
X189502201Y-196442914D01*
X189502201Y-196585771D01*
X190145058Y-196157200D02*
X190859344Y-196157200D01*
X190002201Y-196585771D02*
X190502201Y-195085771D01*
X191002201Y-196585771D01*
X191502201Y-196442914D02*
X191573629Y-196514343D01*
X191502201Y-196585771D01*
X191430772Y-196514343D01*
X191502201Y-196442914D01*
X191502201Y-196585771D01*
X194502201Y-196585771D02*
X194502201Y-195085771D01*
X194645058Y-196014343D02*
X195073629Y-196585771D01*
X195073629Y-195585771D02*
X194502201Y-196157200D01*
X195716487Y-196585771D02*
X195716487Y-195585771D01*
X195716487Y-195085771D02*
X195645058Y-195157200D01*
X195716487Y-195228629D01*
X195787915Y-195157200D01*
X195716487Y-195085771D01*
X195716487Y-195228629D01*
X197073630Y-196514343D02*
X196930773Y-196585771D01*
X196645059Y-196585771D01*
X196502201Y-196514343D01*
X196430773Y-196442914D01*
X196359344Y-196300057D01*
X196359344Y-195871486D01*
X196430773Y-195728629D01*
X196502201Y-195657200D01*
X196645059Y-195585771D01*
X196930773Y-195585771D01*
X197073630Y-195657200D01*
X198359344Y-196585771D02*
X198359344Y-195800057D01*
X198287915Y-195657200D01*
X198145058Y-195585771D01*
X197859344Y-195585771D01*
X197716487Y-195657200D01*
X198359344Y-196514343D02*
X198216487Y-196585771D01*
X197859344Y-196585771D01*
X197716487Y-196514343D01*
X197645058Y-196371486D01*
X197645058Y-196228629D01*
X197716487Y-196085771D01*
X197859344Y-196014343D01*
X198216487Y-196014343D01*
X198359344Y-195942914D01*
X199716487Y-196585771D02*
X199716487Y-195085771D01*
X199716487Y-196514343D02*
X199573630Y-196585771D01*
X199287916Y-196585771D01*
X199145058Y-196514343D01*
X199073630Y-196442914D01*
X199002201Y-196300057D01*
X199002201Y-195871486D01*
X199073630Y-195728629D01*
X199145058Y-195657200D01*
X199287916Y-195585771D01*
X199573630Y-195585771D01*
X199716487Y-195657200D01*
X202216487Y-195585771D02*
X202216487Y-196585771D01*
X201859344Y-195014343D02*
X201502201Y-196085771D01*
X202430773Y-196085771D01*
X203002201Y-196442914D02*
X203073629Y-196514343D01*
X203002201Y-196585771D01*
X202930772Y-196514343D01*
X203002201Y-196442914D01*
X203002201Y-196585771D01*
X204002201Y-195085771D02*
X204145058Y-195085771D01*
X204287915Y-195157200D01*
X204359344Y-195228629D01*
X204430773Y-195371486D01*
X204502201Y-195657200D01*
X204502201Y-196014343D01*
X204430773Y-196300057D01*
X204359344Y-196442914D01*
X204287915Y-196514343D01*
X204145058Y-196585771D01*
X204002201Y-196585771D01*
X203859344Y-196514343D01*
X203787915Y-196442914D01*
X203716487Y-196300057D01*
X203645058Y-196014343D01*
X203645058Y-195657200D01*
X203716487Y-195371486D01*
X203787915Y-195228629D01*
X203859344Y-195157200D01*
X204002201Y-195085771D01*
X205145058Y-196442914D02*
X205216486Y-196514343D01*
X205145058Y-196585771D01*
X205073629Y-196514343D01*
X205145058Y-196442914D01*
X205145058Y-196585771D01*
X206502201Y-195085771D02*
X206216487Y-195085771D01*
X206073630Y-195157200D01*
X206002201Y-195228629D01*
X205859344Y-195442914D01*
X205787915Y-195728629D01*
X205787915Y-196300057D01*
X205859344Y-196442914D01*
X205930772Y-196514343D01*
X206073630Y-196585771D01*
X206359344Y-196585771D01*
X206502201Y-196514343D01*
X206573630Y-196442914D01*
X206645058Y-196300057D01*
X206645058Y-195942914D01*
X206573630Y-195800057D01*
X206502201Y-195728629D01*
X206359344Y-195657200D01*
X206073630Y-195657200D01*
X205930772Y-195728629D01*
X205859344Y-195800057D01*
X205787915Y-195942914D01*
X207287915Y-196014343D02*
X208430772Y-196014343D01*
X207859343Y-196585771D02*
X207859343Y-195442914D01*
X209787915Y-196585771D02*
X209787915Y-195085771D01*
X209787915Y-196514343D02*
X209645058Y-196585771D01*
X209359344Y-196585771D01*
X209216486Y-196514343D01*
X209145058Y-196442914D01*
X209073629Y-196300057D01*
X209073629Y-195871486D01*
X209145058Y-195728629D01*
X209216486Y-195657200D01*
X209359344Y-195585771D01*
X209645058Y-195585771D01*
X209787915Y-195657200D01*
X210287915Y-195585771D02*
X210859344Y-195585771D01*
X210502201Y-196585771D02*
X210502201Y-195300057D01*
X210573629Y-195157200D01*
X210716487Y-195085771D01*
X210859344Y-195085771D01*
X211287915Y-196514343D02*
X211430772Y-196585771D01*
X211716487Y-196585771D01*
X211859344Y-196514343D01*
X211930772Y-196371486D01*
X211930772Y-196300057D01*
X211859344Y-196157200D01*
X211716487Y-196085771D01*
X211502201Y-196085771D01*
X211359344Y-196014343D01*
X211287915Y-195871486D01*
X211287915Y-195800057D01*
X211359344Y-195657200D01*
X211502201Y-195585771D01*
X211716487Y-195585771D01*
X211859344Y-195657200D01*
X213216487Y-195585771D02*
X213216487Y-196800057D01*
X213145058Y-196942914D01*
X213073630Y-197014343D01*
X212930773Y-197085771D01*
X212716487Y-197085771D01*
X212573630Y-197014343D01*
X213216487Y-196514343D02*
X213073630Y-196585771D01*
X212787916Y-196585771D01*
X212645058Y-196514343D01*
X212573630Y-196442914D01*
X212502201Y-196300057D01*
X212502201Y-195871486D01*
X212573630Y-195728629D01*
X212645058Y-195657200D01*
X212787916Y-195585771D01*
X213073630Y-195585771D01*
X213216487Y-195657200D01*
X214716487Y-196585771D02*
X213859344Y-196585771D01*
X214287916Y-196585771D02*
X214287916Y-195085771D01*
X214145059Y-195300057D01*
X214002201Y-195442914D01*
X213859344Y-195514343D01*
X215359344Y-196014343D02*
X216502201Y-196014343D01*
X218002201Y-196585771D02*
X217145058Y-196585771D01*
X217573630Y-196585771D02*
X217573630Y-195085771D01*
X217430773Y-195300057D01*
X217287915Y-195442914D01*
X217145058Y-195514343D01*
D10*
D11*
X177002200Y-191507200D02*
X285002200Y-191507200D01*
D10*
D12*
X264216486Y-193785771D02*
X263716486Y-193071486D01*
X263359343Y-193785771D02*
X263359343Y-192285771D01*
X263930771Y-192285771D01*
X264073629Y-192357200D01*
X264145057Y-192428629D01*
X264216486Y-192571486D01*
X264216486Y-192785771D01*
X264145057Y-192928629D01*
X264073629Y-193000057D01*
X263930771Y-193071486D01*
X263359343Y-193071486D01*
X265430771Y-193714343D02*
X265287914Y-193785771D01*
X265002200Y-193785771D01*
X264859343Y-193714343D01*
X264787914Y-193571486D01*
X264787914Y-193000057D01*
X264859343Y-192857200D01*
X265002200Y-192785771D01*
X265287914Y-192785771D01*
X265430771Y-192857200D01*
X265502200Y-193000057D01*
X265502200Y-193142914D01*
X264787914Y-193285771D01*
X266002200Y-192785771D02*
X266359343Y-193785771D01*
X266716485Y-192785771D01*
X267287914Y-193642914D02*
X267359342Y-193714343D01*
X267287914Y-193785771D01*
X267216485Y-193714343D01*
X267287914Y-193642914D01*
X267287914Y-193785771D01*
X267287914Y-192857200D02*
X267359342Y-192928629D01*
X267287914Y-193000057D01*
X267216485Y-192928629D01*
X267287914Y-192857200D01*
X267287914Y-193000057D01*
X269430771Y-192285771D02*
X269573628Y-192285771D01*
X269716485Y-192357200D01*
X269787914Y-192428629D01*
X269859343Y-192571486D01*
X269930771Y-192857200D01*
X269930771Y-193214343D01*
X269859343Y-193500057D01*
X269787914Y-193642914D01*
X269716485Y-193714343D01*
X269573628Y-193785771D01*
X269430771Y-193785771D01*
X269287914Y-193714343D01*
X269216485Y-193642914D01*
X269145057Y-193500057D01*
X269073628Y-193214343D01*
X269073628Y-192857200D01*
X269145057Y-192571486D01*
X269216485Y-192428629D01*
X269287914Y-192357200D01*
X269430771Y-192285771D01*
X270573628Y-193642914D02*
X270645056Y-193714343D01*
X270573628Y-193785771D01*
X270502199Y-193714343D01*
X270573628Y-193642914D01*
X270573628Y-193785771D01*
X272073628Y-193785771D02*
X271216485Y-193785771D01*
X271645057Y-193785771D02*
X271645057Y-192285771D01*
X271502200Y-192500057D01*
X271359342Y-192642914D01*
X271216485Y-192714343D01*
D10*
D11*
X178287914Y-193714343D02*
X178502200Y-193785771D01*
X178859343Y-193785771D01*
X179002200Y-193714343D01*
X179073629Y-193642914D01*
X179145057Y-193500057D01*
X179145057Y-193357200D01*
X179073629Y-193214343D01*
X179002200Y-193142914D01*
X178859343Y-193071486D01*
X178573629Y-193000057D01*
X178430771Y-192928629D01*
X178359343Y-192857200D01*
X178287914Y-192714343D01*
X178287914Y-192571486D01*
X178359343Y-192428629D01*
X178430771Y-192357200D01*
X178573629Y-192285771D01*
X178930771Y-192285771D01*
X179145057Y-192357200D01*
X179787914Y-193785771D02*
X179787914Y-192785771D01*
X179787914Y-192285771D02*
X179716485Y-192357200D01*
X179787914Y-192428629D01*
X179859342Y-192357200D01*
X179787914Y-192285771D01*
X179787914Y-192428629D01*
X180359343Y-192785771D02*
X181145057Y-192785771D01*
X180359343Y-193785771D01*
X181145057Y-193785771D01*
X182287914Y-193714343D02*
X182145057Y-193785771D01*
X181859343Y-193785771D01*
X181716486Y-193714343D01*
X181645057Y-193571486D01*
X181645057Y-193000057D01*
X181716486Y-192857200D01*
X181859343Y-192785771D01*
X182145057Y-192785771D01*
X182287914Y-192857200D01*
X182359343Y-193000057D01*
X182359343Y-193142914D01*
X181645057Y-193285771D01*
X183002200Y-193642914D02*
X183073628Y-193714343D01*
X183002200Y-193785771D01*
X182930771Y-193714343D01*
X183002200Y-193642914D01*
X183002200Y-193785771D01*
X183002200Y-192857200D02*
X183073628Y-192928629D01*
X183002200Y-193000057D01*
X182930771Y-192928629D01*
X183002200Y-192857200D01*
X183002200Y-193000057D01*
X184787914Y-193357200D02*
X185502200Y-193357200D01*
X184645057Y-193785771D02*
X185145057Y-192285771D01*
X185645057Y-193785771D01*
X186787914Y-192785771D02*
X186787914Y-193785771D01*
X186430771Y-192214343D02*
X186073628Y-193285771D01*
X187002200Y-193285771D01*
D10*
D11*
X263359343Y-196585771D02*
X263359343Y-195085771D01*
X264716486Y-196585771D02*
X264716486Y-195085771D01*
X264716486Y-196514343D02*
X264573629Y-196585771D01*
X264287915Y-196585771D01*
X264145057Y-196514343D01*
X264073629Y-196442914D01*
X264002200Y-196300057D01*
X264002200Y-195871486D01*
X264073629Y-195728629D01*
X264145057Y-195657200D01*
X264287915Y-195585771D01*
X264573629Y-195585771D01*
X264716486Y-195657200D01*
X265430772Y-196442914D02*
X265502200Y-196514343D01*
X265430772Y-196585771D01*
X265359343Y-196514343D01*
X265430772Y-196442914D01*
X265430772Y-196585771D01*
X265430772Y-195657200D02*
X265502200Y-195728629D01*
X265430772Y-195800057D01*
X265359343Y-195728629D01*
X265430772Y-195657200D01*
X265430772Y-195800057D01*
X268073629Y-196585771D02*
X267216486Y-196585771D01*
X267645058Y-196585771D02*
X267645058Y-195085771D01*
X267502201Y-195300057D01*
X267359343Y-195442914D01*
X267216486Y-195514343D01*
X269787914Y-195014343D02*
X268502200Y-196942914D01*
X271073629Y-196585771D02*
X270216486Y-196585771D01*
X270645058Y-196585771D02*
X270645058Y-195085771D01*
X270502201Y-195300057D01*
X270359343Y-195442914D01*
X270216486Y-195514343D01*
D10*
D11*
X177002200Y-187507200D02*
X285002200Y-187507200D01*
D10*
D13*
X178454581Y-188211962D02*
X179597438Y-188211962D01*
X178776010Y-190211962D02*
X179026010Y-188211962D01*
X180014105Y-190211962D02*
X180180771Y-188878629D01*
X180264105Y-188211962D02*
X180156962Y-188307200D01*
X180240295Y-188402438D01*
X180347439Y-188307200D01*
X180264105Y-188211962D01*
X180240295Y-188402438D01*
X180847438Y-188878629D02*
X181609343Y-188878629D01*
X181216486Y-188211962D02*
X181002200Y-189926248D01*
X181073630Y-190116724D01*
X181252201Y-190211962D01*
X181442677Y-190211962D01*
X182395058Y-190211962D02*
X182216487Y-190116724D01*
X182145057Y-189926248D01*
X182359343Y-188211962D01*
X183930772Y-190116724D02*
X183728391Y-190211962D01*
X183347439Y-190211962D01*
X183168867Y-190116724D01*
X183097438Y-189926248D01*
X183192676Y-189164343D01*
X183311724Y-188973867D01*
X183514105Y-188878629D01*
X183895057Y-188878629D01*
X184073629Y-188973867D01*
X184145057Y-189164343D01*
X184121248Y-189354819D01*
X183145057Y-189545295D01*
X184895057Y-190021486D02*
X184978392Y-190116724D01*
X184871248Y-190211962D01*
X184787915Y-190116724D01*
X184895057Y-190021486D01*
X184871248Y-190211962D01*
X185026010Y-188973867D02*
X185109344Y-189069105D01*
X185002200Y-189164343D01*
X184918867Y-189069105D01*
X185026010Y-188973867D01*
X185002200Y-189164343D01*
X187347439Y-190211962D02*
X187597439Y-188211962D01*
X188085534Y-189640533D01*
X188930773Y-188211962D01*
X188680773Y-190211962D01*
X190490296Y-190211962D02*
X190621248Y-189164343D01*
X190549820Y-188973867D01*
X190371248Y-188878629D01*
X189990296Y-188878629D01*
X189787915Y-188973867D01*
X190502201Y-190116724D02*
X190299820Y-190211962D01*
X189823630Y-190211962D01*
X189645058Y-190116724D01*
X189573629Y-189926248D01*
X189597439Y-189735771D01*
X189716486Y-189545295D01*
X189918868Y-189450057D01*
X190395058Y-189450057D01*
X190597439Y-189354819D01*
X191442677Y-190211962D02*
X191609343Y-188878629D01*
X191692677Y-188211962D02*
X191585534Y-188307200D01*
X191668867Y-188402438D01*
X191776011Y-188307200D01*
X191692677Y-188211962D01*
X191668867Y-188402438D01*
X192561724Y-188878629D02*
X192395058Y-190211962D01*
X192537915Y-189069105D02*
X192645059Y-188973867D01*
X192847439Y-188878629D01*
X193133153Y-188878629D01*
X193311725Y-188973867D01*
X193383153Y-189164343D01*
X193252201Y-190211962D01*
X196526011Y-189164343D02*
X196799820Y-189259581D01*
X196883155Y-189354819D01*
X196954583Y-189545295D01*
X196918869Y-189831010D01*
X196799821Y-190021486D01*
X196692678Y-190116724D01*
X196490297Y-190211962D01*
X195728392Y-190211962D01*
X195978392Y-188211962D01*
X196645059Y-188211962D01*
X196823630Y-188307200D01*
X196906963Y-188402438D01*
X196978393Y-188592914D01*
X196954583Y-188783390D01*
X196835535Y-188973867D01*
X196728392Y-189069105D01*
X196526011Y-189164343D01*
X195859344Y-189164343D01*
X198014107Y-190211962D02*
X197835536Y-190116724D01*
X197752201Y-190021486D01*
X197680773Y-189831010D01*
X197752201Y-189259581D01*
X197871249Y-189069105D01*
X197978393Y-188973867D01*
X198180773Y-188878629D01*
X198466487Y-188878629D01*
X198645059Y-188973867D01*
X198728392Y-189069105D01*
X198799820Y-189259581D01*
X198728392Y-189831010D01*
X198609344Y-190021486D01*
X198502202Y-190116724D01*
X198299821Y-190211962D01*
X198014107Y-190211962D01*
X200395059Y-190211962D02*
X200526011Y-189164343D01*
X200454583Y-188973867D01*
X200276011Y-188878629D01*
X199895059Y-188878629D01*
X199692678Y-188973867D01*
X200406964Y-190116724D02*
X200204583Y-190211962D01*
X199728393Y-190211962D01*
X199549821Y-190116724D01*
X199478392Y-189926248D01*
X199502202Y-189735771D01*
X199621249Y-189545295D01*
X199823631Y-189450057D01*
X200299821Y-189450057D01*
X200502202Y-189354819D01*
X201347440Y-190211962D02*
X201514106Y-188878629D01*
X201466487Y-189259581D02*
X201585536Y-189069105D01*
X201692679Y-188973867D01*
X201895059Y-188878629D01*
X202085535Y-188878629D01*
X203442678Y-190211962D02*
X203692678Y-188211962D01*
X203454583Y-190116724D02*
X203252202Y-190211962D01*
X202871250Y-190211962D01*
X202692679Y-190116724D01*
X202609344Y-190021486D01*
X202537916Y-189831010D01*
X202609344Y-189259581D01*
X202728392Y-189069105D01*
X202835536Y-188973867D01*
X203037916Y-188878629D01*
X203418868Y-188878629D01*
X203597440Y-188973867D01*
D10*
D11*
X178859343Y-185600057D02*
X178359343Y-185600057D01*
X178359343Y-186385771D02*
X178359343Y-184885771D01*
X179073629Y-184885771D01*
X179645057Y-186385771D02*
X179645057Y-185385771D01*
X179645057Y-184885771D02*
X179573628Y-184957200D01*
X179645057Y-185028629D01*
X179716485Y-184957200D01*
X179645057Y-184885771D01*
X179645057Y-185028629D01*
X180573629Y-186385771D02*
X180430771Y-186314343D01*
X180359343Y-186171486D01*
X180359343Y-184885771D01*
X181716485Y-186314343D02*
X181573628Y-186385771D01*
X181287914Y-186385771D01*
X181145057Y-186314343D01*
X181073628Y-186171486D01*
X181073628Y-185600057D01*
X181145057Y-185457200D01*
X181287914Y-185385771D01*
X181573628Y-185385771D01*
X181716485Y-185457200D01*
X181787914Y-185600057D01*
X181787914Y-185742914D01*
X181073628Y-185885771D01*
X182430771Y-186242914D02*
X182502199Y-186314343D01*
X182430771Y-186385771D01*
X182359342Y-186314343D01*
X182430771Y-186242914D01*
X182430771Y-186385771D01*
X182430771Y-185457200D02*
X182502199Y-185528629D01*
X182430771Y-185600057D01*
X182359342Y-185528629D01*
X182430771Y-185457200D01*
X182430771Y-185600057D01*
X184287914Y-186385771D02*
X184287914Y-185385771D01*
X184287914Y-185528629D02*
X184359342Y-185457200D01*
X184502200Y-185385771D01*
X184716485Y-185385771D01*
X184859342Y-185457200D01*
X184930771Y-185600057D01*
X184930771Y-186385771D01*
X184930771Y-185600057D02*
X185002200Y-185457200D01*
X185145057Y-185385771D01*
X185359342Y-185385771D01*
X185502200Y-185457200D01*
X185573628Y-185600057D01*
X185573628Y-186385771D01*
X186930771Y-186385771D02*
X186930771Y-185600057D01*
X186859342Y-185457200D01*
X186716485Y-185385771D01*
X186430771Y-185385771D01*
X186287914Y-185457200D01*
X186930771Y-186314343D02*
X186787914Y-186385771D01*
X186430771Y-186385771D01*
X186287914Y-186314343D01*
X186216485Y-186171486D01*
X186216485Y-186028629D01*
X186287914Y-185885771D01*
X186430771Y-185814343D01*
X186787914Y-185814343D01*
X186930771Y-185742914D01*
X187645057Y-186385771D02*
X187645057Y-185385771D01*
X187645057Y-184885771D02*
X187573628Y-184957200D01*
X187645057Y-185028629D01*
X187716485Y-184957200D01*
X187645057Y-184885771D01*
X187645057Y-185028629D01*
X188359343Y-185385771D02*
X188359343Y-186385771D01*
X188359343Y-185528629D02*
X188430771Y-185457200D01*
X188573629Y-185385771D01*
X188787914Y-185385771D01*
X188930771Y-185457200D01*
X189002200Y-185600057D01*
X189002200Y-186385771D01*
X189716486Y-186385771D02*
X189716486Y-184885771D01*
X189716486Y-185457200D02*
X189859343Y-185385771D01*
X190145057Y-185385771D01*
X190287914Y-185457200D01*
X190359343Y-185528629D01*
X190430772Y-185671486D01*
X190430772Y-186100057D01*
X190359343Y-186242914D01*
X190287914Y-186314343D01*
X190145057Y-186385771D01*
X189859343Y-186385771D01*
X189716486Y-186314343D01*
X191287915Y-186385771D02*
X191145057Y-186314343D01*
X191073629Y-186242914D01*
X191002200Y-186100057D01*
X191002200Y-185671486D01*
X191073629Y-185528629D01*
X191145057Y-185457200D01*
X191287915Y-185385771D01*
X191502200Y-185385771D01*
X191645057Y-185457200D01*
X191716486Y-185528629D01*
X191787915Y-185671486D01*
X191787915Y-186100057D01*
X191716486Y-186242914D01*
X191645057Y-186314343D01*
X191502200Y-186385771D01*
X191287915Y-186385771D01*
X193073629Y-186385771D02*
X193073629Y-185600057D01*
X193002200Y-185457200D01*
X192859343Y-185385771D01*
X192573629Y-185385771D01*
X192430772Y-185457200D01*
X193073629Y-186314343D02*
X192930772Y-186385771D01*
X192573629Y-186385771D01*
X192430772Y-186314343D01*
X192359343Y-186171486D01*
X192359343Y-186028629D01*
X192430772Y-185885771D01*
X192573629Y-185814343D01*
X192930772Y-185814343D01*
X193073629Y-185742914D01*
X193787915Y-186385771D02*
X193787915Y-185385771D01*
X193787915Y-185671486D02*
X193859343Y-185528629D01*
X193930772Y-185457200D01*
X194073629Y-185385771D01*
X194216486Y-185385771D01*
X195359343Y-186385771D02*
X195359343Y-184885771D01*
X195359343Y-186314343D02*
X195216486Y-186385771D01*
X194930772Y-186385771D01*
X194787914Y-186314343D01*
X194716486Y-186242914D01*
X194645057Y-186100057D01*
X194645057Y-185671486D01*
X194716486Y-185528629D01*
X194787914Y-185457200D01*
X194930772Y-185385771D01*
X195216486Y-185385771D01*
X195359343Y-185457200D01*
X196073629Y-186242914D02*
X196145057Y-186314343D01*
X196073629Y-186385771D01*
X196002200Y-186314343D01*
X196073629Y-186242914D01*
X196073629Y-186385771D01*
X196787915Y-186385771D02*
X196787915Y-184885771D01*
X196930772Y-185814343D02*
X197359343Y-186385771D01*
X197359343Y-185385771D02*
X196787915Y-185957200D01*
X198002201Y-186385771D02*
X198002201Y-185385771D01*
X198002201Y-184885771D02*
X197930772Y-184957200D01*
X198002201Y-185028629D01*
X198073629Y-184957200D01*
X198002201Y-184885771D01*
X198002201Y-185028629D01*
X199359344Y-186314343D02*
X199216487Y-186385771D01*
X198930773Y-186385771D01*
X198787915Y-186314343D01*
X198716487Y-186242914D01*
X198645058Y-186100057D01*
X198645058Y-185671486D01*
X198716487Y-185528629D01*
X198787915Y-185457200D01*
X198930773Y-185385771D01*
X199216487Y-185385771D01*
X199359344Y-185457200D01*
X200645058Y-186385771D02*
X200645058Y-185600057D01*
X200573629Y-185457200D01*
X200430772Y-185385771D01*
X200145058Y-185385771D01*
X200002201Y-185457200D01*
X200645058Y-186314343D02*
X200502201Y-186385771D01*
X200145058Y-186385771D01*
X200002201Y-186314343D01*
X199930772Y-186171486D01*
X199930772Y-186028629D01*
X200002201Y-185885771D01*
X200145058Y-185814343D01*
X200502201Y-185814343D01*
X200645058Y-185742914D01*
X202002201Y-186385771D02*
X202002201Y-184885771D01*
X202002201Y-186314343D02*
X201859344Y-186385771D01*
X201573630Y-186385771D01*
X201430772Y-186314343D01*
X201359344Y-186242914D01*
X201287915Y-186100057D01*
X201287915Y-185671486D01*
X201359344Y-185528629D01*
X201430772Y-185457200D01*
X201573630Y-185385771D01*
X201859344Y-185385771D01*
X202002201Y-185457200D01*
X202359344Y-186528629D02*
X203502201Y-186528629D01*
X203859344Y-185385771D02*
X203859344Y-186885771D01*
X203859344Y-185457200D02*
X204002201Y-185385771D01*
X204287915Y-185385771D01*
X204430772Y-185457200D01*
X204502201Y-185528629D01*
X204573630Y-185671486D01*
X204573630Y-186100057D01*
X204502201Y-186242914D01*
X204430772Y-186314343D01*
X204287915Y-186385771D01*
X204002201Y-186385771D01*
X203859344Y-186314343D01*
X205859344Y-186314343D02*
X205716487Y-186385771D01*
X205430773Y-186385771D01*
X205287915Y-186314343D01*
X205216487Y-186242914D01*
X205145058Y-186100057D01*
X205145058Y-185671486D01*
X205216487Y-185528629D01*
X205287915Y-185457200D01*
X205430773Y-185385771D01*
X205716487Y-185385771D01*
X205859344Y-185457200D01*
X206502201Y-186385771D02*
X206502201Y-184885771D01*
X206502201Y-185457200D02*
X206645058Y-185385771D01*
X206930772Y-185385771D01*
X207073629Y-185457200D01*
X207145058Y-185528629D01*
X207216487Y-185671486D01*
X207216487Y-186100057D01*
X207145058Y-186242914D01*
X207073629Y-186314343D01*
X206930772Y-186385771D01*
X206645058Y-186385771D01*
X206502201Y-186314343D01*
D10*
D11*
X177002200Y-181507200D02*
X285002200Y-181507200D01*
D10*
D11*
X178287914Y-183614343D02*
X178502200Y-183685771D01*
X178859343Y-183685771D01*
X179002200Y-183614343D01*
X179073629Y-183542914D01*
X179145057Y-183400057D01*
X179145057Y-183257200D01*
X179073629Y-183114343D01*
X179002200Y-183042914D01*
X178859343Y-182971486D01*
X178573629Y-182900057D01*
X178430771Y-182828629D01*
X178359343Y-182757200D01*
X178287914Y-182614343D01*
X178287914Y-182471486D01*
X178359343Y-182328629D01*
X178430771Y-182257200D01*
X178573629Y-182185771D01*
X178930771Y-182185771D01*
X179145057Y-182257200D01*
X179787914Y-183685771D02*
X179787914Y-182185771D01*
X180430771Y-183685771D02*
X180430771Y-182900057D01*
X180359342Y-182757200D01*
X180216485Y-182685771D01*
X180002200Y-182685771D01*
X179859342Y-182757200D01*
X179787914Y-182828629D01*
X181716485Y-183614343D02*
X181573628Y-183685771D01*
X181287914Y-183685771D01*
X181145057Y-183614343D01*
X181073628Y-183471486D01*
X181073628Y-182900057D01*
X181145057Y-182757200D01*
X181287914Y-182685771D01*
X181573628Y-182685771D01*
X181716485Y-182757200D01*
X181787914Y-182900057D01*
X181787914Y-183042914D01*
X181073628Y-183185771D01*
X183002199Y-183614343D02*
X182859342Y-183685771D01*
X182573628Y-183685771D01*
X182430771Y-183614343D01*
X182359342Y-183471486D01*
X182359342Y-182900057D01*
X182430771Y-182757200D01*
X182573628Y-182685771D01*
X182859342Y-182685771D01*
X183002199Y-182757200D01*
X183073628Y-182900057D01*
X183073628Y-183042914D01*
X182359342Y-183185771D01*
X183502199Y-182685771D02*
X184073628Y-182685771D01*
X183716485Y-182185771D02*
X183716485Y-183471486D01*
X183787913Y-183614343D01*
X183930771Y-183685771D01*
X184073628Y-183685771D01*
X184573628Y-183542914D02*
X184645056Y-183614343D01*
X184573628Y-183685771D01*
X184502199Y-183614343D01*
X184573628Y-183542914D01*
X184573628Y-183685771D01*
X184573628Y-182757200D02*
X184645056Y-182828629D01*
X184573628Y-182900057D01*
X184502199Y-182828629D01*
X184573628Y-182757200D01*
X184573628Y-182900057D01*
D10*
D12*
X178359343Y-179900057D02*
X178859343Y-179900057D01*
X179073629Y-180685771D02*
X178359343Y-180685771D01*
X178359343Y-179185771D01*
X179073629Y-179185771D01*
X179930772Y-180685771D02*
X179787914Y-180614343D01*
X179716486Y-180471486D01*
X179716486Y-179185771D01*
X181073628Y-180614343D02*
X180930771Y-180685771D01*
X180645057Y-180685771D01*
X180502200Y-180614343D01*
X180430771Y-180471486D01*
X180430771Y-179900057D01*
X180502200Y-179757200D01*
X180645057Y-179685771D01*
X180930771Y-179685771D01*
X181073628Y-179757200D01*
X181145057Y-179900057D01*
X181145057Y-180042914D01*
X180430771Y-180185771D01*
X182430771Y-180614343D02*
X182287914Y-180685771D01*
X182002200Y-180685771D01*
X181859342Y-180614343D01*
X181787914Y-180542914D01*
X181716485Y-180400057D01*
X181716485Y-179971486D01*
X181787914Y-179828629D01*
X181859342Y-179757200D01*
X182002200Y-179685771D01*
X182287914Y-179685771D01*
X182430771Y-179757200D01*
X182859342Y-179685771D02*
X183430771Y-179685771D01*
X183073628Y-179185771D02*
X183073628Y-180471486D01*
X183145056Y-180614343D01*
X183287914Y-180685771D01*
X183430771Y-180685771D01*
X183930771Y-180685771D02*
X183930771Y-179685771D01*
X183930771Y-179971486D02*
X184002199Y-179828629D01*
X184073628Y-179757200D01*
X184216485Y-179685771D01*
X184359342Y-179685771D01*
X185073628Y-180685771D02*
X184930770Y-180614343D01*
X184859342Y-180542914D01*
X184787913Y-180400057D01*
X184787913Y-179971486D01*
X184859342Y-179828629D01*
X184930770Y-179757200D01*
X185073628Y-179685771D01*
X185287913Y-179685771D01*
X185430770Y-179757200D01*
X185502199Y-179828629D01*
X185573628Y-179971486D01*
X185573628Y-180400057D01*
X185502199Y-180542914D01*
X185430770Y-180614343D01*
X185287913Y-180685771D01*
X185073628Y-180685771D01*
X186216485Y-179685771D02*
X186216485Y-181185771D01*
X186216485Y-179757200D02*
X186359342Y-179685771D01*
X186645056Y-179685771D01*
X186787913Y-179757200D01*
X186859342Y-179828629D01*
X186930771Y-179971486D01*
X186930771Y-180400057D01*
X186859342Y-180542914D01*
X186787913Y-180614343D01*
X186645056Y-180685771D01*
X186359342Y-180685771D01*
X186216485Y-180614343D01*
X187573628Y-180685771D02*
X187573628Y-179685771D01*
X187573628Y-179185771D02*
X187502199Y-179257200D01*
X187573628Y-179328629D01*
X187645056Y-179257200D01*
X187573628Y-179185771D01*
X187573628Y-179328629D01*
X188502200Y-180685771D02*
X188359342Y-180614343D01*
X188287914Y-180542914D01*
X188216485Y-180400057D01*
X188216485Y-179971486D01*
X188287914Y-179828629D01*
X188359342Y-179757200D01*
X188502200Y-179685771D01*
X188716485Y-179685771D01*
X188859342Y-179757200D01*
X188930771Y-179828629D01*
X189002200Y-179971486D01*
X189002200Y-180400057D01*
X188930771Y-180542914D01*
X188859342Y-180614343D01*
X188716485Y-180685771D01*
X188502200Y-180685771D01*
X189645057Y-179685771D02*
X189645057Y-180685771D01*
X189645057Y-179828629D02*
X189716485Y-179757200D01*
X189859343Y-179685771D01*
X190073628Y-179685771D01*
X190216485Y-179757200D01*
X190287914Y-179900057D01*
X190287914Y-180685771D01*
X191573628Y-180614343D02*
X191430771Y-180685771D01*
X191145057Y-180685771D01*
X191002200Y-180614343D01*
X190930771Y-180471486D01*
X190930771Y-179900057D01*
X191002200Y-179757200D01*
X191145057Y-179685771D01*
X191430771Y-179685771D01*
X191573628Y-179757200D01*
X191645057Y-179900057D01*
X191645057Y-180042914D01*
X190930771Y-180185771D01*
X192859342Y-180614343D02*
X192716485Y-180685771D01*
X192430771Y-180685771D01*
X192287914Y-180614343D01*
X192216485Y-180471486D01*
X192216485Y-179900057D01*
X192287914Y-179757200D01*
X192430771Y-179685771D01*
X192716485Y-179685771D01*
X192859342Y-179757200D01*
X192930771Y-179900057D01*
X192930771Y-180042914D01*
X192216485Y-180185771D01*
X193573628Y-180685771D02*
X193573628Y-179685771D01*
X193573628Y-179971486D02*
X193645056Y-179828629D01*
X193716485Y-179757200D01*
X193859342Y-179685771D01*
X194002199Y-179685771D01*
D10*
D11*
X197002200Y-191507200D02*
X197002200Y-194507200D01*
D10*
D11*
X261002200Y-191507200D02*
X261002200Y-198007200D01*
D14*
X69405500Y-87884000D03*
D15*
X69405500Y-90424000D03*
X69405500Y-92964000D03*
X69405500Y-95504000D03*
X69405500Y-98044000D03*
X69405500Y-100584000D03*
X69405500Y-103124000D03*
X69405500Y-105664000D03*
D14*
X74168000Y-67564000D03*
D15*
X76708000Y-67564000D03*
X79248000Y-67564000D03*
X81788000Y-67564000D03*
D14*
X63881000Y-58801000D03*
D15*
X63881000Y-56261000D03*
X63881000Y-53721000D03*
X63881000Y-51181000D03*
D16*
X65532000Y-66929000D03*
D17*
X65532000Y-64389000D03*
D18*
X62992000Y-64389000D03*
X62992000Y-66929000D03*
D19*
X141325600Y-71221600D03*
X138785600Y-71221600D03*
X133705600Y-71221600D03*
X114655600Y-71221600D03*
X117195600Y-71221600D03*
X136245600Y-86461600D03*
X133705600Y-86461600D03*
D20*
X138785600Y-86461600D03*
D19*
X141325600Y-86461600D03*
X114655600Y-86461600D03*
X117195600Y-86461600D03*
X136245600Y-71221600D03*
D14*
X74168000Y-70358000D03*
D15*
X76708000Y-70358000D03*
X79248000Y-70358000D03*
X81788000Y-70358000D03*
D14*
X75946000Y-99822000D03*
D15*
X75946000Y-97282000D03*
X75946000Y-94742000D03*
X75946000Y-92202000D03*
X75946000Y-89662000D03*
X75946000Y-87122000D03*
D16*
X132461000Y-104902000D03*
D17*
X129921000Y-104902000D03*
D21*
X98933000Y-82931000D03*
X103833000Y-82931000D03*
D14*
X87884000Y-38989000D03*
D15*
X90424000Y-38989000D03*
X92964000Y-38989000D03*
X95504000Y-38989000D03*
X98044000Y-38989000D03*
X100584000Y-38989000D03*
X103124000Y-38989000D03*
X105664000Y-38989000D03*
D14*
X121666000Y-39497000D03*
D15*
X124206000Y-39497000D03*
X126746000Y-39497000D03*
X129286000Y-39497000D03*
D14*
X141732000Y-50292000D03*
D15*
X141732000Y-52832000D03*
X141732000Y-55372000D03*
X141732000Y-57912000D03*
X141732000Y-60452000D03*
X141732000Y-62992000D03*
X141732000Y-65532000D03*
X141732000Y-68072000D03*
D14*
X84709000Y-48514000D03*
D15*
X82169000Y-48514000D03*
X79629000Y-48514000D03*
X77089000Y-48514000D03*
D14*
X66738500Y-87884000D03*
D15*
X66738500Y-90424000D03*
X66738500Y-92964000D03*
X66738500Y-95504000D03*
X66738500Y-98044000D03*
X66738500Y-100584000D03*
X66738500Y-103124000D03*
X66738500Y-105664000D03*
D22*
X117657000Y-45796200D03*
X113157000Y-45796200D03*
X117657000Y-39296200D03*
X113157000Y-39296200D03*
X92676100Y-106362500D03*
X88176100Y-106362500D03*
X92676100Y-99862500D03*
X88176100Y-99862500D03*
D23*
X112395000Y-102870000D03*
D24*
X112395000Y-105370000D03*
D23*
X95504000Y-55499000D03*
D24*
X98004000Y-55499000D03*
D23*
X98069400Y-104216200D03*
D24*
X98069400Y-101716200D03*
D14*
X121666000Y-42164000D03*
D15*
X124206000Y-42164000D03*
X126746000Y-42164000D03*
X129286000Y-42164000D03*
D14*
X121666000Y-44831000D03*
D15*
X124206000Y-44831000D03*
X126746000Y-44831000D03*
X129286000Y-44831000D03*
D14*
X111887000Y-91948000D03*
D15*
X114427000Y-91948000D03*
X116967000Y-91948000D03*
X119507000Y-91948000D03*
D14*
X139090400Y-50292000D03*
D15*
X139090400Y-52832000D03*
X139090400Y-55372000D03*
X139090400Y-57912000D03*
X139090400Y-60452000D03*
X139090400Y-62992000D03*
X139090400Y-65532000D03*
X139090400Y-68072000D03*
D14*
X64135000Y-87884000D03*
D15*
X64135000Y-90424000D03*
X64135000Y-92964000D03*
X64135000Y-95504000D03*
X64135000Y-98044000D03*
X64135000Y-100584000D03*
X64135000Y-103124000D03*
X64135000Y-105664000D03*
D14*
X123380500Y-92456000D03*
D15*
X125920500Y-92456000D03*
X128460500Y-92456000D03*
X131000500Y-92456000D03*
X133540500Y-92456000D03*
X136080500Y-92456000D03*
X138620500Y-92456000D03*
X141160500Y-92456000D03*
D14*
X123380500Y-95123000D03*
D15*
X125920500Y-95123000D03*
X128460500Y-95123000D03*
X131000500Y-95123000D03*
X133540500Y-95123000D03*
X136080500Y-95123000D03*
X138620500Y-95123000D03*
X141160500Y-95123000D03*
D14*
X64008000Y-72136000D03*
D15*
X64008000Y-74676000D03*
X64008000Y-77216000D03*
X64008000Y-79756000D03*
X64008000Y-82296000D03*
X64008000Y-84836000D03*
D14*
X84683600Y-38963600D03*
D15*
X82143600Y-38963600D03*
X79603600Y-38963600D03*
X77063600Y-38963600D03*
X74523600Y-38963600D03*
X71983600Y-38963600D03*
D14*
X87884000Y-41656000D03*
D15*
X90424000Y-41656000D03*
X92964000Y-41656000D03*
X95504000Y-41656000D03*
X98044000Y-41656000D03*
X100584000Y-41656000D03*
X103124000Y-41656000D03*
X105664000Y-41656000D03*
D14*
X133654800Y-50241200D03*
D15*
X133654800Y-52781200D03*
X133654800Y-55321200D03*
X133654800Y-57861200D03*
X133654800Y-60401200D03*
X133654800Y-62941200D03*
D14*
X74168000Y-73152000D03*
D15*
X76708000Y-73152000D03*
X79248000Y-73152000D03*
X81788000Y-73152000D03*
D14*
X123380500Y-97790000D03*
D15*
X125920500Y-97790000D03*
X128460500Y-97790000D03*
X131000500Y-97790000D03*
X133540500Y-97790000D03*
X136080500Y-97790000D03*
X138620500Y-97790000D03*
X141160500Y-97790000D03*
D25*
X91480000Y-91712000D03*
X138430000Y-78867000D03*
X139700000Y-40081200D03*
X66040000Y-40081200D03*
X139700000Y-105511600D03*
D26*
X68478400Y-70358000D03*
X100482400Y-80365600D03*
X108051600Y-86868000D03*
X123647200Y-53594000D03*
X121158000Y-48260000D03*
X113131600Y-58534300D03*
X100114100Y-65354200D03*
X99568000Y-80568800D03*
X100482400Y-96926400D03*
X118262400Y-50850800D03*
X125933200Y-53695600D03*
X98380000Y-81112000D03*
X98806000Y-76200000D03*
X88176100Y-99862500D03*
X88176100Y-103187500D03*
X111760000Y-53276500D03*
X103187500Y-65722500D03*
X112204500Y-55181500D03*
X104330500Y-65659000D03*
X108813600Y-80340200D03*
X108864400Y-81153000D03*
X106762000Y-64942000D03*
X107562000Y-65779000D03*
X90710000Y-73120000D03*
X77724000Y-97409000D03*
X96266000Y-76327000D03*
X97282000Y-77089000D03*
X96280000Y-80812000D03*
X93980000Y-78803500D03*
X82042000Y-73152000D03*
X111556800Y-72288400D03*
X127762000Y-82423000D03*
X128651000Y-82423000D03*
X112141000Y-71564500D03*
X129540000Y-82423000D03*
X112141000Y-70739000D03*
X130365500Y-82423000D03*
X111569500Y-69913500D03*
X74168000Y-75755500D03*
X76708000Y-77216000D03*
X79248000Y-79756000D03*
X96367600Y-65836800D03*
X99415600Y-57556400D03*
X100330000Y-57505600D03*
X101193600Y-57454800D03*
X105410000Y-65595500D03*
X109918500Y-53594000D03*
X101917500Y-65849500D03*
X89408000Y-65913000D03*
X115824000Y-74574400D03*
X104343200Y-76708000D03*
X105156000Y-74676000D03*
X90170000Y-65405000D03*
X105156000Y-77012800D03*
X115874800Y-75641200D03*
X97129600Y-80721200D03*
X115874800Y-76708000D03*
D27*
X66738500Y-87884000D02*
X66738500Y-90424000D01*
X66738500Y-90424000D02*
X66738500Y-92964000D01*
X66738500Y-92964000D02*
X66738500Y-95504000D01*
X66738500Y-95504000D02*
X66738500Y-98044000D01*
X66738500Y-98044000D02*
X66738500Y-100584000D01*
X66738500Y-100584000D02*
X66738500Y-103124000D01*
X66738500Y-103124000D02*
X66738500Y-105664000D01*
X66738500Y-105664000D02*
X66649600Y-105752900D01*
X66649600Y-105752900D02*
X66649600Y-107594400D01*
X66649600Y-107594400D02*
X66700400Y-107645200D01*
X66738500Y-87884000D02*
X66738500Y-86194900D01*
X66738500Y-86194900D02*
X66700400Y-86156800D01*
D28*
X101600000Y-81483200D02*
X101600000Y-86512400D01*
X100482400Y-80365600D02*
X101600000Y-81483200D01*
X129286000Y-47142400D02*
X129286000Y-44831000D01*
X128219200Y-48209200D02*
X129286000Y-47142400D01*
X121208800Y-48209200D02*
X128219200Y-48209200D01*
X121158000Y-48260000D02*
X121208800Y-48209200D01*
X138785600Y-86461600D02*
X138785600Y-87426800D01*
X142748000Y-96202500D02*
X141160500Y-97790000D01*
X142748000Y-90982800D02*
X142748000Y-96202500D01*
X141681200Y-89916000D02*
X142748000Y-90982800D01*
X141274800Y-89916000D02*
X141681200Y-89916000D01*
X138785600Y-87426800D02*
X141274800Y-89916000D01*
X95504000Y-60744100D02*
X95504000Y-55499000D01*
X100114100Y-65354200D02*
X95504000Y-60744100D01*
X84683600Y-38963600D02*
X84683600Y-38354000D01*
X84683600Y-38354000D02*
X83667600Y-37338000D01*
X67894200Y-58801000D02*
X63881000Y-58801000D01*
X70256400Y-56438800D02*
X67894200Y-58801000D01*
X70256400Y-37388800D02*
X70256400Y-56438800D01*
X70307200Y-37338000D02*
X70256400Y-37388800D01*
X83667600Y-37338000D02*
X70307200Y-37338000D01*
X100482400Y-96926400D02*
X100482400Y-82905600D01*
X100482400Y-81483200D02*
X100482400Y-82905600D01*
X99568000Y-80568800D02*
X100482400Y-81483200D01*
X118262400Y-51409600D02*
X118262400Y-50850800D01*
X118414800Y-51562000D02*
X118262400Y-51409600D01*
X123799600Y-51562000D02*
X118414800Y-51562000D01*
X125933200Y-53695600D02*
X123799600Y-51562000D01*
X88176100Y-97815900D02*
X88176100Y-99862500D01*
X89480000Y-96512000D02*
X88176100Y-97815900D01*
X93080000Y-96512000D02*
X89480000Y-96512000D01*
X96180000Y-93412000D02*
X93080000Y-96512000D01*
X96180000Y-89712000D02*
X96180000Y-93412000D01*
X97280000Y-88612000D02*
X96180000Y-89712000D01*
X97280000Y-82212000D02*
X97280000Y-88612000D01*
X97880000Y-81612000D02*
X97280000Y-82212000D01*
X98380000Y-81112000D02*
X97880000Y-81612000D01*
X74523600Y-38963600D02*
X74523600Y-51028600D01*
X97790000Y-75184000D02*
X98806000Y-76200000D01*
X91567000Y-75184000D02*
X97790000Y-75184000D01*
X89154000Y-72771000D02*
X91567000Y-75184000D01*
X89154000Y-68326000D02*
X89154000Y-72771000D01*
X86233000Y-65405000D02*
X89154000Y-68326000D01*
X86233000Y-62738000D02*
X86233000Y-65405000D01*
X74523600Y-51028600D02*
X86233000Y-62738000D01*
X74549000Y-38989000D02*
X74523600Y-38963600D01*
D27*
X98069400Y-104216200D02*
X89204800Y-104216200D01*
X89204800Y-104216200D02*
X88176100Y-103187500D01*
D28*
X111760000Y-54102000D02*
X111760000Y-53276500D01*
X103187500Y-62674500D02*
X111760000Y-54102000D01*
X103187500Y-65722500D02*
X103187500Y-62674500D01*
X112204500Y-55308500D02*
X112204500Y-55181500D01*
X104457500Y-63055500D02*
X112204500Y-55308500D01*
X104457500Y-65532000D02*
X104457500Y-63055500D01*
X104330500Y-65659000D02*
X104457500Y-65532000D01*
X116967000Y-91948000D02*
X116967000Y-91694000D01*
X116967000Y-91694000D02*
X119888000Y-88773000D01*
X119888000Y-88773000D02*
X135636000Y-88773000D01*
X135636000Y-88773000D02*
X136245600Y-88163400D01*
X136245600Y-88163400D02*
X136245600Y-86461600D01*
X133070600Y-83286600D02*
X136245600Y-86461600D01*
X112090200Y-83286600D02*
X133070600Y-83286600D01*
X109169200Y-80365600D02*
X112090200Y-83286600D01*
X108839000Y-80365600D02*
X109169200Y-80365600D01*
X108813600Y-80340200D02*
X108839000Y-80365600D01*
X114427000Y-91948000D02*
X114427000Y-90678000D01*
X119507000Y-86741000D02*
X119507000Y-84048600D01*
X118110000Y-88138000D02*
X119507000Y-86741000D01*
X116967000Y-88138000D02*
X118110000Y-88138000D01*
X114427000Y-90678000D02*
X116967000Y-88138000D01*
X131292600Y-84048600D02*
X133705600Y-86461600D01*
X111760000Y-84048600D02*
X119507000Y-84048600D01*
X119507000Y-84048600D02*
X120167400Y-84048600D01*
X120167400Y-84048600D02*
X121310400Y-84048600D01*
X121310400Y-84048600D02*
X131292600Y-84048600D01*
X108864400Y-81153000D02*
X111760000Y-84048600D01*
X133654800Y-50241200D02*
X130987800Y-50241200D01*
X130175000Y-51054000D02*
X130987800Y-50241200D01*
X130175000Y-60706000D02*
X130175000Y-51054000D01*
X125920500Y-64960500D02*
X130175000Y-60706000D01*
X106780500Y-64960500D02*
X125920500Y-64960500D01*
X106780500Y-64960500D02*
X106762000Y-64942000D01*
X107562000Y-65779000D02*
X107569000Y-65786000D01*
X107569000Y-65786000D02*
X126301500Y-65786000D01*
X132321300Y-52781200D02*
X133654800Y-52781200D01*
X131508500Y-53594000D02*
X132321300Y-52781200D01*
X131508500Y-60579000D02*
X131508500Y-53594000D01*
X126301500Y-65786000D02*
X131508500Y-60579000D01*
X138785600Y-71221600D02*
X138785600Y-70967600D01*
X138785600Y-70967600D02*
X136969500Y-69151500D01*
X136969500Y-69151500D02*
X136969500Y-67652900D01*
X136969500Y-67652900D02*
X139090400Y-65532000D01*
X77063600Y-38963600D02*
X77063600Y-42824400D01*
X75438000Y-44450000D02*
X77063600Y-42824400D01*
X75438000Y-50292000D02*
X75438000Y-44450000D01*
X87249000Y-62103000D02*
X75438000Y-50292000D01*
X87249000Y-65151000D02*
X87249000Y-62103000D01*
X90043000Y-67945000D02*
X87249000Y-65151000D01*
X90043000Y-72453000D02*
X90043000Y-67945000D01*
X90043000Y-72453000D02*
X90710000Y-73120000D01*
X69405500Y-98044000D02*
X72390000Y-98044000D01*
X77724000Y-100838000D02*
X77724000Y-97409000D01*
X76835000Y-101727000D02*
X77724000Y-100838000D01*
X74422000Y-101727000D02*
X76835000Y-101727000D01*
X74168000Y-101473000D02*
X74422000Y-101727000D01*
X74168000Y-99822000D02*
X74168000Y-101473000D01*
X72390000Y-98044000D02*
X74168000Y-99822000D01*
X72390000Y-100584000D02*
X69405500Y-100584000D01*
X73152000Y-101346000D02*
X72390000Y-100584000D01*
X73152000Y-101727000D02*
X73152000Y-101346000D01*
X74041000Y-102616000D02*
X73152000Y-101727000D01*
X77470000Y-102616000D02*
X74041000Y-102616000D01*
X78740000Y-101346000D02*
X77470000Y-102616000D01*
X78740000Y-97790000D02*
X78740000Y-101346000D01*
X93853000Y-82677000D02*
X78740000Y-97790000D01*
X93853000Y-80137000D02*
X93853000Y-82677000D01*
X94869000Y-79121000D02*
X93853000Y-80137000D01*
X94869000Y-78867000D02*
X94869000Y-79121000D01*
X96266000Y-77470000D02*
X94869000Y-78867000D01*
X96266000Y-76327000D02*
X96266000Y-77470000D01*
X72644000Y-102870000D02*
X69659500Y-102870000D01*
X73533000Y-103759000D02*
X72644000Y-102870000D01*
X78359000Y-103759000D02*
X73533000Y-103759000D01*
X79883000Y-102235000D02*
X78359000Y-103759000D01*
X79883000Y-98298000D02*
X79883000Y-102235000D01*
X94742000Y-83439000D02*
X79883000Y-98298000D01*
X94742000Y-80899000D02*
X94742000Y-83439000D01*
X97282000Y-78359000D02*
X94742000Y-80899000D01*
X97282000Y-77089000D02*
X97282000Y-78359000D01*
X69659500Y-102870000D02*
X69405500Y-103124000D01*
X69405500Y-105664000D02*
X77928000Y-105664000D01*
X96280000Y-88312000D02*
X96280000Y-80812000D01*
X95380000Y-89212000D02*
X96280000Y-88312000D01*
X95380000Y-93112000D02*
X95380000Y-89212000D01*
X92980000Y-95512000D02*
X95380000Y-93112000D01*
X84280000Y-95512000D02*
X92980000Y-95512000D01*
X80780000Y-99012000D02*
X84280000Y-95512000D01*
X80780000Y-102812000D02*
X80780000Y-99012000D01*
X77928000Y-105664000D02*
X80780000Y-102812000D01*
X81788000Y-73152000D02*
X88328500Y-73152000D01*
X88328500Y-73152000D02*
X93980000Y-78803500D01*
X113919000Y-73596500D02*
X112864900Y-73596500D01*
X112864900Y-73596500D02*
X111556800Y-72288400D01*
X127762000Y-82423000D02*
X127762000Y-80899000D01*
X127762000Y-80899000D02*
X120459500Y-73596500D01*
X120459500Y-73596500D02*
X113919000Y-73596500D01*
X113919000Y-73596500D02*
X113855500Y-73660000D01*
X128651000Y-80645000D02*
X128651000Y-82423000D01*
X120840500Y-72834500D02*
X128651000Y-80645000D01*
X113919000Y-72834500D02*
X120840500Y-72834500D01*
X113284000Y-72199500D02*
X113919000Y-72834500D01*
X113284000Y-71945500D02*
X113284000Y-72199500D01*
X112903000Y-71564500D02*
X113284000Y-71945500D01*
X112141000Y-71564500D02*
X112903000Y-71564500D01*
X129540000Y-80391000D02*
X129540000Y-82423000D01*
X118300500Y-69151500D02*
X129540000Y-80391000D01*
X113728500Y-69151500D02*
X118300500Y-69151500D01*
X112141000Y-70739000D02*
X113728500Y-69151500D01*
X130365500Y-79946500D02*
X130365500Y-82423000D01*
X118681500Y-68262500D02*
X130365500Y-79946500D01*
X113220500Y-68262500D02*
X118681500Y-68262500D01*
X111569500Y-69913500D02*
X113220500Y-68262500D01*
X74168000Y-73152000D02*
X74168000Y-75755500D01*
X76708000Y-73152000D02*
X76708000Y-77216000D01*
X79248000Y-73152000D02*
X79248000Y-79756000D01*
X93218000Y-46990000D02*
X87884000Y-41656000D01*
X93218000Y-62687200D02*
X93218000Y-46990000D01*
X96367600Y-65836800D02*
X93218000Y-62687200D01*
X99466400Y-50698400D02*
X90424000Y-41656000D01*
X99466400Y-57505600D02*
X99466400Y-50698400D01*
X99415600Y-57556400D02*
X99466400Y-57505600D01*
X100228400Y-48920400D02*
X92964000Y-41656000D01*
X100228400Y-57404000D02*
X100228400Y-48920400D01*
X100330000Y-57505600D02*
X100228400Y-57404000D01*
X101092000Y-47244000D02*
X95504000Y-41656000D01*
X101092000Y-57353200D02*
X101092000Y-47244000D01*
X101193600Y-57454800D02*
X101092000Y-57353200D01*
X113157000Y-56070500D02*
X113157000Y-45796200D01*
X105664000Y-63563500D02*
X113157000Y-56070500D01*
X105664000Y-65341500D02*
X105664000Y-63563500D01*
X105410000Y-65595500D02*
X105664000Y-65341500D01*
X109918500Y-54356000D02*
X109918500Y-53594000D01*
X102044500Y-62230000D02*
X109918500Y-54356000D01*
X102044500Y-65722500D02*
X102044500Y-62230000D01*
X101917500Y-65849500D02*
X102044500Y-65722500D01*
X104343200Y-76708000D02*
X104343200Y-71323200D01*
X91313000Y-67818000D02*
X89408000Y-65913000D01*
X100838000Y-67818000D02*
X91313000Y-67818000D01*
X104343200Y-71323200D02*
X100838000Y-67818000D01*
X106476800Y-74574400D02*
X115824000Y-74574400D01*
X104343200Y-76708000D02*
X106476800Y-74574400D01*
X105156000Y-70612000D02*
X105156000Y-74676000D01*
X101600000Y-67056000D02*
X105156000Y-70612000D01*
X91821000Y-67056000D02*
X101600000Y-67056000D01*
X90170000Y-65405000D02*
X91821000Y-67056000D01*
X105156000Y-76962000D02*
X105156000Y-77012800D01*
X106730800Y-75387200D02*
X105156000Y-76962000D01*
X115620800Y-75387200D02*
X106730800Y-75387200D01*
X115874800Y-75641200D02*
X115620800Y-75387200D01*
X97332800Y-80721200D02*
X97129600Y-80721200D01*
X98450400Y-79603600D02*
X97332800Y-80721200D01*
X104292400Y-79603600D02*
X98450400Y-79603600D01*
X107492800Y-76403200D02*
X104292400Y-79603600D01*
X115570000Y-76403200D02*
X107492800Y-76403200D01*
X115874800Y-76708000D02*
X115570000Y-76403200D01*
D29*
G36*
X69723000Y-71628000D02*
X69731685Y-71674159D01*
X69758965Y-71716553D01*
X69800590Y-71744994D01*
X69850000Y-71755000D01*
X72979239Y-71755000D01*
X72989074Y-71759074D01*
X72866559Y-71837910D01*
X72721569Y-72050110D01*
X72670560Y-72302000D01*
X72670560Y-74002000D01*
X72714838Y-74237317D01*
X72853910Y-74453441D01*
X73066110Y-74598431D01*
X73283000Y-74642352D01*
X73283000Y-75448678D01*
X73233162Y-75568701D01*
X73232838Y-75940667D01*
X73374883Y-76284443D01*
X73637673Y-76547692D01*
X73981201Y-76690338D01*
X74353167Y-76690662D01*
X74696943Y-76548617D01*
X74960192Y-76285827D01*
X75102838Y-75942299D01*
X75103162Y-75570333D01*
X75053000Y-75448931D01*
X75053000Y-74642854D01*
X75253317Y-74605162D01*
X75469441Y-74466090D01*
X75614431Y-74253890D01*
X75628086Y-74186459D01*
X75657946Y-74231147D01*
X75823000Y-74341432D01*
X75823000Y-76909178D01*
X75773162Y-77029201D01*
X75772838Y-77401167D01*
X75914883Y-77744943D01*
X76177673Y-78008192D01*
X76521201Y-78150838D01*
X76893167Y-78151162D01*
X77236943Y-78009117D01*
X77500192Y-77746327D01*
X77642838Y-77402799D01*
X77643162Y-77030833D01*
X77593000Y-76909431D01*
X77593000Y-74341432D01*
X77758054Y-74231147D01*
X77978000Y-73901974D01*
X78197946Y-74231147D01*
X78363000Y-74341432D01*
X78363000Y-79449178D01*
X78313162Y-79569201D01*
X78312838Y-79941167D01*
X78454883Y-80284943D01*
X78717673Y-80548192D01*
X79061201Y-80690838D01*
X79433167Y-80691162D01*
X79776943Y-80549117D01*
X80040192Y-80286327D01*
X80182838Y-79942799D01*
X80183162Y-79570833D01*
X80133000Y-79449431D01*
X80133000Y-74341432D01*
X80298054Y-74231147D01*
X80518000Y-73901974D01*
X80737946Y-74231147D01*
X81219715Y-74553054D01*
X81788000Y-74666093D01*
X82356285Y-74553054D01*
X82838054Y-74231147D01*
X82967779Y-74037000D01*
X87961920Y-74037000D01*
X93137255Y-79212334D01*
X93186883Y-79332443D01*
X93296334Y-79442086D01*
X93227210Y-79511210D01*
X93035367Y-79798325D01*
X93035367Y-79798326D01*
X92967999Y-80137000D01*
X92968000Y-80137005D01*
X92968000Y-82310421D01*
X78457792Y-96820628D01*
X78254327Y-96616808D01*
X77910799Y-96474162D01*
X77538833Y-96473838D01*
X77262943Y-96587833D01*
X77025147Y-96231946D01*
X76695974Y-96012000D01*
X77025147Y-95792054D01*
X77347054Y-95310285D01*
X77460093Y-94742000D01*
X77347054Y-94173715D01*
X77025147Y-93691946D01*
X76695974Y-93472000D01*
X77025147Y-93252054D01*
X77347054Y-92770285D01*
X77460093Y-92202000D01*
X77347054Y-91633715D01*
X77025147Y-91151946D01*
X76695974Y-90932000D01*
X77025147Y-90712054D01*
X77347054Y-90230285D01*
X77460093Y-89662000D01*
X77347054Y-89093715D01*
X77025147Y-88611946D01*
X76684447Y-88384298D01*
X76827358Y-88317183D01*
X77217645Y-87888924D01*
X77387476Y-87478890D01*
X77266155Y-87249000D01*
X76073000Y-87249000D01*
X76073000Y-87269000D01*
X75819000Y-87269000D01*
X75819000Y-87249000D01*
X74625845Y-87249000D01*
X74504524Y-87478890D01*
X74674355Y-87888924D01*
X75064642Y-88317183D01*
X75207553Y-88384298D01*
X74866853Y-88611946D01*
X74544946Y-89093715D01*
X74431907Y-89662000D01*
X74544946Y-90230285D01*
X74866853Y-90712054D01*
X75196026Y-90932000D01*
X74866853Y-91151946D01*
X74544946Y-91633715D01*
X74431907Y-92202000D01*
X74544946Y-92770285D01*
X74866853Y-93252054D01*
X75196026Y-93472000D01*
X74866853Y-93691946D01*
X74544946Y-94173715D01*
X74431907Y-94742000D01*
X74544946Y-95310285D01*
X74866853Y-95792054D01*
X75196026Y-96012000D01*
X74866853Y-96231946D01*
X74544946Y-96713715D01*
X74431907Y-97282000D01*
X74544946Y-97850285D01*
X74866853Y-98332054D01*
X74908452Y-98359850D01*
X74860683Y-98368838D01*
X74644559Y-98507910D01*
X74499569Y-98720110D01*
X74468940Y-98871361D01*
X73015790Y-97418210D01*
X72883224Y-97329633D01*
X72728675Y-97226367D01*
X72672484Y-97215190D01*
X72390000Y-97158999D01*
X72389995Y-97159000D01*
X70594932Y-97159000D01*
X70484647Y-96993946D01*
X70155474Y-96774000D01*
X70484647Y-96554054D01*
X70806554Y-96072285D01*
X70919593Y-95504000D01*
X70806554Y-94935715D01*
X70484647Y-94453946D01*
X70155474Y-94234000D01*
X70484647Y-94014054D01*
X70806554Y-93532285D01*
X70919593Y-92964000D01*
X70806554Y-92395715D01*
X70484647Y-91913946D01*
X70155474Y-91694000D01*
X70484647Y-91474054D01*
X70806554Y-90992285D01*
X70919593Y-90424000D01*
X70806554Y-89855715D01*
X70484647Y-89373946D01*
X70443048Y-89346150D01*
X70490817Y-89337162D01*
X70706941Y-89198090D01*
X70851931Y-88985890D01*
X70902940Y-88734000D01*
X70902940Y-87034000D01*
X70858662Y-86798683D01*
X70837059Y-86765110D01*
X74504524Y-86765110D01*
X74625845Y-86995000D01*
X75819000Y-86995000D01*
X75819000Y-85801181D01*
X76073000Y-85801181D01*
X76073000Y-86995000D01*
X77266155Y-86995000D01*
X77387476Y-86765110D01*
X77217645Y-86355076D01*
X76827358Y-85926817D01*
X76302892Y-85680514D01*
X76073000Y-85801181D01*
X75819000Y-85801181D01*
X75589108Y-85680514D01*
X75064642Y-85926817D01*
X74674355Y-86355076D01*
X74504524Y-86765110D01*
X70837059Y-86765110D01*
X70719590Y-86582559D01*
X70507390Y-86437569D01*
X70255500Y-86386560D01*
X68555500Y-86386560D01*
X68320183Y-86430838D01*
X68104059Y-86569910D01*
X68070927Y-86618401D01*
X67948198Y-86495673D01*
X67714809Y-86399000D01*
X67024250Y-86399000D01*
X66865500Y-86557750D01*
X66865500Y-87757000D01*
X66885500Y-87757000D01*
X66885500Y-88011000D01*
X66865500Y-88011000D01*
X66865500Y-90297000D01*
X66885500Y-90297000D01*
X66885500Y-90551000D01*
X66865500Y-90551000D01*
X66865500Y-92837000D01*
X66885500Y-92837000D01*
X66885500Y-93091000D01*
X66865500Y-93091000D01*
X66865500Y-95377000D01*
X66885500Y-95377000D01*
X66885500Y-95631000D01*
X66865500Y-95631000D01*
X66865500Y-97917000D01*
X66885500Y-97917000D01*
X66885500Y-98171000D01*
X66865500Y-98171000D01*
X66865500Y-100457000D01*
X66885500Y-100457000D01*
X66885500Y-100711000D01*
X66865500Y-100711000D01*
X66865500Y-102997000D01*
X66885500Y-102997000D01*
X66885500Y-103251000D01*
X66865500Y-103251000D01*
X66865500Y-105537000D01*
X66885500Y-105537000D01*
X66885500Y-105791000D01*
X66865500Y-105791000D01*
X66865500Y-106984819D01*
X67095392Y-107105486D01*
X67619858Y-106859183D01*
X68010145Y-106430924D01*
X68058754Y-106313563D01*
X68326353Y-106714054D01*
X68808122Y-107035961D01*
X69376407Y-107149000D01*
X69434593Y-107149000D01*
X70002878Y-107035961D01*
X70484647Y-106714054D01*
X70503194Y-106686295D01*
X86540816Y-106686295D01*
X86789206Y-107287443D01*
X87248737Y-107747778D01*
X87849452Y-107997216D01*
X88499895Y-107997784D01*
X89101043Y-107749394D01*
X89335815Y-107515032D01*
X91703173Y-107515032D01*
X91801836Y-107781887D01*
X92411561Y-108008408D01*
X93061560Y-107984356D01*
X93550364Y-107781887D01*
X93649027Y-107515032D01*
X92676100Y-106542105D01*
X91703173Y-107515032D01*
X89335815Y-107515032D01*
X89561378Y-107289863D01*
X89810816Y-106689148D01*
X89811384Y-106038705D01*
X89562994Y-105437557D01*
X89476788Y-105351200D01*
X91485192Y-105351200D01*
X91523566Y-105389574D01*
X91256713Y-105488236D01*
X91030192Y-106097961D01*
X91054244Y-106747960D01*
X91256713Y-107236764D01*
X91523568Y-107335427D01*
X92496495Y-106362500D01*
X92482353Y-106348358D01*
X92661958Y-106168753D01*
X92676100Y-106182895D01*
X92690243Y-106168753D01*
X92869848Y-106348358D01*
X92855705Y-106362500D01*
X93828632Y-107335427D01*
X94095487Y-107236764D01*
X94322008Y-106627039D01*
X94312784Y-106377745D01*
X111566861Y-106377745D01*
X111640995Y-106623864D01*
X112178223Y-106816965D01*
X112748454Y-106789778D01*
X113149005Y-106623864D01*
X113223139Y-106377745D01*
X112395000Y-105549605D01*
X111566861Y-106377745D01*
X94312784Y-106377745D01*
X94297956Y-105977040D01*
X94095487Y-105488236D01*
X93828634Y-105389574D01*
X93867008Y-105351200D01*
X96730382Y-105351200D01*
X96805310Y-105467641D01*
X97017510Y-105612631D01*
X97269400Y-105663640D01*
X98869400Y-105663640D01*
X99104717Y-105619362D01*
X99320841Y-105480290D01*
X99465831Y-105268090D01*
X99489092Y-105153223D01*
X110948035Y-105153223D01*
X110975222Y-105723454D01*
X111141136Y-106124005D01*
X111387255Y-106198139D01*
X112215395Y-105370000D01*
X112574605Y-105370000D01*
X113402745Y-106198139D01*
X113648864Y-106124005D01*
X113841965Y-105586777D01*
X113814778Y-105016546D01*
X113648864Y-104615995D01*
X113402745Y-104541861D01*
X112574605Y-105370000D01*
X112215395Y-105370000D01*
X111387255Y-104541861D01*
X111141136Y-104615995D01*
X110948035Y-105153223D01*
X99489092Y-105153223D01*
X99516840Y-105016200D01*
X99516840Y-103416200D01*
X99472562Y-103180883D01*
X99333490Y-102964759D01*
X99121290Y-102819769D01*
X98883199Y-102771554D01*
X98897539Y-102723945D01*
X98069400Y-101895805D01*
X97241261Y-102723945D01*
X97255545Y-102771367D01*
X97034083Y-102813038D01*
X96817959Y-102952110D01*
X96729756Y-103081200D01*
X89674933Y-103081200D01*
X88978666Y-102384934D01*
X88610445Y-102138897D01*
X88176100Y-102052500D01*
X87741755Y-102138897D01*
X87373534Y-102384934D01*
X87127497Y-102753155D01*
X87041100Y-103187500D01*
X87127497Y-103621845D01*
X87373534Y-103990066D01*
X88110909Y-104727442D01*
X87852305Y-104727216D01*
X87251157Y-104975606D01*
X86790822Y-105435137D01*
X86541384Y-106035852D01*
X86540816Y-106686295D01*
X70503194Y-106686295D01*
X70594932Y-106549000D01*
X77927995Y-106549000D01*
X77928000Y-106549001D01*
X78210484Y-106492810D01*
X78266675Y-106481633D01*
X78553790Y-106289790D01*
X81405787Y-103437792D01*
X81405790Y-103437790D01*
X81597633Y-103150675D01*
X81617135Y-103052633D01*
X81665001Y-102812000D01*
X81665000Y-102811995D01*
X81665000Y-99378580D01*
X84646579Y-96397000D01*
X88343421Y-96397000D01*
X87550310Y-97190110D01*
X87358467Y-97477225D01*
X87358467Y-97477226D01*
X87291099Y-97815900D01*
X87291100Y-97815905D01*
X87291100Y-98459102D01*
X87251157Y-98475606D01*
X86790822Y-98935137D01*
X86541384Y-99535852D01*
X86540816Y-100186295D01*
X86789206Y-100787443D01*
X87248737Y-101247778D01*
X87849452Y-101497216D01*
X88499895Y-101497784D01*
X89101043Y-101249394D01*
X89335815Y-101015032D01*
X91703173Y-101015032D01*
X91801836Y-101281887D01*
X92411561Y-101508408D01*
X92654378Y-101499423D01*
X96622435Y-101499423D01*
X96649622Y-102069654D01*
X96815536Y-102470205D01*
X97061655Y-102544339D01*
X97889795Y-101716200D01*
X98249005Y-101716200D01*
X99077145Y-102544339D01*
X99323264Y-102470205D01*
X99467113Y-102070000D01*
X110947560Y-102070000D01*
X110947560Y-103670000D01*
X110991838Y-103905317D01*
X111130910Y-104121441D01*
X111343110Y-104266431D01*
X111581201Y-104314646D01*
X111566861Y-104362255D01*
X112395000Y-105190395D01*
X113223139Y-104362255D01*
X113208855Y-104314833D01*
X113430317Y-104273162D01*
X113646441Y-104134090D01*
X113791431Y-103921890D01*
X113842440Y-103670000D01*
X113842440Y-102070000D01*
X113798162Y-101834683D01*
X113659090Y-101618559D01*
X113446890Y-101473569D01*
X113195000Y-101422560D01*
X111595000Y-101422560D01*
X111359683Y-101466838D01*
X111143559Y-101605910D01*
X110998569Y-101818110D01*
X110947560Y-102070000D01*
X99467113Y-102070000D01*
X99516365Y-101932977D01*
X99489178Y-101362746D01*
X99323264Y-100962195D01*
X99077145Y-100888061D01*
X98249005Y-101716200D01*
X97889795Y-101716200D01*
X97061655Y-100888061D01*
X96815536Y-100962195D01*
X96622435Y-101499423D01*
X92654378Y-101499423D01*
X93061560Y-101484356D01*
X93550364Y-101281887D01*
X93649027Y-101015032D01*
X92676100Y-100042105D01*
X91703173Y-101015032D01*
X89335815Y-101015032D01*
X89561378Y-100789863D01*
X89810816Y-100189148D01*
X89811332Y-99597961D01*
X91030192Y-99597961D01*
X91054244Y-100247960D01*
X91256713Y-100736764D01*
X91523568Y-100835427D01*
X92496495Y-99862500D01*
X92855705Y-99862500D01*
X93828632Y-100835427D01*
X94095487Y-100736764D01*
X94106004Y-100708455D01*
X97241261Y-100708455D01*
X98069400Y-101536595D01*
X98897539Y-100708455D01*
X98823405Y-100462336D01*
X98286177Y-100269235D01*
X97715946Y-100296422D01*
X97315395Y-100462336D01*
X97241261Y-100708455D01*
X94106004Y-100708455D01*
X94322008Y-100127039D01*
X94297956Y-99477040D01*
X94095487Y-98988236D01*
X93828632Y-98889573D01*
X92855705Y-99862500D01*
X92496495Y-99862500D01*
X91523568Y-98889573D01*
X91256713Y-98988236D01*
X91030192Y-99597961D01*
X89811332Y-99597961D01*
X89811384Y-99538705D01*
X89562994Y-98937557D01*
X89335803Y-98709968D01*
X91703173Y-98709968D01*
X92676100Y-99682895D01*
X93649027Y-98709968D01*
X93550364Y-98443113D01*
X92940639Y-98216592D01*
X92290640Y-98240644D01*
X91801836Y-98443113D01*
X91703173Y-98709968D01*
X89335803Y-98709968D01*
X89103463Y-98477222D01*
X89061100Y-98459631D01*
X89061100Y-98182480D01*
X89846579Y-97397000D01*
X93079995Y-97397000D01*
X93080000Y-97397001D01*
X93362484Y-97340810D01*
X93418675Y-97329633D01*
X93705790Y-97137790D01*
X96805787Y-94037792D01*
X96805790Y-94037790D01*
X96997633Y-93750675D01*
X97035981Y-93557890D01*
X97065001Y-93412000D01*
X97065000Y-93411995D01*
X97065000Y-90078580D01*
X97905787Y-89237792D01*
X97905790Y-89237790D01*
X98097633Y-88950675D01*
X98140733Y-88734000D01*
X98165001Y-88612000D01*
X98165000Y-88611995D01*
X98165000Y-84111754D01*
X98656298Y-84315759D01*
X99207285Y-84316240D01*
X99597400Y-84155048D01*
X99597400Y-96619578D01*
X99547562Y-96739601D01*
X99547238Y-97111567D01*
X99689283Y-97455343D01*
X99952073Y-97718592D01*
X100295601Y-97861238D01*
X100667567Y-97861562D01*
X101011343Y-97719517D01*
X101274592Y-97456727D01*
X101417238Y-97113199D01*
X101417562Y-96741233D01*
X101367400Y-96619831D01*
X101367400Y-83205285D01*
X102447760Y-83205285D01*
X102658169Y-83714515D01*
X103047436Y-84104461D01*
X103556298Y-84315759D01*
X104107285Y-84316240D01*
X104616515Y-84105831D01*
X105006461Y-83716564D01*
X105217759Y-83207702D01*
X105218240Y-82656715D01*
X105007831Y-82147485D01*
X104618564Y-81757539D01*
X104109702Y-81546241D01*
X103558715Y-81545760D01*
X103049485Y-81756169D01*
X102659539Y-82145436D01*
X102448241Y-82654298D01*
X102447760Y-83205285D01*
X101367400Y-83205285D01*
X101367400Y-81483205D01*
X101367401Y-81483200D01*
X101309992Y-81194590D01*
X101300033Y-81144525D01*
X101108190Y-80857410D01*
X101108187Y-80857408D01*
X100739379Y-80488600D01*
X104292395Y-80488600D01*
X104292400Y-80488601D01*
X104574884Y-80432410D01*
X104631075Y-80421233D01*
X104918190Y-80229390D01*
X107859379Y-77288200D01*
X115132851Y-77288200D01*
X115344473Y-77500192D01*
X115688001Y-77642838D01*
X116059967Y-77643162D01*
X116403743Y-77501117D01*
X116666992Y-77238327D01*
X116809638Y-76894799D01*
X116809962Y-76522833D01*
X116667917Y-76179057D01*
X116663690Y-76174823D01*
X116666992Y-76171527D01*
X116809638Y-75827999D01*
X116809962Y-75456033D01*
X116667917Y-75112257D01*
X116629179Y-75073451D01*
X116758838Y-74761199D01*
X116759082Y-74481500D01*
X120092920Y-74481500D01*
X126877000Y-81265579D01*
X126877000Y-82116178D01*
X126827162Y-82236201D01*
X126827018Y-82401600D01*
X112456779Y-82401600D01*
X109794990Y-79739810D01*
X109597459Y-79607825D01*
X109507875Y-79547967D01*
X109451684Y-79536790D01*
X109192981Y-79485329D01*
X109000399Y-79405362D01*
X108628433Y-79405038D01*
X108284657Y-79547083D01*
X108021408Y-79809873D01*
X107878762Y-80153401D01*
X107878438Y-80525367D01*
X107995236Y-80808041D01*
X107929562Y-80966201D01*
X107929238Y-81338167D01*
X108071283Y-81681943D01*
X108334073Y-81945192D01*
X108455386Y-81995566D01*
X111134208Y-84674387D01*
X111134210Y-84674390D01*
X111421325Y-84866233D01*
X111477516Y-84877410D01*
X111760000Y-84933601D01*
X111760005Y-84933600D01*
X118622000Y-84933600D01*
X118622000Y-85989453D01*
X118466792Y-85613820D01*
X118045597Y-85191890D01*
X117494998Y-84963261D01*
X116898818Y-84962741D01*
X116347820Y-85190408D01*
X115925890Y-85611603D01*
X115925505Y-85612531D01*
X115505597Y-85191890D01*
X114954998Y-84963261D01*
X114358818Y-84962741D01*
X113807820Y-85190408D01*
X113385890Y-85611603D01*
X113157261Y-86162202D01*
X113156741Y-86758382D01*
X113384408Y-87309380D01*
X113805603Y-87731310D01*
X114356202Y-87959939D01*
X114952382Y-87960459D01*
X115503380Y-87732792D01*
X115925310Y-87311597D01*
X115925695Y-87310669D01*
X116233954Y-87619467D01*
X113801210Y-90052210D01*
X113609367Y-90339325D01*
X113609367Y-90339326D01*
X113541999Y-90678000D01*
X113542000Y-90678005D01*
X113542000Y-90758568D01*
X113376946Y-90868853D01*
X113349150Y-90910452D01*
X113340162Y-90862683D01*
X113201090Y-90646559D01*
X112988890Y-90501569D01*
X112737000Y-90450560D01*
X111037000Y-90450560D01*
X110801683Y-90494838D01*
X110585559Y-90633910D01*
X110440569Y-90846110D01*
X110389560Y-91098000D01*
X110389560Y-92798000D01*
X110433838Y-93033317D01*
X110572910Y-93249441D01*
X110785110Y-93394431D01*
X111037000Y-93445440D01*
X112737000Y-93445440D01*
X112972317Y-93401162D01*
X113188441Y-93262090D01*
X113333431Y-93049890D01*
X113347086Y-92982459D01*
X113376946Y-93027147D01*
X113858715Y-93349054D01*
X114427000Y-93462093D01*
X114995285Y-93349054D01*
X115477054Y-93027147D01*
X115697000Y-92697974D01*
X115916946Y-93027147D01*
X116398715Y-93349054D01*
X116967000Y-93462093D01*
X117535285Y-93349054D01*
X118017054Y-93027147D01*
X118244702Y-92686447D01*
X118311817Y-92829358D01*
X118740076Y-93219645D01*
X119150110Y-93389476D01*
X119380000Y-93268155D01*
X119380000Y-92075000D01*
X119634000Y-92075000D01*
X119634000Y-93268155D01*
X119863890Y-93389476D01*
X120273924Y-93219645D01*
X120702183Y-92829358D01*
X120948486Y-92304892D01*
X120827819Y-92075000D01*
X119634000Y-92075000D01*
X119380000Y-92075000D01*
X119360000Y-92075000D01*
X119360000Y-91821000D01*
X119380000Y-91821000D01*
X119380000Y-90627845D01*
X119634000Y-90627845D01*
X119634000Y-91821000D01*
X120827819Y-91821000D01*
X120948486Y-91591108D01*
X120702183Y-91066642D01*
X120273924Y-90676355D01*
X119863890Y-90506524D01*
X119634000Y-90627845D01*
X119380000Y-90627845D01*
X119317643Y-90594937D01*
X120254579Y-89658000D01*
X135635995Y-89658000D01*
X135636000Y-89658001D01*
X135918484Y-89601810D01*
X135974675Y-89590633D01*
X136261790Y-89398790D01*
X136261791Y-89398789D01*
X136871387Y-88789192D01*
X136871390Y-88789190D01*
X137063233Y-88502075D01*
X137063234Y-88502074D01*
X137130601Y-88163400D01*
X137130600Y-88163395D01*
X137130600Y-87695637D01*
X137205361Y-87621006D01*
X137305510Y-87776641D01*
X137517710Y-87921631D01*
X137769600Y-87972640D01*
X138106389Y-87972640D01*
X138106848Y-87973326D01*
X138159810Y-88052590D01*
X140649008Y-90541787D01*
X140649010Y-90541790D01*
X140936125Y-90733633D01*
X141274800Y-90801000D01*
X141314620Y-90801000D01*
X141528784Y-91015163D01*
X141160500Y-90941907D01*
X140592215Y-91054946D01*
X140110446Y-91376853D01*
X139890500Y-91706026D01*
X139670554Y-91376853D01*
X139188785Y-91054946D01*
X138620500Y-90941907D01*
X138052215Y-91054946D01*
X137570446Y-91376853D01*
X137350500Y-91706026D01*
X137130554Y-91376853D01*
X136648785Y-91054946D01*
X136080500Y-90941907D01*
X135512215Y-91054946D01*
X135030446Y-91376853D01*
X134810500Y-91706026D01*
X134590554Y-91376853D01*
X134108785Y-91054946D01*
X133540500Y-90941907D01*
X132972215Y-91054946D01*
X132490446Y-91376853D01*
X132270500Y-91706026D01*
X132050554Y-91376853D01*
X131568785Y-91054946D01*
X131000500Y-90941907D01*
X130432215Y-91054946D01*
X129950446Y-91376853D01*
X129730500Y-91706026D01*
X129510554Y-91376853D01*
X129028785Y-91054946D01*
X128460500Y-90941907D01*
X127892215Y-91054946D01*
X127410446Y-91376853D01*
X127190500Y-91706026D01*
X126970554Y-91376853D01*
X126488785Y-91054946D01*
X125920500Y-90941907D01*
X125352215Y-91054946D01*
X124870446Y-91376853D01*
X124842650Y-91418452D01*
X124833662Y-91370683D01*
X124694590Y-91154559D01*
X124482390Y-91009569D01*
X124230500Y-90958560D01*
X122530500Y-90958560D01*
X122295183Y-91002838D01*
X122079059Y-91141910D01*
X121934069Y-91354110D01*
X121883060Y-91606000D01*
X121883060Y-93306000D01*
X121927338Y-93541317D01*
X122066410Y-93757441D01*
X122114901Y-93790573D01*
X121992173Y-93913302D01*
X121895500Y-94146691D01*
X121895500Y-94837250D01*
X122054250Y-94996000D01*
X123253500Y-94996000D01*
X123253500Y-94976000D01*
X123507500Y-94976000D01*
X123507500Y-94996000D01*
X125793500Y-94996000D01*
X125793500Y-94976000D01*
X126047500Y-94976000D01*
X126047500Y-94996000D01*
X128333500Y-94996000D01*
X128333500Y-94976000D01*
X128587500Y-94976000D01*
X128587500Y-94996000D01*
X130873500Y-94996000D01*
X130873500Y-94976000D01*
X131127500Y-94976000D01*
X131127500Y-94996000D01*
X133413500Y-94996000D01*
X133413500Y-94976000D01*
X133667500Y-94976000D01*
X133667500Y-94996000D01*
X135953500Y-94996000D01*
X135953500Y-94976000D01*
X136207500Y-94976000D01*
X136207500Y-94996000D01*
X138493500Y-94996000D01*
X138493500Y-94976000D01*
X138747500Y-94976000D01*
X138747500Y-94996000D01*
X141033500Y-94996000D01*
X141033500Y-94976000D01*
X141287500Y-94976000D01*
X141287500Y-94996000D01*
X141307500Y-94996000D01*
X141307500Y-95250000D01*
X141287500Y-95250000D01*
X141287500Y-95270000D01*
X141033500Y-95270000D01*
X141033500Y-95250000D01*
X138747500Y-95250000D01*
X138747500Y-95270000D01*
X138493500Y-95270000D01*
X138493500Y-95250000D01*
X136207500Y-95250000D01*
X136207500Y-95270000D01*
X135953500Y-95270000D01*
X135953500Y-95250000D01*
X133667500Y-95250000D01*
X133667500Y-95270000D01*
X133413500Y-95270000D01*
X133413500Y-95250000D01*
X131127500Y-95250000D01*
X131127500Y-95270000D01*
X130873500Y-95270000D01*
X130873500Y-95250000D01*
X128587500Y-95250000D01*
X128587500Y-95270000D01*
X128333500Y-95270000D01*
X128333500Y-95250000D01*
X126047500Y-95250000D01*
X126047500Y-95270000D01*
X125793500Y-95270000D01*
X125793500Y-95250000D01*
X123507500Y-95250000D01*
X123507500Y-95270000D01*
X123253500Y-95270000D01*
X123253500Y-95250000D01*
X122054250Y-95250000D01*
X121895500Y-95408750D01*
X121895500Y-96099309D01*
X121992173Y-96332698D01*
X122113331Y-96453857D01*
X122079059Y-96475910D01*
X121934069Y-96688110D01*
X121883060Y-96940000D01*
X121883060Y-98640000D01*
X121927338Y-98875317D01*
X122066410Y-99091441D01*
X122278610Y-99236431D01*
X122530500Y-99287440D01*
X124230500Y-99287440D01*
X124465817Y-99243162D01*
X124681941Y-99104090D01*
X124826931Y-98891890D01*
X124840586Y-98824459D01*
X124870446Y-98869147D01*
X125352215Y-99191054D01*
X125920500Y-99304093D01*
X126488785Y-99191054D01*
X126970554Y-98869147D01*
X127190500Y-98539974D01*
X127410446Y-98869147D01*
X127892215Y-99191054D01*
X128460500Y-99304093D01*
X129028785Y-99191054D01*
X129510554Y-98869147D01*
X129730500Y-98539974D01*
X129950446Y-98869147D01*
X130432215Y-99191054D01*
X131000500Y-99304093D01*
X131568785Y-99191054D01*
X132050554Y-98869147D01*
X132270500Y-98539974D01*
X132490446Y-98869147D01*
X132972215Y-99191054D01*
X133540500Y-99304093D01*
X134108785Y-99191054D01*
X134590554Y-98869147D01*
X134810500Y-98539974D01*
X135030446Y-98869147D01*
X135512215Y-99191054D01*
X136080500Y-99304093D01*
X136648785Y-99191054D01*
X137130554Y-98869147D01*
X137350500Y-98539974D01*
X137570446Y-98869147D01*
X138052215Y-99191054D01*
X138620500Y-99304093D01*
X139188785Y-99191054D01*
X139670554Y-98869147D01*
X139890500Y-98539974D01*
X140110446Y-98869147D01*
X140592215Y-99191054D01*
X141160500Y-99304093D01*
X141728785Y-99191054D01*
X142210554Y-98869147D01*
X142532461Y-98387378D01*
X142645500Y-97819093D01*
X142645500Y-97760907D01*
X142611600Y-97590480D01*
X142800000Y-97402079D01*
X142800000Y-103495403D01*
X142783400Y-103455228D01*
X141761751Y-102431794D01*
X140426218Y-101877232D01*
X138980126Y-101875970D01*
X137643628Y-102428200D01*
X136620194Y-103449849D01*
X136065632Y-104785382D01*
X136064370Y-106231474D01*
X136616600Y-107567972D01*
X137638249Y-108591406D01*
X137748051Y-108637000D01*
X134543800Y-108637000D01*
X134543800Y-99822000D01*
X134535115Y-99775841D01*
X134507835Y-99733447D01*
X134466210Y-99705006D01*
X134416800Y-99695000D01*
X115976400Y-99695000D01*
X115930241Y-99703685D01*
X115887847Y-99730965D01*
X115859406Y-99772590D01*
X115849400Y-99822000D01*
X115849400Y-108637000D01*
X62940000Y-108637000D01*
X62940000Y-106540667D01*
X63055853Y-106714054D01*
X63537622Y-107035961D01*
X64105907Y-107149000D01*
X64164093Y-107149000D01*
X64732378Y-107035961D01*
X65214147Y-106714054D01*
X65442545Y-106372231D01*
X65466855Y-106430924D01*
X65857142Y-106859183D01*
X66381608Y-107105486D01*
X66611500Y-106984819D01*
X66611500Y-105791000D01*
X66591500Y-105791000D01*
X66591500Y-105537000D01*
X66611500Y-105537000D01*
X66611500Y-103251000D01*
X66591500Y-103251000D01*
X66591500Y-102997000D01*
X66611500Y-102997000D01*
X66611500Y-100711000D01*
X66591500Y-100711000D01*
X66591500Y-100457000D01*
X66611500Y-100457000D01*
X66611500Y-98171000D01*
X66591500Y-98171000D01*
X66591500Y-97917000D01*
X66611500Y-97917000D01*
X66611500Y-95631000D01*
X66591500Y-95631000D01*
X66591500Y-95377000D01*
X66611500Y-95377000D01*
X66611500Y-93091000D01*
X66591500Y-93091000D01*
X66591500Y-92837000D01*
X66611500Y-92837000D01*
X66611500Y-90551000D01*
X66591500Y-90551000D01*
X66591500Y-90297000D01*
X66611500Y-90297000D01*
X66611500Y-88011000D01*
X66591500Y-88011000D01*
X66591500Y-87757000D01*
X66611500Y-87757000D01*
X66611500Y-86557750D01*
X66452750Y-86399000D01*
X65762191Y-86399000D01*
X65528802Y-86495673D01*
X65444828Y-86579647D01*
X65236890Y-86437569D01*
X64985000Y-86386560D01*
X63285000Y-86386560D01*
X63049683Y-86430838D01*
X62940000Y-86501417D01*
X62940000Y-85893502D01*
X63410622Y-86207961D01*
X63978907Y-86321000D01*
X64037093Y-86321000D01*
X64605378Y-86207961D01*
X65087147Y-85886054D01*
X65409054Y-85404285D01*
X65522093Y-84836000D01*
X65409054Y-84267715D01*
X65087147Y-83785946D01*
X64757974Y-83566000D01*
X65087147Y-83346054D01*
X65409054Y-82864285D01*
X65522093Y-82296000D01*
X65409054Y-81727715D01*
X65087147Y-81245946D01*
X64757974Y-81026000D01*
X65087147Y-80806054D01*
X65409054Y-80324285D01*
X65522093Y-79756000D01*
X65409054Y-79187715D01*
X65087147Y-78705946D01*
X64757974Y-78486000D01*
X65087147Y-78266054D01*
X65409054Y-77784285D01*
X65522093Y-77216000D01*
X65409054Y-76647715D01*
X65087147Y-76165946D01*
X64757974Y-75946000D01*
X65087147Y-75726054D01*
X65409054Y-75244285D01*
X65522093Y-74676000D01*
X65409054Y-74107715D01*
X65087147Y-73625946D01*
X65045548Y-73598150D01*
X65093317Y-73589162D01*
X65309441Y-73450090D01*
X65454431Y-73237890D01*
X65505440Y-72986000D01*
X65505440Y-71286000D01*
X65461162Y-71050683D01*
X65322090Y-70834559D01*
X65109890Y-70689569D01*
X64858000Y-70638560D01*
X63158000Y-70638560D01*
X62940000Y-70679580D01*
X62940000Y-69088000D01*
X69723000Y-69088000D01*
X69723000Y-71628000D01*
X69723000Y-71628000D01*
G37*
X69723000Y-71628000D02*
X69731685Y-71674159D01*
X69758965Y-71716553D01*
X69800590Y-71744994D01*
X69850000Y-71755000D01*
X72979239Y-71755000D01*
X72989074Y-71759074D01*
X72866559Y-71837910D01*
X72721569Y-72050110D01*
X72670560Y-72302000D01*
X72670560Y-74002000D01*
X72714838Y-74237317D01*
X72853910Y-74453441D01*
X73066110Y-74598431D01*
X73283000Y-74642352D01*
X73283000Y-75448678D01*
X73233162Y-75568701D01*
X73232838Y-75940667D01*
X73374883Y-76284443D01*
X73637673Y-76547692D01*
X73981201Y-76690338D01*
X74353167Y-76690662D01*
X74696943Y-76548617D01*
X74960192Y-76285827D01*
X75102838Y-75942299D01*
X75103162Y-75570333D01*
X75053000Y-75448931D01*
X75053000Y-74642854D01*
X75253317Y-74605162D01*
X75469441Y-74466090D01*
X75614431Y-74253890D01*
X75628086Y-74186459D01*
X75657946Y-74231147D01*
X75823000Y-74341432D01*
X75823000Y-76909178D01*
X75773162Y-77029201D01*
X75772838Y-77401167D01*
X75914883Y-77744943D01*
X76177673Y-78008192D01*
X76521201Y-78150838D01*
X76893167Y-78151162D01*
X77236943Y-78009117D01*
X77500192Y-77746327D01*
X77642838Y-77402799D01*
X77643162Y-77030833D01*
X77593000Y-76909431D01*
X77593000Y-74341432D01*
X77758054Y-74231147D01*
X77978000Y-73901974D01*
X78197946Y-74231147D01*
X78363000Y-74341432D01*
X78363000Y-79449178D01*
X78313162Y-79569201D01*
X78312838Y-79941167D01*
X78454883Y-80284943D01*
X78717673Y-80548192D01*
X79061201Y-80690838D01*
X79433167Y-80691162D01*
X79776943Y-80549117D01*
X80040192Y-80286327D01*
X80182838Y-79942799D01*
X80183162Y-79570833D01*
X80133000Y-79449431D01*
X80133000Y-74341432D01*
X80298054Y-74231147D01*
X80518000Y-73901974D01*
X80737946Y-74231147D01*
X81219715Y-74553054D01*
X81788000Y-74666093D01*
X82356285Y-74553054D01*
X82838054Y-74231147D01*
X82967779Y-74037000D01*
X87961920Y-74037000D01*
X93137255Y-79212334D01*
X93186883Y-79332443D01*
X93296334Y-79442086D01*
X93227210Y-79511210D01*
X93035367Y-79798325D01*
X93035367Y-79798326D01*
X92967999Y-80137000D01*
X92968000Y-80137005D01*
X92968000Y-82310421D01*
X78457792Y-96820628D01*
X78254327Y-96616808D01*
X77910799Y-96474162D01*
X77538833Y-96473838D01*
X77262943Y-96587833D01*
X77025147Y-96231946D01*
X76695974Y-96012000D01*
X77025147Y-95792054D01*
X77347054Y-95310285D01*
X77460093Y-94742000D01*
X77347054Y-94173715D01*
X77025147Y-93691946D01*
X76695974Y-93472000D01*
X77025147Y-93252054D01*
X77347054Y-92770285D01*
X77460093Y-92202000D01*
X77347054Y-91633715D01*
X77025147Y-91151946D01*
X76695974Y-90932000D01*
X77025147Y-90712054D01*
X77347054Y-90230285D01*
X77460093Y-89662000D01*
X77347054Y-89093715D01*
X77025147Y-88611946D01*
X76684447Y-88384298D01*
X76827358Y-88317183D01*
X77217645Y-87888924D01*
X77387476Y-87478890D01*
X77266155Y-87249000D01*
X76073000Y-87249000D01*
X76073000Y-87269000D01*
X75819000Y-87269000D01*
X75819000Y-87249000D01*
X74625845Y-87249000D01*
X74504524Y-87478890D01*
X74674355Y-87888924D01*
X75064642Y-88317183D01*
X75207553Y-88384298D01*
X74866853Y-88611946D01*
X74544946Y-89093715D01*
X74431907Y-89662000D01*
X74544946Y-90230285D01*
X74866853Y-90712054D01*
X75196026Y-90932000D01*
X74866853Y-91151946D01*
X74544946Y-91633715D01*
X74431907Y-92202000D01*
X74544946Y-92770285D01*
X74866853Y-93252054D01*
X75196026Y-93472000D01*
X74866853Y-93691946D01*
X74544946Y-94173715D01*
X74431907Y-94742000D01*
X74544946Y-95310285D01*
X74866853Y-95792054D01*
X75196026Y-96012000D01*
X74866853Y-96231946D01*
X74544946Y-96713715D01*
X74431907Y-97282000D01*
X74544946Y-97850285D01*
X74866853Y-98332054D01*
X74908452Y-98359850D01*
X74860683Y-98368838D01*
X74644559Y-98507910D01*
X74499569Y-98720110D01*
X74468940Y-98871361D01*
X73015790Y-97418210D01*
X72883224Y-97329633D01*
X72728675Y-97226367D01*
X72672484Y-97215190D01*
X72390000Y-97158999D01*
X72389995Y-97159000D01*
X70594932Y-97159000D01*
X70484647Y-96993946D01*
X70155474Y-96774000D01*
X70484647Y-96554054D01*
X70806554Y-96072285D01*
X70919593Y-95504000D01*
X70806554Y-94935715D01*
X70484647Y-94453946D01*
X70155474Y-94234000D01*
X70484647Y-94014054D01*
X70806554Y-93532285D01*
X70919593Y-92964000D01*
X70806554Y-92395715D01*
X70484647Y-91913946D01*
X70155474Y-91694000D01*
X70484647Y-91474054D01*
X70806554Y-90992285D01*
X70919593Y-90424000D01*
X70806554Y-89855715D01*
X70484647Y-89373946D01*
X70443048Y-89346150D01*
X70490817Y-89337162D01*
X70706941Y-89198090D01*
X70851931Y-88985890D01*
X70902940Y-88734000D01*
X70902940Y-87034000D01*
X70858662Y-86798683D01*
X70837059Y-86765110D01*
X74504524Y-86765110D01*
X74625845Y-86995000D01*
X75819000Y-86995000D01*
X75819000Y-85801181D01*
X76073000Y-85801181D01*
X76073000Y-86995000D01*
X77266155Y-86995000D01*
X77387476Y-86765110D01*
X77217645Y-86355076D01*
X76827358Y-85926817D01*
X76302892Y-85680514D01*
X76073000Y-85801181D01*
X75819000Y-85801181D01*
X75589108Y-85680514D01*
X75064642Y-85926817D01*
X74674355Y-86355076D01*
X74504524Y-86765110D01*
X70837059Y-86765110D01*
X70719590Y-86582559D01*
X70507390Y-86437569D01*
X70255500Y-86386560D01*
X68555500Y-86386560D01*
X68320183Y-86430838D01*
X68104059Y-86569910D01*
X68070927Y-86618401D01*
X67948198Y-86495673D01*
X67714809Y-86399000D01*
X67024250Y-86399000D01*
X66865500Y-86557750D01*
X66865500Y-87757000D01*
X66885500Y-87757000D01*
X66885500Y-88011000D01*
X66865500Y-88011000D01*
X66865500Y-90297000D01*
X66885500Y-90297000D01*
X66885500Y-90551000D01*
X66865500Y-90551000D01*
X66865500Y-92837000D01*
X66885500Y-92837000D01*
X66885500Y-93091000D01*
X66865500Y-93091000D01*
X66865500Y-95377000D01*
X66885500Y-95377000D01*
X66885500Y-95631000D01*
X66865500Y-95631000D01*
X66865500Y-97917000D01*
X66885500Y-97917000D01*
X66885500Y-98171000D01*
X66865500Y-98171000D01*
X66865500Y-100457000D01*
X66885500Y-100457000D01*
X66885500Y-100711000D01*
X66865500Y-100711000D01*
X66865500Y-102997000D01*
X66885500Y-102997000D01*
X66885500Y-103251000D01*
X66865500Y-103251000D01*
X66865500Y-105537000D01*
X66885500Y-105537000D01*
X66885500Y-105791000D01*
X66865500Y-105791000D01*
X66865500Y-106984819D01*
X67095392Y-107105486D01*
X67619858Y-106859183D01*
X68010145Y-106430924D01*
X68058754Y-106313563D01*
X68326353Y-106714054D01*
X68808122Y-107035961D01*
X69376407Y-107149000D01*
X69434593Y-107149000D01*
X70002878Y-107035961D01*
X70484647Y-106714054D01*
X70503194Y-106686295D01*
X86540816Y-106686295D01*
X86789206Y-107287443D01*
X87248737Y-107747778D01*
X87849452Y-107997216D01*
X88499895Y-107997784D01*
X89101043Y-107749394D01*
X89335815Y-107515032D01*
X91703173Y-107515032D01*
X91801836Y-107781887D01*
X92411561Y-108008408D01*
X93061560Y-107984356D01*
X93550364Y-107781887D01*
X93649027Y-107515032D01*
X92676100Y-106542105D01*
X91703173Y-107515032D01*
X89335815Y-107515032D01*
X89561378Y-107289863D01*
X89810816Y-106689148D01*
X89811384Y-106038705D01*
X89562994Y-105437557D01*
X89476788Y-105351200D01*
X91485192Y-105351200D01*
X91523566Y-105389574D01*
X91256713Y-105488236D01*
X91030192Y-106097961D01*
X91054244Y-106747960D01*
X91256713Y-107236764D01*
X91523568Y-107335427D01*
X92496495Y-106362500D01*
X92482353Y-106348358D01*
X92661958Y-106168753D01*
X92676100Y-106182895D01*
X92690243Y-106168753D01*
X92869848Y-106348358D01*
X92855705Y-106362500D01*
X93828632Y-107335427D01*
X94095487Y-107236764D01*
X94322008Y-106627039D01*
X94312784Y-106377745D01*
X111566861Y-106377745D01*
X111640995Y-106623864D01*
X112178223Y-106816965D01*
X112748454Y-106789778D01*
X113149005Y-106623864D01*
X113223139Y-106377745D01*
X112395000Y-105549605D01*
X111566861Y-106377745D01*
X94312784Y-106377745D01*
X94297956Y-105977040D01*
X94095487Y-105488236D01*
X93828634Y-105389574D01*
X93867008Y-105351200D01*
X96730382Y-105351200D01*
X96805310Y-105467641D01*
X97017510Y-105612631D01*
X97269400Y-105663640D01*
X98869400Y-105663640D01*
X99104717Y-105619362D01*
X99320841Y-105480290D01*
X99465831Y-105268090D01*
X99489092Y-105153223D01*
X110948035Y-105153223D01*
X110975222Y-105723454D01*
X111141136Y-106124005D01*
X111387255Y-106198139D01*
X112215395Y-105370000D01*
X112574605Y-105370000D01*
X113402745Y-106198139D01*
X113648864Y-106124005D01*
X113841965Y-105586777D01*
X113814778Y-105016546D01*
X113648864Y-104615995D01*
X113402745Y-104541861D01*
X112574605Y-105370000D01*
X112215395Y-105370000D01*
X111387255Y-104541861D01*
X111141136Y-104615995D01*
X110948035Y-105153223D01*
X99489092Y-105153223D01*
X99516840Y-105016200D01*
X99516840Y-103416200D01*
X99472562Y-103180883D01*
X99333490Y-102964759D01*
X99121290Y-102819769D01*
X98883199Y-102771554D01*
X98897539Y-102723945D01*
X98069400Y-101895805D01*
X97241261Y-102723945D01*
X97255545Y-102771367D01*
X97034083Y-102813038D01*
X96817959Y-102952110D01*
X96729756Y-103081200D01*
X89674933Y-103081200D01*
X88978666Y-102384934D01*
X88610445Y-102138897D01*
X88176100Y-102052500D01*
X87741755Y-102138897D01*
X87373534Y-102384934D01*
X87127497Y-102753155D01*
X87041100Y-103187500D01*
X87127497Y-103621845D01*
X87373534Y-103990066D01*
X88110909Y-104727442D01*
X87852305Y-104727216D01*
X87251157Y-104975606D01*
X86790822Y-105435137D01*
X86541384Y-106035852D01*
X86540816Y-106686295D01*
X70503194Y-106686295D01*
X70594932Y-106549000D01*
X77927995Y-106549000D01*
X77928000Y-106549001D01*
X78210484Y-106492810D01*
X78266675Y-106481633D01*
X78553790Y-106289790D01*
X81405787Y-103437792D01*
X81405790Y-103437790D01*
X81597633Y-103150675D01*
X81617135Y-103052633D01*
X81665001Y-102812000D01*
X81665000Y-102811995D01*
X81665000Y-99378580D01*
X84646579Y-96397000D01*
X88343421Y-96397000D01*
X87550310Y-97190110D01*
X87358467Y-97477225D01*
X87358467Y-97477226D01*
X87291099Y-97815900D01*
X87291100Y-97815905D01*
X87291100Y-98459102D01*
X87251157Y-98475606D01*
X86790822Y-98935137D01*
X86541384Y-99535852D01*
X86540816Y-100186295D01*
X86789206Y-100787443D01*
X87248737Y-101247778D01*
X87849452Y-101497216D01*
X88499895Y-101497784D01*
X89101043Y-101249394D01*
X89335815Y-101015032D01*
X91703173Y-101015032D01*
X91801836Y-101281887D01*
X92411561Y-101508408D01*
X92654378Y-101499423D01*
X96622435Y-101499423D01*
X96649622Y-102069654D01*
X96815536Y-102470205D01*
X97061655Y-102544339D01*
X97889795Y-101716200D01*
X98249005Y-101716200D01*
X99077145Y-102544339D01*
X99323264Y-102470205D01*
X99467113Y-102070000D01*
X110947560Y-102070000D01*
X110947560Y-103670000D01*
X110991838Y-103905317D01*
X111130910Y-104121441D01*
X111343110Y-104266431D01*
X111581201Y-104314646D01*
X111566861Y-104362255D01*
X112395000Y-105190395D01*
X113223139Y-104362255D01*
X113208855Y-104314833D01*
X113430317Y-104273162D01*
X113646441Y-104134090D01*
X113791431Y-103921890D01*
X113842440Y-103670000D01*
X113842440Y-102070000D01*
X113798162Y-101834683D01*
X113659090Y-101618559D01*
X113446890Y-101473569D01*
X113195000Y-101422560D01*
X111595000Y-101422560D01*
X111359683Y-101466838D01*
X111143559Y-101605910D01*
X110998569Y-101818110D01*
X110947560Y-102070000D01*
X99467113Y-102070000D01*
X99516365Y-101932977D01*
X99489178Y-101362746D01*
X99323264Y-100962195D01*
X99077145Y-100888061D01*
X98249005Y-101716200D01*
X97889795Y-101716200D01*
X97061655Y-100888061D01*
X96815536Y-100962195D01*
X96622435Y-101499423D01*
X92654378Y-101499423D01*
X93061560Y-101484356D01*
X93550364Y-101281887D01*
X93649027Y-101015032D01*
X92676100Y-100042105D01*
X91703173Y-101015032D01*
X89335815Y-101015032D01*
X89561378Y-100789863D01*
X89810816Y-100189148D01*
X89811332Y-99597961D01*
X91030192Y-99597961D01*
X91054244Y-100247960D01*
X91256713Y-100736764D01*
X91523568Y-100835427D01*
X92496495Y-99862500D01*
X92855705Y-99862500D01*
X93828632Y-100835427D01*
X94095487Y-100736764D01*
X94106004Y-100708455D01*
X97241261Y-100708455D01*
X98069400Y-101536595D01*
X98897539Y-100708455D01*
X98823405Y-100462336D01*
X98286177Y-100269235D01*
X97715946Y-100296422D01*
X97315395Y-100462336D01*
X97241261Y-100708455D01*
X94106004Y-100708455D01*
X94322008Y-100127039D01*
X94297956Y-99477040D01*
X94095487Y-98988236D01*
X93828632Y-98889573D01*
X92855705Y-99862500D01*
X92496495Y-99862500D01*
X91523568Y-98889573D01*
X91256713Y-98988236D01*
X91030192Y-99597961D01*
X89811332Y-99597961D01*
X89811384Y-99538705D01*
X89562994Y-98937557D01*
X89335803Y-98709968D01*
X91703173Y-98709968D01*
X92676100Y-99682895D01*
X93649027Y-98709968D01*
X93550364Y-98443113D01*
X92940639Y-98216592D01*
X92290640Y-98240644D01*
X91801836Y-98443113D01*
X91703173Y-98709968D01*
X89335803Y-98709968D01*
X89103463Y-98477222D01*
X89061100Y-98459631D01*
X89061100Y-98182480D01*
X89846579Y-97397000D01*
X93079995Y-97397000D01*
X93080000Y-97397001D01*
X93362484Y-97340810D01*
X93418675Y-97329633D01*
X93705790Y-97137790D01*
X96805787Y-94037792D01*
X96805790Y-94037790D01*
X96997633Y-93750675D01*
X97035981Y-93557890D01*
X97065001Y-93412000D01*
X97065000Y-93411995D01*
X97065000Y-90078580D01*
X97905787Y-89237792D01*
X97905790Y-89237790D01*
X98097633Y-88950675D01*
X98140733Y-88734000D01*
X98165001Y-88612000D01*
X98165000Y-88611995D01*
X98165000Y-84111754D01*
X98656298Y-84315759D01*
X99207285Y-84316240D01*
X99597400Y-84155048D01*
X99597400Y-96619578D01*
X99547562Y-96739601D01*
X99547238Y-97111567D01*
X99689283Y-97455343D01*
X99952073Y-97718592D01*
X100295601Y-97861238D01*
X100667567Y-97861562D01*
X101011343Y-97719517D01*
X101274592Y-97456727D01*
X101417238Y-97113199D01*
X101417562Y-96741233D01*
X101367400Y-96619831D01*
X101367400Y-83205285D01*
X102447760Y-83205285D01*
X102658169Y-83714515D01*
X103047436Y-84104461D01*
X103556298Y-84315759D01*
X104107285Y-84316240D01*
X104616515Y-84105831D01*
X105006461Y-83716564D01*
X105217759Y-83207702D01*
X105218240Y-82656715D01*
X105007831Y-82147485D01*
X104618564Y-81757539D01*
X104109702Y-81546241D01*
X103558715Y-81545760D01*
X103049485Y-81756169D01*
X102659539Y-82145436D01*
X102448241Y-82654298D01*
X102447760Y-83205285D01*
X101367400Y-83205285D01*
X101367400Y-81483205D01*
X101367401Y-81483200D01*
X101309992Y-81194590D01*
X101300033Y-81144525D01*
X101108190Y-80857410D01*
X101108187Y-80857408D01*
X100739379Y-80488600D01*
X104292395Y-80488600D01*
X104292400Y-80488601D01*
X104574884Y-80432410D01*
X104631075Y-80421233D01*
X104918190Y-80229390D01*
X107859379Y-77288200D01*
X115132851Y-77288200D01*
X115344473Y-77500192D01*
X115688001Y-77642838D01*
X116059967Y-77643162D01*
X116403743Y-77501117D01*
X116666992Y-77238327D01*
X116809638Y-76894799D01*
X116809962Y-76522833D01*
X116667917Y-76179057D01*
X116663690Y-76174823D01*
X116666992Y-76171527D01*
X116809638Y-75827999D01*
X116809962Y-75456033D01*
X116667917Y-75112257D01*
X116629179Y-75073451D01*
X116758838Y-74761199D01*
X116759082Y-74481500D01*
X120092920Y-74481500D01*
X126877000Y-81265579D01*
X126877000Y-82116178D01*
X126827162Y-82236201D01*
X126827018Y-82401600D01*
X112456779Y-82401600D01*
X109794990Y-79739810D01*
X109597459Y-79607825D01*
X109507875Y-79547967D01*
X109451684Y-79536790D01*
X109192981Y-79485329D01*
X109000399Y-79405362D01*
X108628433Y-79405038D01*
X108284657Y-79547083D01*
X108021408Y-79809873D01*
X107878762Y-80153401D01*
X107878438Y-80525367D01*
X107995236Y-80808041D01*
X107929562Y-80966201D01*
X107929238Y-81338167D01*
X108071283Y-81681943D01*
X108334073Y-81945192D01*
X108455386Y-81995566D01*
X111134208Y-84674387D01*
X111134210Y-84674390D01*
X111421325Y-84866233D01*
X111477516Y-84877410D01*
X111760000Y-84933601D01*
X111760005Y-84933600D01*
X118622000Y-84933600D01*
X118622000Y-85989453D01*
X118466792Y-85613820D01*
X118045597Y-85191890D01*
X117494998Y-84963261D01*
X116898818Y-84962741D01*
X116347820Y-85190408D01*
X115925890Y-85611603D01*
X115925505Y-85612531D01*
X115505597Y-85191890D01*
X114954998Y-84963261D01*
X114358818Y-84962741D01*
X113807820Y-85190408D01*
X113385890Y-85611603D01*
X113157261Y-86162202D01*
X113156741Y-86758382D01*
X113384408Y-87309380D01*
X113805603Y-87731310D01*
X114356202Y-87959939D01*
X114952382Y-87960459D01*
X115503380Y-87732792D01*
X115925310Y-87311597D01*
X115925695Y-87310669D01*
X116233954Y-87619467D01*
X113801210Y-90052210D01*
X113609367Y-90339325D01*
X113609367Y-90339326D01*
X113541999Y-90678000D01*
X113542000Y-90678005D01*
X113542000Y-90758568D01*
X113376946Y-90868853D01*
X113349150Y-90910452D01*
X113340162Y-90862683D01*
X113201090Y-90646559D01*
X112988890Y-90501569D01*
X112737000Y-90450560D01*
X111037000Y-90450560D01*
X110801683Y-90494838D01*
X110585559Y-90633910D01*
X110440569Y-90846110D01*
X110389560Y-91098000D01*
X110389560Y-92798000D01*
X110433838Y-93033317D01*
X110572910Y-93249441D01*
X110785110Y-93394431D01*
X111037000Y-93445440D01*
X112737000Y-93445440D01*
X112972317Y-93401162D01*
X113188441Y-93262090D01*
X113333431Y-93049890D01*
X113347086Y-92982459D01*
X113376946Y-93027147D01*
X113858715Y-93349054D01*
X114427000Y-93462093D01*
X114995285Y-93349054D01*
X115477054Y-93027147D01*
X115697000Y-92697974D01*
X115916946Y-93027147D01*
X116398715Y-93349054D01*
X116967000Y-93462093D01*
X117535285Y-93349054D01*
X118017054Y-93027147D01*
X118244702Y-92686447D01*
X118311817Y-92829358D01*
X118740076Y-93219645D01*
X119150110Y-93389476D01*
X119380000Y-93268155D01*
X119380000Y-92075000D01*
X119634000Y-92075000D01*
X119634000Y-93268155D01*
X119863890Y-93389476D01*
X120273924Y-93219645D01*
X120702183Y-92829358D01*
X120948486Y-92304892D01*
X120827819Y-92075000D01*
X119634000Y-92075000D01*
X119380000Y-92075000D01*
X119360000Y-92075000D01*
X119360000Y-91821000D01*
X119380000Y-91821000D01*
X119380000Y-90627845D01*
X119634000Y-90627845D01*
X119634000Y-91821000D01*
X120827819Y-91821000D01*
X120948486Y-91591108D01*
X120702183Y-91066642D01*
X120273924Y-90676355D01*
X119863890Y-90506524D01*
X119634000Y-90627845D01*
X119380000Y-90627845D01*
X119317643Y-90594937D01*
X120254579Y-89658000D01*
X135635995Y-89658000D01*
X135636000Y-89658001D01*
X135918484Y-89601810D01*
X135974675Y-89590633D01*
X136261790Y-89398790D01*
X136261791Y-89398789D01*
X136871387Y-88789192D01*
X136871390Y-88789190D01*
X137063233Y-88502075D01*
X137063234Y-88502074D01*
X137130601Y-88163400D01*
X137130600Y-88163395D01*
X137130600Y-87695637D01*
X137205361Y-87621006D01*
X137305510Y-87776641D01*
X137517710Y-87921631D01*
X137769600Y-87972640D01*
X138106389Y-87972640D01*
X138106848Y-87973326D01*
X138159810Y-88052590D01*
X140649008Y-90541787D01*
X140649010Y-90541790D01*
X140936125Y-90733633D01*
X141274800Y-90801000D01*
X141314620Y-90801000D01*
X141528784Y-91015163D01*
X141160500Y-90941907D01*
X140592215Y-91054946D01*
X140110446Y-91376853D01*
X139890500Y-91706026D01*
X139670554Y-91376853D01*
X139188785Y-91054946D01*
X138620500Y-90941907D01*
X138052215Y-91054946D01*
X137570446Y-91376853D01*
X137350500Y-91706026D01*
X137130554Y-91376853D01*
X136648785Y-91054946D01*
X136080500Y-90941907D01*
X135512215Y-91054946D01*
X135030446Y-91376853D01*
X134810500Y-91706026D01*
X134590554Y-91376853D01*
X134108785Y-91054946D01*
X133540500Y-90941907D01*
X132972215Y-91054946D01*
X132490446Y-91376853D01*
X132270500Y-91706026D01*
X132050554Y-91376853D01*
X131568785Y-91054946D01*
X131000500Y-90941907D01*
X130432215Y-91054946D01*
X129950446Y-91376853D01*
X129730500Y-91706026D01*
X129510554Y-91376853D01*
X129028785Y-91054946D01*
X128460500Y-90941907D01*
X127892215Y-91054946D01*
X127410446Y-91376853D01*
X127190500Y-91706026D01*
X126970554Y-91376853D01*
X126488785Y-91054946D01*
X125920500Y-90941907D01*
X125352215Y-91054946D01*
X124870446Y-91376853D01*
X124842650Y-91418452D01*
X124833662Y-91370683D01*
X124694590Y-91154559D01*
X124482390Y-91009569D01*
X124230500Y-90958560D01*
X122530500Y-90958560D01*
X122295183Y-91002838D01*
X122079059Y-91141910D01*
X121934069Y-91354110D01*
X121883060Y-91606000D01*
X121883060Y-93306000D01*
X121927338Y-93541317D01*
X122066410Y-93757441D01*
X122114901Y-93790573D01*
X121992173Y-93913302D01*
X121895500Y-94146691D01*
X121895500Y-94837250D01*
X122054250Y-94996000D01*
X123253500Y-94996000D01*
X123253500Y-94976000D01*
X123507500Y-94976000D01*
X123507500Y-94996000D01*
X125793500Y-94996000D01*
X125793500Y-94976000D01*
X126047500Y-94976000D01*
X126047500Y-94996000D01*
X128333500Y-94996000D01*
X128333500Y-94976000D01*
X128587500Y-94976000D01*
X128587500Y-94996000D01*
X130873500Y-94996000D01*
X130873500Y-94976000D01*
X131127500Y-94976000D01*
X131127500Y-94996000D01*
X133413500Y-94996000D01*
X133413500Y-94976000D01*
X133667500Y-94976000D01*
X133667500Y-94996000D01*
X135953500Y-94996000D01*
X135953500Y-94976000D01*
X136207500Y-94976000D01*
X136207500Y-94996000D01*
X138493500Y-94996000D01*
X138493500Y-94976000D01*
X138747500Y-94976000D01*
X138747500Y-94996000D01*
X141033500Y-94996000D01*
X141033500Y-94976000D01*
X141287500Y-94976000D01*
X141287500Y-94996000D01*
X141307500Y-94996000D01*
X141307500Y-95250000D01*
X141287500Y-95250000D01*
X141287500Y-95270000D01*
X141033500Y-95270000D01*
X141033500Y-95250000D01*
X138747500Y-95250000D01*
X138747500Y-95270000D01*
X138493500Y-95270000D01*
X138493500Y-95250000D01*
X136207500Y-95250000D01*
X136207500Y-95270000D01*
X135953500Y-95270000D01*
X135953500Y-95250000D01*
X133667500Y-95250000D01*
X133667500Y-95270000D01*
X133413500Y-95270000D01*
X133413500Y-95250000D01*
X131127500Y-95250000D01*
X131127500Y-95270000D01*
X130873500Y-95270000D01*
X130873500Y-95250000D01*
X128587500Y-95250000D01*
X128587500Y-95270000D01*
X128333500Y-95270000D01*
X128333500Y-95250000D01*
X126047500Y-95250000D01*
X126047500Y-95270000D01*
X125793500Y-95270000D01*
X125793500Y-95250000D01*
X123507500Y-95250000D01*
X123507500Y-95270000D01*
X123253500Y-95270000D01*
X123253500Y-95250000D01*
X122054250Y-95250000D01*
X121895500Y-95408750D01*
X121895500Y-96099309D01*
X121992173Y-96332698D01*
X122113331Y-96453857D01*
X122079059Y-96475910D01*
X121934069Y-96688110D01*
X121883060Y-96940000D01*
X121883060Y-98640000D01*
X121927338Y-98875317D01*
X122066410Y-99091441D01*
X122278610Y-99236431D01*
X122530500Y-99287440D01*
X124230500Y-99287440D01*
X124465817Y-99243162D01*
X124681941Y-99104090D01*
X124826931Y-98891890D01*
X124840586Y-98824459D01*
X124870446Y-98869147D01*
X125352215Y-99191054D01*
X125920500Y-99304093D01*
X126488785Y-99191054D01*
X126970554Y-98869147D01*
X127190500Y-98539974D01*
X127410446Y-98869147D01*
X127892215Y-99191054D01*
X128460500Y-99304093D01*
X129028785Y-99191054D01*
X129510554Y-98869147D01*
X129730500Y-98539974D01*
X129950446Y-98869147D01*
X130432215Y-99191054D01*
X131000500Y-99304093D01*
X131568785Y-99191054D01*
X132050554Y-98869147D01*
X132270500Y-98539974D01*
X132490446Y-98869147D01*
X132972215Y-99191054D01*
X133540500Y-99304093D01*
X134108785Y-99191054D01*
X134590554Y-98869147D01*
X134810500Y-98539974D01*
X135030446Y-98869147D01*
X135512215Y-99191054D01*
X136080500Y-99304093D01*
X136648785Y-99191054D01*
X137130554Y-98869147D01*
X137350500Y-98539974D01*
X137570446Y-98869147D01*
X138052215Y-99191054D01*
X138620500Y-99304093D01*
X139188785Y-99191054D01*
X139670554Y-98869147D01*
X139890500Y-98539974D01*
X140110446Y-98869147D01*
X140592215Y-99191054D01*
X141160500Y-99304093D01*
X141728785Y-99191054D01*
X142210554Y-98869147D01*
X142532461Y-98387378D01*
X142645500Y-97819093D01*
X142645500Y-97760907D01*
X142611600Y-97590480D01*
X142800000Y-97402079D01*
X142800000Y-103495403D01*
X142783400Y-103455228D01*
X141761751Y-102431794D01*
X140426218Y-101877232D01*
X138980126Y-101875970D01*
X137643628Y-102428200D01*
X136620194Y-103449849D01*
X136065632Y-104785382D01*
X136064370Y-106231474D01*
X136616600Y-107567972D01*
X137638249Y-108591406D01*
X137748051Y-108637000D01*
X134543800Y-108637000D01*
X134543800Y-99822000D01*
X134535115Y-99775841D01*
X134507835Y-99733447D01*
X134466210Y-99705006D01*
X134416800Y-99695000D01*
X115976400Y-99695000D01*
X115930241Y-99703685D01*
X115887847Y-99730965D01*
X115859406Y-99772590D01*
X115849400Y-99822000D01*
X115849400Y-108637000D01*
X62940000Y-108637000D01*
X62940000Y-106540667D01*
X63055853Y-106714054D01*
X63537622Y-107035961D01*
X64105907Y-107149000D01*
X64164093Y-107149000D01*
X64732378Y-107035961D01*
X65214147Y-106714054D01*
X65442545Y-106372231D01*
X65466855Y-106430924D01*
X65857142Y-106859183D01*
X66381608Y-107105486D01*
X66611500Y-106984819D01*
X66611500Y-105791000D01*
X66591500Y-105791000D01*
X66591500Y-105537000D01*
X66611500Y-105537000D01*
X66611500Y-103251000D01*
X66591500Y-103251000D01*
X66591500Y-102997000D01*
X66611500Y-102997000D01*
X66611500Y-100711000D01*
X66591500Y-100711000D01*
X66591500Y-100457000D01*
X66611500Y-100457000D01*
X66611500Y-98171000D01*
X66591500Y-98171000D01*
X66591500Y-97917000D01*
X66611500Y-97917000D01*
X66611500Y-95631000D01*
X66591500Y-95631000D01*
X66591500Y-95377000D01*
X66611500Y-95377000D01*
X66611500Y-93091000D01*
X66591500Y-93091000D01*
X66591500Y-92837000D01*
X66611500Y-92837000D01*
X66611500Y-90551000D01*
X66591500Y-90551000D01*
X66591500Y-90297000D01*
X66611500Y-90297000D01*
X66611500Y-88011000D01*
X66591500Y-88011000D01*
X66591500Y-87757000D01*
X66611500Y-87757000D01*
X66611500Y-86557750D01*
X66452750Y-86399000D01*
X65762191Y-86399000D01*
X65528802Y-86495673D01*
X65444828Y-86579647D01*
X65236890Y-86437569D01*
X64985000Y-86386560D01*
X63285000Y-86386560D01*
X63049683Y-86430838D01*
X62940000Y-86501417D01*
X62940000Y-85893502D01*
X63410622Y-86207961D01*
X63978907Y-86321000D01*
X64037093Y-86321000D01*
X64605378Y-86207961D01*
X65087147Y-85886054D01*
X65409054Y-85404285D01*
X65522093Y-84836000D01*
X65409054Y-84267715D01*
X65087147Y-83785946D01*
X64757974Y-83566000D01*
X65087147Y-83346054D01*
X65409054Y-82864285D01*
X65522093Y-82296000D01*
X65409054Y-81727715D01*
X65087147Y-81245946D01*
X64757974Y-81026000D01*
X65087147Y-80806054D01*
X65409054Y-80324285D01*
X65522093Y-79756000D01*
X65409054Y-79187715D01*
X65087147Y-78705946D01*
X64757974Y-78486000D01*
X65087147Y-78266054D01*
X65409054Y-77784285D01*
X65522093Y-77216000D01*
X65409054Y-76647715D01*
X65087147Y-76165946D01*
X64757974Y-75946000D01*
X65087147Y-75726054D01*
X65409054Y-75244285D01*
X65522093Y-74676000D01*
X65409054Y-74107715D01*
X65087147Y-73625946D01*
X65045548Y-73598150D01*
X65093317Y-73589162D01*
X65309441Y-73450090D01*
X65454431Y-73237890D01*
X65505440Y-72986000D01*
X65505440Y-71286000D01*
X65461162Y-71050683D01*
X65322090Y-70834559D01*
X65109890Y-70689569D01*
X64858000Y-70638560D01*
X63158000Y-70638560D01*
X62940000Y-70679580D01*
X62940000Y-69088000D01*
X69723000Y-69088000D01*
X69723000Y-71628000D01*
G36*
X136620194Y-38019449D02*
X136065632Y-39354982D01*
X136064370Y-40801074D01*
X136616600Y-42137572D01*
X137638249Y-43161006D01*
X138973782Y-43715568D01*
X140419874Y-43716830D01*
X141756372Y-43164600D01*
X142779806Y-42142951D01*
X142800000Y-42094318D01*
X142800000Y-48844980D01*
X142708309Y-48807000D01*
X142017750Y-48807000D01*
X141859000Y-48965750D01*
X141859000Y-50165000D01*
X141879000Y-50165000D01*
X141879000Y-50419000D01*
X141859000Y-50419000D01*
X141859000Y-52705000D01*
X141879000Y-52705000D01*
X141879000Y-52959000D01*
X141859000Y-52959000D01*
X141859000Y-55245000D01*
X141879000Y-55245000D01*
X141879000Y-55499000D01*
X141859000Y-55499000D01*
X141859000Y-57785000D01*
X141879000Y-57785000D01*
X141879000Y-58039000D01*
X141859000Y-58039000D01*
X141859000Y-60325000D01*
X141879000Y-60325000D01*
X141879000Y-60579000D01*
X141859000Y-60579000D01*
X141859000Y-62865000D01*
X141879000Y-62865000D01*
X141879000Y-63119000D01*
X141859000Y-63119000D01*
X141859000Y-65405000D01*
X141879000Y-65405000D01*
X141879000Y-65659000D01*
X141859000Y-65659000D01*
X141859000Y-67945000D01*
X141879000Y-67945000D01*
X141879000Y-68199000D01*
X141859000Y-68199000D01*
X141859000Y-69392819D01*
X142088892Y-69513486D01*
X142613358Y-69267183D01*
X142800000Y-69062382D01*
X142800000Y-70865623D01*
X142596792Y-70373820D01*
X142175597Y-69951890D01*
X141624998Y-69723261D01*
X141028818Y-69722741D01*
X140477820Y-69950408D01*
X140055890Y-70371603D01*
X140055505Y-70372531D01*
X139635597Y-69951890D01*
X139084998Y-69723261D01*
X138792585Y-69723006D01*
X138518635Y-69449056D01*
X139061307Y-69557000D01*
X139119493Y-69557000D01*
X139687778Y-69443961D01*
X140169547Y-69122054D01*
X140421465Y-68745030D01*
X140460355Y-68838924D01*
X140850642Y-69267183D01*
X141375108Y-69513486D01*
X141605000Y-69392819D01*
X141605000Y-68199000D01*
X141585000Y-68199000D01*
X141585000Y-67945000D01*
X141605000Y-67945000D01*
X141605000Y-65659000D01*
X141585000Y-65659000D01*
X141585000Y-65405000D01*
X141605000Y-65405000D01*
X141605000Y-63119000D01*
X141585000Y-63119000D01*
X141585000Y-62865000D01*
X141605000Y-62865000D01*
X141605000Y-60579000D01*
X141585000Y-60579000D01*
X141585000Y-60325000D01*
X141605000Y-60325000D01*
X141605000Y-58039000D01*
X141585000Y-58039000D01*
X141585000Y-57785000D01*
X141605000Y-57785000D01*
X141605000Y-55499000D01*
X141585000Y-55499000D01*
X141585000Y-55245000D01*
X141605000Y-55245000D01*
X141605000Y-52959000D01*
X141585000Y-52959000D01*
X141585000Y-52705000D01*
X141605000Y-52705000D01*
X141605000Y-50419000D01*
X141585000Y-50419000D01*
X141585000Y-50165000D01*
X141605000Y-50165000D01*
X141605000Y-48965750D01*
X141446250Y-48807000D01*
X140755691Y-48807000D01*
X140522302Y-48903673D01*
X140416598Y-49009376D01*
X140404490Y-48990559D01*
X140192290Y-48845569D01*
X139940400Y-48794560D01*
X138240400Y-48794560D01*
X138005083Y-48838838D01*
X137788959Y-48977910D01*
X137643969Y-49190110D01*
X137592960Y-49442000D01*
X137592960Y-51142000D01*
X137637238Y-51377317D01*
X137776310Y-51593441D01*
X137988510Y-51738431D01*
X138055941Y-51752086D01*
X138011253Y-51781946D01*
X137689346Y-52263715D01*
X137576307Y-52832000D01*
X137689346Y-53400285D01*
X138011253Y-53882054D01*
X138340426Y-54102000D01*
X138011253Y-54321946D01*
X137689346Y-54803715D01*
X137576307Y-55372000D01*
X137689346Y-55940285D01*
X138011253Y-56422054D01*
X138340426Y-56642000D01*
X138011253Y-56861946D01*
X137689346Y-57343715D01*
X137576307Y-57912000D01*
X137689346Y-58480285D01*
X138011253Y-58962054D01*
X138340426Y-59182000D01*
X138011253Y-59401946D01*
X137689346Y-59883715D01*
X137576307Y-60452000D01*
X137689346Y-61020285D01*
X138011253Y-61502054D01*
X138340426Y-61722000D01*
X138011253Y-61941946D01*
X137689346Y-62423715D01*
X137576307Y-62992000D01*
X137689346Y-63560285D01*
X138011253Y-64042054D01*
X138340426Y-64262000D01*
X138011253Y-64481946D01*
X137689346Y-64963715D01*
X137576307Y-65532000D01*
X137619861Y-65750960D01*
X136343710Y-67027110D01*
X136151867Y-67314225D01*
X136150875Y-67319211D01*
X136084499Y-67652900D01*
X136084500Y-67652905D01*
X136084500Y-69151495D01*
X136084499Y-69151500D01*
X136140690Y-69433984D01*
X136151867Y-69490175D01*
X136307471Y-69723054D01*
X135948818Y-69722741D01*
X135397820Y-69950408D01*
X134975890Y-70371603D01*
X134975505Y-70372531D01*
X134555597Y-69951890D01*
X134004998Y-69723261D01*
X133408818Y-69722741D01*
X132857820Y-69950408D01*
X132435890Y-70371603D01*
X132207261Y-70922202D01*
X132206741Y-71518382D01*
X132434408Y-72069380D01*
X132855603Y-72491310D01*
X133406202Y-72719939D01*
X134002382Y-72720459D01*
X134553380Y-72492792D01*
X134975310Y-72071597D01*
X134975695Y-72070669D01*
X135395603Y-72491310D01*
X135946202Y-72719939D01*
X136542382Y-72720459D01*
X137093380Y-72492792D01*
X137515310Y-72071597D01*
X137515695Y-72070669D01*
X137935603Y-72491310D01*
X138486202Y-72719939D01*
X139082382Y-72720459D01*
X139633380Y-72492792D01*
X140055310Y-72071597D01*
X140055695Y-72070669D01*
X140475603Y-72491310D01*
X141026202Y-72719939D01*
X141622382Y-72720459D01*
X142173380Y-72492792D01*
X142595310Y-72071597D01*
X142800000Y-71578649D01*
X142800000Y-86074649D01*
X142632116Y-85669341D01*
X142379405Y-85587400D01*
X141505205Y-86461600D01*
X142379405Y-87335800D01*
X142632116Y-87253859D01*
X142800000Y-86792157D01*
X142800000Y-89783220D01*
X142306990Y-89290210D01*
X142215108Y-89228817D01*
X142019875Y-89098367D01*
X141958758Y-89086210D01*
X141681200Y-89030999D01*
X141681195Y-89031000D01*
X141641379Y-89031000D01*
X140312560Y-87702181D01*
X140398031Y-87577090D01*
X140400142Y-87566666D01*
X140451401Y-87515407D01*
X140533341Y-87768116D01*
X141093630Y-87971848D01*
X141689235Y-87945658D01*
X142117859Y-87768116D01*
X142199800Y-87515405D01*
X141325600Y-86641205D01*
X141311458Y-86655348D01*
X141131853Y-86475743D01*
X141145995Y-86461600D01*
X141131853Y-86447458D01*
X141311458Y-86267853D01*
X141325600Y-86281995D01*
X142199800Y-85407795D01*
X142117859Y-85155084D01*
X141557570Y-84951352D01*
X140961965Y-84977542D01*
X140533341Y-85155084D01*
X140451401Y-85407793D01*
X140402002Y-85358394D01*
X140265690Y-85146559D01*
X140053490Y-85001569D01*
X139801600Y-84950560D01*
X137769600Y-84950560D01*
X137534283Y-84994838D01*
X137318159Y-85133910D01*
X137204205Y-85300687D01*
X137095597Y-85191890D01*
X136544998Y-84963261D01*
X135998363Y-84962784D01*
X133696390Y-82660810D01*
X133620046Y-82609799D01*
X133409275Y-82468967D01*
X133353084Y-82457790D01*
X133070600Y-82401599D01*
X133070595Y-82401600D01*
X131300519Y-82401600D01*
X131300662Y-82237833D01*
X131250500Y-82116431D01*
X131250500Y-79946505D01*
X131250501Y-79946500D01*
X131183133Y-79607825D01*
X131169135Y-79586874D01*
X134794370Y-79586874D01*
X135346600Y-80923372D01*
X136368249Y-81946806D01*
X137703782Y-82501368D01*
X139149874Y-82502630D01*
X140486372Y-81950400D01*
X141509806Y-80928751D01*
X142064368Y-79593218D01*
X142065630Y-78147126D01*
X141513400Y-76810628D01*
X140491751Y-75787194D01*
X139156218Y-75232632D01*
X137710126Y-75231370D01*
X136373628Y-75783600D01*
X135350194Y-76805249D01*
X134795632Y-78140782D01*
X134794370Y-79586874D01*
X131169135Y-79586874D01*
X131142547Y-79547083D01*
X130991290Y-79320710D01*
X130991287Y-79320708D01*
X119307290Y-67636710D01*
X119154930Y-67534907D01*
X119020175Y-67444867D01*
X118963984Y-67433690D01*
X118681500Y-67377499D01*
X118681495Y-67377500D01*
X113220505Y-67377500D01*
X113220500Y-67377499D01*
X112881826Y-67444866D01*
X112830253Y-67479326D01*
X112594710Y-67636710D01*
X112594708Y-67636713D01*
X111160664Y-69070756D01*
X111040557Y-69120383D01*
X110777308Y-69383173D01*
X110634662Y-69726701D01*
X110634338Y-70098667D01*
X110776383Y-70442443D01*
X111039173Y-70705692D01*
X111205968Y-70774952D01*
X111205838Y-70924167D01*
X111299929Y-71151886D01*
X111206162Y-71377701D01*
X111206124Y-71421625D01*
X111027857Y-71495283D01*
X110764608Y-71758073D01*
X110621962Y-72101601D01*
X110621638Y-72473567D01*
X110763683Y-72817343D01*
X111026473Y-73080592D01*
X111147786Y-73130966D01*
X111706221Y-73689400D01*
X106476805Y-73689400D01*
X106476800Y-73689399D01*
X106218205Y-73740838D01*
X106138125Y-73756767D01*
X106041000Y-73821663D01*
X106041000Y-70612000D01*
X105973633Y-70273325D01*
X105781790Y-69986210D01*
X105781787Y-69986208D01*
X102440608Y-66645028D01*
X102446443Y-66642617D01*
X102615954Y-66473401D01*
X102657173Y-66514692D01*
X103000701Y-66657338D01*
X103372667Y-66657662D01*
X103716443Y-66515617D01*
X103790594Y-66441596D01*
X103800173Y-66451192D01*
X104143701Y-66593838D01*
X104515667Y-66594162D01*
X104859443Y-66452117D01*
X104910964Y-66400685D01*
X105223201Y-66530338D01*
X105595167Y-66530662D01*
X105938943Y-66388617D01*
X106202192Y-66125827D01*
X106252566Y-66004513D01*
X106289787Y-65967292D01*
X106289790Y-65967290D01*
X106399090Y-65803710D01*
X106575201Y-65876838D01*
X106626914Y-65876883D01*
X106626838Y-65964167D01*
X106768883Y-66307943D01*
X107031673Y-66571192D01*
X107375201Y-66713838D01*
X107747167Y-66714162D01*
X107851627Y-66671000D01*
X126301495Y-66671000D01*
X126301500Y-66671001D01*
X126620734Y-66607500D01*
X126640175Y-66603633D01*
X126927290Y-66411790D01*
X126927291Y-66411789D01*
X132134287Y-61204792D01*
X132134290Y-61204790D01*
X132272630Y-60997748D01*
X132575653Y-61451254D01*
X132904826Y-61671200D01*
X132575653Y-61891146D01*
X132253746Y-62372915D01*
X132140707Y-62941200D01*
X132253746Y-63509485D01*
X132575653Y-63991254D01*
X133057422Y-64313161D01*
X133625707Y-64426200D01*
X133683893Y-64426200D01*
X134252178Y-64313161D01*
X134733947Y-63991254D01*
X135055854Y-63509485D01*
X135168893Y-62941200D01*
X135055854Y-62372915D01*
X134733947Y-61891146D01*
X134404774Y-61671200D01*
X134733947Y-61451254D01*
X135055854Y-60969485D01*
X135168893Y-60401200D01*
X135055854Y-59832915D01*
X134733947Y-59351146D01*
X134404774Y-59131200D01*
X134733947Y-58911254D01*
X135055854Y-58429485D01*
X135168893Y-57861200D01*
X135055854Y-57292915D01*
X134733947Y-56811146D01*
X134404774Y-56591200D01*
X134733947Y-56371254D01*
X135055854Y-55889485D01*
X135168893Y-55321200D01*
X135055854Y-54752915D01*
X134733947Y-54271146D01*
X134404774Y-54051200D01*
X134733947Y-53831254D01*
X135055854Y-53349485D01*
X135168893Y-52781200D01*
X135055854Y-52212915D01*
X134733947Y-51731146D01*
X134692348Y-51703350D01*
X134740117Y-51694362D01*
X134956241Y-51555290D01*
X135101231Y-51343090D01*
X135152240Y-51091200D01*
X135152240Y-49391200D01*
X135107962Y-49155883D01*
X134968890Y-48939759D01*
X134756690Y-48794769D01*
X134504800Y-48743760D01*
X132804800Y-48743760D01*
X132569483Y-48788038D01*
X132353359Y-48927110D01*
X132208369Y-49139310D01*
X132164448Y-49356200D01*
X130987805Y-49356200D01*
X130987800Y-49356199D01*
X130705316Y-49412390D01*
X130649125Y-49423567D01*
X130362010Y-49615410D01*
X130362008Y-49615413D01*
X129549210Y-50428210D01*
X129357367Y-50715325D01*
X129357367Y-50715326D01*
X129289999Y-51054000D01*
X129290000Y-51054005D01*
X129290000Y-60339421D01*
X125553920Y-64075500D01*
X107113374Y-64075500D01*
X106948799Y-64007162D01*
X106576833Y-64006838D01*
X106549000Y-64018338D01*
X106549000Y-63930080D01*
X113782787Y-56696292D01*
X113782790Y-56696290D01*
X113974633Y-56409175D01*
X113990951Y-56327139D01*
X114042001Y-56070500D01*
X114042000Y-56070495D01*
X114042000Y-51035967D01*
X117327238Y-51035967D01*
X117377400Y-51157369D01*
X117377400Y-51409595D01*
X117377399Y-51409600D01*
X117423825Y-51642992D01*
X117444767Y-51748275D01*
X117588620Y-51963567D01*
X117636610Y-52035390D01*
X117789008Y-52187787D01*
X117789010Y-52187790D01*
X118018812Y-52341338D01*
X118076125Y-52379633D01*
X118414800Y-52447001D01*
X118414805Y-52447000D01*
X123433020Y-52447000D01*
X125090455Y-54104434D01*
X125140083Y-54224543D01*
X125402873Y-54487792D01*
X125746401Y-54630438D01*
X126118367Y-54630762D01*
X126462143Y-54488717D01*
X126725392Y-54225927D01*
X126868038Y-53882399D01*
X126868362Y-53510433D01*
X126726317Y-53166657D01*
X126463527Y-52903408D01*
X126342213Y-52853034D01*
X124425390Y-50936210D01*
X124321794Y-50866990D01*
X124138275Y-50744367D01*
X124082084Y-50733190D01*
X123799600Y-50676999D01*
X123799595Y-50677000D01*
X119197552Y-50677000D01*
X119197562Y-50665633D01*
X119055517Y-50321857D01*
X118792727Y-50058608D01*
X118449199Y-49915962D01*
X118077233Y-49915638D01*
X117733457Y-50057683D01*
X117470208Y-50320473D01*
X117327562Y-50664001D01*
X117327238Y-51035967D01*
X114042000Y-51035967D01*
X114042000Y-47199598D01*
X114081943Y-47183094D01*
X114316715Y-46948732D01*
X116684073Y-46948732D01*
X116782736Y-47215587D01*
X117392461Y-47442108D01*
X118042460Y-47418056D01*
X118531264Y-47215587D01*
X118629927Y-46948732D01*
X117657000Y-45975805D01*
X116684073Y-46948732D01*
X114316715Y-46948732D01*
X114542278Y-46723563D01*
X114791716Y-46122848D01*
X114792232Y-45531661D01*
X116011092Y-45531661D01*
X116035144Y-46181660D01*
X116237613Y-46670464D01*
X116504468Y-46769127D01*
X117477395Y-45796200D01*
X117836605Y-45796200D01*
X118809532Y-46769127D01*
X119076387Y-46670464D01*
X119302908Y-46060739D01*
X119278856Y-45410740D01*
X119076387Y-44921936D01*
X118809532Y-44823273D01*
X117836605Y-45796200D01*
X117477395Y-45796200D01*
X116504468Y-44823273D01*
X116237613Y-44921936D01*
X116011092Y-45531661D01*
X114792232Y-45531661D01*
X114792284Y-45472405D01*
X114543894Y-44871257D01*
X114316703Y-44643668D01*
X116684073Y-44643668D01*
X117657000Y-45616595D01*
X118629927Y-44643668D01*
X118531264Y-44376813D01*
X117921539Y-44150292D01*
X117271540Y-44174344D01*
X116782736Y-44376813D01*
X116684073Y-44643668D01*
X114316703Y-44643668D01*
X114084363Y-44410922D01*
X113483648Y-44161484D01*
X112833205Y-44160916D01*
X112232057Y-44409306D01*
X111771722Y-44868837D01*
X111522284Y-45469552D01*
X111521716Y-46119995D01*
X111770106Y-46721143D01*
X112229637Y-47181478D01*
X112272000Y-47199069D01*
X112272000Y-52476698D01*
X111946799Y-52341662D01*
X111574833Y-52341338D01*
X111231057Y-52483383D01*
X110967808Y-52746173D01*
X110825162Y-53089701D01*
X110824945Y-53339331D01*
X110711617Y-53065057D01*
X110448827Y-52801808D01*
X110105299Y-52659162D01*
X109733333Y-52658838D01*
X109389557Y-52800883D01*
X109126308Y-53063673D01*
X108983662Y-53407201D01*
X108983338Y-53779167D01*
X109033500Y-53900569D01*
X109033500Y-53989421D01*
X101418710Y-61604210D01*
X101226867Y-61891325D01*
X101226867Y-61891326D01*
X101159499Y-62230000D01*
X101159500Y-62230005D01*
X101159500Y-65285041D01*
X101125308Y-65319173D01*
X101048971Y-65503012D01*
X101049262Y-65169033D01*
X100907217Y-64825257D01*
X100644427Y-64562008D01*
X100523113Y-64511634D01*
X96389000Y-60377520D01*
X96389000Y-56930446D01*
X96539317Y-56902162D01*
X96755441Y-56763090D01*
X96900431Y-56550890D01*
X96948646Y-56312799D01*
X96996255Y-56327139D01*
X97824395Y-55499000D01*
X96996255Y-54670861D01*
X96948833Y-54685145D01*
X96907162Y-54463683D01*
X96768090Y-54247559D01*
X96555890Y-54102569D01*
X96304000Y-54051560D01*
X94704000Y-54051560D01*
X94468683Y-54095838D01*
X94252559Y-54234910D01*
X94107569Y-54447110D01*
X94103000Y-54469672D01*
X94103000Y-46990005D01*
X94103001Y-46990000D01*
X94035633Y-46651325D01*
X94013506Y-46618210D01*
X93843790Y-46364210D01*
X93843787Y-46364208D01*
X90612231Y-43132651D01*
X90642959Y-43126539D01*
X98581400Y-51064979D01*
X98581400Y-54181657D01*
X98220777Y-54052035D01*
X97650546Y-54079222D01*
X97249995Y-54245136D01*
X97175861Y-54491255D01*
X98004000Y-55319395D01*
X98018142Y-55305252D01*
X98197748Y-55484858D01*
X98183605Y-55499000D01*
X98197748Y-55513143D01*
X98018142Y-55692748D01*
X98004000Y-55678605D01*
X97175861Y-56506745D01*
X97249995Y-56752864D01*
X97787223Y-56945965D01*
X98357454Y-56918778D01*
X98581400Y-56826016D01*
X98581400Y-57127239D01*
X98480762Y-57369601D01*
X98480438Y-57741567D01*
X98622483Y-58085343D01*
X98885273Y-58348592D01*
X99228801Y-58491238D01*
X99600767Y-58491562D01*
X99934366Y-58353722D01*
X100143201Y-58440438D01*
X100515167Y-58440762D01*
X100823304Y-58313443D01*
X101006801Y-58389638D01*
X101378767Y-58389962D01*
X101722543Y-58247917D01*
X101985792Y-57985127D01*
X102128438Y-57641599D01*
X102128762Y-57269633D01*
X101986717Y-56925857D01*
X101977000Y-56916123D01*
X101977000Y-47244000D01*
X101909633Y-46905325D01*
X101717790Y-46618210D01*
X101717787Y-46618208D01*
X98232231Y-43132651D01*
X98612285Y-43057054D01*
X99094054Y-42735147D01*
X99314000Y-42405974D01*
X99533946Y-42735147D01*
X100015715Y-43057054D01*
X100584000Y-43170093D01*
X101152285Y-43057054D01*
X101634054Y-42735147D01*
X101854000Y-42405974D01*
X102073946Y-42735147D01*
X102555715Y-43057054D01*
X103124000Y-43170093D01*
X103692285Y-43057054D01*
X104174054Y-42735147D01*
X104394000Y-42405974D01*
X104613946Y-42735147D01*
X105095715Y-43057054D01*
X105664000Y-43170093D01*
X106232285Y-43057054D01*
X106714054Y-42735147D01*
X107035961Y-42253378D01*
X107149000Y-41685093D01*
X107149000Y-41626907D01*
X107035961Y-41058622D01*
X106714054Y-40576853D01*
X106313563Y-40309254D01*
X106430924Y-40260645D01*
X106859183Y-39870358D01*
X106976760Y-39619995D01*
X111521716Y-39619995D01*
X111770106Y-40221143D01*
X112229637Y-40681478D01*
X112830352Y-40930916D01*
X113480795Y-40931484D01*
X114081943Y-40683094D01*
X114316715Y-40448732D01*
X116684073Y-40448732D01*
X116782736Y-40715587D01*
X117392461Y-40942108D01*
X118042460Y-40918056D01*
X118531264Y-40715587D01*
X118629927Y-40448732D01*
X117657000Y-39475805D01*
X116684073Y-40448732D01*
X114316715Y-40448732D01*
X114542278Y-40223563D01*
X114791716Y-39622848D01*
X114792232Y-39031661D01*
X116011092Y-39031661D01*
X116035144Y-39681660D01*
X116237613Y-40170464D01*
X116504468Y-40269127D01*
X117477395Y-39296200D01*
X117836605Y-39296200D01*
X118809532Y-40269127D01*
X119076387Y-40170464D01*
X119302908Y-39560739D01*
X119278856Y-38910740D01*
X119169612Y-38647000D01*
X120168560Y-38647000D01*
X120168560Y-40347000D01*
X120212838Y-40582317D01*
X120351910Y-40798441D01*
X120396838Y-40829139D01*
X120364559Y-40849910D01*
X120219569Y-41062110D01*
X120168560Y-41314000D01*
X120168560Y-43014000D01*
X120212838Y-43249317D01*
X120351910Y-43465441D01*
X120396838Y-43496139D01*
X120364559Y-43516910D01*
X120219569Y-43729110D01*
X120168560Y-43981000D01*
X120168560Y-45681000D01*
X120212838Y-45916317D01*
X120351910Y-46132441D01*
X120564110Y-46277431D01*
X120816000Y-46328440D01*
X122516000Y-46328440D01*
X122751317Y-46284162D01*
X122967441Y-46145090D01*
X123112431Y-45932890D01*
X123126086Y-45865459D01*
X123155946Y-45910147D01*
X123637715Y-46232054D01*
X124206000Y-46345093D01*
X124774285Y-46232054D01*
X125256054Y-45910147D01*
X125476000Y-45580974D01*
X125695946Y-45910147D01*
X126177715Y-46232054D01*
X126746000Y-46345093D01*
X127314285Y-46232054D01*
X127796054Y-45910147D01*
X128023702Y-45569447D01*
X128090817Y-45712358D01*
X128519076Y-46102645D01*
X128929110Y-46272476D01*
X129159000Y-46151155D01*
X129159000Y-44958000D01*
X129413000Y-44958000D01*
X129413000Y-46151155D01*
X129642890Y-46272476D01*
X130052924Y-46102645D01*
X130481183Y-45712358D01*
X130727486Y-45187892D01*
X130606819Y-44958000D01*
X129413000Y-44958000D01*
X129159000Y-44958000D01*
X129139000Y-44958000D01*
X129139000Y-44704000D01*
X129159000Y-44704000D01*
X129159000Y-43510845D01*
X129133713Y-43497500D01*
X129159000Y-43484155D01*
X129159000Y-42291000D01*
X129413000Y-42291000D01*
X129413000Y-43484155D01*
X129438287Y-43497500D01*
X129413000Y-43510845D01*
X129413000Y-44704000D01*
X130606819Y-44704000D01*
X130727486Y-44474108D01*
X130481183Y-43949642D01*
X130052924Y-43559355D01*
X129903583Y-43497500D01*
X130052924Y-43435645D01*
X130481183Y-43045358D01*
X130727486Y-42520892D01*
X130606819Y-42291000D01*
X129413000Y-42291000D01*
X129159000Y-42291000D01*
X129139000Y-42291000D01*
X129139000Y-42037000D01*
X129159000Y-42037000D01*
X129159000Y-40843845D01*
X129133713Y-40830500D01*
X129159000Y-40817155D01*
X129159000Y-39624000D01*
X129413000Y-39624000D01*
X129413000Y-40817155D01*
X129438287Y-40830500D01*
X129413000Y-40843845D01*
X129413000Y-42037000D01*
X130606819Y-42037000D01*
X130727486Y-41807108D01*
X130481183Y-41282642D01*
X130052924Y-40892355D01*
X129903583Y-40830500D01*
X130052924Y-40768645D01*
X130481183Y-40378358D01*
X130727486Y-39853892D01*
X130606819Y-39624000D01*
X129413000Y-39624000D01*
X129159000Y-39624000D01*
X129139000Y-39624000D01*
X129139000Y-39370000D01*
X129159000Y-39370000D01*
X129159000Y-38176845D01*
X129413000Y-38176845D01*
X129413000Y-39370000D01*
X130606819Y-39370000D01*
X130727486Y-39140108D01*
X130481183Y-38615642D01*
X130052924Y-38225355D01*
X129642890Y-38055524D01*
X129413000Y-38176845D01*
X129159000Y-38176845D01*
X128929110Y-38055524D01*
X128519076Y-38225355D01*
X128090817Y-38615642D01*
X128023702Y-38758553D01*
X127796054Y-38417853D01*
X127314285Y-38095946D01*
X126746000Y-37982907D01*
X126177715Y-38095946D01*
X125695946Y-38417853D01*
X125476000Y-38747026D01*
X125256054Y-38417853D01*
X124774285Y-38095946D01*
X124206000Y-37982907D01*
X123637715Y-38095946D01*
X123155946Y-38417853D01*
X123128150Y-38459452D01*
X123119162Y-38411683D01*
X122980090Y-38195559D01*
X122767890Y-38050569D01*
X122516000Y-37999560D01*
X120816000Y-37999560D01*
X120580683Y-38043838D01*
X120364559Y-38182910D01*
X120219569Y-38395110D01*
X120168560Y-38647000D01*
X119169612Y-38647000D01*
X119076387Y-38421936D01*
X118809532Y-38323273D01*
X117836605Y-39296200D01*
X117477395Y-39296200D01*
X116504468Y-38323273D01*
X116237613Y-38421936D01*
X116011092Y-39031661D01*
X114792232Y-39031661D01*
X114792284Y-38972405D01*
X114543894Y-38371257D01*
X114316703Y-38143668D01*
X116684073Y-38143668D01*
X117657000Y-39116595D01*
X118629927Y-38143668D01*
X118531264Y-37876813D01*
X117921539Y-37650292D01*
X117271540Y-37674344D01*
X116782736Y-37876813D01*
X116684073Y-38143668D01*
X114316703Y-38143668D01*
X114084363Y-37910922D01*
X113483648Y-37661484D01*
X112833205Y-37660916D01*
X112232057Y-37909306D01*
X111771722Y-38368837D01*
X111522284Y-38969552D01*
X111521716Y-39619995D01*
X106976760Y-39619995D01*
X107105486Y-39345892D01*
X106984819Y-39116000D01*
X105791000Y-39116000D01*
X105791000Y-39136000D01*
X105537000Y-39136000D01*
X105537000Y-39116000D01*
X103251000Y-39116000D01*
X103251000Y-39136000D01*
X102997000Y-39136000D01*
X102997000Y-39116000D01*
X100711000Y-39116000D01*
X100711000Y-39136000D01*
X100457000Y-39136000D01*
X100457000Y-39116000D01*
X98171000Y-39116000D01*
X98171000Y-39136000D01*
X97917000Y-39136000D01*
X97917000Y-39116000D01*
X95631000Y-39116000D01*
X95631000Y-39136000D01*
X95377000Y-39136000D01*
X95377000Y-39116000D01*
X93091000Y-39116000D01*
X93091000Y-39136000D01*
X92837000Y-39136000D01*
X92837000Y-39116000D01*
X90551000Y-39116000D01*
X90551000Y-39136000D01*
X90297000Y-39136000D01*
X90297000Y-39116000D01*
X88011000Y-39116000D01*
X88011000Y-39136000D01*
X87757000Y-39136000D01*
X87757000Y-39116000D01*
X86557750Y-39116000D01*
X86399000Y-39274750D01*
X86399000Y-39965309D01*
X86495673Y-40198698D01*
X86616831Y-40319857D01*
X86582559Y-40341910D01*
X86437569Y-40554110D01*
X86386560Y-40806000D01*
X86386560Y-42506000D01*
X86430838Y-42741317D01*
X86569910Y-42957441D01*
X86782110Y-43102431D01*
X87034000Y-43153440D01*
X88129860Y-43153440D01*
X92333000Y-47356579D01*
X92333000Y-62687195D01*
X92332999Y-62687200D01*
X92379433Y-62920633D01*
X92400367Y-63025875D01*
X92533301Y-63224826D01*
X92592210Y-63312990D01*
X95450221Y-66171000D01*
X92187579Y-66171000D01*
X91012744Y-64996164D01*
X90963117Y-64876057D01*
X90700327Y-64612808D01*
X90356799Y-64470162D01*
X89984833Y-64469838D01*
X89641057Y-64611883D01*
X89377808Y-64874673D01*
X89334929Y-64977936D01*
X89222833Y-64977838D01*
X88879057Y-65119883D01*
X88674081Y-65324501D01*
X88134000Y-64784420D01*
X88134000Y-62103000D01*
X88066633Y-61764325D01*
X87874790Y-61477210D01*
X87874787Y-61477208D01*
X76323000Y-49925420D01*
X76323000Y-49786028D01*
X76732110Y-49955476D01*
X76962000Y-49834155D01*
X76962000Y-48641000D01*
X76942000Y-48641000D01*
X76942000Y-48387000D01*
X76962000Y-48387000D01*
X76962000Y-47193845D01*
X77216000Y-47193845D01*
X77216000Y-48387000D01*
X77236000Y-48387000D01*
X77236000Y-48641000D01*
X77216000Y-48641000D01*
X77216000Y-49834155D01*
X77445890Y-49955476D01*
X77855924Y-49785645D01*
X78284183Y-49395358D01*
X78351298Y-49252447D01*
X78578946Y-49593147D01*
X79060715Y-49915054D01*
X79629000Y-50028093D01*
X80197285Y-49915054D01*
X80679054Y-49593147D01*
X80899000Y-49263974D01*
X81118946Y-49593147D01*
X81600715Y-49915054D01*
X82169000Y-50028093D01*
X82737285Y-49915054D01*
X83219054Y-49593147D01*
X83246850Y-49551548D01*
X83255838Y-49599317D01*
X83394910Y-49815441D01*
X83607110Y-49960431D01*
X83859000Y-50011440D01*
X85559000Y-50011440D01*
X85794317Y-49967162D01*
X86010441Y-49828090D01*
X86155431Y-49615890D01*
X86206440Y-49364000D01*
X86206440Y-47664000D01*
X86162162Y-47428683D01*
X86023090Y-47212559D01*
X85810890Y-47067569D01*
X85559000Y-47016560D01*
X83859000Y-47016560D01*
X83623683Y-47060838D01*
X83407559Y-47199910D01*
X83262569Y-47412110D01*
X83248914Y-47479541D01*
X83219054Y-47434853D01*
X82737285Y-47112946D01*
X82169000Y-46999907D01*
X81600715Y-47112946D01*
X81118946Y-47434853D01*
X80899000Y-47764026D01*
X80679054Y-47434853D01*
X80197285Y-47112946D01*
X79629000Y-46999907D01*
X79060715Y-47112946D01*
X78578946Y-47434853D01*
X78351298Y-47775553D01*
X78284183Y-47632642D01*
X77855924Y-47242355D01*
X77445890Y-47072524D01*
X77216000Y-47193845D01*
X76962000Y-47193845D01*
X76732110Y-47072524D01*
X76323000Y-47241972D01*
X76323000Y-44816580D01*
X77689387Y-43450192D01*
X77689390Y-43450190D01*
X77881233Y-43163075D01*
X77881234Y-43163074D01*
X77948601Y-42824400D01*
X77948600Y-42824395D01*
X77948600Y-40153032D01*
X78113654Y-40042747D01*
X78333600Y-39713574D01*
X78553546Y-40042747D01*
X79035315Y-40364654D01*
X79603600Y-40477693D01*
X80171885Y-40364654D01*
X80653654Y-40042747D01*
X80873600Y-39713574D01*
X81093546Y-40042747D01*
X81575315Y-40364654D01*
X82143600Y-40477693D01*
X82711885Y-40364654D01*
X83193654Y-40042747D01*
X83221450Y-40001148D01*
X83230438Y-40048917D01*
X83369510Y-40265041D01*
X83581710Y-40410031D01*
X83833600Y-40461040D01*
X85533600Y-40461040D01*
X85768917Y-40416762D01*
X85985041Y-40277690D01*
X86130031Y-40065490D01*
X86181040Y-39813600D01*
X86181040Y-38113600D01*
X86162053Y-38012691D01*
X86399000Y-38012691D01*
X86399000Y-38703250D01*
X86557750Y-38862000D01*
X87757000Y-38862000D01*
X87757000Y-37662750D01*
X88011000Y-37662750D01*
X88011000Y-38862000D01*
X90297000Y-38862000D01*
X90297000Y-37668845D01*
X90551000Y-37668845D01*
X90551000Y-38862000D01*
X92837000Y-38862000D01*
X92837000Y-37668845D01*
X93091000Y-37668845D01*
X93091000Y-38862000D01*
X95377000Y-38862000D01*
X95377000Y-37668845D01*
X95631000Y-37668845D01*
X95631000Y-38862000D01*
X97917000Y-38862000D01*
X97917000Y-37668845D01*
X98171000Y-37668845D01*
X98171000Y-38862000D01*
X100457000Y-38862000D01*
X100457000Y-37668845D01*
X100711000Y-37668845D01*
X100711000Y-38862000D01*
X102997000Y-38862000D01*
X102997000Y-37668845D01*
X103251000Y-37668845D01*
X103251000Y-38862000D01*
X105537000Y-38862000D01*
X105537000Y-37668845D01*
X105791000Y-37668845D01*
X105791000Y-38862000D01*
X106984819Y-38862000D01*
X107105486Y-38632108D01*
X106859183Y-38107642D01*
X106430924Y-37717355D01*
X106020890Y-37547524D01*
X105791000Y-37668845D01*
X105537000Y-37668845D01*
X105307110Y-37547524D01*
X104897076Y-37717355D01*
X104468817Y-38107642D01*
X104394000Y-38266954D01*
X104319183Y-38107642D01*
X103890924Y-37717355D01*
X103480890Y-37547524D01*
X103251000Y-37668845D01*
X102997000Y-37668845D01*
X102767110Y-37547524D01*
X102357076Y-37717355D01*
X101928817Y-38107642D01*
X101854000Y-38266954D01*
X101779183Y-38107642D01*
X101350924Y-37717355D01*
X100940890Y-37547524D01*
X100711000Y-37668845D01*
X100457000Y-37668845D01*
X100227110Y-37547524D01*
X99817076Y-37717355D01*
X99388817Y-38107642D01*
X99314000Y-38266954D01*
X99239183Y-38107642D01*
X98810924Y-37717355D01*
X98400890Y-37547524D01*
X98171000Y-37668845D01*
X97917000Y-37668845D01*
X97687110Y-37547524D01*
X97277076Y-37717355D01*
X96848817Y-38107642D01*
X96774000Y-38266954D01*
X96699183Y-38107642D01*
X96270924Y-37717355D01*
X95860890Y-37547524D01*
X95631000Y-37668845D01*
X95377000Y-37668845D01*
X95147110Y-37547524D01*
X94737076Y-37717355D01*
X94308817Y-38107642D01*
X94234000Y-38266954D01*
X94159183Y-38107642D01*
X93730924Y-37717355D01*
X93320890Y-37547524D01*
X93091000Y-37668845D01*
X92837000Y-37668845D01*
X92607110Y-37547524D01*
X92197076Y-37717355D01*
X91768817Y-38107642D01*
X91694000Y-38266954D01*
X91619183Y-38107642D01*
X91190924Y-37717355D01*
X90780890Y-37547524D01*
X90551000Y-37668845D01*
X90297000Y-37668845D01*
X90067110Y-37547524D01*
X89657076Y-37717355D01*
X89359136Y-37988878D01*
X89272327Y-37779302D01*
X89093699Y-37600673D01*
X88860310Y-37504000D01*
X88169750Y-37504000D01*
X88011000Y-37662750D01*
X87757000Y-37662750D01*
X87598250Y-37504000D01*
X86907690Y-37504000D01*
X86674301Y-37600673D01*
X86495673Y-37779302D01*
X86399000Y-38012691D01*
X86162053Y-38012691D01*
X86136762Y-37878283D01*
X85997690Y-37662159D01*
X85785490Y-37517169D01*
X85533600Y-37466160D01*
X85047339Y-37466160D01*
X84613180Y-37032000D01*
X137609368Y-37032000D01*
X136620194Y-38019449D01*
X136620194Y-38019449D01*
G37*
X136620194Y-38019449D02*
X136065632Y-39354982D01*
X136064370Y-40801074D01*
X136616600Y-42137572D01*
X137638249Y-43161006D01*
X138973782Y-43715568D01*
X140419874Y-43716830D01*
X141756372Y-43164600D01*
X142779806Y-42142951D01*
X142800000Y-42094318D01*
X142800000Y-48844980D01*
X142708309Y-48807000D01*
X142017750Y-48807000D01*
X141859000Y-48965750D01*
X141859000Y-50165000D01*
X141879000Y-50165000D01*
X141879000Y-50419000D01*
X141859000Y-50419000D01*
X141859000Y-52705000D01*
X141879000Y-52705000D01*
X141879000Y-52959000D01*
X141859000Y-52959000D01*
X141859000Y-55245000D01*
X141879000Y-55245000D01*
X141879000Y-55499000D01*
X141859000Y-55499000D01*
X141859000Y-57785000D01*
X141879000Y-57785000D01*
X141879000Y-58039000D01*
X141859000Y-58039000D01*
X141859000Y-60325000D01*
X141879000Y-60325000D01*
X141879000Y-60579000D01*
X141859000Y-60579000D01*
X141859000Y-62865000D01*
X141879000Y-62865000D01*
X141879000Y-63119000D01*
X141859000Y-63119000D01*
X141859000Y-65405000D01*
X141879000Y-65405000D01*
X141879000Y-65659000D01*
X141859000Y-65659000D01*
X141859000Y-67945000D01*
X141879000Y-67945000D01*
X141879000Y-68199000D01*
X141859000Y-68199000D01*
X141859000Y-69392819D01*
X142088892Y-69513486D01*
X142613358Y-69267183D01*
X142800000Y-69062382D01*
X142800000Y-70865623D01*
X142596792Y-70373820D01*
X142175597Y-69951890D01*
X141624998Y-69723261D01*
X141028818Y-69722741D01*
X140477820Y-69950408D01*
X140055890Y-70371603D01*
X140055505Y-70372531D01*
X139635597Y-69951890D01*
X139084998Y-69723261D01*
X138792585Y-69723006D01*
X138518635Y-69449056D01*
X139061307Y-69557000D01*
X139119493Y-69557000D01*
X139687778Y-69443961D01*
X140169547Y-69122054D01*
X140421465Y-68745030D01*
X140460355Y-68838924D01*
X140850642Y-69267183D01*
X141375108Y-69513486D01*
X141605000Y-69392819D01*
X141605000Y-68199000D01*
X141585000Y-68199000D01*
X141585000Y-67945000D01*
X141605000Y-67945000D01*
X141605000Y-65659000D01*
X141585000Y-65659000D01*
X141585000Y-65405000D01*
X141605000Y-65405000D01*
X141605000Y-63119000D01*
X141585000Y-63119000D01*
X141585000Y-62865000D01*
X141605000Y-62865000D01*
X141605000Y-60579000D01*
X141585000Y-60579000D01*
X141585000Y-60325000D01*
X141605000Y-60325000D01*
X141605000Y-58039000D01*
X141585000Y-58039000D01*
X141585000Y-57785000D01*
X141605000Y-57785000D01*
X141605000Y-55499000D01*
X141585000Y-55499000D01*
X141585000Y-55245000D01*
X141605000Y-55245000D01*
X141605000Y-52959000D01*
X141585000Y-52959000D01*
X141585000Y-52705000D01*
X141605000Y-52705000D01*
X141605000Y-50419000D01*
X141585000Y-50419000D01*
X141585000Y-50165000D01*
X141605000Y-50165000D01*
X141605000Y-48965750D01*
X141446250Y-48807000D01*
X140755691Y-48807000D01*
X140522302Y-48903673D01*
X140416598Y-49009376D01*
X140404490Y-48990559D01*
X140192290Y-48845569D01*
X139940400Y-48794560D01*
X138240400Y-48794560D01*
X138005083Y-48838838D01*
X137788959Y-48977910D01*
X137643969Y-49190110D01*
X137592960Y-49442000D01*
X137592960Y-51142000D01*
X137637238Y-51377317D01*
X137776310Y-51593441D01*
X137988510Y-51738431D01*
X138055941Y-51752086D01*
X138011253Y-51781946D01*
X137689346Y-52263715D01*
X137576307Y-52832000D01*
X137689346Y-53400285D01*
X138011253Y-53882054D01*
X138340426Y-54102000D01*
X138011253Y-54321946D01*
X137689346Y-54803715D01*
X137576307Y-55372000D01*
X137689346Y-55940285D01*
X138011253Y-56422054D01*
X138340426Y-56642000D01*
X138011253Y-56861946D01*
X137689346Y-57343715D01*
X137576307Y-57912000D01*
X137689346Y-58480285D01*
X138011253Y-58962054D01*
X138340426Y-59182000D01*
X138011253Y-59401946D01*
X137689346Y-59883715D01*
X137576307Y-60452000D01*
X137689346Y-61020285D01*
X138011253Y-61502054D01*
X138340426Y-61722000D01*
X138011253Y-61941946D01*
X137689346Y-62423715D01*
X137576307Y-62992000D01*
X137689346Y-63560285D01*
X138011253Y-64042054D01*
X138340426Y-64262000D01*
X138011253Y-64481946D01*
X137689346Y-64963715D01*
X137576307Y-65532000D01*
X137619861Y-65750960D01*
X136343710Y-67027110D01*
X136151867Y-67314225D01*
X136150875Y-67319211D01*
X136084499Y-67652900D01*
X136084500Y-67652905D01*
X136084500Y-69151495D01*
X136084499Y-69151500D01*
X136140690Y-69433984D01*
X136151867Y-69490175D01*
X136307471Y-69723054D01*
X135948818Y-69722741D01*
X135397820Y-69950408D01*
X134975890Y-70371603D01*
X134975505Y-70372531D01*
X134555597Y-69951890D01*
X134004998Y-69723261D01*
X133408818Y-69722741D01*
X132857820Y-69950408D01*
X132435890Y-70371603D01*
X132207261Y-70922202D01*
X132206741Y-71518382D01*
X132434408Y-72069380D01*
X132855603Y-72491310D01*
X133406202Y-72719939D01*
X134002382Y-72720459D01*
X134553380Y-72492792D01*
X134975310Y-72071597D01*
X134975695Y-72070669D01*
X135395603Y-72491310D01*
X135946202Y-72719939D01*
X136542382Y-72720459D01*
X137093380Y-72492792D01*
X137515310Y-72071597D01*
X137515695Y-72070669D01*
X137935603Y-72491310D01*
X138486202Y-72719939D01*
X139082382Y-72720459D01*
X139633380Y-72492792D01*
X140055310Y-72071597D01*
X140055695Y-72070669D01*
X140475603Y-72491310D01*
X141026202Y-72719939D01*
X141622382Y-72720459D01*
X142173380Y-72492792D01*
X142595310Y-72071597D01*
X142800000Y-71578649D01*
X142800000Y-86074649D01*
X142632116Y-85669341D01*
X142379405Y-85587400D01*
X141505205Y-86461600D01*
X142379405Y-87335800D01*
X142632116Y-87253859D01*
X142800000Y-86792157D01*
X142800000Y-89783220D01*
X142306990Y-89290210D01*
X142215108Y-89228817D01*
X142019875Y-89098367D01*
X141958758Y-89086210D01*
X141681200Y-89030999D01*
X141681195Y-89031000D01*
X141641379Y-89031000D01*
X140312560Y-87702181D01*
X140398031Y-87577090D01*
X140400142Y-87566666D01*
X140451401Y-87515407D01*
X140533341Y-87768116D01*
X141093630Y-87971848D01*
X141689235Y-87945658D01*
X142117859Y-87768116D01*
X142199800Y-87515405D01*
X141325600Y-86641205D01*
X141311458Y-86655348D01*
X141131853Y-86475743D01*
X141145995Y-86461600D01*
X141131853Y-86447458D01*
X141311458Y-86267853D01*
X141325600Y-86281995D01*
X142199800Y-85407795D01*
X142117859Y-85155084D01*
X141557570Y-84951352D01*
X140961965Y-84977542D01*
X140533341Y-85155084D01*
X140451401Y-85407793D01*
X140402002Y-85358394D01*
X140265690Y-85146559D01*
X140053490Y-85001569D01*
X139801600Y-84950560D01*
X137769600Y-84950560D01*
X137534283Y-84994838D01*
X137318159Y-85133910D01*
X137204205Y-85300687D01*
X137095597Y-85191890D01*
X136544998Y-84963261D01*
X135998363Y-84962784D01*
X133696390Y-82660810D01*
X133620046Y-82609799D01*
X133409275Y-82468967D01*
X133353084Y-82457790D01*
X133070600Y-82401599D01*
X133070595Y-82401600D01*
X131300519Y-82401600D01*
X131300662Y-82237833D01*
X131250500Y-82116431D01*
X131250500Y-79946505D01*
X131250501Y-79946500D01*
X131183133Y-79607825D01*
X131169135Y-79586874D01*
X134794370Y-79586874D01*
X135346600Y-80923372D01*
X136368249Y-81946806D01*
X137703782Y-82501368D01*
X139149874Y-82502630D01*
X140486372Y-81950400D01*
X141509806Y-80928751D01*
X142064368Y-79593218D01*
X142065630Y-78147126D01*
X141513400Y-76810628D01*
X140491751Y-75787194D01*
X139156218Y-75232632D01*
X137710126Y-75231370D01*
X136373628Y-75783600D01*
X135350194Y-76805249D01*
X134795632Y-78140782D01*
X134794370Y-79586874D01*
X131169135Y-79586874D01*
X131142547Y-79547083D01*
X130991290Y-79320710D01*
X130991287Y-79320708D01*
X119307290Y-67636710D01*
X119154930Y-67534907D01*
X119020175Y-67444867D01*
X118963984Y-67433690D01*
X118681500Y-67377499D01*
X118681495Y-67377500D01*
X113220505Y-67377500D01*
X113220500Y-67377499D01*
X112881826Y-67444866D01*
X112830253Y-67479326D01*
X112594710Y-67636710D01*
X112594708Y-67636713D01*
X111160664Y-69070756D01*
X111040557Y-69120383D01*
X110777308Y-69383173D01*
X110634662Y-69726701D01*
X110634338Y-70098667D01*
X110776383Y-70442443D01*
X111039173Y-70705692D01*
X111205968Y-70774952D01*
X111205838Y-70924167D01*
X111299929Y-71151886D01*
X111206162Y-71377701D01*
X111206124Y-71421625D01*
X111027857Y-71495283D01*
X110764608Y-71758073D01*
X110621962Y-72101601D01*
X110621638Y-72473567D01*
X110763683Y-72817343D01*
X111026473Y-73080592D01*
X111147786Y-73130966D01*
X111706221Y-73689400D01*
X106476805Y-73689400D01*
X106476800Y-73689399D01*
X106218205Y-73740838D01*
X106138125Y-73756767D01*
X106041000Y-73821663D01*
X106041000Y-70612000D01*
X105973633Y-70273325D01*
X105781790Y-69986210D01*
X105781787Y-69986208D01*
X102440608Y-66645028D01*
X102446443Y-66642617D01*
X102615954Y-66473401D01*
X102657173Y-66514692D01*
X103000701Y-66657338D01*
X103372667Y-66657662D01*
X103716443Y-66515617D01*
X103790594Y-66441596D01*
X103800173Y-66451192D01*
X104143701Y-66593838D01*
X104515667Y-66594162D01*
X104859443Y-66452117D01*
X104910964Y-66400685D01*
X105223201Y-66530338D01*
X105595167Y-66530662D01*
X105938943Y-66388617D01*
X106202192Y-66125827D01*
X106252566Y-66004513D01*
X106289787Y-65967292D01*
X106289790Y-65967290D01*
X106399090Y-65803710D01*
X106575201Y-65876838D01*
X106626914Y-65876883D01*
X106626838Y-65964167D01*
X106768883Y-66307943D01*
X107031673Y-66571192D01*
X107375201Y-66713838D01*
X107747167Y-66714162D01*
X107851627Y-66671000D01*
X126301495Y-66671000D01*
X126301500Y-66671001D01*
X126620734Y-66607500D01*
X126640175Y-66603633D01*
X126927290Y-66411790D01*
X126927291Y-66411789D01*
X132134287Y-61204792D01*
X132134290Y-61204790D01*
X132272630Y-60997748D01*
X132575653Y-61451254D01*
X132904826Y-61671200D01*
X132575653Y-61891146D01*
X132253746Y-62372915D01*
X132140707Y-62941200D01*
X132253746Y-63509485D01*
X132575653Y-63991254D01*
X133057422Y-64313161D01*
X133625707Y-64426200D01*
X133683893Y-64426200D01*
X134252178Y-64313161D01*
X134733947Y-63991254D01*
X135055854Y-63509485D01*
X135168893Y-62941200D01*
X135055854Y-62372915D01*
X134733947Y-61891146D01*
X134404774Y-61671200D01*
X134733947Y-61451254D01*
X135055854Y-60969485D01*
X135168893Y-60401200D01*
X135055854Y-59832915D01*
X134733947Y-59351146D01*
X134404774Y-59131200D01*
X134733947Y-58911254D01*
X135055854Y-58429485D01*
X135168893Y-57861200D01*
X135055854Y-57292915D01*
X134733947Y-56811146D01*
X134404774Y-56591200D01*
X134733947Y-56371254D01*
X135055854Y-55889485D01*
X135168893Y-55321200D01*
X135055854Y-54752915D01*
X134733947Y-54271146D01*
X134404774Y-54051200D01*
X134733947Y-53831254D01*
X135055854Y-53349485D01*
X135168893Y-52781200D01*
X135055854Y-52212915D01*
X134733947Y-51731146D01*
X134692348Y-51703350D01*
X134740117Y-51694362D01*
X134956241Y-51555290D01*
X135101231Y-51343090D01*
X135152240Y-51091200D01*
X135152240Y-49391200D01*
X135107962Y-49155883D01*
X134968890Y-48939759D01*
X134756690Y-48794769D01*
X134504800Y-48743760D01*
X132804800Y-48743760D01*
X132569483Y-48788038D01*
X132353359Y-48927110D01*
X132208369Y-49139310D01*
X132164448Y-49356200D01*
X130987805Y-49356200D01*
X130987800Y-49356199D01*
X130705316Y-49412390D01*
X130649125Y-49423567D01*
X130362010Y-49615410D01*
X130362008Y-49615413D01*
X129549210Y-50428210D01*
X129357367Y-50715325D01*
X129357367Y-50715326D01*
X129289999Y-51054000D01*
X129290000Y-51054005D01*
X129290000Y-60339421D01*
X125553920Y-64075500D01*
X107113374Y-64075500D01*
X106948799Y-64007162D01*
X106576833Y-64006838D01*
X106549000Y-64018338D01*
X106549000Y-63930080D01*
X113782787Y-56696292D01*
X113782790Y-56696290D01*
X113974633Y-56409175D01*
X113990951Y-56327139D01*
X114042001Y-56070500D01*
X114042000Y-56070495D01*
X114042000Y-51035967D01*
X117327238Y-51035967D01*
X117377400Y-51157369D01*
X117377400Y-51409595D01*
X117377399Y-51409600D01*
X117423825Y-51642992D01*
X117444767Y-51748275D01*
X117588620Y-51963567D01*
X117636610Y-52035390D01*
X117789008Y-52187787D01*
X117789010Y-52187790D01*
X118018812Y-52341338D01*
X118076125Y-52379633D01*
X118414800Y-52447001D01*
X118414805Y-52447000D01*
X123433020Y-52447000D01*
X125090455Y-54104434D01*
X125140083Y-54224543D01*
X125402873Y-54487792D01*
X125746401Y-54630438D01*
X126118367Y-54630762D01*
X126462143Y-54488717D01*
X126725392Y-54225927D01*
X126868038Y-53882399D01*
X126868362Y-53510433D01*
X126726317Y-53166657D01*
X126463527Y-52903408D01*
X126342213Y-52853034D01*
X124425390Y-50936210D01*
X124321794Y-50866990D01*
X124138275Y-50744367D01*
X124082084Y-50733190D01*
X123799600Y-50676999D01*
X123799595Y-50677000D01*
X119197552Y-50677000D01*
X119197562Y-50665633D01*
X119055517Y-50321857D01*
X118792727Y-50058608D01*
X118449199Y-49915962D01*
X118077233Y-49915638D01*
X117733457Y-50057683D01*
X117470208Y-50320473D01*
X117327562Y-50664001D01*
X117327238Y-51035967D01*
X114042000Y-51035967D01*
X114042000Y-47199598D01*
X114081943Y-47183094D01*
X114316715Y-46948732D01*
X116684073Y-46948732D01*
X116782736Y-47215587D01*
X117392461Y-47442108D01*
X118042460Y-47418056D01*
X118531264Y-47215587D01*
X118629927Y-46948732D01*
X117657000Y-45975805D01*
X116684073Y-46948732D01*
X114316715Y-46948732D01*
X114542278Y-46723563D01*
X114791716Y-46122848D01*
X114792232Y-45531661D01*
X116011092Y-45531661D01*
X116035144Y-46181660D01*
X116237613Y-46670464D01*
X116504468Y-46769127D01*
X117477395Y-45796200D01*
X117836605Y-45796200D01*
X118809532Y-46769127D01*
X119076387Y-46670464D01*
X119302908Y-46060739D01*
X119278856Y-45410740D01*
X119076387Y-44921936D01*
X118809532Y-44823273D01*
X117836605Y-45796200D01*
X117477395Y-45796200D01*
X116504468Y-44823273D01*
X116237613Y-44921936D01*
X116011092Y-45531661D01*
X114792232Y-45531661D01*
X114792284Y-45472405D01*
X114543894Y-44871257D01*
X114316703Y-44643668D01*
X116684073Y-44643668D01*
X117657000Y-45616595D01*
X118629927Y-44643668D01*
X118531264Y-44376813D01*
X117921539Y-44150292D01*
X117271540Y-44174344D01*
X116782736Y-44376813D01*
X116684073Y-44643668D01*
X114316703Y-44643668D01*
X114084363Y-44410922D01*
X113483648Y-44161484D01*
X112833205Y-44160916D01*
X112232057Y-44409306D01*
X111771722Y-44868837D01*
X111522284Y-45469552D01*
X111521716Y-46119995D01*
X111770106Y-46721143D01*
X112229637Y-47181478D01*
X112272000Y-47199069D01*
X112272000Y-52476698D01*
X111946799Y-52341662D01*
X111574833Y-52341338D01*
X111231057Y-52483383D01*
X110967808Y-52746173D01*
X110825162Y-53089701D01*
X110824945Y-53339331D01*
X110711617Y-53065057D01*
X110448827Y-52801808D01*
X110105299Y-52659162D01*
X109733333Y-52658838D01*
X109389557Y-52800883D01*
X109126308Y-53063673D01*
X108983662Y-53407201D01*
X108983338Y-53779167D01*
X109033500Y-53900569D01*
X109033500Y-53989421D01*
X101418710Y-61604210D01*
X101226867Y-61891325D01*
X101226867Y-61891326D01*
X101159499Y-62230000D01*
X101159500Y-62230005D01*
X101159500Y-65285041D01*
X101125308Y-65319173D01*
X101048971Y-65503012D01*
X101049262Y-65169033D01*
X100907217Y-64825257D01*
X100644427Y-64562008D01*
X100523113Y-64511634D01*
X96389000Y-60377520D01*
X96389000Y-56930446D01*
X96539317Y-56902162D01*
X96755441Y-56763090D01*
X96900431Y-56550890D01*
X96948646Y-56312799D01*
X96996255Y-56327139D01*
X97824395Y-55499000D01*
X96996255Y-54670861D01*
X96948833Y-54685145D01*
X96907162Y-54463683D01*
X96768090Y-54247559D01*
X96555890Y-54102569D01*
X96304000Y-54051560D01*
X94704000Y-54051560D01*
X94468683Y-54095838D01*
X94252559Y-54234910D01*
X94107569Y-54447110D01*
X94103000Y-54469672D01*
X94103000Y-46990005D01*
X94103001Y-46990000D01*
X94035633Y-46651325D01*
X94013506Y-46618210D01*
X93843790Y-46364210D01*
X93843787Y-46364208D01*
X90612231Y-43132651D01*
X90642959Y-43126539D01*
X98581400Y-51064979D01*
X98581400Y-54181657D01*
X98220777Y-54052035D01*
X97650546Y-54079222D01*
X97249995Y-54245136D01*
X97175861Y-54491255D01*
X98004000Y-55319395D01*
X98018142Y-55305252D01*
X98197748Y-55484858D01*
X98183605Y-55499000D01*
X98197748Y-55513143D01*
X98018142Y-55692748D01*
X98004000Y-55678605D01*
X97175861Y-56506745D01*
X97249995Y-56752864D01*
X97787223Y-56945965D01*
X98357454Y-56918778D01*
X98581400Y-56826016D01*
X98581400Y-57127239D01*
X98480762Y-57369601D01*
X98480438Y-57741567D01*
X98622483Y-58085343D01*
X98885273Y-58348592D01*
X99228801Y-58491238D01*
X99600767Y-58491562D01*
X99934366Y-58353722D01*
X100143201Y-58440438D01*
X100515167Y-58440762D01*
X100823304Y-58313443D01*
X101006801Y-58389638D01*
X101378767Y-58389962D01*
X101722543Y-58247917D01*
X101985792Y-57985127D01*
X102128438Y-57641599D01*
X102128762Y-57269633D01*
X101986717Y-56925857D01*
X101977000Y-56916123D01*
X101977000Y-47244000D01*
X101909633Y-46905325D01*
X101717790Y-46618210D01*
X101717787Y-46618208D01*
X98232231Y-43132651D01*
X98612285Y-43057054D01*
X99094054Y-42735147D01*
X99314000Y-42405974D01*
X99533946Y-42735147D01*
X100015715Y-43057054D01*
X100584000Y-43170093D01*
X101152285Y-43057054D01*
X101634054Y-42735147D01*
X101854000Y-42405974D01*
X102073946Y-42735147D01*
X102555715Y-43057054D01*
X103124000Y-43170093D01*
X103692285Y-43057054D01*
X104174054Y-42735147D01*
X104394000Y-42405974D01*
X104613946Y-42735147D01*
X105095715Y-43057054D01*
X105664000Y-43170093D01*
X106232285Y-43057054D01*
X106714054Y-42735147D01*
X107035961Y-42253378D01*
X107149000Y-41685093D01*
X107149000Y-41626907D01*
X107035961Y-41058622D01*
X106714054Y-40576853D01*
X106313563Y-40309254D01*
X106430924Y-40260645D01*
X106859183Y-39870358D01*
X106976760Y-39619995D01*
X111521716Y-39619995D01*
X111770106Y-40221143D01*
X112229637Y-40681478D01*
X112830352Y-40930916D01*
X113480795Y-40931484D01*
X114081943Y-40683094D01*
X114316715Y-40448732D01*
X116684073Y-40448732D01*
X116782736Y-40715587D01*
X117392461Y-40942108D01*
X118042460Y-40918056D01*
X118531264Y-40715587D01*
X118629927Y-40448732D01*
X117657000Y-39475805D01*
X116684073Y-40448732D01*
X114316715Y-40448732D01*
X114542278Y-40223563D01*
X114791716Y-39622848D01*
X114792232Y-39031661D01*
X116011092Y-39031661D01*
X116035144Y-39681660D01*
X116237613Y-40170464D01*
X116504468Y-40269127D01*
X117477395Y-39296200D01*
X117836605Y-39296200D01*
X118809532Y-40269127D01*
X119076387Y-40170464D01*
X119302908Y-39560739D01*
X119278856Y-38910740D01*
X119169612Y-38647000D01*
X120168560Y-38647000D01*
X120168560Y-40347000D01*
X120212838Y-40582317D01*
X120351910Y-40798441D01*
X120396838Y-40829139D01*
X120364559Y-40849910D01*
X120219569Y-41062110D01*
X120168560Y-41314000D01*
X120168560Y-43014000D01*
X120212838Y-43249317D01*
X120351910Y-43465441D01*
X120396838Y-43496139D01*
X120364559Y-43516910D01*
X120219569Y-43729110D01*
X120168560Y-43981000D01*
X120168560Y-45681000D01*
X120212838Y-45916317D01*
X120351910Y-46132441D01*
X120564110Y-46277431D01*
X120816000Y-46328440D01*
X122516000Y-46328440D01*
X122751317Y-46284162D01*
X122967441Y-46145090D01*
X123112431Y-45932890D01*
X123126086Y-45865459D01*
X123155946Y-45910147D01*
X123637715Y-46232054D01*
X124206000Y-46345093D01*
X124774285Y-46232054D01*
X125256054Y-45910147D01*
X125476000Y-45580974D01*
X125695946Y-45910147D01*
X126177715Y-46232054D01*
X126746000Y-46345093D01*
X127314285Y-46232054D01*
X127796054Y-45910147D01*
X128023702Y-45569447D01*
X128090817Y-45712358D01*
X128519076Y-46102645D01*
X128929110Y-46272476D01*
X129159000Y-46151155D01*
X129159000Y-44958000D01*
X129413000Y-44958000D01*
X129413000Y-46151155D01*
X129642890Y-46272476D01*
X130052924Y-46102645D01*
X130481183Y-45712358D01*
X130727486Y-45187892D01*
X130606819Y-44958000D01*
X129413000Y-44958000D01*
X129159000Y-44958000D01*
X129139000Y-44958000D01*
X129139000Y-44704000D01*
X129159000Y-44704000D01*
X129159000Y-43510845D01*
X129133713Y-43497500D01*
X129159000Y-43484155D01*
X129159000Y-42291000D01*
X129413000Y-42291000D01*
X129413000Y-43484155D01*
X129438287Y-43497500D01*
X129413000Y-43510845D01*
X129413000Y-44704000D01*
X130606819Y-44704000D01*
X130727486Y-44474108D01*
X130481183Y-43949642D01*
X130052924Y-43559355D01*
X129903583Y-43497500D01*
X130052924Y-43435645D01*
X130481183Y-43045358D01*
X130727486Y-42520892D01*
X130606819Y-42291000D01*
X129413000Y-42291000D01*
X129159000Y-42291000D01*
X129139000Y-42291000D01*
X129139000Y-42037000D01*
X129159000Y-42037000D01*
X129159000Y-40843845D01*
X129133713Y-40830500D01*
X129159000Y-40817155D01*
X129159000Y-39624000D01*
X129413000Y-39624000D01*
X129413000Y-40817155D01*
X129438287Y-40830500D01*
X129413000Y-40843845D01*
X129413000Y-42037000D01*
X130606819Y-42037000D01*
X130727486Y-41807108D01*
X130481183Y-41282642D01*
X130052924Y-40892355D01*
X129903583Y-40830500D01*
X130052924Y-40768645D01*
X130481183Y-40378358D01*
X130727486Y-39853892D01*
X130606819Y-39624000D01*
X129413000Y-39624000D01*
X129159000Y-39624000D01*
X129139000Y-39624000D01*
X129139000Y-39370000D01*
X129159000Y-39370000D01*
X129159000Y-38176845D01*
X129413000Y-38176845D01*
X129413000Y-39370000D01*
X130606819Y-39370000D01*
X130727486Y-39140108D01*
X130481183Y-38615642D01*
X130052924Y-38225355D01*
X129642890Y-38055524D01*
X129413000Y-38176845D01*
X129159000Y-38176845D01*
X128929110Y-38055524D01*
X128519076Y-38225355D01*
X128090817Y-38615642D01*
X128023702Y-38758553D01*
X127796054Y-38417853D01*
X127314285Y-38095946D01*
X126746000Y-37982907D01*
X126177715Y-38095946D01*
X125695946Y-38417853D01*
X125476000Y-38747026D01*
X125256054Y-38417853D01*
X124774285Y-38095946D01*
X124206000Y-37982907D01*
X123637715Y-38095946D01*
X123155946Y-38417853D01*
X123128150Y-38459452D01*
X123119162Y-38411683D01*
X122980090Y-38195559D01*
X122767890Y-38050569D01*
X122516000Y-37999560D01*
X120816000Y-37999560D01*
X120580683Y-38043838D01*
X120364559Y-38182910D01*
X120219569Y-38395110D01*
X120168560Y-38647000D01*
X119169612Y-38647000D01*
X119076387Y-38421936D01*
X118809532Y-38323273D01*
X117836605Y-39296200D01*
X117477395Y-39296200D01*
X116504468Y-38323273D01*
X116237613Y-38421936D01*
X116011092Y-39031661D01*
X114792232Y-39031661D01*
X114792284Y-38972405D01*
X114543894Y-38371257D01*
X114316703Y-38143668D01*
X116684073Y-38143668D01*
X117657000Y-39116595D01*
X118629927Y-38143668D01*
X118531264Y-37876813D01*
X117921539Y-37650292D01*
X117271540Y-37674344D01*
X116782736Y-37876813D01*
X116684073Y-38143668D01*
X114316703Y-38143668D01*
X114084363Y-37910922D01*
X113483648Y-37661484D01*
X112833205Y-37660916D01*
X112232057Y-37909306D01*
X111771722Y-38368837D01*
X111522284Y-38969552D01*
X111521716Y-39619995D01*
X106976760Y-39619995D01*
X107105486Y-39345892D01*
X106984819Y-39116000D01*
X105791000Y-39116000D01*
X105791000Y-39136000D01*
X105537000Y-39136000D01*
X105537000Y-39116000D01*
X103251000Y-39116000D01*
X103251000Y-39136000D01*
X102997000Y-39136000D01*
X102997000Y-39116000D01*
X100711000Y-39116000D01*
X100711000Y-39136000D01*
X100457000Y-39136000D01*
X100457000Y-39116000D01*
X98171000Y-39116000D01*
X98171000Y-39136000D01*
X97917000Y-39136000D01*
X97917000Y-39116000D01*
X95631000Y-39116000D01*
X95631000Y-39136000D01*
X95377000Y-39136000D01*
X95377000Y-39116000D01*
X93091000Y-39116000D01*
X93091000Y-39136000D01*
X92837000Y-39136000D01*
X92837000Y-39116000D01*
X90551000Y-39116000D01*
X90551000Y-39136000D01*
X90297000Y-39136000D01*
X90297000Y-39116000D01*
X88011000Y-39116000D01*
X88011000Y-39136000D01*
X87757000Y-39136000D01*
X87757000Y-39116000D01*
X86557750Y-39116000D01*
X86399000Y-39274750D01*
X86399000Y-39965309D01*
X86495673Y-40198698D01*
X86616831Y-40319857D01*
X86582559Y-40341910D01*
X86437569Y-40554110D01*
X86386560Y-40806000D01*
X86386560Y-42506000D01*
X86430838Y-42741317D01*
X86569910Y-42957441D01*
X86782110Y-43102431D01*
X87034000Y-43153440D01*
X88129860Y-43153440D01*
X92333000Y-47356579D01*
X92333000Y-62687195D01*
X92332999Y-62687200D01*
X92379433Y-62920633D01*
X92400367Y-63025875D01*
X92533301Y-63224826D01*
X92592210Y-63312990D01*
X95450221Y-66171000D01*
X92187579Y-66171000D01*
X91012744Y-64996164D01*
X90963117Y-64876057D01*
X90700327Y-64612808D01*
X90356799Y-64470162D01*
X89984833Y-64469838D01*
X89641057Y-64611883D01*
X89377808Y-64874673D01*
X89334929Y-64977936D01*
X89222833Y-64977838D01*
X88879057Y-65119883D01*
X88674081Y-65324501D01*
X88134000Y-64784420D01*
X88134000Y-62103000D01*
X88066633Y-61764325D01*
X87874790Y-61477210D01*
X87874787Y-61477208D01*
X76323000Y-49925420D01*
X76323000Y-49786028D01*
X76732110Y-49955476D01*
X76962000Y-49834155D01*
X76962000Y-48641000D01*
X76942000Y-48641000D01*
X76942000Y-48387000D01*
X76962000Y-48387000D01*
X76962000Y-47193845D01*
X77216000Y-47193845D01*
X77216000Y-48387000D01*
X77236000Y-48387000D01*
X77236000Y-48641000D01*
X77216000Y-48641000D01*
X77216000Y-49834155D01*
X77445890Y-49955476D01*
X77855924Y-49785645D01*
X78284183Y-49395358D01*
X78351298Y-49252447D01*
X78578946Y-49593147D01*
X79060715Y-49915054D01*
X79629000Y-50028093D01*
X80197285Y-49915054D01*
X80679054Y-49593147D01*
X80899000Y-49263974D01*
X81118946Y-49593147D01*
X81600715Y-49915054D01*
X82169000Y-50028093D01*
X82737285Y-49915054D01*
X83219054Y-49593147D01*
X83246850Y-49551548D01*
X83255838Y-49599317D01*
X83394910Y-49815441D01*
X83607110Y-49960431D01*
X83859000Y-50011440D01*
X85559000Y-50011440D01*
X85794317Y-49967162D01*
X86010441Y-49828090D01*
X86155431Y-49615890D01*
X86206440Y-49364000D01*
X86206440Y-47664000D01*
X86162162Y-47428683D01*
X86023090Y-47212559D01*
X85810890Y-47067569D01*
X85559000Y-47016560D01*
X83859000Y-47016560D01*
X83623683Y-47060838D01*
X83407559Y-47199910D01*
X83262569Y-47412110D01*
X83248914Y-47479541D01*
X83219054Y-47434853D01*
X82737285Y-47112946D01*
X82169000Y-46999907D01*
X81600715Y-47112946D01*
X81118946Y-47434853D01*
X80899000Y-47764026D01*
X80679054Y-47434853D01*
X80197285Y-47112946D01*
X79629000Y-46999907D01*
X79060715Y-47112946D01*
X78578946Y-47434853D01*
X78351298Y-47775553D01*
X78284183Y-47632642D01*
X77855924Y-47242355D01*
X77445890Y-47072524D01*
X77216000Y-47193845D01*
X76962000Y-47193845D01*
X76732110Y-47072524D01*
X76323000Y-47241972D01*
X76323000Y-44816580D01*
X77689387Y-43450192D01*
X77689390Y-43450190D01*
X77881233Y-43163075D01*
X77881234Y-43163074D01*
X77948601Y-42824400D01*
X77948600Y-42824395D01*
X77948600Y-40153032D01*
X78113654Y-40042747D01*
X78333600Y-39713574D01*
X78553546Y-40042747D01*
X79035315Y-40364654D01*
X79603600Y-40477693D01*
X80171885Y-40364654D01*
X80653654Y-40042747D01*
X80873600Y-39713574D01*
X81093546Y-40042747D01*
X81575315Y-40364654D01*
X82143600Y-40477693D01*
X82711885Y-40364654D01*
X83193654Y-40042747D01*
X83221450Y-40001148D01*
X83230438Y-40048917D01*
X83369510Y-40265041D01*
X83581710Y-40410031D01*
X83833600Y-40461040D01*
X85533600Y-40461040D01*
X85768917Y-40416762D01*
X85985041Y-40277690D01*
X86130031Y-40065490D01*
X86181040Y-39813600D01*
X86181040Y-38113600D01*
X86162053Y-38012691D01*
X86399000Y-38012691D01*
X86399000Y-38703250D01*
X86557750Y-38862000D01*
X87757000Y-38862000D01*
X87757000Y-37662750D01*
X88011000Y-37662750D01*
X88011000Y-38862000D01*
X90297000Y-38862000D01*
X90297000Y-37668845D01*
X90551000Y-37668845D01*
X90551000Y-38862000D01*
X92837000Y-38862000D01*
X92837000Y-37668845D01*
X93091000Y-37668845D01*
X93091000Y-38862000D01*
X95377000Y-38862000D01*
X95377000Y-37668845D01*
X95631000Y-37668845D01*
X95631000Y-38862000D01*
X97917000Y-38862000D01*
X97917000Y-37668845D01*
X98171000Y-37668845D01*
X98171000Y-38862000D01*
X100457000Y-38862000D01*
X100457000Y-37668845D01*
X100711000Y-37668845D01*
X100711000Y-38862000D01*
X102997000Y-38862000D01*
X102997000Y-37668845D01*
X103251000Y-37668845D01*
X103251000Y-38862000D01*
X105537000Y-38862000D01*
X105537000Y-37668845D01*
X105791000Y-37668845D01*
X105791000Y-38862000D01*
X106984819Y-38862000D01*
X107105486Y-38632108D01*
X106859183Y-38107642D01*
X106430924Y-37717355D01*
X106020890Y-37547524D01*
X105791000Y-37668845D01*
X105537000Y-37668845D01*
X105307110Y-37547524D01*
X104897076Y-37717355D01*
X104468817Y-38107642D01*
X104394000Y-38266954D01*
X104319183Y-38107642D01*
X103890924Y-37717355D01*
X103480890Y-37547524D01*
X103251000Y-37668845D01*
X102997000Y-37668845D01*
X102767110Y-37547524D01*
X102357076Y-37717355D01*
X101928817Y-38107642D01*
X101854000Y-38266954D01*
X101779183Y-38107642D01*
X101350924Y-37717355D01*
X100940890Y-37547524D01*
X100711000Y-37668845D01*
X100457000Y-37668845D01*
X100227110Y-37547524D01*
X99817076Y-37717355D01*
X99388817Y-38107642D01*
X99314000Y-38266954D01*
X99239183Y-38107642D01*
X98810924Y-37717355D01*
X98400890Y-37547524D01*
X98171000Y-37668845D01*
X97917000Y-37668845D01*
X97687110Y-37547524D01*
X97277076Y-37717355D01*
X96848817Y-38107642D01*
X96774000Y-38266954D01*
X96699183Y-38107642D01*
X96270924Y-37717355D01*
X95860890Y-37547524D01*
X95631000Y-37668845D01*
X95377000Y-37668845D01*
X95147110Y-37547524D01*
X94737076Y-37717355D01*
X94308817Y-38107642D01*
X94234000Y-38266954D01*
X94159183Y-38107642D01*
X93730924Y-37717355D01*
X93320890Y-37547524D01*
X93091000Y-37668845D01*
X92837000Y-37668845D01*
X92607110Y-37547524D01*
X92197076Y-37717355D01*
X91768817Y-38107642D01*
X91694000Y-38266954D01*
X91619183Y-38107642D01*
X91190924Y-37717355D01*
X90780890Y-37547524D01*
X90551000Y-37668845D01*
X90297000Y-37668845D01*
X90067110Y-37547524D01*
X89657076Y-37717355D01*
X89359136Y-37988878D01*
X89272327Y-37779302D01*
X89093699Y-37600673D01*
X88860310Y-37504000D01*
X88169750Y-37504000D01*
X88011000Y-37662750D01*
X87757000Y-37662750D01*
X87598250Y-37504000D01*
X86907690Y-37504000D01*
X86674301Y-37600673D01*
X86495673Y-37779302D01*
X86399000Y-38012691D01*
X86162053Y-38012691D01*
X86136762Y-37878283D01*
X85997690Y-37662159D01*
X85785490Y-37517169D01*
X85533600Y-37466160D01*
X85047339Y-37466160D01*
X84613180Y-37032000D01*
X137609368Y-37032000D01*
X136620194Y-38019449D01*
G36*
X72110600Y-38836600D02*
X72130600Y-38836600D01*
X72130600Y-39090600D01*
X72110600Y-39090600D01*
X72110600Y-40283755D01*
X72340490Y-40405076D01*
X72750524Y-40235245D01*
X73178783Y-39844958D01*
X73245898Y-39702047D01*
X73473546Y-40042747D01*
X73638600Y-40153032D01*
X73638600Y-51028595D01*
X73638599Y-51028600D01*
X73691829Y-51296200D01*
X73705967Y-51367275D01*
X73865537Y-51606090D01*
X73897810Y-51654390D01*
X84092421Y-61849000D01*
X62940000Y-61849000D01*
X62940000Y-60280012D01*
X63031000Y-60298440D01*
X64731000Y-60298440D01*
X64966317Y-60254162D01*
X65182441Y-60115090D01*
X65327431Y-59902890D01*
X65371352Y-59686000D01*
X67894195Y-59686000D01*
X67894200Y-59686001D01*
X68176684Y-59629810D01*
X68232875Y-59618633D01*
X68519990Y-59426790D01*
X70882187Y-57064592D01*
X70882190Y-57064590D01*
X71074033Y-56777475D01*
X71076894Y-56763090D01*
X71141401Y-56438800D01*
X71141400Y-56438795D01*
X71141400Y-40166643D01*
X71216676Y-40235245D01*
X71626710Y-40405076D01*
X71856600Y-40283755D01*
X71856600Y-39090600D01*
X71836600Y-39090600D01*
X71836600Y-38836600D01*
X71856600Y-38836600D01*
X71856600Y-38816600D01*
X72110600Y-38816600D01*
X72110600Y-38836600D01*
X72110600Y-38836600D01*
G37*
X72110600Y-38836600D02*
X72130600Y-38836600D01*
X72130600Y-39090600D01*
X72110600Y-39090600D01*
X72110600Y-40283755D01*
X72340490Y-40405076D01*
X72750524Y-40235245D01*
X73178783Y-39844958D01*
X73245898Y-39702047D01*
X73473546Y-40042747D01*
X73638600Y-40153032D01*
X73638600Y-51028595D01*
X73638599Y-51028600D01*
X73691829Y-51296200D01*
X73705967Y-51367275D01*
X73865537Y-51606090D01*
X73897810Y-51654390D01*
X84092421Y-61849000D01*
X62940000Y-61849000D01*
X62940000Y-60280012D01*
X63031000Y-60298440D01*
X64731000Y-60298440D01*
X64966317Y-60254162D01*
X65182441Y-60115090D01*
X65327431Y-59902890D01*
X65371352Y-59686000D01*
X67894195Y-59686000D01*
X67894200Y-59686001D01*
X68176684Y-59629810D01*
X68232875Y-59618633D01*
X68519990Y-59426790D01*
X70882187Y-57064592D01*
X70882190Y-57064590D01*
X71074033Y-56777475D01*
X71076894Y-56763090D01*
X71141401Y-56438800D01*
X71141400Y-56438795D01*
X71141400Y-40166643D01*
X71216676Y-40235245D01*
X71626710Y-40405076D01*
X71856600Y-40283755D01*
X71856600Y-39090600D01*
X71836600Y-39090600D01*
X71836600Y-38836600D01*
X71856600Y-38836600D01*
X71856600Y-38816600D01*
X72110600Y-38816600D01*
X72110600Y-38836600D01*
G36*
X69371400Y-56072221D02*
X67527620Y-57916000D01*
X65371854Y-57916000D01*
X65334162Y-57715683D01*
X65195090Y-57499559D01*
X64982890Y-57354569D01*
X64915459Y-57340914D01*
X64960147Y-57311054D01*
X65282054Y-56829285D01*
X65395093Y-56261000D01*
X65282054Y-55692715D01*
X64960147Y-55210946D01*
X64630974Y-54991000D01*
X64960147Y-54771054D01*
X65282054Y-54289285D01*
X65395093Y-53721000D01*
X65282054Y-53152715D01*
X64960147Y-52670946D01*
X64619447Y-52443298D01*
X64762358Y-52376183D01*
X65152645Y-51947924D01*
X65322476Y-51537890D01*
X65201155Y-51308000D01*
X64008000Y-51308000D01*
X64008000Y-51328000D01*
X63754000Y-51328000D01*
X63754000Y-51308000D01*
X63734000Y-51308000D01*
X63734000Y-51054000D01*
X63754000Y-51054000D01*
X63754000Y-49860181D01*
X64008000Y-49860181D01*
X64008000Y-51054000D01*
X65201155Y-51054000D01*
X65322476Y-50824110D01*
X65152645Y-50414076D01*
X64762358Y-49985817D01*
X64237892Y-49739514D01*
X64008000Y-49860181D01*
X63754000Y-49860181D01*
X63524108Y-49739514D01*
X62999642Y-49985817D01*
X62940000Y-50051262D01*
X62940000Y-42097397D01*
X62956600Y-42137572D01*
X63978249Y-43161006D01*
X65313782Y-43715568D01*
X66759874Y-43716830D01*
X68096372Y-43164600D01*
X69119806Y-42142951D01*
X69371400Y-41537046D01*
X69371400Y-56072221D01*
X69371400Y-56072221D01*
G37*
X69371400Y-56072221D02*
X67527620Y-57916000D01*
X65371854Y-57916000D01*
X65334162Y-57715683D01*
X65195090Y-57499559D01*
X64982890Y-57354569D01*
X64915459Y-57340914D01*
X64960147Y-57311054D01*
X65282054Y-56829285D01*
X65395093Y-56261000D01*
X65282054Y-55692715D01*
X64960147Y-55210946D01*
X64630974Y-54991000D01*
X64960147Y-54771054D01*
X65282054Y-54289285D01*
X65395093Y-53721000D01*
X65282054Y-53152715D01*
X64960147Y-52670946D01*
X64619447Y-52443298D01*
X64762358Y-52376183D01*
X65152645Y-51947924D01*
X65322476Y-51537890D01*
X65201155Y-51308000D01*
X64008000Y-51308000D01*
X64008000Y-51328000D01*
X63754000Y-51328000D01*
X63754000Y-51308000D01*
X63734000Y-51308000D01*
X63734000Y-51054000D01*
X63754000Y-51054000D01*
X63754000Y-49860181D01*
X64008000Y-49860181D01*
X64008000Y-51054000D01*
X65201155Y-51054000D01*
X65322476Y-50824110D01*
X65152645Y-50414076D01*
X64762358Y-49985817D01*
X64237892Y-49739514D01*
X64008000Y-49860181D01*
X63754000Y-49860181D01*
X63524108Y-49739514D01*
X62999642Y-49985817D01*
X62940000Y-50051262D01*
X62940000Y-42097397D01*
X62956600Y-42137572D01*
X63978249Y-43161006D01*
X65313782Y-43715568D01*
X66759874Y-43716830D01*
X68096372Y-43164600D01*
X69119806Y-42142951D01*
X69371400Y-41537046D01*
X69371400Y-56072221D01*
M02*
