  0
SECTION
  2
HEADER
  9
$ANGBASE
  50
0.0
  9
$ANGDIR
  70
  1
  9
$MEASUREMENT
  70
0
  0
ENDSEC
  0
SECTION
  2
TABLES
  0
TABLE
  2
LTYPE
  70
1
  0
LTYPE
  2
CONTINUOUS
  70
0
  3
Solid line
  72
65
  73
0
  40
0.0
  0
ENDTAB
  0
TABLE
  2
STYLE
  70
4
  0
STYLE
  2
KICAD
  70
0
  40
0
  41
1
  42
1
  50
0
  71
0
  3
isocp.shx
  0
STYLE
  2
KICADB
  70
0
  40
0
  41
1
  42
1
  50
0
  71
0
  3
isocp.shx
  0
STYLE
  2
KICADI
  70
0
  40
0
  41
1
  42
1
  50
15
  71
0
  3
isocp.shx
  0
STYLE
  2
KICADBI
  70
0
  40
0
  41
1
  42
1
  50
15
  71
0
  3
isocp.shx
  0
ENDTAB
  0
TABLE
  2
LAYER
  70
30
  0
LAYER
  2
BLACK
  70
0
  62
7
  6
CONTINUOUS
  0
LAYER
  2
GRAY1
  70
0
  62
251
  6
CONTINUOUS
  0
LAYER
  2
GRAY2
  70
0
  62
8
  6
CONTINUOUS
  0
LAYER
  2
GRAY3
  70
0
  62
9
  6
CONTINUOUS
  0
LAYER
  2
WHITE
  70
0
  62
7
  6
CONTINUOUS
  0
LAYER
  2
LYELLOW
  70
0
  62
51
  6
CONTINUOUS
  0
LAYER
  2
BLUE1
  70
0
  62
178
  6
CONTINUOUS
  0
LAYER
  2
GREEN1
  70
0
  62
98
  6
CONTINUOUS
  0
LAYER
  2
CYAN1
  70
0
  62
138
  6
CONTINUOUS
  0
LAYER
  2
RED1
  70
0
  62
18
  6
CONTINUOUS
  0
LAYER
  2
MAGENTA1
  70
0
  62
228
  6
CONTINUOUS
  0
LAYER
  2
BROWN1
  70
0
  62
58
  6
CONTINUOUS
  0
LAYER
  2
BLUE2
  70
0
  62
5
  6
CONTINUOUS
  0
LAYER
  2
GREEN2
  70
0
  62
3
  6
CONTINUOUS
  0
LAYER
  2
CYAN2
  70
0
  62
4
  6
CONTINUOUS
  0
LAYER
  2
RED2
  70
0
  62
1
  6
CONTINUOUS
  0
LAYER
  2
MAGENTA2
  70
0
  62
6
  6
CONTINUOUS
  0
LAYER
  2
BROWN2
  70
0
  62
54
  6
CONTINUOUS
  0
LAYER
  2
BLUE3
  70
0
  62
171
  6
CONTINUOUS
  0
LAYER
  2
GREEN3
  70
0
  62
91
  6
CONTINUOUS
  0
LAYER
  2
CYAN3
  70
0
  62
131
  6
CONTINUOUS
  0
LAYER
  2
RED3
  70
0
  62
11
  6
CONTINUOUS
  0
LAYER
  2
MAGENTA3
  70
0
  62
221
  6
CONTINUOUS
  0
LAYER
  2
YELLOW3
  70
0
  62
2
  6
CONTINUOUS
  0
LAYER
  2
BLUE4
  70
0
  62
5
  6
CONTINUOUS
  0
LAYER
  2
GREEN4
  70
0
  62
3
  6
CONTINUOUS
  0
LAYER
  2
CYAN4
  70
0
  62
4
  6
CONTINUOUS
  0
LAYER
  2
RED4
  70
0
  62
1
  6
CONTINUOUS
  0
LAYER
  2
MAGENTA4
  70
0
  62
6
  6
CONTINUOUS
  0
LAYER
  2
YELLOW4
  70
0
  62
2
  6
CONTINUOUS
  0
ENDTAB
  0
ENDSEC
  0
SECTION
  2
ENTITIES
0
LINE
8
Black
10
177.002
20
-166.007
11
177.002
21
-198.007
0
LINE
8
Black
10
177.002
20
-198.007
11
285.002
21
-198.007
0
LINE
8
Black
10
285.002
20
-198.007
11
285.002
21
-166.007
0
LINE
8
Black
10
285.002
20
-166.007
11
177.002
21
-166.007
0
LINE
8
Black
10
10
20
-10
11
10
21
-200.007
0
LINE
8
Black
10
10
20
-200.007
11
287.002
21
-200.007
0
LINE
8
Black
10
287.002
20
-200.007
11
287.002
21
-10
0
LINE
8
Black
10
287.002
20
-10
11
10
21
-10
0
LINE
8
Black
10
12
20
-12
11
12
21
-198.007
0
LINE
8
Black
10
12
20
-198.007
11
285.002
21
-198.007
0
LINE
8
Black
10
285.002
20
-198.007
11
285.002
21
-12
0
LINE
8
Black
10
285.002
20
-12
11
12
21
-12
0
LINE
8
Black
10
60
20
-12
11
60
21
-10
0
LINE
8
Black
10
110
20
-12
11
110
21
-10
0
LINE
8
Black
10
160
20
-12
11
160
21
-10
0
LINE
8
Black
10
210
20
-12
11
210
21
-10
0
LINE
8
Black
10
260
20
-12
11
260
21
-10
0
LINE
8
Black
10
35.9905
20
-11.5881
11
35.2476
21
-11.5881
0
LINE
8
Black
10
35.619
20
-11.5881
11
35.619
21
-10.2881
0
LINE
8
Black
10
35.619
20
-10.2881
11
35.4952
21
-10.4738
0
LINE
8
Black
10
35.4952
20
-10.4738
11
35.3714
21
-10.5976
0
LINE
8
Black
10
35.3714
20
-10.5976
11
35.2476
21
-10.6595
0
LINE
8
Black
10
85.2476
20
-10.4119
11
85.3095
21
-10.35
0
LINE
8
Black
10
85.3095
20
-10.35
11
85.4333
21
-10.2881
0
LINE
8
Black
10
85.4333
20
-10.2881
11
85.7429
21
-10.2881
0
LINE
8
Black
10
85.7429
20
-10.2881
11
85.8667
21
-10.35
0
LINE
8
Black
10
85.8667
20
-10.35
11
85.9286
21
-10.4119
0
LINE
8
Black
10
85.9286
20
-10.4119
11
85.9905
21
-10.5357
0
LINE
8
Black
10
85.9905
20
-10.5357
11
85.9905
21
-10.6595
0
LINE
8
Black
10
85.9905
20
-10.6595
11
85.9286
21
-10.8452
0
LINE
8
Black
10
85.9286
20
-10.8452
11
85.1857
21
-11.5881
0
LINE
8
Black
10
85.1857
20
-11.5881
11
85.9905
21
-11.5881
0
LINE
8
Black
10
135.186
20
-10.2881
11
135.99
21
-10.2881
0
LINE
8
Black
10
135.99
20
-10.2881
11
135.557
21
-10.7833
0
LINE
8
Black
10
135.557
20
-10.7833
11
135.743
21
-10.7833
0
LINE
8
Black
10
135.743
20
-10.7833
11
135.867
21
-10.8452
0
LINE
8
Black
10
135.867
20
-10.8452
11
135.929
21
-10.9071
0
LINE
8
Black
10
135.929
20
-10.9071
11
135.99
21
-11.031
0
LINE
8
Black
10
135.99
20
-11.031
11
135.99
21
-11.3405
0
LINE
8
Black
10
135.99
20
-11.3405
11
135.929
21
-11.4643
0
LINE
8
Black
10
135.929
20
-11.4643
11
135.867
21
-11.5262
0
LINE
8
Black
10
135.867
20
-11.5262
11
135.743
21
-11.5881
0
LINE
8
Black
10
135.743
20
-11.5881
11
135.371
21
-11.5881
0
LINE
8
Black
10
135.371
20
-11.5881
11
135.248
21
-11.5262
0
LINE
8
Black
10
135.248
20
-11.5262
11
135.186
21
-11.4643
0
LINE
8
Black
10
185.867
20
-10.7214
11
185.867
21
-11.5881
0
LINE
8
Black
10
185.557
20
-10.2262
11
185.248
21
-11.1548
0
LINE
8
Black
10
185.248
20
-11.1548
11
186.052
21
-11.1548
0
LINE
8
Black
10
235.929
20
-10.2881
11
235.31
21
-10.2881
0
LINE
8
Black
10
235.31
20
-10.2881
11
235.248
21
-10.9071
0
LINE
8
Black
10
235.248
20
-10.9071
11
235.31
21
-10.8452
0
LINE
8
Black
10
235.31
20
-10.8452
11
235.433
21
-10.7833
0
LINE
8
Black
10
235.433
20
-10.7833
11
235.743
21
-10.7833
0
LINE
8
Black
10
235.743
20
-10.7833
11
235.867
21
-10.8452
0
LINE
8
Black
10
235.867
20
-10.8452
11
235.929
21
-10.9071
0
LINE
8
Black
10
235.929
20
-10.9071
11
235.99
21
-11.031
0
LINE
8
Black
10
235.99
20
-11.031
11
235.99
21
-11.3405
0
LINE
8
Black
10
235.99
20
-11.3405
11
235.929
21
-11.4643
0
LINE
8
Black
10
235.929
20
-11.4643
11
235.867
21
-11.5262
0
LINE
8
Black
10
235.867
20
-11.5262
11
235.743
21
-11.5881
0
LINE
8
Black
10
235.743
20
-11.5881
11
235.433
21
-11.5881
0
LINE
8
Black
10
235.433
20
-11.5881
11
235.31
21
-11.5262
0
LINE
8
Black
10
235.31
20
-11.5262
11
235.248
21
-11.4643
0
LINE
8
Black
10
285.867
20
-10.2881
11
285.619
21
-10.2881
0
LINE
8
Black
10
285.619
20
-10.2881
11
285.495
21
-10.35
0
LINE
8
Black
10
285.495
20
-10.35
11
285.433
21
-10.4119
0
LINE
8
Black
10
285.433
20
-10.4119
11
285.31
21
-10.5976
0
LINE
8
Black
10
285.31
20
-10.5976
11
285.248
21
-10.8452
0
LINE
8
Black
10
285.248
20
-10.8452
11
285.248
21
-11.3405
0
LINE
8
Black
10
285.248
20
-11.3405
11
285.31
21
-11.4643
0
LINE
8
Black
10
285.31
20
-11.4643
11
285.371
21
-11.5262
0
LINE
8
Black
10
285.371
20
-11.5262
11
285.495
21
-11.5881
0
LINE
8
Black
10
285.495
20
-11.5881
11
285.743
21
-11.5881
0
LINE
8
Black
10
285.743
20
-11.5881
11
285.867
21
-11.5262
0
LINE
8
Black
10
285.867
20
-11.5262
11
285.929
21
-11.4643
0
LINE
8
Black
10
285.929
20
-11.4643
11
285.99
21
-11.3405
0
LINE
8
Black
10
285.99
20
-11.3405
11
285.99
21
-11.031
0
LINE
8
Black
10
285.99
20
-11.031
11
285.929
21
-10.9071
0
LINE
8
Black
10
285.929
20
-10.9071
11
285.867
21
-10.8452
0
LINE
8
Black
10
285.867
20
-10.8452
11
285.743
21
-10.7833
0
LINE
8
Black
10
285.743
20
-10.7833
11
285.495
21
-10.7833
0
LINE
8
Black
10
285.495
20
-10.7833
11
285.371
21
-10.8452
0
LINE
8
Black
10
285.371
20
-10.8452
11
285.31
21
-10.9071
0
LINE
8
Black
10
285.31
20
-10.9071
11
285.248
21
-11.031
0
LINE
8
Black
10
60
20
-198.007
11
60
21
-200.007
0
LINE
8
Black
10
110
20
-198.007
11
110
21
-200.007
0
LINE
8
Black
10
160
20
-198.007
11
160
21
-200.007
0
LINE
8
Black
10
210
20
-198.007
11
210
21
-200.007
0
LINE
8
Black
10
260
20
-198.007
11
260
21
-200.007
0
LINE
8
Black
10
35.9905
20
-199.595
11
35.2476
21
-199.595
0
LINE
8
Black
10
35.619
20
-199.595
11
35.619
21
-198.295
0
LINE
8
Black
10
35.619
20
-198.295
11
35.4952
21
-198.481
0
LINE
8
Black
10
35.4952
20
-198.481
11
35.3714
21
-198.605
0
LINE
8
Black
10
35.3714
20
-198.605
11
35.2476
21
-198.667
0
LINE
8
Black
10
85.2476
20
-198.419
11
85.3095
21
-198.357
0
LINE
8
Black
10
85.3095
20
-198.357
11
85.4333
21
-198.295
0
LINE
8
Black
10
85.4333
20
-198.295
11
85.7429
21
-198.295
0
LINE
8
Black
10
85.7429
20
-198.295
11
85.8667
21
-198.357
0
LINE
8
Black
10
85.8667
20
-198.357
11
85.9286
21
-198.419
0
LINE
8
Black
10
85.9286
20
-198.419
11
85.9905
21
-198.543
0
LINE
8
Black
10
85.9905
20
-198.543
11
85.9905
21
-198.667
0
LINE
8
Black
10
85.9905
20
-198.667
11
85.9286
21
-198.852
0
LINE
8
Black
10
85.9286
20
-198.852
11
85.1857
21
-199.595
0
LINE
8
Black
10
85.1857
20
-199.595
11
85.9905
21
-199.595
0
LINE
8
Black
10
135.186
20
-198.295
11
135.99
21
-198.295
0
LINE
8
Black
10
135.99
20
-198.295
11
135.557
21
-198.791
0
LINE
8
Black
10
135.557
20
-198.791
11
135.743
21
-198.791
0
LINE
8
Black
10
135.743
20
-198.791
11
135.867
21
-198.852
0
LINE
8
Black
10
135.867
20
-198.852
11
135.929
21
-198.914
0
LINE
8
Black
10
135.929
20
-198.914
11
135.99
21
-199.038
0
LINE
8
Black
10
135.99
20
-199.038
11
135.99
21
-199.348
0
LINE
8
Black
10
135.99
20
-199.348
11
135.929
21
-199.471
0
LINE
8
Black
10
135.929
20
-199.471
11
135.867
21
-199.533
0
LINE
8
Black
10
135.867
20
-199.533
11
135.743
21
-199.595
0
LINE
8
Black
10
135.743
20
-199.595
11
135.371
21
-199.595
0
LINE
8
Black
10
135.371
20
-199.595
11
135.248
21
-199.533
0
LINE
8
Black
10
135.248
20
-199.533
11
135.186
21
-199.471
0
LINE
8
Black
10
185.867
20
-198.729
11
185.867
21
-199.595
0
LINE
8
Black
10
185.557
20
-198.233
11
185.248
21
-199.162
0
LINE
8
Black
10
185.248
20
-199.162
11
186.052
21
-199.162
0
LINE
8
Black
10
235.929
20
-198.295
11
235.31
21
-198.295
0
LINE
8
Black
10
235.31
20
-198.295
11
235.248
21
-198.914
0
LINE
8
Black
10
235.248
20
-198.914
11
235.31
21
-198.852
0
LINE
8
Black
10
235.31
20
-198.852
11
235.433
21
-198.791
0
LINE
8
Black
10
235.433
20
-198.791
11
235.743
21
-198.791
0
LINE
8
Black
10
235.743
20
-198.791
11
235.867
21
-198.852
0
LINE
8
Black
10
235.867
20
-198.852
11
235.929
21
-198.914
0
LINE
8
Black
10
235.929
20
-198.914
11
235.99
21
-199.038
0
LINE
8
Black
10
235.99
20
-199.038
11
235.99
21
-199.348
0
LINE
8
Black
10
235.99
20
-199.348
11
235.929
21
-199.471
0
LINE
8
Black
10
235.929
20
-199.471
11
235.867
21
-199.533
0
LINE
8
Black
10
235.867
20
-199.533
11
235.743
21
-199.595
0
LINE
8
Black
10
235.743
20
-199.595
11
235.433
21
-199.595
0
LINE
8
Black
10
235.433
20
-199.595
11
235.31
21
-199.533
0
LINE
8
Black
10
235.31
20
-199.533
11
235.248
21
-199.471
0
LINE
8
Black
10
285.867
20
-198.295
11
285.619
21
-198.295
0
LINE
8
Black
10
285.619
20
-198.295
11
285.495
21
-198.357
0
LINE
8
Black
10
285.495
20
-198.357
11
285.433
21
-198.419
0
LINE
8
Black
10
285.433
20
-198.419
11
285.31
21
-198.605
0
LINE
8
Black
10
285.31
20
-198.605
11
285.248
21
-198.852
0
LINE
8
Black
10
285.248
20
-198.852
11
285.248
21
-199.348
0
LINE
8
Black
10
285.248
20
-199.348
11
285.31
21
-199.471
0
LINE
8
Black
10
285.31
20
-199.471
11
285.371
21
-199.533
0
LINE
8
Black
10
285.371
20
-199.533
11
285.495
21
-199.595
0
LINE
8
Black
10
285.495
20
-199.595
11
285.743
21
-199.595
0
LINE
8
Black
10
285.743
20
-199.595
11
285.867
21
-199.533
0
LINE
8
Black
10
285.867
20
-199.533
11
285.929
21
-199.471
0
LINE
8
Black
10
285.929
20
-199.471
11
285.99
21
-199.348
0
LINE
8
Black
10
285.99
20
-199.348
11
285.99
21
-199.038
0
LINE
8
Black
10
285.99
20
-199.038
11
285.929
21
-198.914
0
LINE
8
Black
10
285.929
20
-198.914
11
285.867
21
-198.852
0
LINE
8
Black
10
285.867
20
-198.852
11
285.743
21
-198.791
0
LINE
8
Black
10
285.743
20
-198.791
11
285.495
21
-198.791
0
LINE
8
Black
10
285.495
20
-198.791
11
285.371
21
-198.852
0
LINE
8
Black
10
285.371
20
-198.852
11
285.31
21
-198.914
0
LINE
8
Black
10
285.31
20
-198.914
11
285.248
21
-199.038
0
LINE
8
Black
10
10
20
-60
11
12
21
-60
0
LINE
8
Black
10
10
20
-110
11
12
21
-110
0
LINE
8
Black
10
10
20
-160
11
12
21
-160
0
LINE
8
Black
10
10.6905
20
-35.2167
11
11.3095
21
-35.2167
0
LINE
8
Black
10
10.5667
20
-35.5881
11
11
21
-34.2881
0
LINE
8
Black
10
11
20
-34.2881
11
11.4333
21
-35.5881
0
LINE
8
Black
10
11.0929
20
-84.9071
11
11.2786
21
-84.969
0
LINE
8
Black
10
11.2786
20
-84.969
11
11.3405
21
-85.031
0
LINE
8
Black
10
11.3405
20
-85.031
11
11.4024
21
-85.1548
0
LINE
8
Black
10
11.4024
20
-85.1548
11
11.4024
21
-85.3405
0
LINE
8
Black
10
11.4024
20
-85.3405
11
11.3405
21
-85.4643
0
LINE
8
Black
10
11.3405
20
-85.4643
11
11.2786
21
-85.5262
0
LINE
8
Black
10
11.2786
20
-85.5262
11
11.1548
21
-85.5881
0
LINE
8
Black
10
11.1548
20
-85.5881
11
10.6595
21
-85.5881
0
LINE
8
Black
10
10.6595
20
-85.5881
11
10.6595
21
-84.2881
0
LINE
8
Black
10
10.6595
20
-84.2881
11
11.0929
21
-84.2881
0
LINE
8
Black
10
11.0929
20
-84.2881
11
11.2167
21
-84.35
0
LINE
8
Black
10
11.2167
20
-84.35
11
11.2786
21
-84.4119
0
LINE
8
Black
10
11.2786
20
-84.4119
11
11.3405
21
-84.5357
0
LINE
8
Black
10
11.3405
20
-84.5357
11
11.3405
21
-84.6595
0
LINE
8
Black
10
11.3405
20
-84.6595
11
11.2786
21
-84.7833
0
LINE
8
Black
10
11.2786
20
-84.7833
11
11.2167
21
-84.8452
0
LINE
8
Black
10
11.2167
20
-84.8452
11
11.0929
21
-84.9071
0
LINE
8
Black
10
11.0929
20
-84.9071
11
10.6595
21
-84.9071
0
LINE
8
Black
10
11.4024
20
-135.464
11
11.3405
21
-135.526
0
LINE
8
Black
10
11.3405
20
-135.526
11
11.1548
21
-135.588
0
LINE
8
Black
10
11.1548
20
-135.588
11
11.031
21
-135.588
0
LINE
8
Black
10
11.031
20
-135.588
11
10.8452
21
-135.526
0
LINE
8
Black
10
10.8452
20
-135.526
11
10.7214
21
-135.402
0
LINE
8
Black
10
10.7214
20
-135.402
11
10.6595
21
-135.279
0
LINE
8
Black
10
10.6595
20
-135.279
11
10.5976
21
-135.031
0
LINE
8
Black
10
10.5976
20
-135.031
11
10.5976
21
-134.845
0
LINE
8
Black
10
10.5976
20
-134.845
11
10.6595
21
-134.598
0
LINE
8
Black
10
10.6595
20
-134.598
11
10.7214
21
-134.474
0
LINE
8
Black
10
10.7214
20
-134.474
11
10.8452
21
-134.35
0
LINE
8
Black
10
10.8452
20
-134.35
11
11.031
21
-134.288
0
LINE
8
Black
10
11.031
20
-134.288
11
11.1548
21
-134.288
0
LINE
8
Black
10
11.1548
20
-134.288
11
11.3405
21
-134.35
0
LINE
8
Black
10
11.3405
20
-134.35
11
11.4024
21
-134.412
0
LINE
8
Black
10
10.6595
20
-185.588
11
10.6595
21
-184.288
0
LINE
8
Black
10
10.6595
20
-184.288
11
10.969
21
-184.288
0
LINE
8
Black
10
10.969
20
-184.288
11
11.1548
21
-184.35
0
LINE
8
Black
10
11.1548
20
-184.35
11
11.2786
21
-184.474
0
LINE
8
Black
10
11.2786
20
-184.474
11
11.3405
21
-184.598
0
LINE
8
Black
10
11.3405
20
-184.598
11
11.4024
21
-184.845
0
LINE
8
Black
10
11.4024
20
-184.845
11
11.4024
21
-185.031
0
LINE
8
Black
10
11.4024
20
-185.031
11
11.3405
21
-185.279
0
LINE
8
Black
10
11.3405
20
-185.279
11
11.2786
21
-185.402
0
LINE
8
Black
10
11.2786
20
-185.402
11
11.1548
21
-185.526
0
LINE
8
Black
10
11.1548
20
-185.526
11
10.969
21
-185.588
0
LINE
8
Black
10
10.969
20
-185.588
11
10.6595
21
-185.588
0
LINE
8
Black
10
287.002
20
-60
11
285.002
21
-60
0
LINE
8
Black
10
287.002
20
-110
11
285.002
21
-110
0
LINE
8
Black
10
287.002
20
-160
11
285.002
21
-160
0
LINE
8
Black
10
285.693
20
-35.2167
11
286.312
21
-35.2167
0
LINE
8
Black
10
285.569
20
-35.5881
11
286.002
21
-34.2881
0
LINE
8
Black
10
286.002
20
-34.2881
11
286.436
21
-35.5881
0
LINE
8
Black
10
286.095
20
-84.9071
11
286.281
21
-84.969
0
LINE
8
Black
10
286.281
20
-84.969
11
286.343
21
-85.031
0
LINE
8
Black
10
286.343
20
-85.031
11
286.405
21
-85.1548
0
LINE
8
Black
10
286.405
20
-85.1548
11
286.405
21
-85.3405
0
LINE
8
Black
10
286.405
20
-85.3405
11
286.343
21
-85.4643
0
LINE
8
Black
10
286.343
20
-85.4643
11
286.281
21
-85.5262
0
LINE
8
Black
10
286.281
20
-85.5262
11
286.157
21
-85.5881
0
LINE
8
Black
10
286.157
20
-85.5881
11
285.662
21
-85.5881
0
LINE
8
Black
10
285.662
20
-85.5881
11
285.662
21
-84.2881
0
LINE
8
Black
10
285.662
20
-84.2881
11
286.095
21
-84.2881
0
LINE
8
Black
10
286.095
20
-84.2881
11
286.219
21
-84.35
0
LINE
8
Black
10
286.219
20
-84.35
11
286.281
21
-84.4119
0
LINE
8
Black
10
286.281
20
-84.4119
11
286.343
21
-84.5357
0
LINE
8
Black
10
286.343
20
-84.5357
11
286.343
21
-84.6595
0
LINE
8
Black
10
286.343
20
-84.6595
11
286.281
21
-84.7833
0
LINE
8
Black
10
286.281
20
-84.7833
11
286.219
21
-84.8452
0
LINE
8
Black
10
286.219
20
-84.8452
11
286.095
21
-84.9071
0
LINE
8
Black
10
286.095
20
-84.9071
11
285.662
21
-84.9071
0
LINE
8
Black
10
286.405
20
-135.464
11
286.343
21
-135.526
0
LINE
8
Black
10
286.343
20
-135.526
11
286.157
21
-135.588
0
LINE
8
Black
10
286.157
20
-135.588
11
286.033
21
-135.588
0
LINE
8
Black
10
286.033
20
-135.588
11
285.847
21
-135.526
0
LINE
8
Black
10
285.847
20
-135.526
11
285.724
21
-135.402
0
LINE
8
Black
10
285.724
20
-135.402
11
285.662
21
-135.279
0
LINE
8
Black
10
285.662
20
-135.279
11
285.6
21
-135.031
0
LINE
8
Black
10
285.6
20
-135.031
11
285.6
21
-134.845
0
LINE
8
Black
10
285.6
20
-134.845
11
285.662
21
-134.598
0
LINE
8
Black
10
285.662
20
-134.598
11
285.724
21
-134.474
0
LINE
8
Black
10
285.724
20
-134.474
11
285.847
21
-134.35
0
LINE
8
Black
10
285.847
20
-134.35
11
286.033
21
-134.288
0
LINE
8
Black
10
286.033
20
-134.288
11
286.157
21
-134.288
0
LINE
8
Black
10
286.157
20
-134.288
11
286.343
21
-134.35
0
LINE
8
Black
10
286.343
20
-134.35
11
286.405
21
-134.412
0
LINE
8
Black
10
285.662
20
-185.588
11
285.662
21
-184.288
0
LINE
8
Black
10
285.662
20
-184.288
11
285.971
21
-184.288
0
LINE
8
Black
10
285.971
20
-184.288
11
286.157
21
-184.35
0
LINE
8
Black
10
286.157
20
-184.35
11
286.281
21
-184.474
0
LINE
8
Black
10
286.281
20
-184.474
11
286.343
21
-184.598
0
LINE
8
Black
10
286.343
20
-184.598
11
286.405
21
-184.845
0
LINE
8
Black
10
286.405
20
-184.845
11
286.405
21
-185.031
0
LINE
8
Black
10
286.405
20
-185.031
11
286.343
21
-185.279
0
LINE
8
Black
10
286.343
20
-185.279
11
286.281
21
-185.402
0
LINE
8
Black
10
286.281
20
-185.402
11
286.157
21
-185.526
0
LINE
8
Black
10
286.157
20
-185.526
11
285.971
21
-185.588
0
LINE
8
Black
10
285.971
20
-185.588
11
285.662
21
-185.588
0
LINE
8
Black
10
200.359
20
-193.786
11
200.359
21
-192.286
0
LINE
8
Black
10
200.359
20
-192.286
11
200.716
21
-192.286
0
LINE
8
Black
10
200.716
20
-192.286
11
200.931
21
-192.357
0
LINE
8
Black
10
200.931
20
-192.357
11
201.074
21
-192.5
0
LINE
8
Black
10
201.074
20
-192.5
11
201.145
21
-192.643
0
LINE
8
Black
10
201.145
20
-192.643
11
201.216
21
-192.929
0
LINE
8
Black
10
201.216
20
-192.929
11
201.216
21
-193.143
0
LINE
8
Black
10
201.216
20
-193.143
11
201.145
21
-193.429
0
LINE
8
Black
10
201.145
20
-193.429
11
201.074
21
-193.571
0
LINE
8
Black
10
201.074
20
-193.571
11
200.931
21
-193.714
0
LINE
8
Black
10
200.931
20
-193.714
11
200.716
21
-193.786
0
LINE
8
Black
10
200.716
20
-193.786
11
200.359
21
-193.786
0
LINE
8
Black
10
202.502
20
-193.786
11
202.502
21
-193
0
LINE
8
Black
10
202.502
20
-193
11
202.431
21
-192.857
0
LINE
8
Black
10
202.431
20
-192.857
11
202.288
21
-192.786
0
LINE
8
Black
10
202.288
20
-192.786
11
202.002
21
-192.786
0
LINE
8
Black
10
202.002
20
-192.786
11
201.859
21
-192.857
0
LINE
8
Black
10
202.502
20
-193.714
11
202.359
21
-193.786
0
LINE
8
Black
10
202.359
20
-193.786
11
202.002
21
-193.786
0
LINE
8
Black
10
202.002
20
-193.786
11
201.859
21
-193.714
0
LINE
8
Black
10
201.859
20
-193.714
11
201.788
21
-193.571
0
LINE
8
Black
10
201.788
20
-193.571
11
201.788
21
-193.429
0
LINE
8
Black
10
201.788
20
-193.429
11
201.859
21
-193.286
0
LINE
8
Black
10
201.859
20
-193.286
11
202.002
21
-193.214
0
LINE
8
Black
10
202.002
20
-193.214
11
202.359
21
-193.214
0
LINE
8
Black
10
202.359
20
-193.214
11
202.502
21
-193.143
0
LINE
8
Black
10
203.002
20
-192.786
11
203.574
21
-192.786
0
LINE
8
Black
10
203.216
20
-192.286
11
203.216
21
-193.571
0
LINE
8
Black
10
203.216
20
-193.571
11
203.288
21
-193.714
0
LINE
8
Black
10
203.288
20
-193.714
11
203.431
21
-193.786
0
LINE
8
Black
10
203.431
20
-193.786
11
203.574
21
-193.786
0
LINE
8
Black
10
204.645
20
-193.714
11
204.502
21
-193.786
0
LINE
8
Black
10
204.502
20
-193.786
11
204.216
21
-193.786
0
LINE
8
Black
10
204.216
20
-193.786
11
204.074
21
-193.714
0
LINE
8
Black
10
204.074
20
-193.714
11
204.002
21
-193.571
0
LINE
8
Black
10
204.002
20
-193.571
11
204.002
21
-193
0
LINE
8
Black
10
204.002
20
-193
11
204.074
21
-192.857
0
LINE
8
Black
10
204.074
20
-192.857
11
204.216
21
-192.786
0
LINE
8
Black
10
204.216
20
-192.786
11
204.502
21
-192.786
0
LINE
8
Black
10
204.502
20
-192.786
11
204.645
21
-192.857
0
LINE
8
Black
10
204.645
20
-192.857
11
204.716
21
-193
0
LINE
8
Black
10
204.716
20
-193
11
204.716
21
-193.143
0
LINE
8
Black
10
204.716
20
-193.143
11
204.002
21
-193.286
0
LINE
8
Black
10
205.359
20
-193.643
11
205.431
21
-193.714
0
LINE
8
Black
10
205.431
20
-193.714
11
205.359
21
-193.786
0
LINE
8
Black
10
205.359
20
-193.786
11
205.288
21
-193.714
0
LINE
8
Black
10
205.288
20
-193.714
11
205.359
21
-193.643
0
LINE
8
Black
10
205.359
20
-193.643
11
205.359
21
-193.786
0
LINE
8
Black
10
205.359
20
-192.857
11
205.431
21
-192.929
0
LINE
8
Black
10
205.431
20
-192.929
11
205.359
21
-193
0
LINE
8
Black
10
205.359
20
-193
11
205.288
21
-192.929
0
LINE
8
Black
10
205.288
20
-192.929
11
205.359
21
-192.857
0
LINE
8
Black
10
205.359
20
-192.857
11
205.359
21
-193
0
LINE
8
Black
10
207.145
20
-192.429
11
207.216
21
-192.357
0
LINE
8
Black
10
207.216
20
-192.357
11
207.359
21
-192.286
0
LINE
8
Black
10
207.359
20
-192.286
11
207.716
21
-192.286
0
LINE
8
Black
10
207.716
20
-192.286
11
207.859
21
-192.357
0
LINE
8
Black
10
207.859
20
-192.357
11
207.931
21
-192.429
0
LINE
8
Black
10
207.931
20
-192.429
11
208.002
21
-192.571
0
LINE
8
Black
10
208.002
20
-192.571
11
208.002
21
-192.714
0
LINE
8
Black
10
208.002
20
-192.714
11
207.931
21
-192.929
0
LINE
8
Black
10
207.931
20
-192.929
11
207.074
21
-193.786
0
LINE
8
Black
10
207.074
20
-193.786
11
208.002
21
-193.786
0
LINE
8
Black
10
208.931
20
-192.286
11
209.074
21
-192.286
0
LINE
8
Black
10
209.074
20
-192.286
11
209.216
21
-192.357
0
LINE
8
Black
10
209.216
20
-192.357
11
209.288
21
-192.429
0
LINE
8
Black
10
209.288
20
-192.429
11
209.359
21
-192.571
0
LINE
8
Black
10
209.359
20
-192.571
11
209.431
21
-192.857
0
LINE
8
Black
10
209.431
20
-192.857
11
209.431
21
-193.214
0
LINE
8
Black
10
209.431
20
-193.214
11
209.359
21
-193.5
0
LINE
8
Black
10
209.359
20
-193.5
11
209.288
21
-193.643
0
LINE
8
Black
10
209.288
20
-193.643
11
209.216
21
-193.714
0
LINE
8
Black
10
209.216
20
-193.714
11
209.074
21
-193.786
0
LINE
8
Black
10
209.074
20
-193.786
11
208.931
21
-193.786
0
LINE
8
Black
10
208.931
20
-193.786
11
208.788
21
-193.714
0
LINE
8
Black
10
208.788
20
-193.714
11
208.716
21
-193.643
0
LINE
8
Black
10
208.716
20
-193.643
11
208.645
21
-193.5
0
LINE
8
Black
10
208.645
20
-193.5
11
208.574
21
-193.214
0
LINE
8
Black
10
208.574
20
-193.214
11
208.574
21
-192.857
0
LINE
8
Black
10
208.574
20
-192.857
11
208.645
21
-192.571
0
LINE
8
Black
10
208.645
20
-192.571
11
208.716
21
-192.429
0
LINE
8
Black
10
208.716
20
-192.429
11
208.788
21
-192.357
0
LINE
8
Black
10
208.788
20
-192.357
11
208.931
21
-192.286
0
LINE
8
Black
10
210.859
20
-193.786
11
210.002
21
-193.786
0
LINE
8
Black
10
210.431
20
-193.786
11
210.431
21
-192.286
0
LINE
8
Black
10
210.431
20
-192.286
11
210.288
21
-192.5
0
LINE
8
Black
10
210.288
20
-192.5
11
210.145
21
-192.643
0
LINE
8
Black
10
210.145
20
-192.643
11
210.002
21
-192.714
0
LINE
8
Black
10
211.359
20
-192.286
11
212.359
21
-192.286
0
LINE
8
Black
10
212.359
20
-192.286
11
211.716
21
-193.786
0
LINE
8
Black
10
212.931
20
-193.214
11
214.074
21
-193.214
0
LINE
8
Black
10
215.074
20
-192.286
11
215.216
21
-192.286
0
LINE
8
Black
10
215.216
20
-192.286
11
215.359
21
-192.357
0
LINE
8
Black
10
215.359
20
-192.357
11
215.431
21
-192.429
0
LINE
8
Black
10
215.431
20
-192.429
11
215.502
21
-192.571
0
LINE
8
Black
10
215.502
20
-192.571
11
215.574
21
-192.857
0
LINE
8
Black
10
215.574
20
-192.857
11
215.574
21
-193.214
0
LINE
8
Black
10
215.574
20
-193.214
11
215.502
21
-193.5
0
LINE
8
Black
10
215.502
20
-193.5
11
215.431
21
-193.643
0
LINE
8
Black
10
215.431
20
-193.643
11
215.359
21
-193.714
0
LINE
8
Black
10
215.359
20
-193.714
11
215.216
21
-193.786
0
LINE
8
Black
10
215.216
20
-193.786
11
215.074
21
-193.786
0
LINE
8
Black
10
215.074
20
-193.786
11
214.931
21
-193.714
0
LINE
8
Black
10
214.931
20
-193.714
11
214.859
21
-193.643
0
LINE
8
Black
10
214.859
20
-193.643
11
214.788
21
-193.5
0
LINE
8
Black
10
214.788
20
-193.5
11
214.716
21
-193.214
0
LINE
8
Black
10
214.716
20
-193.214
11
214.716
21
-192.857
0
LINE
8
Black
10
214.716
20
-192.857
11
214.788
21
-192.571
0
LINE
8
Black
10
214.788
20
-192.571
11
214.859
21
-192.429
0
LINE
8
Black
10
214.859
20
-192.429
11
214.931
21
-192.357
0
LINE
8
Black
10
214.931
20
-192.357
11
215.074
21
-192.286
0
LINE
8
Black
10
216.074
20
-192.286
11
217.074
21
-192.286
0
LINE
8
Black
10
217.074
20
-192.286
11
216.431
21
-193.786
0
LINE
8
Black
10
217.645
20
-193.214
11
218.788
21
-193.214
0
LINE
8
Black
10
219.788
20
-192.286
11
219.931
21
-192.286
0
LINE
8
Black
10
219.931
20
-192.286
11
220.074
21
-192.357
0
LINE
8
Black
10
220.074
20
-192.357
11
220.145
21
-192.429
0
LINE
8
Black
10
220.145
20
-192.429
11
220.216
21
-192.571
0
LINE
8
Black
10
220.216
20
-192.571
11
220.288
21
-192.857
0
LINE
8
Black
10
220.288
20
-192.857
11
220.288
21
-193.214
0
LINE
8
Black
10
220.288
20
-193.214
11
220.216
21
-193.5
0
LINE
8
Black
10
220.216
20
-193.5
11
220.145
21
-193.643
0
LINE
8
Black
10
220.145
20
-193.643
11
220.074
21
-193.714
0
LINE
8
Black
10
220.074
20
-193.714
11
219.931
21
-193.786
0
LINE
8
Black
10
219.931
20
-193.786
11
219.788
21
-193.786
0
LINE
8
Black
10
219.788
20
-193.786
11
219.645
21
-193.714
0
LINE
8
Black
10
219.645
20
-193.714
11
219.574
21
-193.643
0
LINE
8
Black
10
219.574
20
-193.643
11
219.502
21
-193.5
0
LINE
8
Black
10
219.502
20
-193.5
11
219.431
21
-193.214
0
LINE
8
Black
10
219.431
20
-193.214
11
219.431
21
-192.857
0
LINE
8
Black
10
219.431
20
-192.857
11
219.502
21
-192.571
0
LINE
8
Black
10
219.502
20
-192.571
11
219.574
21
-192.429
0
LINE
8
Black
10
219.574
20
-192.429
11
219.645
21
-192.357
0
LINE
8
Black
10
219.645
20
-192.357
11
219.788
21
-192.286
0
LINE
8
Black
10
221.716
20
-193.786
11
220.859
21
-193.786
0
LINE
8
Black
10
221.288
20
-193.786
11
221.288
21
-192.286
0
LINE
8
Black
10
221.288
20
-192.286
11
221.145
21
-192.5
0
LINE
8
Black
10
221.145
20
-192.5
11
221.002
21
-192.643
0
LINE
8
Black
10
221.002
20
-192.643
11
220.859
21
-192.714
0
LINE
8
Black
10
177.002
20
-194.507
11
285.002
21
-194.507
0
LINE
8
Black
10
178.359
20
-196.586
11
178.359
21
-195.086
0
LINE
8
Black
10
179.216
20
-196.586
11
178.574
21
-195.729
0
LINE
8
Black
10
179.216
20
-195.086
11
178.359
21
-195.943
0
LINE
8
Black
10
179.859
20
-196.586
11
179.859
21
-195.586
0
LINE
8
Black
10
179.859
20
-195.086
11
179.788
21
-195.157
0
LINE
8
Black
10
179.788
20
-195.157
11
179.859
21
-195.229
0
LINE
8
Black
10
179.859
20
-195.229
11
179.931
21
-195.157
0
LINE
8
Black
10
179.931
20
-195.157
11
179.859
21
-195.086
0
LINE
8
Black
10
179.859
20
-195.086
11
179.859
21
-195.229
0
LINE
8
Black
10
181.431
20
-196.443
11
181.359
21
-196.514
0
LINE
8
Black
10
181.359
20
-196.514
11
181.145
21
-196.586
0
LINE
8
Black
10
181.145
20
-196.586
11
181.002
21
-196.586
0
LINE
8
Black
10
181.002
20
-196.586
11
180.788
21
-196.514
0
LINE
8
Black
10
180.788
20
-196.514
11
180.645
21
-196.371
0
LINE
8
Black
10
180.645
20
-196.371
11
180.574
21
-196.229
0
LINE
8
Black
10
180.574
20
-196.229
11
180.502
21
-195.943
0
LINE
8
Black
10
180.502
20
-195.943
11
180.502
21
-195.729
0
LINE
8
Black
10
180.502
20
-195.729
11
180.574
21
-195.443
0
LINE
8
Black
10
180.574
20
-195.443
11
180.645
21
-195.3
0
LINE
8
Black
10
180.645
20
-195.3
11
180.788
21
-195.157
0
LINE
8
Black
10
180.788
20
-195.157
11
181.002
21
-195.086
0
LINE
8
Black
10
181.002
20
-195.086
11
181.145
21
-195.086
0
LINE
8
Black
10
181.145
20
-195.086
11
181.359
21
-195.157
0
LINE
8
Black
10
181.359
20
-195.157
11
181.431
21
-195.229
0
LINE
8
Black
10
182.716
20
-196.586
11
182.716
21
-195.8
0
LINE
8
Black
10
182.716
20
-195.8
11
182.645
21
-195.657
0
LINE
8
Black
10
182.645
20
-195.657
11
182.502
21
-195.586
0
LINE
8
Black
10
182.502
20
-195.586
11
182.216
21
-195.586
0
LINE
8
Black
10
182.216
20
-195.586
11
182.074
21
-195.657
0
LINE
8
Black
10
182.716
20
-196.514
11
182.574
21
-196.586
0
LINE
8
Black
10
182.574
20
-196.586
11
182.216
21
-196.586
0
LINE
8
Black
10
182.216
20
-196.586
11
182.074
21
-196.514
0
LINE
8
Black
10
182.074
20
-196.514
11
182.002
21
-196.371
0
LINE
8
Black
10
182.002
20
-196.371
11
182.002
21
-196.229
0
LINE
8
Black
10
182.002
20
-196.229
11
182.074
21
-196.086
0
LINE
8
Black
10
182.074
20
-196.086
11
182.216
21
-196.014
0
LINE
8
Black
10
182.216
20
-196.014
11
182.574
21
-196.014
0
LINE
8
Black
10
182.574
20
-196.014
11
182.716
21
-195.943
0
LINE
8
Black
10
184.074
20
-196.586
11
184.074
21
-195.086
0
LINE
8
Black
10
184.074
20
-196.514
11
183.931
21
-196.586
0
LINE
8
Black
10
183.931
20
-196.586
11
183.645
21
-196.586
0
LINE
8
Black
10
183.645
20
-196.586
11
183.502
21
-196.514
0
LINE
8
Black
10
183.502
20
-196.514
11
183.431
21
-196.443
0
LINE
8
Black
10
183.431
20
-196.443
11
183.359
21
-196.3
0
LINE
8
Black
10
183.359
20
-196.3
11
183.359
21
-195.871
0
LINE
8
Black
10
183.359
20
-195.871
11
183.431
21
-195.729
0
LINE
8
Black
10
183.431
20
-195.729
11
183.502
21
-195.657
0
LINE
8
Black
10
183.502
20
-195.657
11
183.645
21
-195.586
0
LINE
8
Black
10
183.645
20
-195.586
11
183.931
21
-195.586
0
LINE
8
Black
10
183.931
20
-195.586
11
184.074
21
-195.657
0
LINE
8
Black
10
185.931
20
-195.8
11
186.431
21
-195.8
0
LINE
8
Black
10
186.645
20
-196.586
11
185.931
21
-196.586
0
LINE
8
Black
10
185.931
20
-196.586
11
185.931
21
-195.086
0
LINE
8
Black
10
185.931
20
-195.086
11
186.645
21
-195.086
0
LINE
8
Black
10
187.288
20
-196.443
11
187.359
21
-196.514
0
LINE
8
Black
10
187.359
20
-196.514
11
187.288
21
-196.586
0
LINE
8
Black
10
187.288
20
-196.586
11
187.216
21
-196.514
0
LINE
8
Black
10
187.216
20
-196.514
11
187.288
21
-196.443
0
LINE
8
Black
10
187.288
20
-196.443
11
187.288
21
-196.586
0
LINE
8
Black
10
188.002
20
-196.586
11
188.002
21
-195.086
0
LINE
8
Black
10
188.002
20
-195.086
11
188.359
21
-195.086
0
LINE
8
Black
10
188.359
20
-195.086
11
188.574
21
-195.157
0
LINE
8
Black
10
188.574
20
-195.157
11
188.716
21
-195.3
0
LINE
8
Black
10
188.716
20
-195.3
11
188.788
21
-195.443
0
LINE
8
Black
10
188.788
20
-195.443
11
188.859
21
-195.729
0
LINE
8
Black
10
188.859
20
-195.729
11
188.859
21
-195.943
0
LINE
8
Black
10
188.859
20
-195.943
11
188.788
21
-196.229
0
LINE
8
Black
10
188.788
20
-196.229
11
188.716
21
-196.371
0
LINE
8
Black
10
188.716
20
-196.371
11
188.574
21
-196.514
0
LINE
8
Black
10
188.574
20
-196.514
11
188.359
21
-196.586
0
LINE
8
Black
10
188.359
20
-196.586
11
188.002
21
-196.586
0
LINE
8
Black
10
189.502
20
-196.443
11
189.574
21
-196.514
0
LINE
8
Black
10
189.574
20
-196.514
11
189.502
21
-196.586
0
LINE
8
Black
10
189.502
20
-196.586
11
189.431
21
-196.514
0
LINE
8
Black
10
189.431
20
-196.514
11
189.502
21
-196.443
0
LINE
8
Black
10
189.502
20
-196.443
11
189.502
21
-196.586
0
LINE
8
Black
10
190.145
20
-196.157
11
190.859
21
-196.157
0
LINE
8
Black
10
190.002
20
-196.586
11
190.502
21
-195.086
0
LINE
8
Black
10
190.502
20
-195.086
11
191.002
21
-196.586
0
LINE
8
Black
10
191.502
20
-196.443
11
191.574
21
-196.514
0
LINE
8
Black
10
191.574
20
-196.514
11
191.502
21
-196.586
0
LINE
8
Black
10
191.502
20
-196.586
11
191.431
21
-196.514
0
LINE
8
Black
10
191.431
20
-196.514
11
191.502
21
-196.443
0
LINE
8
Black
10
191.502
20
-196.443
11
191.502
21
-196.586
0
LINE
8
Black
10
194.502
20
-196.586
11
194.502
21
-195.086
0
LINE
8
Black
10
194.645
20
-196.014
11
195.074
21
-196.586
0
LINE
8
Black
10
195.074
20
-195.586
11
194.502
21
-196.157
0
LINE
8
Black
10
195.716
20
-196.586
11
195.716
21
-195.586
0
LINE
8
Black
10
195.716
20
-195.086
11
195.645
21
-195.157
0
LINE
8
Black
10
195.645
20
-195.157
11
195.716
21
-195.229
0
LINE
8
Black
10
195.716
20
-195.229
11
195.788
21
-195.157
0
LINE
8
Black
10
195.788
20
-195.157
11
195.716
21
-195.086
0
LINE
8
Black
10
195.716
20
-195.086
11
195.716
21
-195.229
0
LINE
8
Black
10
197.074
20
-196.514
11
196.931
21
-196.586
0
LINE
8
Black
10
196.931
20
-196.586
11
196.645
21
-196.586
0
LINE
8
Black
10
196.645
20
-196.586
11
196.502
21
-196.514
0
LINE
8
Black
10
196.502
20
-196.514
11
196.431
21
-196.443
0
LINE
8
Black
10
196.431
20
-196.443
11
196.359
21
-196.3
0
LINE
8
Black
10
196.359
20
-196.3
11
196.359
21
-195.871
0
LINE
8
Black
10
196.359
20
-195.871
11
196.431
21
-195.729
0
LINE
8
Black
10
196.431
20
-195.729
11
196.502
21
-195.657
0
LINE
8
Black
10
196.502
20
-195.657
11
196.645
21
-195.586
0
LINE
8
Black
10
196.645
20
-195.586
11
196.931
21
-195.586
0
LINE
8
Black
10
196.931
20
-195.586
11
197.074
21
-195.657
0
LINE
8
Black
10
198.359
20
-196.586
11
198.359
21
-195.8
0
LINE
8
Black
10
198.359
20
-195.8
11
198.288
21
-195.657
0
LINE
8
Black
10
198.288
20
-195.657
11
198.145
21
-195.586
0
LINE
8
Black
10
198.145
20
-195.586
11
197.859
21
-195.586
0
LINE
8
Black
10
197.859
20
-195.586
11
197.716
21
-195.657
0
LINE
8
Black
10
198.359
20
-196.514
11
198.216
21
-196.586
0
LINE
8
Black
10
198.216
20
-196.586
11
197.859
21
-196.586
0
LINE
8
Black
10
197.859
20
-196.586
11
197.716
21
-196.514
0
LINE
8
Black
10
197.716
20
-196.514
11
197.645
21
-196.371
0
LINE
8
Black
10
197.645
20
-196.371
11
197.645
21
-196.229
0
LINE
8
Black
10
197.645
20
-196.229
11
197.716
21
-196.086
0
LINE
8
Black
10
197.716
20
-196.086
11
197.859
21
-196.014
0
LINE
8
Black
10
197.859
20
-196.014
11
198.216
21
-196.014
0
LINE
8
Black
10
198.216
20
-196.014
11
198.359
21
-195.943
0
LINE
8
Black
10
199.716
20
-196.586
11
199.716
21
-195.086
0
LINE
8
Black
10
199.716
20
-196.514
11
199.574
21
-196.586
0
LINE
8
Black
10
199.574
20
-196.586
11
199.288
21
-196.586
0
LINE
8
Black
10
199.288
20
-196.586
11
199.145
21
-196.514
0
LINE
8
Black
10
199.145
20
-196.514
11
199.074
21
-196.443
0
LINE
8
Black
10
199.074
20
-196.443
11
199.002
21
-196.3
0
LINE
8
Black
10
199.002
20
-196.3
11
199.002
21
-195.871
0
LINE
8
Black
10
199.002
20
-195.871
11
199.074
21
-195.729
0
LINE
8
Black
10
199.074
20
-195.729
11
199.145
21
-195.657
0
LINE
8
Black
10
199.145
20
-195.657
11
199.288
21
-195.586
0
LINE
8
Black
10
199.288
20
-195.586
11
199.574
21
-195.586
0
LINE
8
Black
10
199.574
20
-195.586
11
199.716
21
-195.657
0
LINE
8
Black
10
202.216
20
-195.586
11
202.216
21
-196.586
0
LINE
8
Black
10
201.859
20
-195.014
11
201.502
21
-196.086
0
LINE
8
Black
10
201.502
20
-196.086
11
202.431
21
-196.086
0
LINE
8
Black
10
203.002
20
-196.443
11
203.074
21
-196.514
0
LINE
8
Black
10
203.074
20
-196.514
11
203.002
21
-196.586
0
LINE
8
Black
10
203.002
20
-196.586
11
202.931
21
-196.514
0
LINE
8
Black
10
202.931
20
-196.514
11
203.002
21
-196.443
0
LINE
8
Black
10
203.002
20
-196.443
11
203.002
21
-196.586
0
LINE
8
Black
10
204.002
20
-195.086
11
204.145
21
-195.086
0
LINE
8
Black
10
204.145
20
-195.086
11
204.288
21
-195.157
0
LINE
8
Black
10
204.288
20
-195.157
11
204.359
21
-195.229
0
LINE
8
Black
10
204.359
20
-195.229
11
204.431
21
-195.371
0
LINE
8
Black
10
204.431
20
-195.371
11
204.502
21
-195.657
0
LINE
8
Black
10
204.502
20
-195.657
11
204.502
21
-196.014
0
LINE
8
Black
10
204.502
20
-196.014
11
204.431
21
-196.3
0
LINE
8
Black
10
204.431
20
-196.3
11
204.359
21
-196.443
0
LINE
8
Black
10
204.359
20
-196.443
11
204.288
21
-196.514
0
LINE
8
Black
10
204.288
20
-196.514
11
204.145
21
-196.586
0
LINE
8
Black
10
204.145
20
-196.586
11
204.002
21
-196.586
0
LINE
8
Black
10
204.002
20
-196.586
11
203.859
21
-196.514
0
LINE
8
Black
10
203.859
20
-196.514
11
203.788
21
-196.443
0
LINE
8
Black
10
203.788
20
-196.443
11
203.716
21
-196.3
0
LINE
8
Black
10
203.716
20
-196.3
11
203.645
21
-196.014
0
LINE
8
Black
10
203.645
20
-196.014
11
203.645
21
-195.657
0
LINE
8
Black
10
203.645
20
-195.657
11
203.716
21
-195.371
0
LINE
8
Black
10
203.716
20
-195.371
11
203.788
21
-195.229
0
LINE
8
Black
10
203.788
20
-195.229
11
203.859
21
-195.157
0
LINE
8
Black
10
203.859
20
-195.157
11
204.002
21
-195.086
0
LINE
8
Black
10
205.145
20
-196.443
11
205.216
21
-196.514
0
LINE
8
Black
10
205.216
20
-196.514
11
205.145
21
-196.586
0
LINE
8
Black
10
205.145
20
-196.586
11
205.074
21
-196.514
0
LINE
8
Black
10
205.074
20
-196.514
11
205.145
21
-196.443
0
LINE
8
Black
10
205.145
20
-196.443
11
205.145
21
-196.586
0
LINE
8
Black
10
205.788
20
-195.229
11
205.859
21
-195.157
0
LINE
8
Black
10
205.859
20
-195.157
11
206.002
21
-195.086
0
LINE
8
Black
10
206.002
20
-195.086
11
206.359
21
-195.086
0
LINE
8
Black
10
206.359
20
-195.086
11
206.502
21
-195.157
0
LINE
8
Black
10
206.502
20
-195.157
11
206.574
21
-195.229
0
LINE
8
Black
10
206.574
20
-195.229
11
206.645
21
-195.371
0
LINE
8
Black
10
206.645
20
-195.371
11
206.645
21
-195.514
0
LINE
8
Black
10
206.645
20
-195.514
11
206.574
21
-195.729
0
LINE
8
Black
10
206.574
20
-195.729
11
205.716
21
-196.586
0
LINE
8
Black
10
205.716
20
-196.586
11
206.645
21
-196.586
0
LINE
8
Black
10
207.288
20
-196.014
11
208.431
21
-196.014
0
LINE
8
Black
10
207.859
20
-196.586
11
207.859
21
-195.443
0
LINE
8
Black
10
209.788
20
-196.586
11
209.788
21
-195.086
0
LINE
8
Black
10
209.788
20
-196.514
11
209.645
21
-196.586
0
LINE
8
Black
10
209.645
20
-196.586
11
209.359
21
-196.586
0
LINE
8
Black
10
209.359
20
-196.586
11
209.216
21
-196.514
0
LINE
8
Black
10
209.216
20
-196.514
11
209.145
21
-196.443
0
LINE
8
Black
10
209.145
20
-196.443
11
209.074
21
-196.3
0
LINE
8
Black
10
209.074
20
-196.3
11
209.074
21
-195.871
0
LINE
8
Black
10
209.074
20
-195.871
11
209.145
21
-195.729
0
LINE
8
Black
10
209.145
20
-195.729
11
209.216
21
-195.657
0
LINE
8
Black
10
209.216
20
-195.657
11
209.359
21
-195.586
0
LINE
8
Black
10
209.359
20
-195.586
11
209.645
21
-195.586
0
LINE
8
Black
10
209.645
20
-195.586
11
209.788
21
-195.657
0
LINE
8
Black
10
210.288
20
-195.586
11
210.859
21
-195.586
0
LINE
8
Black
10
210.502
20
-196.586
11
210.502
21
-195.3
0
LINE
8
Black
10
210.502
20
-195.3
11
210.574
21
-195.157
0
LINE
8
Black
10
210.574
20
-195.157
11
210.716
21
-195.086
0
LINE
8
Black
10
210.716
20
-195.086
11
210.859
21
-195.086
0
LINE
8
Black
10
211.288
20
-196.514
11
211.431
21
-196.586
0
LINE
8
Black
10
211.431
20
-196.586
11
211.716
21
-196.586
0
LINE
8
Black
10
211.716
20
-196.586
11
211.859
21
-196.514
0
LINE
8
Black
10
211.859
20
-196.514
11
211.931
21
-196.371
0
LINE
8
Black
10
211.931
20
-196.371
11
211.931
21
-196.3
0
LINE
8
Black
10
211.931
20
-196.3
11
211.859
21
-196.157
0
LINE
8
Black
10
211.859
20
-196.157
11
211.716
21
-196.086
0
LINE
8
Black
10
211.716
20
-196.086
11
211.502
21
-196.086
0
LINE
8
Black
10
211.502
20
-196.086
11
211.359
21
-196.014
0
LINE
8
Black
10
211.359
20
-196.014
11
211.288
21
-195.871
0
LINE
8
Black
10
211.288
20
-195.871
11
211.288
21
-195.8
0
LINE
8
Black
10
211.288
20
-195.8
11
211.359
21
-195.657
0
LINE
8
Black
10
211.359
20
-195.657
11
211.502
21
-195.586
0
LINE
8
Black
10
211.502
20
-195.586
11
211.716
21
-195.586
0
LINE
8
Black
10
211.716
20
-195.586
11
211.859
21
-195.657
0
LINE
8
Black
10
213.216
20
-195.586
11
213.216
21
-196.8
0
LINE
8
Black
10
213.216
20
-196.8
11
213.145
21
-196.943
0
LINE
8
Black
10
213.145
20
-196.943
11
213.074
21
-197.014
0
LINE
8
Black
10
213.074
20
-197.014
11
212.931
21
-197.086
0
LINE
8
Black
10
212.931
20
-197.086
11
212.716
21
-197.086
0
LINE
8
Black
10
212.716
20
-197.086
11
212.574
21
-197.014
0
LINE
8
Black
10
213.216
20
-196.514
11
213.074
21
-196.586
0
LINE
8
Black
10
213.074
20
-196.586
11
212.788
21
-196.586
0
LINE
8
Black
10
212.788
20
-196.586
11
212.645
21
-196.514
0
LINE
8
Black
10
212.645
20
-196.514
11
212.574
21
-196.443
0
LINE
8
Black
10
212.574
20
-196.443
11
212.502
21
-196.3
0
LINE
8
Black
10
212.502
20
-196.3
11
212.502
21
-195.871
0
LINE
8
Black
10
212.502
20
-195.871
11
212.574
21
-195.729
0
LINE
8
Black
10
212.574
20
-195.729
11
212.645
21
-195.657
0
LINE
8
Black
10
212.645
20
-195.657
11
212.788
21
-195.586
0
LINE
8
Black
10
212.788
20
-195.586
11
213.074
21
-195.586
0
LINE
8
Black
10
213.074
20
-195.586
11
213.216
21
-195.657
0
LINE
8
Black
10
214.716
20
-196.586
11
213.859
21
-196.586
0
LINE
8
Black
10
214.288
20
-196.586
11
214.288
21
-195.086
0
LINE
8
Black
10
214.288
20
-195.086
11
214.145
21
-195.3
0
LINE
8
Black
10
214.145
20
-195.3
11
214.002
21
-195.443
0
LINE
8
Black
10
214.002
20
-195.443
11
213.859
21
-195.514
0
LINE
8
Black
10
215.359
20
-196.014
11
216.502
21
-196.014
0
LINE
8
Black
10
217.145
20
-196.514
11
217.288
21
-196.586
0
LINE
8
Black
10
217.288
20
-196.586
11
217.574
21
-196.586
0
LINE
8
Black
10
217.574
20
-196.586
11
217.716
21
-196.514
0
LINE
8
Black
10
217.716
20
-196.514
11
217.788
21
-196.371
0
LINE
8
Black
10
217.788
20
-196.371
11
217.788
21
-196.3
0
LINE
8
Black
10
217.788
20
-196.3
11
217.716
21
-196.157
0
LINE
8
Black
10
217.716
20
-196.157
11
217.574
21
-196.086
0
LINE
8
Black
10
217.574
20
-196.086
11
217.359
21
-196.086
0
LINE
8
Black
10
217.359
20
-196.086
11
217.216
21
-196.014
0
LINE
8
Black
10
217.216
20
-196.014
11
217.145
21
-195.871
0
LINE
8
Black
10
217.145
20
-195.871
11
217.145
21
-195.8
0
LINE
8
Black
10
217.145
20
-195.8
11
217.216
21
-195.657
0
LINE
8
Black
10
217.216
20
-195.657
11
217.359
21
-195.586
0
LINE
8
Black
10
217.359
20
-195.586
11
217.574
21
-195.586
0
LINE
8
Black
10
217.574
20
-195.586
11
217.716
21
-195.657
0
LINE
8
Black
10
218.216
20
-195.586
11
218.788
21
-195.586
0
LINE
8
Black
10
218.431
20
-195.086
11
218.431
21
-196.371
0
LINE
8
Black
10
218.431
20
-196.371
11
218.502
21
-196.514
0
LINE
8
Black
10
218.502
20
-196.514
11
218.645
21
-196.586
0
LINE
8
Black
10
218.645
20
-196.586
11
218.788
21
-196.586
0
LINE
8
Black
10
219.931
20
-196.586
11
219.931
21
-195.8
0
LINE
8
Black
10
219.931
20
-195.8
11
219.859
21
-195.657
0
LINE
8
Black
10
219.859
20
-195.657
11
219.716
21
-195.586
0
LINE
8
Black
10
219.716
20
-195.586
11
219.431
21
-195.586
0
LINE
8
Black
10
219.431
20
-195.586
11
219.288
21
-195.657
0
LINE
8
Black
10
219.931
20
-196.514
11
219.788
21
-196.586
0
LINE
8
Black
10
219.788
20
-196.586
11
219.431
21
-196.586
0
LINE
8
Black
10
219.431
20
-196.586
11
219.288
21
-196.514
0
LINE
8
Black
10
219.288
20
-196.514
11
219.216
21
-196.371
0
LINE
8
Black
10
219.216
20
-196.371
11
219.216
21
-196.229
0
LINE
8
Black
10
219.216
20
-196.229
11
219.288
21
-196.086
0
LINE
8
Black
10
219.288
20
-196.086
11
219.431
21
-196.014
0
LINE
8
Black
10
219.431
20
-196.014
11
219.788
21
-196.014
0
LINE
8
Black
10
219.788
20
-196.014
11
219.931
21
-195.943
0
LINE
8
Black
10
220.645
20
-196.586
11
220.645
21
-195.086
0
LINE
8
Black
10
220.645
20
-195.657
11
220.788
21
-195.586
0
LINE
8
Black
10
220.788
20
-195.586
11
221.074
21
-195.586
0
LINE
8
Black
10
221.074
20
-195.586
11
221.216
21
-195.657
0
LINE
8
Black
10
221.216
20
-195.657
11
221.288
21
-195.729
0
LINE
8
Black
10
221.288
20
-195.729
11
221.359
21
-195.871
0
LINE
8
Black
10
221.359
20
-195.871
11
221.359
21
-196.3
0
LINE
8
Black
10
221.359
20
-196.3
11
221.288
21
-196.443
0
LINE
8
Black
10
221.288
20
-196.443
11
221.216
21
-196.514
0
LINE
8
Black
10
221.216
20
-196.514
11
221.074
21
-196.586
0
LINE
8
Black
10
221.074
20
-196.586
11
220.788
21
-196.586
0
LINE
8
Black
10
220.788
20
-196.586
11
220.645
21
-196.514
0
LINE
8
Black
10
222.216
20
-196.586
11
222.074
21
-196.514
0
LINE
8
Black
10
222.074
20
-196.514
11
222.002
21
-196.371
0
LINE
8
Black
10
222.002
20
-196.371
11
222.002
21
-195.086
0
LINE
8
Black
10
223.359
20
-196.514
11
223.216
21
-196.586
0
LINE
8
Black
10
223.216
20
-196.586
11
222.931
21
-196.586
0
LINE
8
Black
10
222.931
20
-196.586
11
222.788
21
-196.514
0
LINE
8
Black
10
222.788
20
-196.514
11
222.716
21
-196.371
0
LINE
8
Black
10
222.716
20
-196.371
11
222.716
21
-195.8
0
LINE
8
Black
10
222.716
20
-195.8
11
222.788
21
-195.657
0
LINE
8
Black
10
222.788
20
-195.657
11
222.931
21
-195.586
0
LINE
8
Black
10
222.931
20
-195.586
11
223.216
21
-195.586
0
LINE
8
Black
10
223.216
20
-195.586
11
223.359
21
-195.657
0
LINE
8
Black
10
223.359
20
-195.657
11
223.431
21
-195.8
0
LINE
8
Black
10
223.431
20
-195.8
11
223.431
21
-195.943
0
LINE
8
Black
10
223.431
20
-195.943
11
222.716
21
-196.086
0
LINE
8
Black
10
177.002
20
-191.507
11
285.002
21
-191.507
0
LINE
8
Black
10
264.216
20
-193.786
11
263.716
21
-193.071
0
LINE
8
Black
10
263.359
20
-193.786
11
263.359
21
-192.286
0
LINE
8
Black
10
263.359
20
-192.286
11
263.931
21
-192.286
0
LINE
8
Black
10
263.931
20
-192.286
11
264.074
21
-192.357
0
LINE
8
Black
10
264.074
20
-192.357
11
264.145
21
-192.429
0
LINE
8
Black
10
264.145
20
-192.429
11
264.216
21
-192.571
0
LINE
8
Black
10
264.216
20
-192.571
11
264.216
21
-192.786
0
LINE
8
Black
10
264.216
20
-192.786
11
264.145
21
-192.929
0
LINE
8
Black
10
264.145
20
-192.929
11
264.074
21
-193
0
LINE
8
Black
10
264.074
20
-193
11
263.931
21
-193.071
0
LINE
8
Black
10
263.931
20
-193.071
11
263.359
21
-193.071
0
LINE
8
Black
10
265.431
20
-193.714
11
265.288
21
-193.786
0
LINE
8
Black
10
265.288
20
-193.786
11
265.002
21
-193.786
0
LINE
8
Black
10
265.002
20
-193.786
11
264.859
21
-193.714
0
LINE
8
Black
10
264.859
20
-193.714
11
264.788
21
-193.571
0
LINE
8
Black
10
264.788
20
-193.571
11
264.788
21
-193
0
LINE
8
Black
10
264.788
20
-193
11
264.859
21
-192.857
0
LINE
8
Black
10
264.859
20
-192.857
11
265.002
21
-192.786
0
LINE
8
Black
10
265.002
20
-192.786
11
265.288
21
-192.786
0
LINE
8
Black
10
265.288
20
-192.786
11
265.431
21
-192.857
0
LINE
8
Black
10
265.431
20
-192.857
11
265.502
21
-193
0
LINE
8
Black
10
265.502
20
-193
11
265.502
21
-193.143
0
LINE
8
Black
10
265.502
20
-193.143
11
264.788
21
-193.286
0
LINE
8
Black
10
266.002
20
-192.786
11
266.359
21
-193.786
0
LINE
8
Black
10
266.359
20
-193.786
11
266.716
21
-192.786
0
LINE
8
Black
10
267.288
20
-193.643
11
267.359
21
-193.714
0
LINE
8
Black
10
267.359
20
-193.714
11
267.288
21
-193.786
0
LINE
8
Black
10
267.288
20
-193.786
11
267.216
21
-193.714
0
LINE
8
Black
10
267.216
20
-193.714
11
267.288
21
-193.643
0
LINE
8
Black
10
267.288
20
-193.643
11
267.288
21
-193.786
0
LINE
8
Black
10
267.288
20
-192.857
11
267.359
21
-192.929
0
LINE
8
Black
10
267.359
20
-192.929
11
267.288
21
-193
0
LINE
8
Black
10
267.288
20
-193
11
267.216
21
-192.929
0
LINE
8
Black
10
267.216
20
-192.929
11
267.288
21
-192.857
0
LINE
8
Black
10
267.288
20
-192.857
11
267.288
21
-193
0
LINE
8
Black
10
269.431
20
-192.286
11
269.574
21
-192.286
0
LINE
8
Black
10
269.574
20
-192.286
11
269.716
21
-192.357
0
LINE
8
Black
10
269.716
20
-192.357
11
269.788
21
-192.429
0
LINE
8
Black
10
269.788
20
-192.429
11
269.859
21
-192.571
0
LINE
8
Black
10
269.859
20
-192.571
11
269.931
21
-192.857
0
LINE
8
Black
10
269.931
20
-192.857
11
269.931
21
-193.214
0
LINE
8
Black
10
269.931
20
-193.214
11
269.859
21
-193.5
0
LINE
8
Black
10
269.859
20
-193.5
11
269.788
21
-193.643
0
LINE
8
Black
10
269.788
20
-193.643
11
269.716
21
-193.714
0
LINE
8
Black
10
269.716
20
-193.714
11
269.574
21
-193.786
0
LINE
8
Black
10
269.574
20
-193.786
11
269.431
21
-193.786
0
LINE
8
Black
10
269.431
20
-193.786
11
269.288
21
-193.714
0
LINE
8
Black
10
269.288
20
-193.714
11
269.216
21
-193.643
0
LINE
8
Black
10
269.216
20
-193.643
11
269.145
21
-193.5
0
LINE
8
Black
10
269.145
20
-193.5
11
269.074
21
-193.214
0
LINE
8
Black
10
269.074
20
-193.214
11
269.074
21
-192.857
0
LINE
8
Black
10
269.074
20
-192.857
11
269.145
21
-192.571
0
LINE
8
Black
10
269.145
20
-192.571
11
269.216
21
-192.429
0
LINE
8
Black
10
269.216
20
-192.429
11
269.288
21
-192.357
0
LINE
8
Black
10
269.288
20
-192.357
11
269.431
21
-192.286
0
LINE
8
Black
10
270.574
20
-193.643
11
270.645
21
-193.714
0
LINE
8
Black
10
270.645
20
-193.714
11
270.574
21
-193.786
0
LINE
8
Black
10
270.574
20
-193.786
11
270.502
21
-193.714
0
LINE
8
Black
10
270.502
20
-193.714
11
270.574
21
-193.643
0
LINE
8
Black
10
270.574
20
-193.643
11
270.574
21
-193.786
0
LINE
8
Black
10
272.074
20
-193.786
11
271.216
21
-193.786
0
LINE
8
Black
10
271.645
20
-193.786
11
271.645
21
-192.286
0
LINE
8
Black
10
271.645
20
-192.286
11
271.502
21
-192.5
0
LINE
8
Black
10
271.502
20
-192.5
11
271.359
21
-192.643
0
LINE
8
Black
10
271.359
20
-192.643
11
271.216
21
-192.714
0
LINE
8
Black
10
178.288
20
-193.714
11
178.502
21
-193.786
0
LINE
8
Black
10
178.502
20
-193.786
11
178.859
21
-193.786
0
LINE
8
Black
10
178.859
20
-193.786
11
179.002
21
-193.714
0
LINE
8
Black
10
179.002
20
-193.714
11
179.074
21
-193.643
0
LINE
8
Black
10
179.074
20
-193.643
11
179.145
21
-193.5
0
LINE
8
Black
10
179.145
20
-193.5
11
179.145
21
-193.357
0
LINE
8
Black
10
179.145
20
-193.357
11
179.074
21
-193.214
0
LINE
8
Black
10
179.074
20
-193.214
11
179.002
21
-193.143
0
LINE
8
Black
10
179.002
20
-193.143
11
178.859
21
-193.071
0
LINE
8
Black
10
178.859
20
-193.071
11
178.574
21
-193
0
LINE
8
Black
10
178.574
20
-193
11
178.431
21
-192.929
0
LINE
8
Black
10
178.431
20
-192.929
11
178.359
21
-192.857
0
LINE
8
Black
10
178.359
20
-192.857
11
178.288
21
-192.714
0
LINE
8
Black
10
178.288
20
-192.714
11
178.288
21
-192.571
0
LINE
8
Black
10
178.288
20
-192.571
11
178.359
21
-192.429
0
LINE
8
Black
10
178.359
20
-192.429
11
178.431
21
-192.357
0
LINE
8
Black
10
178.431
20
-192.357
11
178.574
21
-192.286
0
LINE
8
Black
10
178.574
20
-192.286
11
178.931
21
-192.286
0
LINE
8
Black
10
178.931
20
-192.286
11
179.145
21
-192.357
0
LINE
8
Black
10
179.788
20
-193.786
11
179.788
21
-192.786
0
LINE
8
Black
10
179.788
20
-192.286
11
179.716
21
-192.357
0
LINE
8
Black
10
179.716
20
-192.357
11
179.788
21
-192.429
0
LINE
8
Black
10
179.788
20
-192.429
11
179.859
21
-192.357
0
LINE
8
Black
10
179.859
20
-192.357
11
179.788
21
-192.286
0
LINE
8
Black
10
179.788
20
-192.286
11
179.788
21
-192.429
0
LINE
8
Black
10
180.359
20
-192.786
11
181.145
21
-192.786
0
LINE
8
Black
10
181.145
20
-192.786
11
180.359
21
-193.786
0
LINE
8
Black
10
180.359
20
-193.786
11
181.145
21
-193.786
0
LINE
8
Black
10
182.288
20
-193.714
11
182.145
21
-193.786
0
LINE
8
Black
10
182.145
20
-193.786
11
181.859
21
-193.786
0
LINE
8
Black
10
181.859
20
-193.786
11
181.716
21
-193.714
0
LINE
8
Black
10
181.716
20
-193.714
11
181.645
21
-193.571
0
LINE
8
Black
10
181.645
20
-193.571
11
181.645
21
-193
0
LINE
8
Black
10
181.645
20
-193
11
181.716
21
-192.857
0
LINE
8
Black
10
181.716
20
-192.857
11
181.859
21
-192.786
0
LINE
8
Black
10
181.859
20
-192.786
11
182.145
21
-192.786
0
LINE
8
Black
10
182.145
20
-192.786
11
182.288
21
-192.857
0
LINE
8
Black
10
182.288
20
-192.857
11
182.359
21
-193
0
LINE
8
Black
10
182.359
20
-193
11
182.359
21
-193.143
0
LINE
8
Black
10
182.359
20
-193.143
11
181.645
21
-193.286
0
LINE
8
Black
10
183.002
20
-193.643
11
183.074
21
-193.714
0
LINE
8
Black
10
183.074
20
-193.714
11
183.002
21
-193.786
0
LINE
8
Black
10
183.002
20
-193.786
11
182.931
21
-193.714
0
LINE
8
Black
10
182.931
20
-193.714
11
183.002
21
-193.643
0
LINE
8
Black
10
183.002
20
-193.643
11
183.002
21
-193.786
0
LINE
8
Black
10
183.002
20
-192.857
11
183.074
21
-192.929
0
LINE
8
Black
10
183.074
20
-192.929
11
183.002
21
-193
0
LINE
8
Black
10
183.002
20
-193
11
182.931
21
-192.929
0
LINE
8
Black
10
182.931
20
-192.929
11
183.002
21
-192.857
0
LINE
8
Black
10
183.002
20
-192.857
11
183.002
21
-193
0
LINE
8
Black
10
184.788
20
-193.357
11
185.502
21
-193.357
0
LINE
8
Black
10
184.645
20
-193.786
11
185.145
21
-192.286
0
LINE
8
Black
10
185.145
20
-192.286
11
185.645
21
-193.786
0
LINE
8
Black
10
186.788
20
-192.786
11
186.788
21
-193.786
0
LINE
8
Black
10
186.431
20
-192.214
11
186.074
21
-193.286
0
LINE
8
Black
10
186.074
20
-193.286
11
187.002
21
-193.286
0
LINE
8
Black
10
263.359
20
-196.586
11
263.359
21
-195.086
0
LINE
8
Black
10
264.716
20
-196.586
11
264.716
21
-195.086
0
LINE
8
Black
10
264.716
20
-196.514
11
264.574
21
-196.586
0
LINE
8
Black
10
264.574
20
-196.586
11
264.288
21
-196.586
0
LINE
8
Black
10
264.288
20
-196.586
11
264.145
21
-196.514
0
LINE
8
Black
10
264.145
20
-196.514
11
264.074
21
-196.443
0
LINE
8
Black
10
264.074
20
-196.443
11
264.002
21
-196.3
0
LINE
8
Black
10
264.002
20
-196.3
11
264.002
21
-195.871
0
LINE
8
Black
10
264.002
20
-195.871
11
264.074
21
-195.729
0
LINE
8
Black
10
264.074
20
-195.729
11
264.145
21
-195.657
0
LINE
8
Black
10
264.145
20
-195.657
11
264.288
21
-195.586
0
LINE
8
Black
10
264.288
20
-195.586
11
264.574
21
-195.586
0
LINE
8
Black
10
264.574
20
-195.586
11
264.716
21
-195.657
0
LINE
8
Black
10
265.431
20
-196.443
11
265.502
21
-196.514
0
LINE
8
Black
10
265.502
20
-196.514
11
265.431
21
-196.586
0
LINE
8
Black
10
265.431
20
-196.586
11
265.359
21
-196.514
0
LINE
8
Black
10
265.359
20
-196.514
11
265.431
21
-196.443
0
LINE
8
Black
10
265.431
20
-196.443
11
265.431
21
-196.586
0
LINE
8
Black
10
265.431
20
-195.657
11
265.502
21
-195.729
0
LINE
8
Black
10
265.502
20
-195.729
11
265.431
21
-195.8
0
LINE
8
Black
10
265.431
20
-195.8
11
265.359
21
-195.729
0
LINE
8
Black
10
265.359
20
-195.729
11
265.431
21
-195.657
0
LINE
8
Black
10
265.431
20
-195.657
11
265.431
21
-195.8
0
LINE
8
Black
10
268.074
20
-196.586
11
267.216
21
-196.586
0
LINE
8
Black
10
267.645
20
-196.586
11
267.645
21
-195.086
0
LINE
8
Black
10
267.645
20
-195.086
11
267.502
21
-195.3
0
LINE
8
Black
10
267.502
20
-195.3
11
267.359
21
-195.443
0
LINE
8
Black
10
267.359
20
-195.443
11
267.216
21
-195.514
0
LINE
8
Black
10
269.788
20
-195.014
11
268.502
21
-196.943
0
LINE
8
Black
10
271.074
20
-196.586
11
270.216
21
-196.586
0
LINE
8
Black
10
270.645
20
-196.586
11
270.645
21
-195.086
0
LINE
8
Black
10
270.645
20
-195.086
11
270.502
21
-195.3
0
LINE
8
Black
10
270.502
20
-195.3
11
270.359
21
-195.443
0
LINE
8
Black
10
270.359
20
-195.443
11
270.216
21
-195.514
0
LINE
8
Black
10
177.002
20
-187.507
11
285.002
21
-187.507
0
LINE
8
Black
10
178.455
20
-188.212
11
179.597
21
-188.212
0
LINE
8
Black
10
178.776
20
-190.212
11
179.026
21
-188.212
0
LINE
8
Black
10
180.014
20
-190.212
11
180.181
21
-188.879
0
LINE
8
Black
10
180.264
20
-188.212
11
180.157
21
-188.307
0
LINE
8
Black
10
180.157
20
-188.307
11
180.24
21
-188.402
0
LINE
8
Black
10
180.24
20
-188.402
11
180.347
21
-188.307
0
LINE
8
Black
10
180.347
20
-188.307
11
180.264
21
-188.212
0
LINE
8
Black
10
180.264
20
-188.212
11
180.24
21
-188.402
0
LINE
8
Black
10
180.847
20
-188.879
11
181.609
21
-188.879
0
LINE
8
Black
10
181.216
20
-188.212
11
181.002
21
-189.926
0
LINE
8
Black
10
181.002
20
-189.926
11
181.074
21
-190.117
0
LINE
8
Black
10
181.074
20
-190.117
11
181.252
21
-190.212
0
LINE
8
Black
10
181.252
20
-190.212
11
181.443
21
-190.212
0
LINE
8
Black
10
182.395
20
-190.212
11
182.216
21
-190.117
0
LINE
8
Black
10
182.216
20
-190.117
11
182.145
21
-189.926
0
LINE
8
Black
10
182.145
20
-189.926
11
182.359
21
-188.212
0
LINE
8
Black
10
183.931
20
-190.117
11
183.728
21
-190.212
0
LINE
8
Black
10
183.728
20
-190.212
11
183.347
21
-190.212
0
LINE
8
Black
10
183.347
20
-190.212
11
183.169
21
-190.117
0
LINE
8
Black
10
183.169
20
-190.117
11
183.097
21
-189.926
0
LINE
8
Black
10
183.097
20
-189.926
11
183.193
21
-189.164
0
LINE
8
Black
10
183.193
20
-189.164
11
183.312
21
-188.974
0
LINE
8
Black
10
183.312
20
-188.974
11
183.514
21
-188.879
0
LINE
8
Black
10
183.514
20
-188.879
11
183.895
21
-188.879
0
LINE
8
Black
10
183.895
20
-188.879
11
184.074
21
-188.974
0
LINE
8
Black
10
184.074
20
-188.974
11
184.145
21
-189.164
0
LINE
8
Black
10
184.145
20
-189.164
11
184.121
21
-189.355
0
LINE
8
Black
10
184.121
20
-189.355
11
183.145
21
-189.545
0
LINE
8
Black
10
184.895
20
-190.021
11
184.978
21
-190.117
0
LINE
8
Black
10
184.978
20
-190.117
11
184.871
21
-190.212
0
LINE
8
Black
10
184.871
20
-190.212
11
184.788
21
-190.117
0
LINE
8
Black
10
184.788
20
-190.117
11
184.895
21
-190.021
0
LINE
8
Black
10
184.895
20
-190.021
11
184.871
21
-190.212
0
LINE
8
Black
10
185.026
20
-188.974
11
185.109
21
-189.069
0
LINE
8
Black
10
185.109
20
-189.069
11
185.002
21
-189.164
0
LINE
8
Black
10
185.002
20
-189.164
11
184.919
21
-189.069
0
LINE
8
Black
10
184.919
20
-189.069
11
185.026
21
-188.974
0
LINE
8
Black
10
185.026
20
-188.974
11
185.002
21
-189.164
0
LINE
8
Black
10
187.347
20
-190.212
11
187.597
21
-188.212
0
LINE
8
Black
10
187.597
20
-188.212
11
188.086
21
-189.641
0
LINE
8
Black
10
188.086
20
-189.641
11
188.931
21
-188.212
0
LINE
8
Black
10
188.931
20
-188.212
11
188.681
21
-190.212
0
LINE
8
Black
10
190.49
20
-190.212
11
190.621
21
-189.164
0
LINE
8
Black
10
190.621
20
-189.164
11
190.55
21
-188.974
0
LINE
8
Black
10
190.55
20
-188.974
11
190.371
21
-188.879
0
LINE
8
Black
10
190.371
20
-188.879
11
189.99
21
-188.879
0
LINE
8
Black
10
189.99
20
-188.879
11
189.788
21
-188.974
0
LINE
8
Black
10
190.502
20
-190.117
11
190.3
21
-190.212
0
LINE
8
Black
10
190.3
20
-190.212
11
189.824
21
-190.212
0
LINE
8
Black
10
189.824
20
-190.212
11
189.645
21
-190.117
0
LINE
8
Black
10
189.645
20
-190.117
11
189.574
21
-189.926
0
LINE
8
Black
10
189.574
20
-189.926
11
189.597
21
-189.736
0
LINE
8
Black
10
189.597
20
-189.736
11
189.716
21
-189.545
0
LINE
8
Black
10
189.716
20
-189.545
11
189.919
21
-189.45
0
LINE
8
Black
10
189.919
20
-189.45
11
190.395
21
-189.45
0
LINE
8
Black
10
190.395
20
-189.45
11
190.597
21
-189.355
0
LINE
8
Black
10
191.443
20
-190.212
11
191.609
21
-188.879
0
LINE
8
Black
10
191.693
20
-188.212
11
191.586
21
-188.307
0
LINE
8
Black
10
191.586
20
-188.307
11
191.669
21
-188.402
0
LINE
8
Black
10
191.669
20
-188.402
11
191.776
21
-188.307
0
LINE
8
Black
10
191.776
20
-188.307
11
191.693
21
-188.212
0
LINE
8
Black
10
191.693
20
-188.212
11
191.669
21
-188.402
0
LINE
8
Black
10
192.562
20
-188.879
11
192.395
21
-190.212
0
LINE
8
Black
10
192.538
20
-189.069
11
192.645
21
-188.974
0
LINE
8
Black
10
192.645
20
-188.974
11
192.847
21
-188.879
0
LINE
8
Black
10
192.847
20
-188.879
11
193.133
21
-188.879
0
LINE
8
Black
10
193.133
20
-188.879
11
193.312
21
-188.974
0
LINE
8
Black
10
193.312
20
-188.974
11
193.383
21
-189.164
0
LINE
8
Black
10
193.383
20
-189.164
11
193.252
21
-190.212
0
LINE
8
Black
10
196.526
20
-189.164
11
196.8
21
-189.26
0
LINE
8
Black
10
196.8
20
-189.26
11
196.883
21
-189.355
0
LINE
8
Black
10
196.883
20
-189.355
11
196.955
21
-189.545
0
LINE
8
Black
10
196.955
20
-189.545
11
196.919
21
-189.831
0
LINE
8
Black
10
196.919
20
-189.831
11
196.8
21
-190.021
0
LINE
8
Black
10
196.8
20
-190.021
11
196.693
21
-190.117
0
LINE
8
Black
10
196.693
20
-190.117
11
196.49
21
-190.212
0
LINE
8
Black
10
196.49
20
-190.212
11
195.728
21
-190.212
0
LINE
8
Black
10
195.728
20
-190.212
11
195.978
21
-188.212
0
LINE
8
Black
10
195.978
20
-188.212
11
196.645
21
-188.212
0
LINE
8
Black
10
196.645
20
-188.212
11
196.824
21
-188.307
0
LINE
8
Black
10
196.824
20
-188.307
11
196.907
21
-188.402
0
LINE
8
Black
10
196.907
20
-188.402
11
196.978
21
-188.593
0
LINE
8
Black
10
196.978
20
-188.593
11
196.955
21
-188.783
0
LINE
8
Black
10
196.955
20
-188.783
11
196.836
21
-188.974
0
LINE
8
Black
10
196.836
20
-188.974
11
196.728
21
-189.069
0
LINE
8
Black
10
196.728
20
-189.069
11
196.526
21
-189.164
0
LINE
8
Black
10
196.526
20
-189.164
11
195.859
21
-189.164
0
LINE
8
Black
10
198.014
20
-190.212
11
197.836
21
-190.117
0
LINE
8
Black
10
197.836
20
-190.117
11
197.752
21
-190.021
0
LINE
8
Black
10
197.752
20
-190.021
11
197.681
21
-189.831
0
LINE
8
Black
10
197.681
20
-189.831
11
197.752
21
-189.26
0
LINE
8
Black
10
197.752
20
-189.26
11
197.871
21
-189.069
0
LINE
8
Black
10
197.871
20
-189.069
11
197.978
21
-188.974
0
LINE
8
Black
10
197.978
20
-188.974
11
198.181
21
-188.879
0
LINE
8
Black
10
198.181
20
-188.879
11
198.466
21
-188.879
0
LINE
8
Black
10
198.466
20
-188.879
11
198.645
21
-188.974
0
LINE
8
Black
10
198.645
20
-188.974
11
198.728
21
-189.069
0
LINE
8
Black
10
198.728
20
-189.069
11
198.8
21
-189.26
0
LINE
8
Black
10
198.8
20
-189.26
11
198.728
21
-189.831
0
LINE
8
Black
10
198.728
20
-189.831
11
198.609
21
-190.021
0
LINE
8
Black
10
198.609
20
-190.021
11
198.502
21
-190.117
0
LINE
8
Black
10
198.502
20
-190.117
11
198.3
21
-190.212
0
LINE
8
Black
10
198.3
20
-190.212
11
198.014
21
-190.212
0
LINE
8
Black
10
200.395
20
-190.212
11
200.526
21
-189.164
0
LINE
8
Black
10
200.526
20
-189.164
11
200.455
21
-188.974
0
LINE
8
Black
10
200.455
20
-188.974
11
200.276
21
-188.879
0
LINE
8
Black
10
200.276
20
-188.879
11
199.895
21
-188.879
0
LINE
8
Black
10
199.895
20
-188.879
11
199.693
21
-188.974
0
LINE
8
Black
10
200.407
20
-190.117
11
200.205
21
-190.212
0
LINE
8
Black
10
200.205
20
-190.212
11
199.728
21
-190.212
0
LINE
8
Black
10
199.728
20
-190.212
11
199.55
21
-190.117
0
LINE
8
Black
10
199.55
20
-190.117
11
199.478
21
-189.926
0
LINE
8
Black
10
199.478
20
-189.926
11
199.502
21
-189.736
0
LINE
8
Black
10
199.502
20
-189.736
11
199.621
21
-189.545
0
LINE
8
Black
10
199.621
20
-189.545
11
199.824
21
-189.45
0
LINE
8
Black
10
199.824
20
-189.45
11
200.3
21
-189.45
0
LINE
8
Black
10
200.3
20
-189.45
11
200.502
21
-189.355
0
LINE
8
Black
10
201.347
20
-190.212
11
201.514
21
-188.879
0
LINE
8
Black
10
201.466
20
-189.26
11
201.586
21
-189.069
0
LINE
8
Black
10
201.586
20
-189.069
11
201.693
21
-188.974
0
LINE
8
Black
10
201.693
20
-188.974
11
201.895
21
-188.879
0
LINE
8
Black
10
201.895
20
-188.879
11
202.086
21
-188.879
0
LINE
8
Black
10
203.443
20
-190.212
11
203.693
21
-188.212
0
LINE
8
Black
10
203.455
20
-190.117
11
203.252
21
-190.212
0
LINE
8
Black
10
203.252
20
-190.212
11
202.871
21
-190.212
0
LINE
8
Black
10
202.871
20
-190.212
11
202.693
21
-190.117
0
LINE
8
Black
10
202.693
20
-190.117
11
202.609
21
-190.021
0
LINE
8
Black
10
202.609
20
-190.021
11
202.538
21
-189.831
0
LINE
8
Black
10
202.538
20
-189.831
11
202.609
21
-189.26
0
LINE
8
Black
10
202.609
20
-189.26
11
202.728
21
-189.069
0
LINE
8
Black
10
202.728
20
-189.069
11
202.836
21
-188.974
0
LINE
8
Black
10
202.836
20
-188.974
11
203.038
21
-188.879
0
LINE
8
Black
10
203.038
20
-188.879
11
203.419
21
-188.879
0
LINE
8
Black
10
203.419
20
-188.879
11
203.597
21
-188.974
0
LINE
8
Black
10
178.859
20
-185.6
11
178.359
21
-185.6
0
LINE
8
Black
10
178.359
20
-186.386
11
178.359
21
-184.886
0
LINE
8
Black
10
178.359
20
-184.886
11
179.074
21
-184.886
0
LINE
8
Black
10
179.645
20
-186.386
11
179.645
21
-185.386
0
LINE
8
Black
10
179.645
20
-184.886
11
179.574
21
-184.957
0
LINE
8
Black
10
179.574
20
-184.957
11
179.645
21
-185.029
0
LINE
8
Black
10
179.645
20
-185.029
11
179.716
21
-184.957
0
LINE
8
Black
10
179.716
20
-184.957
11
179.645
21
-184.886
0
LINE
8
Black
10
179.645
20
-184.886
11
179.645
21
-185.029
0
LINE
8
Black
10
180.574
20
-186.386
11
180.431
21
-186.314
0
LINE
8
Black
10
180.431
20
-186.314
11
180.359
21
-186.171
0
LINE
8
Black
10
180.359
20
-186.171
11
180.359
21
-184.886
0
LINE
8
Black
10
181.716
20
-186.314
11
181.574
21
-186.386
0
LINE
8
Black
10
181.574
20
-186.386
11
181.288
21
-186.386
0
LINE
8
Black
10
181.288
20
-186.386
11
181.145
21
-186.314
0
LINE
8
Black
10
181.145
20
-186.314
11
181.074
21
-186.171
0
LINE
8
Black
10
181.074
20
-186.171
11
181.074
21
-185.6
0
LINE
8
Black
10
181.074
20
-185.6
11
181.145
21
-185.457
0
LINE
8
Black
10
181.145
20
-185.457
11
181.288
21
-185.386
0
LINE
8
Black
10
181.288
20
-185.386
11
181.574
21
-185.386
0
LINE
8
Black
10
181.574
20
-185.386
11
181.716
21
-185.457
0
LINE
8
Black
10
181.716
20
-185.457
11
181.788
21
-185.6
0
LINE
8
Black
10
181.788
20
-185.6
11
181.788
21
-185.743
0
LINE
8
Black
10
181.788
20
-185.743
11
181.074
21
-185.886
0
LINE
8
Black
10
182.431
20
-186.243
11
182.502
21
-186.314
0
LINE
8
Black
10
182.502
20
-186.314
11
182.431
21
-186.386
0
LINE
8
Black
10
182.431
20
-186.386
11
182.359
21
-186.314
0
LINE
8
Black
10
182.359
20
-186.314
11
182.431
21
-186.243
0
LINE
8
Black
10
182.431
20
-186.243
11
182.431
21
-186.386
0
LINE
8
Black
10
182.431
20
-185.457
11
182.502
21
-185.529
0
LINE
8
Black
10
182.502
20
-185.529
11
182.431
21
-185.6
0
LINE
8
Black
10
182.431
20
-185.6
11
182.359
21
-185.529
0
LINE
8
Black
10
182.359
20
-185.529
11
182.431
21
-185.457
0
LINE
8
Black
10
182.431
20
-185.457
11
182.431
21
-185.6
0
LINE
8
Black
10
184.288
20
-186.386
11
184.288
21
-185.386
0
LINE
8
Black
10
184.288
20
-185.529
11
184.359
21
-185.457
0
LINE
8
Black
10
184.359
20
-185.457
11
184.502
21
-185.386
0
LINE
8
Black
10
184.502
20
-185.386
11
184.716
21
-185.386
0
LINE
8
Black
10
184.716
20
-185.386
11
184.859
21
-185.457
0
LINE
8
Black
10
184.859
20
-185.457
11
184.931
21
-185.6
0
LINE
8
Black
10
184.931
20
-185.6
11
184.931
21
-186.386
0
LINE
8
Black
10
184.931
20
-185.6
11
185.002
21
-185.457
0
LINE
8
Black
10
185.002
20
-185.457
11
185.145
21
-185.386
0
LINE
8
Black
10
185.145
20
-185.386
11
185.359
21
-185.386
0
LINE
8
Black
10
185.359
20
-185.386
11
185.502
21
-185.457
0
LINE
8
Black
10
185.502
20
-185.457
11
185.574
21
-185.6
0
LINE
8
Black
10
185.574
20
-185.6
11
185.574
21
-186.386
0
LINE
8
Black
10
186.931
20
-186.386
11
186.931
21
-185.6
0
LINE
8
Black
10
186.931
20
-185.6
11
186.859
21
-185.457
0
LINE
8
Black
10
186.859
20
-185.457
11
186.716
21
-185.386
0
LINE
8
Black
10
186.716
20
-185.386
11
186.431
21
-185.386
0
LINE
8
Black
10
186.431
20
-185.386
11
186.288
21
-185.457
0
LINE
8
Black
10
186.931
20
-186.314
11
186.788
21
-186.386
0
LINE
8
Black
10
186.788
20
-186.386
11
186.431
21
-186.386
0
LINE
8
Black
10
186.431
20
-186.386
11
186.288
21
-186.314
0
LINE
8
Black
10
186.288
20
-186.314
11
186.216
21
-186.171
0
LINE
8
Black
10
186.216
20
-186.171
11
186.216
21
-186.029
0
LINE
8
Black
10
186.216
20
-186.029
11
186.288
21
-185.886
0
LINE
8
Black
10
186.288
20
-185.886
11
186.431
21
-185.814
0
LINE
8
Black
10
186.431
20
-185.814
11
186.788
21
-185.814
0
LINE
8
Black
10
186.788
20
-185.814
11
186.931
21
-185.743
0
LINE
8
Black
10
187.645
20
-186.386
11
187.645
21
-185.386
0
LINE
8
Black
10
187.645
20
-184.886
11
187.574
21
-184.957
0
LINE
8
Black
10
187.574
20
-184.957
11
187.645
21
-185.029
0
LINE
8
Black
10
187.645
20
-185.029
11
187.716
21
-184.957
0
LINE
8
Black
10
187.716
20
-184.957
11
187.645
21
-184.886
0
LINE
8
Black
10
187.645
20
-184.886
11
187.645
21
-185.029
0
LINE
8
Black
10
188.359
20
-185.386
11
188.359
21
-186.386
0
LINE
8
Black
10
188.359
20
-185.529
11
188.431
21
-185.457
0
LINE
8
Black
10
188.431
20
-185.457
11
188.574
21
-185.386
0
LINE
8
Black
10
188.574
20
-185.386
11
188.788
21
-185.386
0
LINE
8
Black
10
188.788
20
-185.386
11
188.931
21
-185.457
0
LINE
8
Black
10
188.931
20
-185.457
11
189.002
21
-185.6
0
LINE
8
Black
10
189.002
20
-185.6
11
189.002
21
-186.386
0
LINE
8
Black
10
189.716
20
-186.386
11
189.716
21
-184.886
0
LINE
8
Black
10
189.716
20
-185.457
11
189.859
21
-185.386
0
LINE
8
Black
10
189.859
20
-185.386
11
190.145
21
-185.386
0
LINE
8
Black
10
190.145
20
-185.386
11
190.288
21
-185.457
0
LINE
8
Black
10
190.288
20
-185.457
11
190.359
21
-185.529
0
LINE
8
Black
10
190.359
20
-185.529
11
190.431
21
-185.671
0
LINE
8
Black
10
190.431
20
-185.671
11
190.431
21
-186.1
0
LINE
8
Black
10
190.431
20
-186.1
11
190.359
21
-186.243
0
LINE
8
Black
10
190.359
20
-186.243
11
190.288
21
-186.314
0
LINE
8
Black
10
190.288
20
-186.314
11
190.145
21
-186.386
0
LINE
8
Black
10
190.145
20
-186.386
11
189.859
21
-186.386
0
LINE
8
Black
10
189.859
20
-186.386
11
189.716
21
-186.314
0
LINE
8
Black
10
191.288
20
-186.386
11
191.145
21
-186.314
0
LINE
8
Black
10
191.145
20
-186.314
11
191.074
21
-186.243
0
LINE
8
Black
10
191.074
20
-186.243
11
191.002
21
-186.1
0
LINE
8
Black
10
191.002
20
-186.1
11
191.002
21
-185.671
0
LINE
8
Black
10
191.002
20
-185.671
11
191.074
21
-185.529
0
LINE
8
Black
10
191.074
20
-185.529
11
191.145
21
-185.457
0
LINE
8
Black
10
191.145
20
-185.457
11
191.288
21
-185.386
0
LINE
8
Black
10
191.288
20
-185.386
11
191.502
21
-185.386
0
LINE
8
Black
10
191.502
20
-185.386
11
191.645
21
-185.457
0
LINE
8
Black
10
191.645
20
-185.457
11
191.716
21
-185.529
0
LINE
8
Black
10
191.716
20
-185.529
11
191.788
21
-185.671
0
LINE
8
Black
10
191.788
20
-185.671
11
191.788
21
-186.1
0
LINE
8
Black
10
191.788
20
-186.1
11
191.716
21
-186.243
0
LINE
8
Black
10
191.716
20
-186.243
11
191.645
21
-186.314
0
LINE
8
Black
10
191.645
20
-186.314
11
191.502
21
-186.386
0
LINE
8
Black
10
191.502
20
-186.386
11
191.288
21
-186.386
0
LINE
8
Black
10
193.074
20
-186.386
11
193.074
21
-185.6
0
LINE
8
Black
10
193.074
20
-185.6
11
193.002
21
-185.457
0
LINE
8
Black
10
193.002
20
-185.457
11
192.859
21
-185.386
0
LINE
8
Black
10
192.859
20
-185.386
11
192.574
21
-185.386
0
LINE
8
Black
10
192.574
20
-185.386
11
192.431
21
-185.457
0
LINE
8
Black
10
193.074
20
-186.314
11
192.931
21
-186.386
0
LINE
8
Black
10
192.931
20
-186.386
11
192.574
21
-186.386
0
LINE
8
Black
10
192.574
20
-186.386
11
192.431
21
-186.314
0
LINE
8
Black
10
192.431
20
-186.314
11
192.359
21
-186.171
0
LINE
8
Black
10
192.359
20
-186.171
11
192.359
21
-186.029
0
LINE
8
Black
10
192.359
20
-186.029
11
192.431
21
-185.886
0
LINE
8
Black
10
192.431
20
-185.886
11
192.574
21
-185.814
0
LINE
8
Black
10
192.574
20
-185.814
11
192.931
21
-185.814
0
LINE
8
Black
10
192.931
20
-185.814
11
193.074
21
-185.743
0
LINE
8
Black
10
193.788
20
-186.386
11
193.788
21
-185.386
0
LINE
8
Black
10
193.788
20
-185.671
11
193.859
21
-185.529
0
LINE
8
Black
10
193.859
20
-185.529
11
193.931
21
-185.457
0
LINE
8
Black
10
193.931
20
-185.457
11
194.074
21
-185.386
0
LINE
8
Black
10
194.074
20
-185.386
11
194.216
21
-185.386
0
LINE
8
Black
10
195.359
20
-186.386
11
195.359
21
-184.886
0
LINE
8
Black
10
195.359
20
-186.314
11
195.216
21
-186.386
0
LINE
8
Black
10
195.216
20
-186.386
11
194.931
21
-186.386
0
LINE
8
Black
10
194.931
20
-186.386
11
194.788
21
-186.314
0
LINE
8
Black
10
194.788
20
-186.314
11
194.716
21
-186.243
0
LINE
8
Black
10
194.716
20
-186.243
11
194.645
21
-186.1
0
LINE
8
Black
10
194.645
20
-186.1
11
194.645
21
-185.671
0
LINE
8
Black
10
194.645
20
-185.671
11
194.716
21
-185.529
0
LINE
8
Black
10
194.716
20
-185.529
11
194.788
21
-185.457
0
LINE
8
Black
10
194.788
20
-185.457
11
194.931
21
-185.386
0
LINE
8
Black
10
194.931
20
-185.386
11
195.216
21
-185.386
0
LINE
8
Black
10
195.216
20
-185.386
11
195.359
21
-185.457
0
LINE
8
Black
10
196.074
20
-186.243
11
196.145
21
-186.314
0
LINE
8
Black
10
196.145
20
-186.314
11
196.074
21
-186.386
0
LINE
8
Black
10
196.074
20
-186.386
11
196.002
21
-186.314
0
LINE
8
Black
10
196.002
20
-186.314
11
196.074
21
-186.243
0
LINE
8
Black
10
196.074
20
-186.243
11
196.074
21
-186.386
0
LINE
8
Black
10
196.788
20
-186.386
11
196.788
21
-184.886
0
LINE
8
Black
10
196.931
20
-185.814
11
197.359
21
-186.386
0
LINE
8
Black
10
197.359
20
-185.386
11
196.788
21
-185.957
0
LINE
8
Black
10
198.002
20
-186.386
11
198.002
21
-185.386
0
LINE
8
Black
10
198.002
20
-184.886
11
197.931
21
-184.957
0
LINE
8
Black
10
197.931
20
-184.957
11
198.002
21
-185.029
0
LINE
8
Black
10
198.002
20
-185.029
11
198.074
21
-184.957
0
LINE
8
Black
10
198.074
20
-184.957
11
198.002
21
-184.886
0
LINE
8
Black
10
198.002
20
-184.886
11
198.002
21
-185.029
0
LINE
8
Black
10
199.359
20
-186.314
11
199.216
21
-186.386
0
LINE
8
Black
10
199.216
20
-186.386
11
198.931
21
-186.386
0
LINE
8
Black
10
198.931
20
-186.386
11
198.788
21
-186.314
0
LINE
8
Black
10
198.788
20
-186.314
11
198.716
21
-186.243
0
LINE
8
Black
10
198.716
20
-186.243
11
198.645
21
-186.1
0
LINE
8
Black
10
198.645
20
-186.1
11
198.645
21
-185.671
0
LINE
8
Black
10
198.645
20
-185.671
11
198.716
21
-185.529
0
LINE
8
Black
10
198.716
20
-185.529
11
198.788
21
-185.457
0
LINE
8
Black
10
198.788
20
-185.457
11
198.931
21
-185.386
0
LINE
8
Black
10
198.931
20
-185.386
11
199.216
21
-185.386
0
LINE
8
Black
10
199.216
20
-185.386
11
199.359
21
-185.457
0
LINE
8
Black
10
200.645
20
-186.386
11
200.645
21
-185.6
0
LINE
8
Black
10
200.645
20
-185.6
11
200.574
21
-185.457
0
LINE
8
Black
10
200.574
20
-185.457
11
200.431
21
-185.386
0
LINE
8
Black
10
200.431
20
-185.386
11
200.145
21
-185.386
0
LINE
8
Black
10
200.145
20
-185.386
11
200.002
21
-185.457
0
LINE
8
Black
10
200.645
20
-186.314
11
200.502
21
-186.386
0
LINE
8
Black
10
200.502
20
-186.386
11
200.145
21
-186.386
0
LINE
8
Black
10
200.145
20
-186.386
11
200.002
21
-186.314
0
LINE
8
Black
10
200.002
20
-186.314
11
199.931
21
-186.171
0
LINE
8
Black
10
199.931
20
-186.171
11
199.931
21
-186.029
0
LINE
8
Black
10
199.931
20
-186.029
11
200.002
21
-185.886
0
LINE
8
Black
10
200.002
20
-185.886
11
200.145
21
-185.814
0
LINE
8
Black
10
200.145
20
-185.814
11
200.502
21
-185.814
0
LINE
8
Black
10
200.502
20
-185.814
11
200.645
21
-185.743
0
LINE
8
Black
10
202.002
20
-186.386
11
202.002
21
-184.886
0
LINE
8
Black
10
202.002
20
-186.314
11
201.859
21
-186.386
0
LINE
8
Black
10
201.859
20
-186.386
11
201.574
21
-186.386
0
LINE
8
Black
10
201.574
20
-186.386
11
201.431
21
-186.314
0
LINE
8
Black
10
201.431
20
-186.314
11
201.359
21
-186.243
0
LINE
8
Black
10
201.359
20
-186.243
11
201.288
21
-186.1
0
LINE
8
Black
10
201.288
20
-186.1
11
201.288
21
-185.671
0
LINE
8
Black
10
201.288
20
-185.671
11
201.359
21
-185.529
0
LINE
8
Black
10
201.359
20
-185.529
11
201.431
21
-185.457
0
LINE
8
Black
10
201.431
20
-185.457
11
201.574
21
-185.386
0
LINE
8
Black
10
201.574
20
-185.386
11
201.859
21
-185.386
0
LINE
8
Black
10
201.859
20
-185.386
11
202.002
21
-185.457
0
LINE
8
Black
10
202.359
20
-186.529
11
203.502
21
-186.529
0
LINE
8
Black
10
203.859
20
-185.386
11
203.859
21
-186.886
0
LINE
8
Black
10
203.859
20
-185.457
11
204.002
21
-185.386
0
LINE
8
Black
10
204.002
20
-185.386
11
204.288
21
-185.386
0
LINE
8
Black
10
204.288
20
-185.386
11
204.431
21
-185.457
0
LINE
8
Black
10
204.431
20
-185.457
11
204.502
21
-185.529
0
LINE
8
Black
10
204.502
20
-185.529
11
204.574
21
-185.671
0
LINE
8
Black
10
204.574
20
-185.671
11
204.574
21
-186.1
0
LINE
8
Black
10
204.574
20
-186.1
11
204.502
21
-186.243
0
LINE
8
Black
10
204.502
20
-186.243
11
204.431
21
-186.314
0
LINE
8
Black
10
204.431
20
-186.314
11
204.288
21
-186.386
0
LINE
8
Black
10
204.288
20
-186.386
11
204.002
21
-186.386
0
LINE
8
Black
10
204.002
20
-186.386
11
203.859
21
-186.314
0
LINE
8
Black
10
205.859
20
-186.314
11
205.716
21
-186.386
0
LINE
8
Black
10
205.716
20
-186.386
11
205.431
21
-186.386
0
LINE
8
Black
10
205.431
20
-186.386
11
205.288
21
-186.314
0
LINE
8
Black
10
205.288
20
-186.314
11
205.216
21
-186.243
0
LINE
8
Black
10
205.216
20
-186.243
11
205.145
21
-186.1
0
LINE
8
Black
10
205.145
20
-186.1
11
205.145
21
-185.671
0
LINE
8
Black
10
205.145
20
-185.671
11
205.216
21
-185.529
0
LINE
8
Black
10
205.216
20
-185.529
11
205.288
21
-185.457
0
LINE
8
Black
10
205.288
20
-185.457
11
205.431
21
-185.386
0
LINE
8
Black
10
205.431
20
-185.386
11
205.716
21
-185.386
0
LINE
8
Black
10
205.716
20
-185.386
11
205.859
21
-185.457
0
LINE
8
Black
10
206.502
20
-186.386
11
206.502
21
-184.886
0
LINE
8
Black
10
206.502
20
-185.457
11
206.645
21
-185.386
0
LINE
8
Black
10
206.645
20
-185.386
11
206.931
21
-185.386
0
LINE
8
Black
10
206.931
20
-185.386
11
207.074
21
-185.457
0
LINE
8
Black
10
207.074
20
-185.457
11
207.145
21
-185.529
0
LINE
8
Black
10
207.145
20
-185.529
11
207.216
21
-185.671
0
LINE
8
Black
10
207.216
20
-185.671
11
207.216
21
-186.1
0
LINE
8
Black
10
207.216
20
-186.1
11
207.145
21
-186.243
0
LINE
8
Black
10
207.145
20
-186.243
11
207.074
21
-186.314
0
LINE
8
Black
10
207.074
20
-186.314
11
206.931
21
-186.386
0
LINE
8
Black
10
206.931
20
-186.386
11
206.645
21
-186.386
0
LINE
8
Black
10
206.645
20
-186.386
11
206.502
21
-186.314
0
LINE
8
Black
10
177.002
20
-181.507
11
285.002
21
-181.507
0
LINE
8
Black
10
178.288
20
-183.614
11
178.502
21
-183.686
0
LINE
8
Black
10
178.502
20
-183.686
11
178.859
21
-183.686
0
LINE
8
Black
10
178.859
20
-183.686
11
179.002
21
-183.614
0
LINE
8
Black
10
179.002
20
-183.614
11
179.074
21
-183.543
0
LINE
8
Black
10
179.074
20
-183.543
11
179.145
21
-183.4
0
LINE
8
Black
10
179.145
20
-183.4
11
179.145
21
-183.257
0
LINE
8
Black
10
179.145
20
-183.257
11
179.074
21
-183.114
0
LINE
8
Black
10
179.074
20
-183.114
11
179.002
21
-183.043
0
LINE
8
Black
10
179.002
20
-183.043
11
178.859
21
-182.971
0
LINE
8
Black
10
178.859
20
-182.971
11
178.574
21
-182.9
0
LINE
8
Black
10
178.574
20
-182.9
11
178.431
21
-182.829
0
LINE
8
Black
10
178.431
20
-182.829
11
178.359
21
-182.757
0
LINE
8
Black
10
178.359
20
-182.757
11
178.288
21
-182.614
0
LINE
8
Black
10
178.288
20
-182.614
11
178.288
21
-182.471
0
LINE
8
Black
10
178.288
20
-182.471
11
178.359
21
-182.329
0
LINE
8
Black
10
178.359
20
-182.329
11
178.431
21
-182.257
0
LINE
8
Black
10
178.431
20
-182.257
11
178.574
21
-182.186
0
LINE
8
Black
10
178.574
20
-182.186
11
178.931
21
-182.186
0
LINE
8
Black
10
178.931
20
-182.186
11
179.145
21
-182.257
0
LINE
8
Black
10
179.788
20
-183.686
11
179.788
21
-182.186
0
LINE
8
Black
10
180.431
20
-183.686
11
180.431
21
-182.9
0
LINE
8
Black
10
180.431
20
-182.9
11
180.359
21
-182.757
0
LINE
8
Black
10
180.359
20
-182.757
11
180.216
21
-182.686
0
LINE
8
Black
10
180.216
20
-182.686
11
180.002
21
-182.686
0
LINE
8
Black
10
180.002
20
-182.686
11
179.859
21
-182.757
0
LINE
8
Black
10
179.859
20
-182.757
11
179.788
21
-182.829
0
LINE
8
Black
10
181.716
20
-183.614
11
181.574
21
-183.686
0
LINE
8
Black
10
181.574
20
-183.686
11
181.288
21
-183.686
0
LINE
8
Black
10
181.288
20
-183.686
11
181.145
21
-183.614
0
LINE
8
Black
10
181.145
20
-183.614
11
181.074
21
-183.471
0
LINE
8
Black
10
181.074
20
-183.471
11
181.074
21
-182.9
0
LINE
8
Black
10
181.074
20
-182.9
11
181.145
21
-182.757
0
LINE
8
Black
10
181.145
20
-182.757
11
181.288
21
-182.686
0
LINE
8
Black
10
181.288
20
-182.686
11
181.574
21
-182.686
0
LINE
8
Black
10
181.574
20
-182.686
11
181.716
21
-182.757
0
LINE
8
Black
10
181.716
20
-182.757
11
181.788
21
-182.9
0
LINE
8
Black
10
181.788
20
-182.9
11
181.788
21
-183.043
0
LINE
8
Black
10
181.788
20
-183.043
11
181.074
21
-183.186
0
LINE
8
Black
10
183.002
20
-183.614
11
182.859
21
-183.686
0
LINE
8
Black
10
182.859
20
-183.686
11
182.574
21
-183.686
0
LINE
8
Black
10
182.574
20
-183.686
11
182.431
21
-183.614
0
LINE
8
Black
10
182.431
20
-183.614
11
182.359
21
-183.471
0
LINE
8
Black
10
182.359
20
-183.471
11
182.359
21
-182.9
0
LINE
8
Black
10
182.359
20
-182.9
11
182.431
21
-182.757
0
LINE
8
Black
10
182.431
20
-182.757
11
182.574
21
-182.686
0
LINE
8
Black
10
182.574
20
-182.686
11
182.859
21
-182.686
0
LINE
8
Black
10
182.859
20
-182.686
11
183.002
21
-182.757
0
LINE
8
Black
10
183.002
20
-182.757
11
183.074
21
-182.9
0
LINE
8
Black
10
183.074
20
-182.9
11
183.074
21
-183.043
0
LINE
8
Black
10
183.074
20
-183.043
11
182.359
21
-183.186
0
LINE
8
Black
10
183.502
20
-182.686
11
184.074
21
-182.686
0
LINE
8
Black
10
183.716
20
-182.186
11
183.716
21
-183.471
0
LINE
8
Black
10
183.716
20
-183.471
11
183.788
21
-183.614
0
LINE
8
Black
10
183.788
20
-183.614
11
183.931
21
-183.686
0
LINE
8
Black
10
183.931
20
-183.686
11
184.074
21
-183.686
0
LINE
8
Black
10
184.574
20
-183.543
11
184.645
21
-183.614
0
LINE
8
Black
10
184.645
20
-183.614
11
184.574
21
-183.686
0
LINE
8
Black
10
184.574
20
-183.686
11
184.502
21
-183.614
0
LINE
8
Black
10
184.502
20
-183.614
11
184.574
21
-183.543
0
LINE
8
Black
10
184.574
20
-183.543
11
184.574
21
-183.686
0
LINE
8
Black
10
184.574
20
-182.757
11
184.645
21
-182.829
0
LINE
8
Black
10
184.645
20
-182.829
11
184.574
21
-182.9
0
LINE
8
Black
10
184.574
20
-182.9
11
184.502
21
-182.829
0
LINE
8
Black
10
184.502
20
-182.829
11
184.574
21
-182.757
0
LINE
8
Black
10
184.574
20
-182.757
11
184.574
21
-182.9
0
LINE
8
Black
10
178.359
20
-179.9
11
178.859
21
-179.9
0
LINE
8
Black
10
179.074
20
-180.686
11
178.359
21
-180.686
0
LINE
8
Black
10
178.359
20
-180.686
11
178.359
21
-179.186
0
LINE
8
Black
10
178.359
20
-179.186
11
179.074
21
-179.186
0
LINE
8
Black
10
179.931
20
-180.686
11
179.788
21
-180.614
0
LINE
8
Black
10
179.788
20
-180.614
11
179.716
21
-180.471
0
LINE
8
Black
10
179.716
20
-180.471
11
179.716
21
-179.186
0
LINE
8
Black
10
181.074
20
-180.614
11
180.931
21
-180.686
0
LINE
8
Black
10
180.931
20
-180.686
11
180.645
21
-180.686
0
LINE
8
Black
10
180.645
20
-180.686
11
180.502
21
-180.614
0
LINE
8
Black
10
180.502
20
-180.614
11
180.431
21
-180.471
0
LINE
8
Black
10
180.431
20
-180.471
11
180.431
21
-179.9
0
LINE
8
Black
10
180.431
20
-179.9
11
180.502
21
-179.757
0
LINE
8
Black
10
180.502
20
-179.757
11
180.645
21
-179.686
0
LINE
8
Black
10
180.645
20
-179.686
11
180.931
21
-179.686
0
LINE
8
Black
10
180.931
20
-179.686
11
181.074
21
-179.757
0
LINE
8
Black
10
181.074
20
-179.757
11
181.145
21
-179.9
0
LINE
8
Black
10
181.145
20
-179.9
11
181.145
21
-180.043
0
LINE
8
Black
10
181.145
20
-180.043
11
180.431
21
-180.186
0
LINE
8
Black
10
182.431
20
-180.614
11
182.288
21
-180.686
0
LINE
8
Black
10
182.288
20
-180.686
11
182.002
21
-180.686
0
LINE
8
Black
10
182.002
20
-180.686
11
181.859
21
-180.614
0
LINE
8
Black
10
181.859
20
-180.614
11
181.788
21
-180.543
0
LINE
8
Black
10
181.788
20
-180.543
11
181.716
21
-180.4
0
LINE
8
Black
10
181.716
20
-180.4
11
181.716
21
-179.971
0
LINE
8
Black
10
181.716
20
-179.971
11
181.788
21
-179.829
0
LINE
8
Black
10
181.788
20
-179.829
11
181.859
21
-179.757
0
LINE
8
Black
10
181.859
20
-179.757
11
182.002
21
-179.686
0
LINE
8
Black
10
182.002
20
-179.686
11
182.288
21
-179.686
0
LINE
8
Black
10
182.288
20
-179.686
11
182.431
21
-179.757
0
LINE
8
Black
10
182.859
20
-179.686
11
183.431
21
-179.686
0
LINE
8
Black
10
183.074
20
-179.186
11
183.074
21
-180.471
0
LINE
8
Black
10
183.074
20
-180.471
11
183.145
21
-180.614
0
LINE
8
Black
10
183.145
20
-180.614
11
183.288
21
-180.686
0
LINE
8
Black
10
183.288
20
-180.686
11
183.431
21
-180.686
0
LINE
8
Black
10
183.931
20
-180.686
11
183.931
21
-179.686
0
LINE
8
Black
10
183.931
20
-179.971
11
184.002
21
-179.829
0
LINE
8
Black
10
184.002
20
-179.829
11
184.074
21
-179.757
0
LINE
8
Black
10
184.074
20
-179.757
11
184.216
21
-179.686
0
LINE
8
Black
10
184.216
20
-179.686
11
184.359
21
-179.686
0
LINE
8
Black
10
185.074
20
-180.686
11
184.931
21
-180.614
0
LINE
8
Black
10
184.931
20
-180.614
11
184.859
21
-180.543
0
LINE
8
Black
10
184.859
20
-180.543
11
184.788
21
-180.4
0
LINE
8
Black
10
184.788
20
-180.4
11
184.788
21
-179.971
0
LINE
8
Black
10
184.788
20
-179.971
11
184.859
21
-179.829
0
LINE
8
Black
10
184.859
20
-179.829
11
184.931
21
-179.757
0
LINE
8
Black
10
184.931
20
-179.757
11
185.074
21
-179.686
0
LINE
8
Black
10
185.074
20
-179.686
11
185.288
21
-179.686
0
LINE
8
Black
10
185.288
20
-179.686
11
185.431
21
-179.757
0
LINE
8
Black
10
185.431
20
-179.757
11
185.502
21
-179.829
0
LINE
8
Black
10
185.502
20
-179.829
11
185.574
21
-179.971
0
LINE
8
Black
10
185.574
20
-179.971
11
185.574
21
-180.4
0
LINE
8
Black
10
185.574
20
-180.4
11
185.502
21
-180.543
0
LINE
8
Black
10
185.502
20
-180.543
11
185.431
21
-180.614
0
LINE
8
Black
10
185.431
20
-180.614
11
185.288
21
-180.686
0
LINE
8
Black
10
185.288
20
-180.686
11
185.074
21
-180.686
0
LINE
8
Black
10
186.216
20
-179.686
11
186.216
21
-181.186
0
LINE
8
Black
10
186.216
20
-179.757
11
186.359
21
-179.686
0
LINE
8
Black
10
186.359
20
-179.686
11
186.645
21
-179.686
0
LINE
8
Black
10
186.645
20
-179.686
11
186.788
21
-179.757
0
LINE
8
Black
10
186.788
20
-179.757
11
186.859
21
-179.829
0
LINE
8
Black
10
186.859
20
-179.829
11
186.931
21
-179.971
0
LINE
8
Black
10
186.931
20
-179.971
11
186.931
21
-180.4
0
LINE
8
Black
10
186.931
20
-180.4
11
186.859
21
-180.543
0
LINE
8
Black
10
186.859
20
-180.543
11
186.788
21
-180.614
0
LINE
8
Black
10
186.788
20
-180.614
11
186.645
21
-180.686
0
LINE
8
Black
10
186.645
20
-180.686
11
186.359
21
-180.686
0
LINE
8
Black
10
186.359
20
-180.686
11
186.216
21
-180.614
0
LINE
8
Black
10
187.574
20
-180.686
11
187.574
21
-179.686
0
LINE
8
Black
10
187.574
20
-179.186
11
187.502
21
-179.257
0
LINE
8
Black
10
187.502
20
-179.257
11
187.574
21
-179.329
0
LINE
8
Black
10
187.574
20
-179.329
11
187.645
21
-179.257
0
LINE
8
Black
10
187.645
20
-179.257
11
187.574
21
-179.186
0
LINE
8
Black
10
187.574
20
-179.186
11
187.574
21
-179.329
0
LINE
8
Black
10
188.502
20
-180.686
11
188.359
21
-180.614
0
LINE
8
Black
10
188.359
20
-180.614
11
188.288
21
-180.543
0
LINE
8
Black
10
188.288
20
-180.543
11
188.216
21
-180.4
0
LINE
8
Black
10
188.216
20
-180.4
11
188.216
21
-179.971
0
LINE
8
Black
10
188.216
20
-179.971
11
188.288
21
-179.829
0
LINE
8
Black
10
188.288
20
-179.829
11
188.359
21
-179.757
0
LINE
8
Black
10
188.359
20
-179.757
11
188.502
21
-179.686
0
LINE
8
Black
10
188.502
20
-179.686
11
188.716
21
-179.686
0
LINE
8
Black
10
188.716
20
-179.686
11
188.859
21
-179.757
0
LINE
8
Black
10
188.859
20
-179.757
11
188.931
21
-179.829
0
LINE
8
Black
10
188.931
20
-179.829
11
189.002
21
-179.971
0
LINE
8
Black
10
189.002
20
-179.971
11
189.002
21
-180.4
0
LINE
8
Black
10
189.002
20
-180.4
11
188.931
21
-180.543
0
LINE
8
Black
10
188.931
20
-180.543
11
188.859
21
-180.614
0
LINE
8
Black
10
188.859
20
-180.614
11
188.716
21
-180.686
0
LINE
8
Black
10
188.716
20
-180.686
11
188.502
21
-180.686
0
LINE
8
Black
10
189.645
20
-179.686
11
189.645
21
-180.686
0
LINE
8
Black
10
189.645
20
-179.829
11
189.716
21
-179.757
0
LINE
8
Black
10
189.716
20
-179.757
11
189.859
21
-179.686
0
LINE
8
Black
10
189.859
20
-179.686
11
190.074
21
-179.686
0
LINE
8
Black
10
190.074
20
-179.686
11
190.216
21
-179.757
0
LINE
8
Black
10
190.216
20
-179.757
11
190.288
21
-179.9
0
LINE
8
Black
10
190.288
20
-179.9
11
190.288
21
-180.686
0
LINE
8
Black
10
191.574
20
-180.614
11
191.431
21
-180.686
0
LINE
8
Black
10
191.431
20
-180.686
11
191.145
21
-180.686
0
LINE
8
Black
10
191.145
20
-180.686
11
191.002
21
-180.614
0
LINE
8
Black
10
191.002
20
-180.614
11
190.931
21
-180.471
0
LINE
8
Black
10
190.931
20
-180.471
11
190.931
21
-179.9
0
LINE
8
Black
10
190.931
20
-179.9
11
191.002
21
-179.757
0
LINE
8
Black
10
191.002
20
-179.757
11
191.145
21
-179.686
0
LINE
8
Black
10
191.145
20
-179.686
11
191.431
21
-179.686
0
LINE
8
Black
10
191.431
20
-179.686
11
191.574
21
-179.757
0
LINE
8
Black
10
191.574
20
-179.757
11
191.645
21
-179.9
0
LINE
8
Black
10
191.645
20
-179.9
11
191.645
21
-180.043
0
LINE
8
Black
10
191.645
20
-180.043
11
190.931
21
-180.186
0
LINE
8
Black
10
192.859
20
-180.614
11
192.716
21
-180.686
0
LINE
8
Black
10
192.716
20
-180.686
11
192.431
21
-180.686
0
LINE
8
Black
10
192.431
20
-180.686
11
192.288
21
-180.614
0
LINE
8
Black
10
192.288
20
-180.614
11
192.216
21
-180.471
0
LINE
8
Black
10
192.216
20
-180.471
11
192.216
21
-179.9
0
LINE
8
Black
10
192.216
20
-179.9
11
192.288
21
-179.757
0
LINE
8
Black
10
192.288
20
-179.757
11
192.431
21
-179.686
0
LINE
8
Black
10
192.431
20
-179.686
11
192.716
21
-179.686
0
LINE
8
Black
10
192.716
20
-179.686
11
192.859
21
-179.757
0
LINE
8
Black
10
192.859
20
-179.757
11
192.931
21
-179.9
0
LINE
8
Black
10
192.931
20
-179.9
11
192.931
21
-180.043
0
LINE
8
Black
10
192.931
20
-180.043
11
192.216
21
-180.186
0
LINE
8
Black
10
193.574
20
-180.686
11
193.574
21
-179.686
0
LINE
8
Black
10
193.574
20
-179.971
11
193.645
21
-179.829
0
LINE
8
Black
10
193.645
20
-179.829
11
193.716
21
-179.757
0
LINE
8
Black
10
193.716
20
-179.757
11
193.859
21
-179.686
0
LINE
8
Black
10
193.859
20
-179.686
11
194.002
21
-179.686
0
LINE
8
Black
10
197.002
20
-191.507
11
197.002
21
-194.507
0
LINE
8
Black
10
261.002
20
-191.507
11
261.002
21
-198.007
0
CIRCLE
8
Black
10
69.4055
20
-87.884
40
0.5
0
CIRCLE
8
Black
10
69.4055
20
-90.424
40
0.5
0
CIRCLE
8
Black
10
69.4055
20
-92.964
40
0.5
0
CIRCLE
8
Black
10
69.4055
20
-95.504
40
0.5
0
CIRCLE
8
Black
10
69.4055
20
-98.044
40
0.5
0
CIRCLE
8
Black
10
69.4055
20
-100.584
40
0.5
0
CIRCLE
8
Black
10
69.4055
20
-103.124
40
0.5
0
CIRCLE
8
Black
10
69.4055
20
-105.664
40
0.5
0
CIRCLE
8
Black
10
74.168
20
-67.564
40
0.5
0
CIRCLE
8
Black
10
76.708
20
-67.564
40
0.5
0
CIRCLE
8
Black
10
79.248
20
-67.564
40
0.5
0
CIRCLE
8
Black
10
81.788
20
-67.564
40
0.5
0
CIRCLE
8
Black
10
63.881
20
-58.801
40
0.5
0
CIRCLE
8
Black
10
63.881
20
-56.261
40
0.5
0
CIRCLE
8
Black
10
63.881
20
-53.721
40
0.5
0
CIRCLE
8
Black
10
63.881
20
-51.181
40
0.5
0
CIRCLE
8
Black
10
65.532
20
-66.929
40
0.54864
0
CIRCLE
8
Black
10
65.532
20
-64.389
40
0.54864
0
CIRCLE
8
Black
10
141.326
20
-71.2216
40
0.508
0
CIRCLE
8
Black
10
138.786
20
-71.2216
40
0.508
0
CIRCLE
8
Black
10
133.706
20
-71.2216
40
0.508
0
CIRCLE
8
Black
10
114.656
20
-71.2216
40
0.508
0
CIRCLE
8
Black
10
117.196
20
-71.2216
40
0.508
0
CIRCLE
8
Black
10
136.246
20
-86.4616
40
0.508
0
CIRCLE
8
Black
10
133.706
20
-86.4616
40
0.508
0
CIRCLE
8
Black
10
138.786
20
-86.4616
40
0.508
0
CIRCLE
8
Black
10
141.326
20
-86.4616
40
0.508
0
CIRCLE
8
Black
10
114.656
20
-86.4616
40
0.508
0
CIRCLE
8
Black
10
117.196
20
-86.4616
40
0.508
0
CIRCLE
8
Black
10
136.246
20
-71.2216
40
0.508
0
CIRCLE
8
Black
10
74.168
20
-70.358
40
0.5
0
CIRCLE
8
Black
10
76.708
20
-70.358
40
0.5
0
CIRCLE
8
Black
10
79.248
20
-70.358
40
0.5
0
CIRCLE
8
Black
10
81.788
20
-70.358
40
0.5
0
CIRCLE
8
Black
10
75.946
20
-99.822
40
0.5
0
CIRCLE
8
Black
10
75.946
20
-97.282
40
0.5
0
CIRCLE
8
Black
10
75.946
20
-94.742
40
0.5
0
CIRCLE
8
Black
10
75.946
20
-92.202
40
0.5
0
CIRCLE
8
Black
10
75.946
20
-89.662
40
0.5
0
CIRCLE
8
Black
10
75.946
20
-87.122
40
0.5
0
CIRCLE
8
Black
10
132.461
20
-104.902
40
0.54864
0
CIRCLE
8
Black
10
129.921
20
-104.902
40
0.54864
0
CIRCLE
8
Black
10
98.933
20
-82.931
40
0.4
0
CIRCLE
8
Black
10
103.833
20
-82.931
40
0.4
0
CIRCLE
8
Black
10
87.884
20
-38.989
40
0.5
0
CIRCLE
8
Black
10
90.424
20
-38.989
40
0.5
0
CIRCLE
8
Black
10
92.964
20
-38.989
40
0.5
0
CIRCLE
8
Black
10
95.504
20
-38.989
40
0.5
0
CIRCLE
8
Black
10
98.044
20
-38.989
40
0.5
0
CIRCLE
8
Black
10
100.584
20
-38.989
40
0.5
0
CIRCLE
8
Black
10
103.124
20
-38.989
40
0.5
0
CIRCLE
8
Black
10
105.664
20
-38.989
40
0.5
0
CIRCLE
8
Black
10
121.666
20
-39.497
40
0.5
0
CIRCLE
8
Black
10
124.206
20
-39.497
40
0.5
0
CIRCLE
8
Black
10
126.746
20
-39.497
40
0.5
0
CIRCLE
8
Black
10
129.286
20
-39.497
40
0.5
0
CIRCLE
8
Black
10
141.732
20
-50.292
40
0.5
0
CIRCLE
8
Black
10
141.732
20
-52.832
40
0.5
0
CIRCLE
8
Black
10
141.732
20
-55.372
40
0.5
0
CIRCLE
8
Black
10
141.732
20
-57.912
40
0.5
0
CIRCLE
8
Black
10
141.732
20
-60.452
40
0.5
0
CIRCLE
8
Black
10
141.732
20
-62.992
40
0.5
0
CIRCLE
8
Black
10
141.732
20
-65.532
40
0.5
0
CIRCLE
8
Black
10
141.732
20
-68.072
40
0.5
0
CIRCLE
8
Black
10
84.709
20
-48.514
40
0.5
0
CIRCLE
8
Black
10
82.169
20
-48.514
40
0.5
0
CIRCLE
8
Black
10
79.629
20
-48.514
40
0.5
0
CIRCLE
8
Black
10
77.089
20
-48.514
40
0.5
0
CIRCLE
8
Black
10
66.7385
20
-87.884
40
0.5
0
CIRCLE
8
Black
10
66.7385
20
-90.424
40
0.5
0
CIRCLE
8
Black
10
66.7385
20
-92.964
40
0.5
0
CIRCLE
8
Black
10
66.7385
20
-95.504
40
0.5
0
CIRCLE
8
Black
10
66.7385
20
-98.044
40
0.5
0
CIRCLE
8
Black
10
66.7385
20
-100.584
40
0.5
0
CIRCLE
8
Black
10
66.7385
20
-103.124
40
0.5
0
CIRCLE
8
Black
10
66.7385
20
-105.664
40
0.5
0
CIRCLE
8
Black
10
117.657
20
-45.7962
40
0.55
0
CIRCLE
8
Black
10
113.157
20
-45.7962
40
0.55
0
CIRCLE
8
Black
10
117.657
20
-39.2962
40
0.55
0
CIRCLE
8
Black
10
113.157
20
-39.2962
40
0.55
0
CIRCLE
8
Black
10
92.6761
20
-106.362
40
0.55
0
CIRCLE
8
Black
10
88.1761
20
-106.362
40
0.55
0
CIRCLE
8
Black
10
92.6761
20
-99.8625
40
0.55
0
CIRCLE
8
Black
10
88.1761
20
-99.8625
40
0.55
0
CIRCLE
8
Black
10
112.395
20
-102.87
40
0.4
0
CIRCLE
8
Black
10
112.395
20
-105.37
40
0.4
0
CIRCLE
8
Black
10
95.504
20
-55.499
40
0.4
0
CIRCLE
8
Black
10
98.004
20
-55.499
40
0.4
0
CIRCLE
8
Black
10
98.0694
20
-104.216
40
0.4
0
CIRCLE
8
Black
10
98.0694
20
-101.716
40
0.4
0
CIRCLE
8
Black
10
121.666
20
-42.164
40
0.5
0
CIRCLE
8
Black
10
124.206
20
-42.164
40
0.5
0
CIRCLE
8
Black
10
126.746
20
-42.164
40
0.5
0
CIRCLE
8
Black
10
129.286
20
-42.164
40
0.5
0
CIRCLE
8
Black
10
121.666
20
-44.831
40
0.5
0
CIRCLE
8
Black
10
124.206
20
-44.831
40
0.5
0
CIRCLE
8
Black
10
126.746
20
-44.831
40
0.5
0
CIRCLE
8
Black
10
129.286
20
-44.831
40
0.5
0
CIRCLE
8
Black
10
111.887
20
-91.948
40
0.5
0
CIRCLE
8
Black
10
114.427
20
-91.948
40
0.5
0
CIRCLE
8
Black
10
116.967
20
-91.948
40
0.5
0
CIRCLE
8
Black
10
119.507
20
-91.948
40
0.5
0
CIRCLE
8
Black
10
139.09
20
-50.292
40
0.5
0
CIRCLE
8
Black
10
139.09
20
-52.832
40
0.5
0
CIRCLE
8
Black
10
139.09
20
-55.372
40
0.5
0
CIRCLE
8
Black
10
139.09
20
-57.912
40
0.5
0
CIRCLE
8
Black
10
139.09
20
-60.452
40
0.5
0
CIRCLE
8
Black
10
139.09
20
-62.992
40
0.5
0
CIRCLE
8
Black
10
139.09
20
-65.532
40
0.5
0
CIRCLE
8
Black
10
139.09
20
-68.072
40
0.5
0
CIRCLE
8
Black
10
64.135
20
-87.884
40
0.5
0
CIRCLE
8
Black
10
64.135
20
-90.424
40
0.5
0
CIRCLE
8
Black
10
64.135
20
-92.964
40
0.5
0
CIRCLE
8
Black
10
64.135
20
-95.504
40
0.5
0
CIRCLE
8
Black
10
64.135
20
-98.044
40
0.5
0
CIRCLE
8
Black
10
64.135
20
-100.584
40
0.5
0
CIRCLE
8
Black
10
64.135
20
-103.124
40
0.5
0
CIRCLE
8
Black
10
64.135
20
-105.664
40
0.5
0
CIRCLE
8
Black
10
123.38
20
-92.456
40
0.5
0
CIRCLE
8
Black
10
125.92
20
-92.456
40
0.5
0
CIRCLE
8
Black
10
128.46
20
-92.456
40
0.5
0
CIRCLE
8
Black
10
131
20
-92.456
40
0.5
0
CIRCLE
8
Black
10
133.54
20
-92.456
40
0.5
0
CIRCLE
8
Black
10
136.081
20
-92.456
40
0.5
0
CIRCLE
8
Black
10
138.62
20
-92.456
40
0.5
0
CIRCLE
8
Black
10
141.16
20
-92.456
40
0.5
0
CIRCLE
8
Black
10
123.38
20
-95.123
40
0.5
0
CIRCLE
8
Black
10
125.92
20
-95.123
40
0.5
0
CIRCLE
8
Black
10
128.46
20
-95.123
40
0.5
0
CIRCLE
8
Black
10
131
20
-95.123
40
0.5
0
CIRCLE
8
Black
10
133.54
20
-95.123
40
0.5
0
CIRCLE
8
Black
10
136.081
20
-95.123
40
0.5
0
CIRCLE
8
Black
10
138.62
20
-95.123
40
0.5
0
CIRCLE
8
Black
10
141.16
20
-95.123
40
0.5
0
CIRCLE
8
Black
10
64.008
20
-72.136
40
0.5
0
CIRCLE
8
Black
10
64.008
20
-74.676
40
0.5
0
CIRCLE
8
Black
10
64.008
20
-77.216
40
0.5
0
CIRCLE
8
Black
10
64.008
20
-79.756
40
0.5
0
CIRCLE
8
Black
10
64.008
20
-82.296
40
0.5
0
CIRCLE
8
Black
10
64.008
20
-84.836
40
0.5
0
CIRCLE
8
Black
10
84.6836
20
-38.9636
40
0.5
0
CIRCLE
8
Black
10
82.1436
20
-38.9636
40
0.5
0
CIRCLE
8
Black
10
79.6036
20
-38.9636
40
0.5
0
CIRCLE
8
Black
10
77.0636
20
-38.9636
40
0.5
0
CIRCLE
8
Black
10
74.5236
20
-38.9636
40
0.5
0
CIRCLE
8
Black
10
71.9836
20
-38.9636
40
0.5
0
CIRCLE
8
Black
10
87.884
20
-41.656
40
0.5
0
CIRCLE
8
Black
10
90.424
20
-41.656
40
0.5
0
CIRCLE
8
Black
10
92.964
20
-41.656
40
0.5
0
CIRCLE
8
Black
10
95.504
20
-41.656
40
0.5
0
CIRCLE
8
Black
10
98.044
20
-41.656
40
0.5
0
CIRCLE
8
Black
10
100.584
20
-41.656
40
0.5
0
CIRCLE
8
Black
10
103.124
20
-41.656
40
0.5
0
CIRCLE
8
Black
10
105.664
20
-41.656
40
0.5
0
CIRCLE
8
Black
10
133.655
20
-50.2412
40
0.5
0
CIRCLE
8
Black
10
133.655
20
-52.7812
40
0.5
0
CIRCLE
8
Black
10
133.655
20
-55.3212
40
0.5
0
CIRCLE
8
Black
10
133.655
20
-57.8612
40
0.5
0
CIRCLE
8
Black
10
133.655
20
-60.4012
40
0.5
0
CIRCLE
8
Black
10
133.655
20
-62.9412
40
0.5
0
CIRCLE
8
Black
10
74.168
20
-73.152
40
0.5
0
CIRCLE
8
Black
10
76.708
20
-73.152
40
0.5
0
CIRCLE
8
Black
10
79.248
20
-73.152
40
0.5
0
CIRCLE
8
Black
10
81.788
20
-73.152
40
0.5
0
CIRCLE
8
Black
10
123.38
20
-97.79
40
0.5
0
CIRCLE
8
Black
10
125.92
20
-97.79
40
0.5
0
CIRCLE
8
Black
10
128.46
20
-97.79
40
0.5
0
CIRCLE
8
Black
10
131
20
-97.79
40
0.5
0
CIRCLE
8
Black
10
133.54
20
-97.79
40
0.5
0
CIRCLE
8
Black
10
136.081
20
-97.79
40
0.5
0
CIRCLE
8
Black
10
138.62
20
-97.79
40
0.5
0
CIRCLE
8
Black
10
141.16
20
-97.79
40
0.5
0
CIRCLE
8
Black
10
81.534
20
-106.299
40
1.524
0
CIRCLE
8
Black
10
138.43
20
-78.867
40
1.524
0
CIRCLE
8
Black
10
139.7
20
-40.0812
40
1.524
0
CIRCLE
8
Black
10
66.04
20
-40.0812
40
1.524
0
CIRCLE
8
Black
10
139.7
20
-105.512
40
1.524
  0
ENDSEC
  0
EOF
