M48
;DRILL file {KiCad 4.0.6+dfsg1-1} date Wed Nov 29 19:22:37 2017
;FORMAT={-:-/ absolute / metric / decimal}
FMAT,2
METRIC,TZ
T1C0.400
T2C0.800
T3C1.000
T4C1.016
T5C1.097
T6C1.100
T7C3.100
%
G90
G05
M71
T1
X68.478Y-70.358
X74.168Y-75.755
X76.708Y-77.216
X77.724Y-97.409
X79.248Y-79.756
X82.042Y-73.152
X88.176Y-99.862
X88.176Y-103.188
X89.408Y-65.913
X90.17Y-65.405
X90.71Y-73.12
X93.98Y-78.803
X96.266Y-76.327
X96.28Y-80.812
X96.368Y-65.837
X97.13Y-80.721
X97.282Y-77.089
X98.38Y-81.112
X98.806Y-76.2
X99.416Y-57.556
X99.568Y-80.569
X100.114Y-65.354
X100.33Y-57.506
X100.482Y-80.366
X100.482Y-96.926
X101.194Y-57.455
X101.917Y-65.849
X103.188Y-65.722
X104.331Y-65.659
X104.343Y-76.708
X105.156Y-74.676
X105.156Y-77.013
X105.41Y-65.596
X106.762Y-64.942
X107.562Y-65.779
X108.052Y-86.868
X108.814Y-80.34
X108.864Y-81.153
X109.918Y-53.594
X111.557Y-72.288
X111.569Y-69.913
X111.76Y-53.276
X112.141Y-70.739
X112.141Y-71.564
X112.204Y-55.181
X113.132Y-58.534
X115.824Y-74.574
X115.875Y-75.641
X115.875Y-76.708
X118.262Y-50.851
X121.158Y-48.26
X123.647Y-53.594
X125.933Y-53.696
X127.762Y-82.423
X128.651Y-82.423
X129.54Y-82.423
X130.365Y-82.423
T2
X95.504Y-55.499
X98.004Y-55.499
X98.069Y-101.716
X98.069Y-104.216
X98.933Y-82.931
X103.833Y-82.931
X112.395Y-102.87
X112.395Y-105.37
T3
X63.881Y-51.181
X63.881Y-53.721
X63.881Y-56.261
X63.881Y-58.801
X64.008Y-72.136
X64.008Y-74.676
X64.008Y-77.216
X64.008Y-79.756
X64.008Y-82.296
X64.008Y-84.836
X64.135Y-87.884
X64.135Y-90.424
X64.135Y-92.964
X64.135Y-95.504
X64.135Y-98.044
X64.135Y-100.584
X64.135Y-103.124
X64.135Y-105.664
X66.739Y-87.884
X66.739Y-90.424
X66.739Y-92.964
X66.739Y-95.504
X66.739Y-98.044
X66.739Y-100.584
X66.739Y-103.124
X66.739Y-105.664
X69.406Y-87.884
X69.406Y-90.424
X69.406Y-92.964
X69.406Y-95.504
X69.406Y-98.044
X69.406Y-100.584
X69.406Y-103.124
X69.406Y-105.664
X71.984Y-38.964
X74.168Y-67.564
X74.168Y-70.358
X74.168Y-73.152
X74.524Y-38.964
X75.946Y-87.122
X75.946Y-89.662
X75.946Y-92.202
X75.946Y-94.742
X75.946Y-97.282
X75.946Y-99.822
X76.708Y-67.564
X76.708Y-70.358
X76.708Y-73.152
X77.064Y-38.964
X77.089Y-48.514
X79.248Y-67.564
X79.248Y-70.358
X79.248Y-73.152
X79.604Y-38.964
X79.629Y-48.514
X81.788Y-67.564
X81.788Y-70.358
X81.788Y-73.152
X82.144Y-38.964
X82.169Y-48.514
X84.684Y-38.964
X84.709Y-48.514
X87.884Y-38.989
X87.884Y-41.656
X90.424Y-38.989
X90.424Y-41.656
X92.964Y-38.989
X92.964Y-41.656
X95.504Y-38.989
X95.504Y-41.656
X98.044Y-38.989
X98.044Y-41.656
X100.584Y-38.989
X100.584Y-41.656
X103.124Y-38.989
X103.124Y-41.656
X105.664Y-38.989
X105.664Y-41.656
X111.887Y-91.948
X114.427Y-91.948
X116.967Y-91.948
X119.507Y-91.948
X121.666Y-39.497
X121.666Y-42.164
X121.666Y-44.831
X123.38Y-92.456
X123.38Y-95.123
X123.38Y-97.79
X124.206Y-39.497
X124.206Y-42.164
X124.206Y-44.831
X125.92Y-92.456
X125.92Y-95.123
X125.92Y-97.79
X126.746Y-39.497
X126.746Y-42.164
X126.746Y-44.831
X128.46Y-92.456
X128.46Y-95.123
X128.46Y-97.79
X129.286Y-39.497
X129.286Y-42.164
X129.286Y-44.831
X131.Y-92.456
X131.Y-95.123
X131.Y-97.79
X133.54Y-92.456
X133.54Y-95.123
X133.54Y-97.79
X133.655Y-50.241
X133.655Y-52.781
X133.655Y-55.321
X133.655Y-57.861
X133.655Y-60.401
X133.655Y-62.941
X136.081Y-92.456
X136.081Y-95.123
X136.081Y-97.79
X138.62Y-92.456
X138.62Y-95.123
X138.62Y-97.79
X139.09Y-50.292
X139.09Y-52.832
X139.09Y-55.372
X139.09Y-57.912
X139.09Y-60.452
X139.09Y-62.992
X139.09Y-65.532
X139.09Y-68.072
X141.16Y-92.456
X141.16Y-95.123
X141.16Y-97.79
X141.732Y-50.292
X141.732Y-52.832
X141.732Y-55.372
X141.732Y-57.912
X141.732Y-60.452
X141.732Y-62.992
X141.732Y-65.532
X141.732Y-68.072
T4
X114.656Y-71.222
X114.656Y-86.462
X117.196Y-71.222
X117.196Y-86.462
X133.706Y-71.222
X133.706Y-86.462
X136.246Y-71.222
X136.246Y-86.462
X138.786Y-71.222
X138.786Y-86.462
X141.326Y-71.222
X141.326Y-86.462
T5
X65.532Y-64.389
X65.532Y-66.929
X129.921Y-104.902
X132.461Y-104.902
T6
X88.176Y-99.862
X88.176Y-106.362
X92.676Y-99.862
X92.676Y-106.362
X113.157Y-39.296
X113.157Y-45.796
X117.657Y-39.296
X117.657Y-45.796
T7
X66.04Y-40.081
X91.48Y-91.712
X138.43Y-78.867
X139.7Y-40.081
X139.7Y-105.512
T0
M30
